<?xml version="1.0" encoding="utf-8" standalone="no"?>
<!DOCTYPE svg PUBLIC "-//W3C//DTD SVG 1.1//EN"
  "http://www.w3.org/Graphics/SVG/1.1/DTD/svg11.dtd">
<!-- Created with matplotlib (https://matplotlib.org/) -->
<svg height="169.462819pt" version="1.1" viewBox="0 0 1181.942364 169.462819" width="1181.942364pt" xmlns="http://www.w3.org/2000/svg" xmlns:xlink="http://www.w3.org/1999/xlink">
 <defs>
  <style type="text/css">
*{stroke-linecap:butt;stroke-linejoin:round;}
  </style>
 </defs>
 <g id="figure_1">
  <g id="patch_1">
   <path d="M 0 169.462819 
L 1181.942364 169.462819 
L 1181.942364 0 
L 0 0 
z
" style="fill:#ffffff;"/>
  </g>
  <g id="axes_1">
   <g id="patch_2">
    <path d="M 65.942364 123.492819 
L 308.55106 123.492819 
L 308.55106 5.318906 
L 65.942364 5.318906 
z
" style="fill:#ffffff;"/>
   </g>
   <g id="patch_3">
    <path clip-path="url(#pc5b59ca154)" d="M 50.517456 123.492819 
L 76.7398 123.492819 
L 76.7398 123.492819 
L 50.517456 123.492819 
z
" style="fill:#8172b3;opacity:0.4;"/>
   </g>
   <g id="patch_4">
    <path clip-path="url(#pc5b59ca154)" d="M 76.7398 123.492819 
L 102.962143 123.492819 
L 102.962143 123.492819 
L 76.7398 123.492819 
z
" style="fill:#8172b3;opacity:0.4;"/>
   </g>
   <g id="patch_5">
    <path clip-path="url(#pc5b59ca154)" d="M 102.962143 123.492819 
L 129.184487 123.492819 
L 129.184487 123.492819 
L 102.962143 123.492819 
z
" style="fill:#8172b3;opacity:0.4;"/>
   </g>
   <g id="patch_6">
    <path clip-path="url(#pc5b59ca154)" d="M 129.184487 123.492819 
L 155.406831 123.492819 
L 155.406831 123.492819 
L 129.184487 123.492819 
z
" style="fill:#8172b3;opacity:0.4;"/>
   </g>
   <g id="patch_7">
    <path clip-path="url(#pc5b59ca154)" d="M 155.406831 123.492819 
L 181.629174 123.492819 
L 181.629174 122.970942 
L 155.406831 122.970942 
z
" style="fill:#8172b3;opacity:0.4;"/>
   </g>
   <g id="patch_8">
    <path clip-path="url(#pc5b59ca154)" d="M 181.629174 123.492819 
L 207.851518 123.492819 
L 207.851518 120.518118 
L 181.629174 120.518118 
z
" style="fill:#8172b3;opacity:0.4;"/>
   </g>
   <g id="patch_9">
    <path clip-path="url(#pc5b59ca154)" d="M 207.851518 123.492819 
L 234.073861 123.492819 
L 234.073861 108.880253 
L 207.851518 108.880253 
z
" style="fill:#8172b3;opacity:0.4;"/>
   </g>
   <g id="patch_10">
    <path clip-path="url(#pc5b59ca154)" d="M 234.073861 123.492819 
L 260.296205 123.492819 
L 260.296205 52.099994 
L 234.073861 52.099994 
z
" style="fill:#8172b3;opacity:0.4;"/>
   </g>
   <g id="patch_11">
    <path clip-path="url(#pc5b59ca154)" d="M 260.296205 123.492819 
L 286.518549 123.492819 
L 286.518549 87.639844 
L 260.296205 87.639844 
z
" style="fill:#8172b3;opacity:0.4;"/>
   </g>
   <g id="patch_12">
    <path clip-path="url(#pc5b59ca154)" d="M 286.518549 123.492819 
L 312.740892 123.492819 
L 312.740892 111.802766 
L 286.518549 111.802766 
z
" style="fill:#8172b3;opacity:0.4;"/>
   </g>
   <g id="patch_13">
    <path clip-path="url(#pc5b59ca154)" d="M 312.740892 123.492819 
L 338.963236 123.492819 
L 338.963236 121.509685 
L 312.740892 121.509685 
z
" style="fill:#8172b3;opacity:0.4;"/>
   </g>
   <g id="patch_14">
    <path clip-path="url(#pc5b59ca154)" d="M 338.963236 123.492819 
L 365.185579 123.492819 
L 365.185579 123.492819 
L 338.963236 123.492819 
z
" style="fill:#8172b3;opacity:0.4;"/>
   </g>
   <g id="patch_15">
    <path clip-path="url(#pc5b59ca154)" d="M 365.185579 123.492819 
L 391.407923 123.492819 
L 391.407923 123.492819 
L 365.185579 123.492819 
z
" style="fill:#8172b3;opacity:0.4;"/>
   </g>
   <g id="patch_16">
    <path clip-path="url(#pc5b59ca154)" d="M 391.407923 123.492819 
L 417.630267 123.492819 
L 417.630267 123.492819 
L 391.407923 123.492819 
z
" style="fill:#8172b3;opacity:0.4;"/>
   </g>
   <g id="patch_17">
    <path clip-path="url(#pc5b59ca154)" d="M 417.630267 123.492819 
L 443.85261 123.492819 
L 443.85261 123.492819 
L 417.630267 123.492819 
z
" style="fill:#8172b3;opacity:0.4;"/>
   </g>
   <g id="patch_18">
    <path clip-path="url(#pc5b59ca154)" d="M 443.85261 123.492819 
L 470.074954 123.492819 
L 470.074954 123.492819 
L 443.85261 123.492819 
z
" style="fill:#8172b3;opacity:0.4;"/>
   </g>
   <g id="patch_19">
    <path clip-path="url(#pc5b59ca154)" d="M 470.074954 123.492819 
L 496.297298 123.492819 
L 496.297298 123.492819 
L 470.074954 123.492819 
z
" style="fill:#8172b3;opacity:0.4;"/>
   </g>
   <g id="patch_20">
    <path clip-path="url(#pc5b59ca154)" d="M 496.297298 123.492819 
L 522.519641 123.492819 
L 522.519641 123.492819 
L 496.297298 123.492819 
z
" style="fill:#8172b3;opacity:0.4;"/>
   </g>
   <g id="matplotlib.axis_1">
    <g id="xtick_1">
     <g id="line2d_1">
      <defs>
       <path d="M 0 0 
L 0 -10 
" id="m8eaa8544bd" style="stroke:#000000;stroke-width:3;"/>
      </defs>
      <g>
       <use style="stroke:#000000;stroke-width:3;" x="65.942364" xlink:href="#m8eaa8544bd" y="123.492819"/>
      </g>
     </g>
     <g id="text_1">
      <!-- 1 -->
      <defs>
       <path d="M 12.40625 8.296875 
L 28.515625 8.296875 
L 28.515625 63.921875 
L 10.984375 60.40625 
L 10.984375 69.390625 
L 28.421875 72.90625 
L 38.28125 72.90625 
L 38.28125 8.296875 
L 54.390625 8.296875 
L 54.390625 0 
L 12.40625 0 
z
" id="DejaVuSans-49"/>
      </defs>
      <g transform="translate(61.488614 144.130632)scale(0.14 -0.14)">
       <use xlink:href="#DejaVuSans-49"/>
      </g>
     </g>
    </g>
    <g id="xtick_2">
     <g id="line2d_2">
      <g>
       <use style="stroke:#000000;stroke-width:3;" x="168.423235" xlink:href="#m8eaa8544bd" y="123.492819"/>
      </g>
     </g>
     <g id="text_2">
      <!-- 10 -->
      <defs>
       <path d="M 31.78125 66.40625 
Q 24.171875 66.40625 20.328125 58.90625 
Q 16.5 51.421875 16.5 36.375 
Q 16.5 21.390625 20.328125 13.890625 
Q 24.171875 6.390625 31.78125 6.390625 
Q 39.453125 6.390625 43.28125 13.890625 
Q 47.125 21.390625 47.125 36.375 
Q 47.125 51.421875 43.28125 58.90625 
Q 39.453125 66.40625 31.78125 66.40625 
z
M 31.78125 74.21875 
Q 44.046875 74.21875 50.515625 64.515625 
Q 56.984375 54.828125 56.984375 36.375 
Q 56.984375 17.96875 50.515625 8.265625 
Q 44.046875 -1.421875 31.78125 -1.421875 
Q 19.53125 -1.421875 13.0625 8.265625 
Q 6.59375 17.96875 6.59375 36.375 
Q 6.59375 54.828125 13.0625 64.515625 
Q 19.53125 74.21875 31.78125 74.21875 
z
" id="DejaVuSans-48"/>
      </defs>
      <g transform="translate(159.515735 144.130632)scale(0.14 -0.14)">
       <use xlink:href="#DejaVuSans-49"/>
       <use x="63.623047" xlink:href="#DejaVuSans-48"/>
      </g>
     </g>
    </g>
    <g id="xtick_3">
     <g id="line2d_3">
      <g>
       <use style="stroke:#000000;stroke-width:3;" x="270.904105" xlink:href="#m8eaa8544bd" y="123.492819"/>
      </g>
     </g>
     <g id="text_3">
      <!-- 100 -->
      <g transform="translate(257.542855 144.130632)scale(0.14 -0.14)">
       <use xlink:href="#DejaVuSans-49"/>
       <use x="63.623047" xlink:href="#DejaVuSans-48"/>
       <use x="127.246094" xlink:href="#DejaVuSans-48"/>
      </g>
     </g>
    </g>
    <g id="xtick_4">
     <g id="line2d_4">
      <defs>
       <path d="M 0 0 
L 0 -5 
" id="m2e30eddf71" style="stroke:#000000;stroke-width:2;"/>
      </defs>
      <g>
       <use style="stroke:#000000;stroke-width:2;" x="65.942364" xlink:href="#m2e30eddf71" y="123.492819"/>
      </g>
     </g>
    </g>
    <g id="xtick_5">
     <g id="line2d_5">
      <g>
       <use style="stroke:#000000;stroke-width:2;" x="96.79218" xlink:href="#m2e30eddf71" y="123.492819"/>
      </g>
     </g>
    </g>
    <g id="xtick_6">
     <g id="line2d_6">
      <g>
       <use style="stroke:#000000;stroke-width:2;" x="114.838166" xlink:href="#m2e30eddf71" y="123.492819"/>
      </g>
     </g>
    </g>
    <g id="xtick_7">
     <g id="line2d_7">
      <g>
       <use style="stroke:#000000;stroke-width:2;" x="127.641996" xlink:href="#m2e30eddf71" y="123.492819"/>
      </g>
     </g>
    </g>
    <g id="xtick_8">
     <g id="line2d_8">
      <g>
       <use style="stroke:#000000;stroke-width:2;" x="137.573419" xlink:href="#m2e30eddf71" y="123.492819"/>
      </g>
     </g>
    </g>
    <g id="xtick_9">
     <g id="line2d_9">
      <g>
       <use style="stroke:#000000;stroke-width:2;" x="145.687982" xlink:href="#m2e30eddf71" y="123.492819"/>
      </g>
     </g>
    </g>
    <g id="xtick_10">
     <g id="line2d_10">
      <g>
       <use style="stroke:#000000;stroke-width:2;" x="152.548747" xlink:href="#m2e30eddf71" y="123.492819"/>
      </g>
     </g>
    </g>
    <g id="xtick_11">
     <g id="line2d_11">
      <g>
       <use style="stroke:#000000;stroke-width:2;" x="158.491812" xlink:href="#m2e30eddf71" y="123.492819"/>
      </g>
     </g>
    </g>
    <g id="xtick_12">
     <g id="line2d_12">
      <g>
       <use style="stroke:#000000;stroke-width:2;" x="163.733967" xlink:href="#m2e30eddf71" y="123.492819"/>
      </g>
     </g>
    </g>
    <g id="xtick_13">
     <g id="line2d_13">
      <g>
       <use style="stroke:#000000;stroke-width:2;" x="168.423235" xlink:href="#m2e30eddf71" y="123.492819"/>
      </g>
     </g>
    </g>
    <g id="xtick_14">
     <g id="line2d_14">
      <g>
       <use style="stroke:#000000;stroke-width:2;" x="199.273051" xlink:href="#m2e30eddf71" y="123.492819"/>
      </g>
     </g>
    </g>
    <g id="xtick_15">
     <g id="line2d_15">
      <g>
       <use style="stroke:#000000;stroke-width:2;" x="217.319036" xlink:href="#m2e30eddf71" y="123.492819"/>
      </g>
     </g>
    </g>
    <g id="xtick_16">
     <g id="line2d_16">
      <g>
       <use style="stroke:#000000;stroke-width:2;" x="230.122867" xlink:href="#m2e30eddf71" y="123.492819"/>
      </g>
     </g>
    </g>
    <g id="xtick_17">
     <g id="line2d_17">
      <g>
       <use style="stroke:#000000;stroke-width:2;" x="240.054289" xlink:href="#m2e30eddf71" y="123.492819"/>
      </g>
     </g>
    </g>
    <g id="xtick_18">
     <g id="line2d_18">
      <g>
       <use style="stroke:#000000;stroke-width:2;" x="248.168852" xlink:href="#m2e30eddf71" y="123.492819"/>
      </g>
     </g>
    </g>
    <g id="xtick_19">
     <g id="line2d_19">
      <g>
       <use style="stroke:#000000;stroke-width:2;" x="255.029617" xlink:href="#m2e30eddf71" y="123.492819"/>
      </g>
     </g>
    </g>
    <g id="xtick_20">
     <g id="line2d_20">
      <g>
       <use style="stroke:#000000;stroke-width:2;" x="260.972683" xlink:href="#m2e30eddf71" y="123.492819"/>
      </g>
     </g>
    </g>
    <g id="xtick_21">
     <g id="line2d_21">
      <g>
       <use style="stroke:#000000;stroke-width:2;" x="266.214838" xlink:href="#m2e30eddf71" y="123.492819"/>
      </g>
     </g>
    </g>
    <g id="xtick_22">
     <g id="line2d_22">
      <g>
       <use style="stroke:#000000;stroke-width:2;" x="270.904105" xlink:href="#m2e30eddf71" y="123.492819"/>
      </g>
     </g>
    </g>
    <g id="xtick_23">
     <g id="line2d_23">
      <g>
       <use style="stroke:#000000;stroke-width:2;" x="301.753921" xlink:href="#m2e30eddf71" y="123.492819"/>
      </g>
     </g>
    </g>
    <g id="text_4">
     <!-- Bout length (syllables) -->
     <defs>
      <path d="M 19.671875 34.8125 
L 19.671875 8.109375 
L 35.5 8.109375 
Q 43.453125 8.109375 47.28125 11.40625 
Q 51.125 14.703125 51.125 21.484375 
Q 51.125 28.328125 47.28125 31.5625 
Q 43.453125 34.8125 35.5 34.8125 
z
M 19.671875 64.796875 
L 19.671875 42.828125 
L 34.28125 42.828125 
Q 41.5 42.828125 45.03125 45.53125 
Q 48.578125 48.25 48.578125 53.8125 
Q 48.578125 59.328125 45.03125 62.0625 
Q 41.5 64.796875 34.28125 64.796875 
z
M 9.8125 72.90625 
L 35.015625 72.90625 
Q 46.296875 72.90625 52.390625 68.21875 
Q 58.5 63.53125 58.5 54.890625 
Q 58.5 48.1875 55.375 44.234375 
Q 52.25 40.28125 46.1875 39.3125 
Q 53.46875 37.75 57.5 32.78125 
Q 61.53125 27.828125 61.53125 20.40625 
Q 61.53125 10.640625 54.890625 5.3125 
Q 48.25 0 35.984375 0 
L 9.8125 0 
z
" id="DejaVuSans-66"/>
      <path d="M 30.609375 48.390625 
Q 23.390625 48.390625 19.1875 42.75 
Q 14.984375 37.109375 14.984375 27.296875 
Q 14.984375 17.484375 19.15625 11.84375 
Q 23.34375 6.203125 30.609375 6.203125 
Q 37.796875 6.203125 41.984375 11.859375 
Q 46.1875 17.53125 46.1875 27.296875 
Q 46.1875 37.015625 41.984375 42.703125 
Q 37.796875 48.390625 30.609375 48.390625 
z
M 30.609375 56 
Q 42.328125 56 49.015625 48.375 
Q 55.71875 40.765625 55.71875 27.296875 
Q 55.71875 13.875 49.015625 6.21875 
Q 42.328125 -1.421875 30.609375 -1.421875 
Q 18.84375 -1.421875 12.171875 6.21875 
Q 5.515625 13.875 5.515625 27.296875 
Q 5.515625 40.765625 12.171875 48.375 
Q 18.84375 56 30.609375 56 
z
" id="DejaVuSans-111"/>
      <path d="M 8.5 21.578125 
L 8.5 54.6875 
L 17.484375 54.6875 
L 17.484375 21.921875 
Q 17.484375 14.15625 20.5 10.265625 
Q 23.53125 6.390625 29.59375 6.390625 
Q 36.859375 6.390625 41.078125 11.03125 
Q 45.3125 15.671875 45.3125 23.6875 
L 45.3125 54.6875 
L 54.296875 54.6875 
L 54.296875 0 
L 45.3125 0 
L 45.3125 8.40625 
Q 42.046875 3.421875 37.71875 1 
Q 33.40625 -1.421875 27.6875 -1.421875 
Q 18.265625 -1.421875 13.375 4.4375 
Q 8.5 10.296875 8.5 21.578125 
z
M 31.109375 56 
z
" id="DejaVuSans-117"/>
      <path d="M 18.3125 70.21875 
L 18.3125 54.6875 
L 36.8125 54.6875 
L 36.8125 47.703125 
L 18.3125 47.703125 
L 18.3125 18.015625 
Q 18.3125 11.328125 20.140625 9.421875 
Q 21.96875 7.515625 27.59375 7.515625 
L 36.8125 7.515625 
L 36.8125 0 
L 27.59375 0 
Q 17.1875 0 13.234375 3.875 
Q 9.28125 7.765625 9.28125 18.015625 
L 9.28125 47.703125 
L 2.6875 47.703125 
L 2.6875 54.6875 
L 9.28125 54.6875 
L 9.28125 70.21875 
z
" id="DejaVuSans-116"/>
      <path id="DejaVuSans-32"/>
      <path d="M 9.421875 75.984375 
L 18.40625 75.984375 
L 18.40625 0 
L 9.421875 0 
z
" id="DejaVuSans-108"/>
      <path d="M 56.203125 29.59375 
L 56.203125 25.203125 
L 14.890625 25.203125 
Q 15.484375 15.921875 20.484375 11.0625 
Q 25.484375 6.203125 34.421875 6.203125 
Q 39.59375 6.203125 44.453125 7.46875 
Q 49.3125 8.734375 54.109375 11.28125 
L 54.109375 2.78125 
Q 49.265625 0.734375 44.1875 -0.34375 
Q 39.109375 -1.421875 33.890625 -1.421875 
Q 20.796875 -1.421875 13.15625 6.1875 
Q 5.515625 13.8125 5.515625 26.8125 
Q 5.515625 40.234375 12.765625 48.109375 
Q 20.015625 56 32.328125 56 
Q 43.359375 56 49.78125 48.890625 
Q 56.203125 41.796875 56.203125 29.59375 
z
M 47.21875 32.234375 
Q 47.125 39.59375 43.09375 43.984375 
Q 39.0625 48.390625 32.421875 48.390625 
Q 24.90625 48.390625 20.390625 44.140625 
Q 15.875 39.890625 15.1875 32.171875 
z
" id="DejaVuSans-101"/>
      <path d="M 54.890625 33.015625 
L 54.890625 0 
L 45.90625 0 
L 45.90625 32.71875 
Q 45.90625 40.484375 42.875 44.328125 
Q 39.84375 48.1875 33.796875 48.1875 
Q 26.515625 48.1875 22.3125 43.546875 
Q 18.109375 38.921875 18.109375 30.90625 
L 18.109375 0 
L 9.078125 0 
L 9.078125 54.6875 
L 18.109375 54.6875 
L 18.109375 46.1875 
Q 21.34375 51.125 25.703125 53.5625 
Q 30.078125 56 35.796875 56 
Q 45.21875 56 50.046875 50.171875 
Q 54.890625 44.34375 54.890625 33.015625 
z
" id="DejaVuSans-110"/>
      <path d="M 45.40625 27.984375 
Q 45.40625 37.75 41.375 43.109375 
Q 37.359375 48.484375 30.078125 48.484375 
Q 22.859375 48.484375 18.828125 43.109375 
Q 14.796875 37.75 14.796875 27.984375 
Q 14.796875 18.265625 18.828125 12.890625 
Q 22.859375 7.515625 30.078125 7.515625 
Q 37.359375 7.515625 41.375 12.890625 
Q 45.40625 18.265625 45.40625 27.984375 
z
M 54.390625 6.78125 
Q 54.390625 -7.171875 48.1875 -13.984375 
Q 42 -20.796875 29.203125 -20.796875 
Q 24.46875 -20.796875 20.265625 -20.09375 
Q 16.0625 -19.390625 12.109375 -17.921875 
L 12.109375 -9.1875 
Q 16.0625 -11.328125 19.921875 -12.34375 
Q 23.78125 -13.375 27.78125 -13.375 
Q 36.625 -13.375 41.015625 -8.765625 
Q 45.40625 -4.15625 45.40625 5.171875 
L 45.40625 9.625 
Q 42.625 4.78125 38.28125 2.390625 
Q 33.9375 0 27.875 0 
Q 17.828125 0 11.671875 7.65625 
Q 5.515625 15.328125 5.515625 27.984375 
Q 5.515625 40.671875 11.671875 48.328125 
Q 17.828125 56 27.875 56 
Q 33.9375 56 38.28125 53.609375 
Q 42.625 51.21875 45.40625 46.390625 
L 45.40625 54.6875 
L 54.390625 54.6875 
z
" id="DejaVuSans-103"/>
      <path d="M 54.890625 33.015625 
L 54.890625 0 
L 45.90625 0 
L 45.90625 32.71875 
Q 45.90625 40.484375 42.875 44.328125 
Q 39.84375 48.1875 33.796875 48.1875 
Q 26.515625 48.1875 22.3125 43.546875 
Q 18.109375 38.921875 18.109375 30.90625 
L 18.109375 0 
L 9.078125 0 
L 9.078125 75.984375 
L 18.109375 75.984375 
L 18.109375 46.1875 
Q 21.34375 51.125 25.703125 53.5625 
Q 30.078125 56 35.796875 56 
Q 45.21875 56 50.046875 50.171875 
Q 54.890625 44.34375 54.890625 33.015625 
z
" id="DejaVuSans-104"/>
      <path d="M 31 75.875 
Q 24.46875 64.65625 21.28125 53.65625 
Q 18.109375 42.671875 18.109375 31.390625 
Q 18.109375 20.125 21.3125 9.0625 
Q 24.515625 -2 31 -13.1875 
L 23.1875 -13.1875 
Q 15.875 -1.703125 12.234375 9.375 
Q 8.59375 20.453125 8.59375 31.390625 
Q 8.59375 42.28125 12.203125 53.3125 
Q 15.828125 64.359375 23.1875 75.875 
z
" id="DejaVuSans-40"/>
      <path d="M 44.28125 53.078125 
L 44.28125 44.578125 
Q 40.484375 46.53125 36.375 47.5 
Q 32.28125 48.484375 27.875 48.484375 
Q 21.1875 48.484375 17.84375 46.4375 
Q 14.5 44.390625 14.5 40.28125 
Q 14.5 37.15625 16.890625 35.375 
Q 19.28125 33.59375 26.515625 31.984375 
L 29.59375 31.296875 
Q 39.15625 29.25 43.1875 25.515625 
Q 47.21875 21.78125 47.21875 15.09375 
Q 47.21875 7.46875 41.1875 3.015625 
Q 35.15625 -1.421875 24.609375 -1.421875 
Q 20.21875 -1.421875 15.453125 -0.5625 
Q 10.6875 0.296875 5.421875 2 
L 5.421875 11.28125 
Q 10.40625 8.6875 15.234375 7.390625 
Q 20.0625 6.109375 24.8125 6.109375 
Q 31.15625 6.109375 34.5625 8.28125 
Q 37.984375 10.453125 37.984375 14.40625 
Q 37.984375 18.0625 35.515625 20.015625 
Q 33.0625 21.96875 24.703125 23.78125 
L 21.578125 24.515625 
Q 13.234375 26.265625 9.515625 29.90625 
Q 5.8125 33.546875 5.8125 39.890625 
Q 5.8125 47.609375 11.28125 51.796875 
Q 16.75 56 26.8125 56 
Q 31.78125 56 36.171875 55.265625 
Q 40.578125 54.546875 44.28125 53.078125 
z
" id="DejaVuSans-115"/>
      <path d="M 32.171875 -5.078125 
Q 28.375 -14.84375 24.75 -17.8125 
Q 21.140625 -20.796875 15.09375 -20.796875 
L 7.90625 -20.796875 
L 7.90625 -13.28125 
L 13.1875 -13.28125 
Q 16.890625 -13.28125 18.9375 -11.515625 
Q 21 -9.765625 23.484375 -3.21875 
L 25.09375 0.875 
L 2.984375 54.6875 
L 12.5 54.6875 
L 29.59375 11.921875 
L 46.6875 54.6875 
L 56.203125 54.6875 
z
" id="DejaVuSans-121"/>
      <path d="M 34.28125 27.484375 
Q 23.390625 27.484375 19.1875 25 
Q 14.984375 22.515625 14.984375 16.5 
Q 14.984375 11.71875 18.140625 8.90625 
Q 21.296875 6.109375 26.703125 6.109375 
Q 34.1875 6.109375 38.703125 11.40625 
Q 43.21875 16.703125 43.21875 25.484375 
L 43.21875 27.484375 
z
M 52.203125 31.203125 
L 52.203125 0 
L 43.21875 0 
L 43.21875 8.296875 
Q 40.140625 3.328125 35.546875 0.953125 
Q 30.953125 -1.421875 24.3125 -1.421875 
Q 15.921875 -1.421875 10.953125 3.296875 
Q 6 8.015625 6 15.921875 
Q 6 25.140625 12.171875 29.828125 
Q 18.359375 34.515625 30.609375 34.515625 
L 43.21875 34.515625 
L 43.21875 35.40625 
Q 43.21875 41.609375 39.140625 45 
Q 35.0625 48.390625 27.6875 48.390625 
Q 23 48.390625 18.546875 47.265625 
Q 14.109375 46.140625 10.015625 43.890625 
L 10.015625 52.203125 
Q 14.9375 54.109375 19.578125 55.046875 
Q 24.21875 56 28.609375 56 
Q 40.484375 56 46.34375 49.84375 
Q 52.203125 43.703125 52.203125 31.203125 
z
" id="DejaVuSans-97"/>
      <path d="M 48.6875 27.296875 
Q 48.6875 37.203125 44.609375 42.84375 
Q 40.53125 48.484375 33.40625 48.484375 
Q 26.265625 48.484375 22.1875 42.84375 
Q 18.109375 37.203125 18.109375 27.296875 
Q 18.109375 17.390625 22.1875 11.75 
Q 26.265625 6.109375 33.40625 6.109375 
Q 40.53125 6.109375 44.609375 11.75 
Q 48.6875 17.390625 48.6875 27.296875 
z
M 18.109375 46.390625 
Q 20.953125 51.265625 25.265625 53.625 
Q 29.59375 56 35.59375 56 
Q 45.5625 56 51.78125 48.09375 
Q 58.015625 40.1875 58.015625 27.296875 
Q 58.015625 14.40625 51.78125 6.484375 
Q 45.5625 -1.421875 35.59375 -1.421875 
Q 29.59375 -1.421875 25.265625 0.953125 
Q 20.953125 3.328125 18.109375 8.203125 
L 18.109375 0 
L 9.078125 0 
L 9.078125 75.984375 
L 18.109375 75.984375 
z
" id="DejaVuSans-98"/>
      <path d="M 8.015625 75.875 
L 15.828125 75.875 
Q 23.140625 64.359375 26.78125 53.3125 
Q 30.421875 42.28125 30.421875 31.390625 
Q 30.421875 20.453125 26.78125 9.375 
Q 23.140625 -1.703125 15.828125 -13.1875 
L 8.015625 -13.1875 
Q 14.5 -2 17.703125 9.0625 
Q 20.90625 20.125 20.90625 31.390625 
Q 20.90625 42.671875 17.703125 53.65625 
Q 14.5 64.65625 8.015625 75.875 
z
" id="DejaVuSans-41"/>
     </defs>
     <g transform="translate(85.930618 165.719382)scale(0.18 -0.18)">
      <use xlink:href="#DejaVuSans-66"/>
      <use x="68.603516" xlink:href="#DejaVuSans-111"/>
      <use x="129.785156" xlink:href="#DejaVuSans-117"/>
      <use x="193.164062" xlink:href="#DejaVuSans-116"/>
      <use x="232.373047" xlink:href="#DejaVuSans-32"/>
      <use x="264.160156" xlink:href="#DejaVuSans-108"/>
      <use x="291.943359" xlink:href="#DejaVuSans-101"/>
      <use x="353.466797" xlink:href="#DejaVuSans-110"/>
      <use x="416.845703" xlink:href="#DejaVuSans-103"/>
      <use x="480.322266" xlink:href="#DejaVuSans-116"/>
      <use x="519.53125" xlink:href="#DejaVuSans-104"/>
      <use x="582.910156" xlink:href="#DejaVuSans-32"/>
      <use x="614.697266" xlink:href="#DejaVuSans-40"/>
      <use x="653.710938" xlink:href="#DejaVuSans-115"/>
      <use x="705.810547" xlink:href="#DejaVuSans-121"/>
      <use x="764.990234" xlink:href="#DejaVuSans-108"/>
      <use x="792.773438" xlink:href="#DejaVuSans-108"/>
      <use x="820.556641" xlink:href="#DejaVuSans-97"/>
      <use x="881.835938" xlink:href="#DejaVuSans-98"/>
      <use x="945.3125" xlink:href="#DejaVuSans-108"/>
      <use x="973.095703" xlink:href="#DejaVuSans-101"/>
      <use x="1034.619141" xlink:href="#DejaVuSans-115"/>
      <use x="1086.71875" xlink:href="#DejaVuSans-41"/>
     </g>
    </g>
   </g>
   <g id="matplotlib.axis_2">
    <g id="ytick_1">
     <g id="line2d_24">
      <defs>
       <path d="M 0 0 
L 10 0 
" id="m699bf12d97" style="stroke:#000000;stroke-width:3;"/>
      </defs>
      <g>
       <use style="stroke:#000000;stroke-width:3;" x="65.942364" xlink:href="#m699bf12d97" y="123.492819"/>
      </g>
     </g>
     <g id="text_5">
      <!-- 0.00 -->
      <defs>
       <path d="M 10.6875 12.40625 
L 21 12.40625 
L 21 0 
L 10.6875 0 
z
" id="DejaVuSans-46"/>
      </defs>
      <g transform="translate(24.770489 128.811726)scale(0.14 -0.14)">
       <use xlink:href="#DejaVuSans-48"/>
       <use x="63.623047" xlink:href="#DejaVuSans-46"/>
       <use x="95.410156" xlink:href="#DejaVuSans-48"/>
       <use x="159.033203" xlink:href="#DejaVuSans-48"/>
      </g>
     </g>
    </g>
    <g id="ytick_2">
     <g id="line2d_25">
      <g>
       <use style="stroke:#000000;stroke-width:3;" x="65.942364" xlink:href="#m699bf12d97" y="93.949341"/>
      </g>
     </g>
     <g id="text_6">
      <!-- 0.25 -->
      <defs>
       <path d="M 19.1875 8.296875 
L 53.609375 8.296875 
L 53.609375 0 
L 7.328125 0 
L 7.328125 8.296875 
Q 12.9375 14.109375 22.625 23.890625 
Q 32.328125 33.6875 34.8125 36.53125 
Q 39.546875 41.84375 41.421875 45.53125 
Q 43.3125 49.21875 43.3125 52.78125 
Q 43.3125 58.59375 39.234375 62.25 
Q 35.15625 65.921875 28.609375 65.921875 
Q 23.96875 65.921875 18.8125 64.3125 
Q 13.671875 62.703125 7.8125 59.421875 
L 7.8125 69.390625 
Q 13.765625 71.78125 18.9375 73 
Q 24.125 74.21875 28.421875 74.21875 
Q 39.75 74.21875 46.484375 68.546875 
Q 53.21875 62.890625 53.21875 53.421875 
Q 53.21875 48.921875 51.53125 44.890625 
Q 49.859375 40.875 45.40625 35.40625 
Q 44.1875 33.984375 37.640625 27.21875 
Q 31.109375 20.453125 19.1875 8.296875 
z
" id="DejaVuSans-50"/>
       <path d="M 10.796875 72.90625 
L 49.515625 72.90625 
L 49.515625 64.59375 
L 19.828125 64.59375 
L 19.828125 46.734375 
Q 21.96875 47.46875 24.109375 47.828125 
Q 26.265625 48.1875 28.421875 48.1875 
Q 40.625 48.1875 47.75 41.5 
Q 54.890625 34.8125 54.890625 23.390625 
Q 54.890625 11.625 47.5625 5.09375 
Q 40.234375 -1.421875 26.90625 -1.421875 
Q 22.3125 -1.421875 17.546875 -0.640625 
Q 12.796875 0.140625 7.71875 1.703125 
L 7.71875 11.625 
Q 12.109375 9.234375 16.796875 8.0625 
Q 21.484375 6.890625 26.703125 6.890625 
Q 35.15625 6.890625 40.078125 11.328125 
Q 45.015625 15.765625 45.015625 23.390625 
Q 45.015625 31 40.078125 35.4375 
Q 35.15625 39.890625 26.703125 39.890625 
Q 22.75 39.890625 18.8125 39.015625 
Q 14.890625 38.140625 10.796875 36.28125 
z
" id="DejaVuSans-53"/>
      </defs>
      <g transform="translate(24.770489 99.268247)scale(0.14 -0.14)">
       <use xlink:href="#DejaVuSans-48"/>
       <use x="63.623047" xlink:href="#DejaVuSans-46"/>
       <use x="95.410156" xlink:href="#DejaVuSans-50"/>
       <use x="159.033203" xlink:href="#DejaVuSans-53"/>
      </g>
     </g>
    </g>
    <g id="ytick_3">
     <g id="line2d_26">
      <g>
       <use style="stroke:#000000;stroke-width:3;" x="65.942364" xlink:href="#m699bf12d97" y="64.405863"/>
      </g>
     </g>
     <g id="text_7">
      <!-- 0.50 -->
      <g transform="translate(24.770489 69.724769)scale(0.14 -0.14)">
       <use xlink:href="#DejaVuSans-48"/>
       <use x="63.623047" xlink:href="#DejaVuSans-46"/>
       <use x="95.410156" xlink:href="#DejaVuSans-53"/>
       <use x="159.033203" xlink:href="#DejaVuSans-48"/>
      </g>
     </g>
    </g>
    <g id="ytick_4">
     <g id="line2d_27">
      <g>
       <use style="stroke:#000000;stroke-width:3;" x="65.942364" xlink:href="#m699bf12d97" y="34.862385"/>
      </g>
     </g>
     <g id="text_8">
      <!-- 0.75 -->
      <defs>
       <path d="M 8.203125 72.90625 
L 55.078125 72.90625 
L 55.078125 68.703125 
L 28.609375 0 
L 18.3125 0 
L 43.21875 64.59375 
L 8.203125 64.59375 
z
" id="DejaVuSans-55"/>
      </defs>
      <g transform="translate(24.770489 40.181291)scale(0.14 -0.14)">
       <use xlink:href="#DejaVuSans-48"/>
       <use x="63.623047" xlink:href="#DejaVuSans-46"/>
       <use x="95.410156" xlink:href="#DejaVuSans-55"/>
       <use x="159.033203" xlink:href="#DejaVuSans-53"/>
      </g>
     </g>
    </g>
    <g id="ytick_5">
     <g id="line2d_28">
      <g>
       <use style="stroke:#000000;stroke-width:3;" x="65.942364" xlink:href="#m699bf12d97" y="5.318906"/>
      </g>
     </g>
     <g id="text_9">
      <!-- 1.00 -->
      <g transform="translate(24.770489 10.637812)scale(0.14 -0.14)">
       <use xlink:href="#DejaVuSans-49"/>
       <use x="63.623047" xlink:href="#DejaVuSans-46"/>
       <use x="95.410156" xlink:href="#DejaVuSans-48"/>
       <use x="159.033203" xlink:href="#DejaVuSans-48"/>
      </g>
     </g>
    </g>
    <g id="text_10">
     <!-- Prob. Density -->
     <defs>
      <path d="M 19.671875 64.796875 
L 19.671875 37.40625 
L 32.078125 37.40625 
Q 38.96875 37.40625 42.71875 40.96875 
Q 46.484375 44.53125 46.484375 51.125 
Q 46.484375 57.671875 42.71875 61.234375 
Q 38.96875 64.796875 32.078125 64.796875 
z
M 9.8125 72.90625 
L 32.078125 72.90625 
Q 44.34375 72.90625 50.609375 67.359375 
Q 56.890625 61.8125 56.890625 51.125 
Q 56.890625 40.328125 50.609375 34.8125 
Q 44.34375 29.296875 32.078125 29.296875 
L 19.671875 29.296875 
L 19.671875 0 
L 9.8125 0 
z
" id="DejaVuSans-80"/>
      <path d="M 41.109375 46.296875 
Q 39.59375 47.171875 37.8125 47.578125 
Q 36.03125 48 33.890625 48 
Q 26.265625 48 22.1875 43.046875 
Q 18.109375 38.09375 18.109375 28.8125 
L 18.109375 0 
L 9.078125 0 
L 9.078125 54.6875 
L 18.109375 54.6875 
L 18.109375 46.1875 
Q 20.953125 51.171875 25.484375 53.578125 
Q 30.03125 56 36.53125 56 
Q 37.453125 56 38.578125 55.875 
Q 39.703125 55.765625 41.0625 55.515625 
z
" id="DejaVuSans-114"/>
      <path d="M 19.671875 64.796875 
L 19.671875 8.109375 
L 31.59375 8.109375 
Q 46.6875 8.109375 53.6875 14.9375 
Q 60.6875 21.78125 60.6875 36.53125 
Q 60.6875 51.171875 53.6875 57.984375 
Q 46.6875 64.796875 31.59375 64.796875 
z
M 9.8125 72.90625 
L 30.078125 72.90625 
Q 51.265625 72.90625 61.171875 64.09375 
Q 71.09375 55.28125 71.09375 36.53125 
Q 71.09375 17.671875 61.125 8.828125 
Q 51.171875 0 30.078125 0 
L 9.8125 0 
z
" id="DejaVuSans-68"/>
      <path d="M 9.421875 54.6875 
L 18.40625 54.6875 
L 18.40625 0 
L 9.421875 0 
z
M 9.421875 75.984375 
L 18.40625 75.984375 
L 18.40625 64.59375 
L 9.421875 64.59375 
z
" id="DejaVuSans-105"/>
     </defs>
     <g transform="translate(13.677187 124.684769)rotate(-90)scale(0.18 -0.18)">
      <use xlink:href="#DejaVuSans-80"/>
      <use x="60.287109" xlink:href="#DejaVuSans-114"/>
      <use x="101.369141" xlink:href="#DejaVuSans-111"/>
      <use x="162.550781" xlink:href="#DejaVuSans-98"/>
      <use x="226.027344" xlink:href="#DejaVuSans-46"/>
      <use x="257.814453" xlink:href="#DejaVuSans-32"/>
      <use x="289.601562" xlink:href="#DejaVuSans-68"/>
      <use x="366.603516" xlink:href="#DejaVuSans-101"/>
      <use x="428.126953" xlink:href="#DejaVuSans-110"/>
      <use x="491.505859" xlink:href="#DejaVuSans-115"/>
      <use x="543.605469" xlink:href="#DejaVuSans-105"/>
      <use x="571.388672" xlink:href="#DejaVuSans-116"/>
      <use x="610.597656" xlink:href="#DejaVuSans-121"/>
     </g>
    </g>
   </g>
   <g id="line2d_29">
    <path clip-path="url(#pc5b59ca154)" d="M 135.35445 123.491156 
L 152.690163 123.39211 
L 166.558734 123.059391 
L 173.493019 122.710444 
L 178.693733 122.245104 
L 202.963731 119.502858 
L 206.430874 118.753696 
L 208.164445 118.231993 
L 209.898017 117.582437 
L 211.631588 116.781681 
L 213.365159 115.805689 
L 215.09873 114.629589 
L 216.832302 113.227461 
L 218.565873 111.572391 
L 220.299444 109.637184 
L 222.033016 107.396091 
L 223.766587 104.82752 
L 225.500158 101.917285 
L 227.23373 98.661596 
L 228.967301 95.069099 
L 230.700872 91.161779 
L 234.168015 82.559332 
L 242.835871 59.927505 
L 244.569443 56.074912 
L 246.303014 52.730818 
L 248.036585 49.995794 
L 249.770157 47.948725 
L 251.503728 46.647281 
L 253.237299 46.131455 
L 254.970871 46.427531 
L 256.704442 47.549864 
L 258.438013 49.49902 
L 260.171585 52.256329 
L 261.905156 55.776436 
L 263.638727 59.98032 
L 265.372298 64.751491 
L 268.839441 75.357959 
L 272.306584 86.124996 
L 274.040155 91.107388 
L 275.773726 95.627767 
L 277.507298 99.592597 
L 279.240869 102.954477 
L 280.97444 105.708465 
L 282.708012 107.883995 
L 284.441583 109.534594 
L 286.175154 110.727523 
L 287.908726 111.534955 
L 289.642297 112.027678 
L 291.375868 112.271666 
L 293.109439 112.327317 
L 296.576582 112.095564 
L 300.043725 111.764548 
L 301.777296 111.695088 
L 303.510867 111.754922 
L 305.244439 111.981821 
L 306.97801 112.39835 
L 308.711581 113.007958 
L 310.445153 113.793674 
L 313.912295 115.738202 
L 319.113009 118.803427 
L 322.580152 120.440831 
L 326.047294 121.604827 
L 329.514437 122.361828 
L 332.98158 122.836317 
L 338.182294 123.232834 
L 345.116579 123.440808 
L 355.518007 123.490857 
L 355.518007 123.490857 
" style="fill:none;stroke:#8172b3;stroke-linecap:square;stroke-width:6;"/>
   </g>
   <g id="line2d_30">
    <path clip-path="url(#pc5b59ca154)" d="M 253.739473 123.492819 
L 253.739473 5.318906 
" style="fill:none;stroke:#8172b3;stroke-dasharray:11.1,4.8;stroke-dashoffset:0;stroke-opacity:0.5;stroke-width:3;"/>
   </g>
   <g id="patch_21">
    <path d="M 65.942364 123.492819 
L 65.942364 5.318906 
" style="fill:none;stroke:#000000;stroke-linecap:square;stroke-linejoin:miter;stroke-width:3;"/>
   </g>
   <g id="patch_22">
    <path d="M 308.55106 123.492819 
L 308.55106 5.318906 
" style="fill:none;stroke:#000000;stroke-linecap:square;stroke-linejoin:miter;stroke-width:3;"/>
   </g>
   <g id="patch_23">
    <path d="M 65.942364 123.492819 
L 308.55106 123.492819 
" style="fill:none;stroke:#000000;stroke-linecap:square;stroke-linejoin:miter;stroke-width:3;"/>
   </g>
   <g id="patch_24">
    <path d="M 65.942364 5.318906 
L 308.55106 5.318906 
" style="fill:none;stroke:#000000;stroke-linecap:square;stroke-linejoin:miter;stroke-width:3;"/>
   </g>
  </g>
  <g id="axes_2">
   <g id="patch_25">
    <path d="M 357.072799 123.492819 
L 599.681495 123.492819 
L 599.681495 5.318906 
L 357.072799 5.318906 
z
" style="fill:#ffffff;"/>
   </g>
   <g id="patch_26">
    <path clip-path="url(#p20ad92f0c9)" d="M 339.771356 123.492819 
L 369.183809 123.492819 
L 369.183809 123.492819 
L 339.771356 123.492819 
z
" style="fill:#03a596;opacity:0.4;"/>
   </g>
   <g id="patch_27">
    <path clip-path="url(#p20ad92f0c9)" d="M 369.183809 123.492819 
L 398.596262 123.492819 
L 398.596262 123.492819 
L 369.183809 123.492819 
z
" style="fill:#03a596;opacity:0.4;"/>
   </g>
   <g id="patch_28">
    <path clip-path="url(#p20ad92f0c9)" d="M 398.596262 123.492819 
L 428.008715 123.492819 
L 428.008715 118.093668 
L 398.596262 118.093668 
z
" style="fill:#03a596;opacity:0.4;"/>
   </g>
   <g id="patch_29">
    <path clip-path="url(#p20ad92f0c9)" d="M 428.008715 123.492819 
L 457.421168 123.492819 
L 457.421168 120.793244 
L 428.008715 120.793244 
z
" style="fill:#03a596;opacity:0.4;"/>
   </g>
   <g id="patch_30">
    <path clip-path="url(#p20ad92f0c9)" d="M 457.421168 123.492819 
L 486.83362 123.492819 
L 486.83362 119.443456 
L 457.421168 119.443456 
z
" style="fill:#03a596;opacity:0.4;"/>
   </g>
   <g id="patch_31">
    <path clip-path="url(#p20ad92f0c9)" d="M 486.83362 123.492819 
L 516.246073 123.492819 
L 516.246073 114.044305 
L 486.83362 114.044305 
z
" style="fill:#03a596;opacity:0.4;"/>
   </g>
   <g id="patch_32">
    <path clip-path="url(#p20ad92f0c9)" d="M 516.246073 123.492819 
L 545.658526 123.492819 
L 545.658526 105.945579 
L 516.246073 105.945579 
z
" style="fill:#03a596;opacity:0.4;"/>
   </g>
   <g id="patch_33">
    <path clip-path="url(#p20ad92f0c9)" d="M 545.658526 123.492819 
L 575.070979 123.492819 
L 575.070979 101.896216 
L 545.658526 101.896216 
z
" style="fill:#03a596;opacity:0.4;"/>
   </g>
   <g id="patch_34">
    <path clip-path="url(#p20ad92f0c9)" d="M 575.070979 123.492819 
L 604.483432 123.492819 
L 604.483432 96.497065 
L 575.070979 96.497065 
z
" style="fill:#03a596;opacity:0.4;"/>
   </g>
   <g id="patch_35">
    <path clip-path="url(#p20ad92f0c9)" d="M 604.483432 123.492819 
L 633.895885 123.492819 
L 633.895885 96.497065 
L 604.483432 96.497065 
z
" style="fill:#03a596;opacity:0.4;"/>
   </g>
   <g id="patch_36">
    <path clip-path="url(#p20ad92f0c9)" d="M 633.895885 123.492819 
L 663.308338 123.492819 
L 663.308338 105.945579 
L 633.895885 105.945579 
z
" style="fill:#03a596;opacity:0.4;"/>
   </g>
   <g id="patch_37">
    <path clip-path="url(#p20ad92f0c9)" d="M 663.308338 123.492819 
L 692.720791 123.492819 
L 692.720791 118.093668 
L 663.308338 118.093668 
z
" style="fill:#03a596;opacity:0.4;"/>
   </g>
   <g id="patch_38">
    <path clip-path="url(#p20ad92f0c9)" d="M 692.720791 123.492819 
L 722.133244 123.492819 
L 722.133244 122.143032 
L 692.720791 122.143032 
z
" style="fill:#03a596;opacity:0.4;"/>
   </g>
   <g id="patch_39">
    <path clip-path="url(#p20ad92f0c9)" d="M 722.133244 123.492819 
L 751.545696 123.492819 
L 751.545696 123.492819 
L 722.133244 123.492819 
z
" style="fill:#03a596;opacity:0.4;"/>
   </g>
   <g id="patch_40">
    <path clip-path="url(#p20ad92f0c9)" d="M 751.545696 123.492819 
L 780.958149 123.492819 
L 780.958149 123.492819 
L 751.545696 123.492819 
z
" style="fill:#03a596;opacity:0.4;"/>
   </g>
   <g id="patch_41">
    <path clip-path="url(#p20ad92f0c9)" d="M 780.958149 123.492819 
L 810.370602 123.492819 
L 810.370602 123.492819 
L 780.958149 123.492819 
z
" style="fill:#03a596;opacity:0.4;"/>
   </g>
   <g id="patch_42">
    <path clip-path="url(#p20ad92f0c9)" d="M 810.370602 123.492819 
L 839.783055 123.492819 
L 839.783055 123.492819 
L 810.370602 123.492819 
z
" style="fill:#03a596;opacity:0.4;"/>
   </g>
   <g id="patch_43">
    <path clip-path="url(#p20ad92f0c9)" d="M 839.783055 123.492819 
L 869.195508 123.492819 
L 869.195508 123.492819 
L 839.783055 123.492819 
z
" style="fill:#03a596;opacity:0.4;"/>
   </g>
   <g id="matplotlib.axis_3">
    <g id="xtick_24">
     <g id="line2d_31">
      <g>
       <use style="stroke:#000000;stroke-width:3;" x="357.072799" xlink:href="#m8eaa8544bd" y="123.492819"/>
      </g>
     </g>
     <g id="text_11">
      <!-- 1 -->
      <g transform="translate(352.619049 144.130632)scale(0.14 -0.14)">
       <use xlink:href="#DejaVuSans-49"/>
      </g>
     </g>
    </g>
    <g id="xtick_25">
     <g id="line2d_32">
      <g>
       <use style="stroke:#000000;stroke-width:3;" x="472.021097" xlink:href="#m8eaa8544bd" y="123.492819"/>
      </g>
     </g>
     <g id="text_12">
      <!-- 10 -->
      <g transform="translate(463.113597 144.130632)scale(0.14 -0.14)">
       <use xlink:href="#DejaVuSans-49"/>
       <use x="63.623047" xlink:href="#DejaVuSans-48"/>
      </g>
     </g>
    </g>
    <g id="xtick_26">
     <g id="line2d_33">
      <g>
       <use style="stroke:#000000;stroke-width:3;" x="586.969396" xlink:href="#m8eaa8544bd" y="123.492819"/>
      </g>
     </g>
     <g id="text_13">
      <!-- 100 -->
      <g transform="translate(573.608146 144.130632)scale(0.14 -0.14)">
       <use xlink:href="#DejaVuSans-49"/>
       <use x="63.623047" xlink:href="#DejaVuSans-48"/>
       <use x="127.246094" xlink:href="#DejaVuSans-48"/>
      </g>
     </g>
    </g>
    <g id="xtick_27">
     <g id="line2d_34">
      <g>
       <use style="stroke:#000000;stroke-width:2;" x="357.072799" xlink:href="#m2e30eddf71" y="123.492819"/>
      </g>
     </g>
    </g>
    <g id="xtick_28">
     <g id="line2d_35">
      <g>
       <use style="stroke:#000000;stroke-width:2;" x="391.675685" xlink:href="#m2e30eddf71" y="123.492819"/>
      </g>
     </g>
    </g>
    <g id="xtick_29">
     <g id="line2d_36">
      <g>
       <use style="stroke:#000000;stroke-width:2;" x="411.917075" xlink:href="#m2e30eddf71" y="123.492819"/>
      </g>
     </g>
    </g>
    <g id="xtick_30">
     <g id="line2d_37">
      <g>
       <use style="stroke:#000000;stroke-width:2;" x="426.27857" xlink:href="#m2e30eddf71" y="123.492819"/>
      </g>
     </g>
    </g>
    <g id="xtick_31">
     <g id="line2d_38">
      <g>
       <use style="stroke:#000000;stroke-width:2;" x="437.418211" xlink:href="#m2e30eddf71" y="123.492819"/>
      </g>
     </g>
    </g>
    <g id="xtick_32">
     <g id="line2d_39">
      <g>
       <use style="stroke:#000000;stroke-width:2;" x="446.519961" xlink:href="#m2e30eddf71" y="123.492819"/>
      </g>
     </g>
    </g>
    <g id="xtick_33">
     <g id="line2d_40">
      <g>
       <use style="stroke:#000000;stroke-width:2;" x="454.215381" xlink:href="#m2e30eddf71" y="123.492819"/>
      </g>
     </g>
    </g>
    <g id="xtick_34">
     <g id="line2d_41">
      <g>
       <use style="stroke:#000000;stroke-width:2;" x="460.881456" xlink:href="#m2e30eddf71" y="123.492819"/>
      </g>
     </g>
    </g>
    <g id="xtick_35">
     <g id="line2d_42">
      <g>
       <use style="stroke:#000000;stroke-width:2;" x="466.761352" xlink:href="#m2e30eddf71" y="123.492819"/>
      </g>
     </g>
    </g>
    <g id="xtick_36">
     <g id="line2d_43">
      <g>
       <use style="stroke:#000000;stroke-width:2;" x="472.021097" xlink:href="#m2e30eddf71" y="123.492819"/>
      </g>
     </g>
    </g>
    <g id="xtick_37">
     <g id="line2d_44">
      <g>
       <use style="stroke:#000000;stroke-width:2;" x="506.623983" xlink:href="#m2e30eddf71" y="123.492819"/>
      </g>
     </g>
    </g>
    <g id="xtick_38">
     <g id="line2d_45">
      <g>
       <use style="stroke:#000000;stroke-width:2;" x="526.865374" xlink:href="#m2e30eddf71" y="123.492819"/>
      </g>
     </g>
    </g>
    <g id="xtick_39">
     <g id="line2d_46">
      <g>
       <use style="stroke:#000000;stroke-width:2;" x="541.226869" xlink:href="#m2e30eddf71" y="123.492819"/>
      </g>
     </g>
    </g>
    <g id="xtick_40">
     <g id="line2d_47">
      <g>
       <use style="stroke:#000000;stroke-width:2;" x="552.36651" xlink:href="#m2e30eddf71" y="123.492819"/>
      </g>
     </g>
    </g>
    <g id="xtick_41">
     <g id="line2d_48">
      <g>
       <use style="stroke:#000000;stroke-width:2;" x="561.468259" xlink:href="#m2e30eddf71" y="123.492819"/>
      </g>
     </g>
    </g>
    <g id="xtick_42">
     <g id="line2d_49">
      <g>
       <use style="stroke:#000000;stroke-width:2;" x="569.163679" xlink:href="#m2e30eddf71" y="123.492819"/>
      </g>
     </g>
    </g>
    <g id="xtick_43">
     <g id="line2d_50">
      <g>
       <use style="stroke:#000000;stroke-width:2;" x="575.829754" xlink:href="#m2e30eddf71" y="123.492819"/>
      </g>
     </g>
    </g>
    <g id="xtick_44">
     <g id="line2d_51">
      <g>
       <use style="stroke:#000000;stroke-width:2;" x="581.70965" xlink:href="#m2e30eddf71" y="123.492819"/>
      </g>
     </g>
    </g>
    <g id="xtick_45">
     <g id="line2d_52">
      <g>
       <use style="stroke:#000000;stroke-width:2;" x="586.969396" xlink:href="#m2e30eddf71" y="123.492819"/>
      </g>
     </g>
    </g>
    <g id="text_14">
     <!-- Bout length (syllables) -->
     <g transform="translate(377.061053 165.719382)scale(0.18 -0.18)">
      <use xlink:href="#DejaVuSans-66"/>
      <use x="68.603516" xlink:href="#DejaVuSans-111"/>
      <use x="129.785156" xlink:href="#DejaVuSans-117"/>
      <use x="193.164062" xlink:href="#DejaVuSans-116"/>
      <use x="232.373047" xlink:href="#DejaVuSans-32"/>
      <use x="264.160156" xlink:href="#DejaVuSans-108"/>
      <use x="291.943359" xlink:href="#DejaVuSans-101"/>
      <use x="353.466797" xlink:href="#DejaVuSans-110"/>
      <use x="416.845703" xlink:href="#DejaVuSans-103"/>
      <use x="480.322266" xlink:href="#DejaVuSans-116"/>
      <use x="519.53125" xlink:href="#DejaVuSans-104"/>
      <use x="582.910156" xlink:href="#DejaVuSans-32"/>
      <use x="614.697266" xlink:href="#DejaVuSans-40"/>
      <use x="653.710938" xlink:href="#DejaVuSans-115"/>
      <use x="705.810547" xlink:href="#DejaVuSans-121"/>
      <use x="764.990234" xlink:href="#DejaVuSans-108"/>
      <use x="792.773438" xlink:href="#DejaVuSans-108"/>
      <use x="820.556641" xlink:href="#DejaVuSans-97"/>
      <use x="881.835938" xlink:href="#DejaVuSans-98"/>
      <use x="945.3125" xlink:href="#DejaVuSans-108"/>
      <use x="973.095703" xlink:href="#DejaVuSans-101"/>
      <use x="1034.619141" xlink:href="#DejaVuSans-115"/>
      <use x="1086.71875" xlink:href="#DejaVuSans-41"/>
     </g>
    </g>
   </g>
   <g id="matplotlib.axis_4">
    <g id="ytick_6">
     <g id="line2d_53">
      <g>
       <use style="stroke:#000000;stroke-width:3;" x="357.072799" xlink:href="#m699bf12d97" y="123.492819"/>
      </g>
     </g>
    </g>
    <g id="ytick_7">
     <g id="line2d_54">
      <g>
       <use style="stroke:#000000;stroke-width:3;" x="357.072799" xlink:href="#m699bf12d97" y="93.949341"/>
      </g>
     </g>
    </g>
    <g id="ytick_8">
     <g id="line2d_55">
      <g>
       <use style="stroke:#000000;stroke-width:3;" x="357.072799" xlink:href="#m699bf12d97" y="64.405863"/>
      </g>
     </g>
    </g>
    <g id="ytick_9">
     <g id="line2d_56">
      <g>
       <use style="stroke:#000000;stroke-width:3;" x="357.072799" xlink:href="#m699bf12d97" y="34.862385"/>
      </g>
     </g>
    </g>
    <g id="ytick_10">
     <g id="line2d_57">
      <g>
       <use style="stroke:#000000;stroke-width:3;" x="357.072799" xlink:href="#m699bf12d97" y="5.318906"/>
      </g>
     </g>
    </g>
   </g>
   <g id="line2d_58">
    <path clip-path="url(#p20ad92f0c9)" d="M 385.964911 123.439696 
L 391.440439 123.256009 
L 394.178203 123.023828 
L 396.915967 122.646224 
L 399.65373 122.100892 
L 405.129258 120.617801 
L 410.604786 119.174112 
L 413.34255 118.671874 
L 416.080314 118.337913 
L 421.555842 118.03888 
L 424.293605 118.037379 
L 427.031369 118.156087 
L 429.769133 118.416712 
L 435.244661 119.293031 
L 440.720189 120.18895 
L 443.457953 120.437596 
L 446.195717 120.49038 
L 451.671244 120.138538 
L 457.146772 119.77849 
L 462.6223 119.836386 
L 465.360064 119.881089 
L 468.097828 119.783273 
L 470.835592 119.455758 
L 473.573356 118.867471 
L 476.311119 118.037717 
L 479.048883 117.013946 
L 487.262175 113.552151 
L 489.999939 112.722019 
L 492.737703 112.359721 
L 495.475467 112.578841 
L 498.213231 113.337131 
L 503.688758 115.460166 
L 506.426522 116.12325 
L 509.164286 116.153716 
L 511.90205 115.477944 
L 514.639814 114.190394 
L 517.377578 112.490993 
L 522.853106 108.752756 
L 525.59087 107.088532 
L 528.328633 105.741071 
L 531.066397 104.782725 
L 533.804161 104.213013 
L 536.541925 103.945112 
L 542.017453 103.672425 
L 544.755217 103.36704 
L 547.492981 102.869681 
L 558.444036 100.353977 
L 563.919564 99.135401 
L 566.657328 98.227101 
L 569.395092 97.00452 
L 574.87062 94.072831 
L 577.608383 92.999209 
L 580.346147 92.720811 
L 583.083911 93.493084 
L 585.821675 95.292231 
L 588.559439 97.788737 
L 591.297203 100.439971 
L 594.034967 102.658328 
L 596.772731 103.983026 
L 599.510495 104.194702 
L 602.248259 103.345677 
L 604.986022 101.713742 
L 610.46155 97.780606 
L 613.199314 96.317562 
L 615.937078 95.601306 
L 618.674842 95.755455 
L 621.412606 96.726713 
L 624.15037 98.299808 
L 629.625897 101.959476 
L 632.363661 103.443279 
L 635.101425 104.456725 
L 637.839189 104.974967 
L 640.576953 105.080802 
L 646.052481 104.776907 
L 648.790245 104.842941 
L 651.528009 105.364794 
L 654.265773 106.476466 
L 657.003536 108.159348 
L 665.216828 114.283025 
L 667.954592 115.727376 
L 670.692356 116.642082 
L 673.43012 117.116503 
L 684.381175 118.029561 
L 689.856703 119.022773 
L 695.332231 120.055713 
L 700.807759 120.740938 
L 711.758814 121.718144 
L 719.972106 122.803782 
L 725.447634 123.258963 
L 730.923162 123.433264 
L 733.660925 123.453662 
L 733.660925 123.453662 
" style="fill:none;stroke:#03a596;stroke-linecap:square;stroke-width:6;"/>
   </g>
   <g id="line2d_59">
    <path clip-path="url(#p20ad92f0c9)" d="M 580.587773 123.492819 
L 580.587773 5.318906 
" style="fill:none;stroke:#03a596;stroke-dasharray:11.1,4.8;stroke-dashoffset:0;stroke-opacity:0.5;stroke-width:3;"/>
   </g>
   <g id="patch_44">
    <path d="M 357.072799 123.492819 
L 357.072799 5.318906 
" style="fill:none;stroke:#000000;stroke-linecap:square;stroke-linejoin:miter;stroke-width:3;"/>
   </g>
   <g id="patch_45">
    <path d="M 599.681495 123.492819 
L 599.681495 5.318906 
" style="fill:none;stroke:#000000;stroke-linecap:square;stroke-linejoin:miter;stroke-width:3;"/>
   </g>
   <g id="patch_46">
    <path d="M 357.072799 123.492819 
L 599.681495 123.492819 
" style="fill:none;stroke:#000000;stroke-linecap:square;stroke-linejoin:miter;stroke-width:3;"/>
   </g>
   <g id="patch_47">
    <path d="M 357.072799 5.318906 
L 599.681495 5.318906 
" style="fill:none;stroke:#000000;stroke-linecap:square;stroke-linejoin:miter;stroke-width:3;"/>
   </g>
  </g>
  <g id="axes_3">
   <g id="patch_48">
    <path d="M 648.203234 123.492819 
L 890.811929 123.492819 
L 890.811929 5.318906 
L 648.203234 5.318906 
z
" style="fill:#ffffff;"/>
   </g>
   <g id="patch_49">
    <path clip-path="url(#p5e8d7d8f39)" d="M 629.94511 123.492819 
L 660.98392 123.492819 
L 660.98392 115.785825 
L 629.94511 115.785825 
z
" style="fill:#c44e52;opacity:0.4;"/>
   </g>
   <g id="patch_50">
    <path clip-path="url(#p5e8d7d8f39)" d="M 660.98392 123.492819 
L 692.02273 123.492819 
L 692.02273 116.69253 
L 660.98392 116.69253 
z
" style="fill:#c44e52;opacity:0.4;"/>
   </g>
   <g id="patch_51">
    <path clip-path="url(#p5e8d7d8f39)" d="M 692.02273 123.492819 
L 723.061541 123.492819 
L 723.061541 116.69253 
L 692.02273 116.69253 
z
" style="fill:#c44e52;opacity:0.4;"/>
   </g>
   <g id="patch_52">
    <path clip-path="url(#p5e8d7d8f39)" d="M 723.061541 123.492819 
L 754.100351 123.492819 
L 754.100351 115.181355 
L 723.061541 115.181355 
z
" style="fill:#c44e52;opacity:0.4;"/>
   </g>
   <g id="patch_53">
    <path clip-path="url(#p5e8d7d8f39)" d="M 754.100351 123.492819 
L 785.139161 123.492819 
L 785.139161 110.496711 
L 754.100351 110.496711 
z
" style="fill:#c44e52;opacity:0.4;"/>
   </g>
   <g id="patch_54">
    <path clip-path="url(#p5e8d7d8f39)" d="M 785.139161 123.492819 
L 816.177971 123.492819 
L 816.177971 107.47436 
L 785.139161 107.47436 
z
" style="fill:#c44e52;opacity:0.4;"/>
   </g>
   <g id="patch_55">
    <path clip-path="url(#p5e8d7d8f39)" d="M 816.177971 123.492819 
L 847.216781 123.492819 
L 847.216781 102.789717 
L 816.177971 102.789717 
z
" style="fill:#c44e52;opacity:0.4;"/>
   </g>
   <g id="patch_56">
    <path clip-path="url(#p5e8d7d8f39)" d="M 847.216781 123.492819 
L 878.255592 123.492819 
L 878.255592 101.580777 
L 847.216781 101.580777 
z
" style="fill:#c44e52;opacity:0.4;"/>
   </g>
   <g id="patch_57">
    <path clip-path="url(#p5e8d7d8f39)" d="M 878.255592 123.492819 
L 909.294402 123.492819 
L 909.294402 106.416538 
L 878.255592 106.416538 
z
" style="fill:#c44e52;opacity:0.4;"/>
   </g>
   <g id="patch_58">
    <path clip-path="url(#p5e8d7d8f39)" d="M 909.294402 123.492819 
L 940.333212 123.492819 
L 940.333212 111.705651 
L 909.294402 111.705651 
z
" style="fill:#c44e52;opacity:0.4;"/>
   </g>
   <g id="patch_59">
    <path clip-path="url(#p5e8d7d8f39)" d="M 940.333212 123.492819 
L 971.372022 123.492819 
L 971.372022 116.390295 
L 940.333212 116.390295 
z
" style="fill:#c44e52;opacity:0.4;"/>
   </g>
   <g id="patch_60">
    <path clip-path="url(#p5e8d7d8f39)" d="M 971.372022 123.492819 
L 1002.410833 123.492819 
L 1002.410833 122.434997 
L 971.372022 122.434997 
z
" style="fill:#c44e52;opacity:0.4;"/>
   </g>
   <g id="patch_61">
    <path clip-path="url(#p5e8d7d8f39)" d="M 1002.410833 123.492819 
L 1033.449643 123.492819 
L 1033.449643 122.737232 
L 1002.410833 122.737232 
z
" style="fill:#c44e52;opacity:0.4;"/>
   </g>
   <g id="patch_62">
    <path clip-path="url(#p5e8d7d8f39)" d="M 1033.449643 123.492819 
L 1064.488453 123.492819 
L 1064.488453 123.492819 
L 1033.449643 123.492819 
z
" style="fill:#c44e52;opacity:0.4;"/>
   </g>
   <g id="patch_63">
    <path clip-path="url(#p5e8d7d8f39)" d="M 1064.488453 123.492819 
L 1095.527263 123.492819 
L 1095.527263 123.492819 
L 1064.488453 123.492819 
z
" style="fill:#c44e52;opacity:0.4;"/>
   </g>
   <g id="patch_64">
    <path clip-path="url(#p5e8d7d8f39)" d="M 1095.527263 123.492819 
L 1126.566073 123.492819 
L 1126.566073 123.492819 
L 1095.527263 123.492819 
z
" style="fill:#c44e52;opacity:0.4;"/>
   </g>
   <g id="patch_65">
    <path clip-path="url(#p5e8d7d8f39)" d="M 1126.566073 123.492819 
L 1157.604884 123.492819 
L 1157.604884 123.492819 
L 1126.566073 123.492819 
z
" style="fill:#c44e52;opacity:0.4;"/>
   </g>
   <g id="patch_66">
    <path clip-path="url(#p5e8d7d8f39)" d="M 1157.604884 123.492819 
L 1188.643694 123.492819 
L 1188.643694 123.492819 
L 1157.604884 123.492819 
z
" style="fill:#c44e52;opacity:0.4;"/>
   </g>
   <g id="matplotlib.axis_5">
    <g id="xtick_46">
     <g id="line2d_60">
      <g>
       <use style="stroke:#000000;stroke-width:3;" x="648.203234" xlink:href="#m8eaa8544bd" y="123.492819"/>
      </g>
     </g>
     <g id="text_15">
      <!-- 1 -->
      <g transform="translate(643.749484 144.130632)scale(0.14 -0.14)">
       <use xlink:href="#DejaVuSans-49"/>
      </g>
     </g>
    </g>
    <g id="xtick_47">
     <g id="line2d_61">
      <g>
       <use style="stroke:#000000;stroke-width:3;" x="769.507582" xlink:href="#m8eaa8544bd" y="123.492819"/>
      </g>
     </g>
     <g id="text_16">
      <!-- 10 -->
      <g transform="translate(760.600082 144.130632)scale(0.14 -0.14)">
       <use xlink:href="#DejaVuSans-49"/>
       <use x="63.623047" xlink:href="#DejaVuSans-48"/>
      </g>
     </g>
    </g>
    <g id="xtick_48">
     <g id="line2d_62">
      <g>
       <use style="stroke:#000000;stroke-width:3;" x="890.811929" xlink:href="#m8eaa8544bd" y="123.492819"/>
      </g>
     </g>
     <g id="text_17">
      <!-- 100 -->
      <g transform="translate(877.450679 144.130632)scale(0.14 -0.14)">
       <use xlink:href="#DejaVuSans-49"/>
       <use x="63.623047" xlink:href="#DejaVuSans-48"/>
       <use x="127.246094" xlink:href="#DejaVuSans-48"/>
      </g>
     </g>
    </g>
    <g id="xtick_49">
     <g id="line2d_63">
      <g>
       <use style="stroke:#000000;stroke-width:2;" x="648.203234" xlink:href="#m2e30eddf71" y="123.492819"/>
      </g>
     </g>
    </g>
    <g id="xtick_50">
     <g id="line2d_64">
      <g>
       <use style="stroke:#000000;stroke-width:2;" x="684.719481" xlink:href="#m2e30eddf71" y="123.492819"/>
      </g>
     </g>
    </g>
    <g id="xtick_51">
     <g id="line2d_65">
      <g>
       <use style="stroke:#000000;stroke-width:2;" x="706.080116" xlink:href="#m2e30eddf71" y="123.492819"/>
      </g>
     </g>
    </g>
    <g id="xtick_52">
     <g id="line2d_66">
      <g>
       <use style="stroke:#000000;stroke-width:2;" x="721.235728" xlink:href="#m2e30eddf71" y="123.492819"/>
      </g>
     </g>
    </g>
    <g id="xtick_53">
     <g id="line2d_67">
      <g>
       <use style="stroke:#000000;stroke-width:2;" x="732.991334" xlink:href="#m2e30eddf71" y="123.492819"/>
      </g>
     </g>
    </g>
    <g id="xtick_54">
     <g id="line2d_68">
      <g>
       <use style="stroke:#000000;stroke-width:2;" x="742.596364" xlink:href="#m2e30eddf71" y="123.492819"/>
      </g>
     </g>
    </g>
    <g id="xtick_55">
     <g id="line2d_69">
      <g>
       <use style="stroke:#000000;stroke-width:2;" x="750.7173" xlink:href="#m2e30eddf71" y="123.492819"/>
      </g>
     </g>
    </g>
    <g id="xtick_56">
     <g id="line2d_70">
      <g>
       <use style="stroke:#000000;stroke-width:2;" x="757.751976" xlink:href="#m2e30eddf71" y="123.492819"/>
      </g>
     </g>
    </g>
    <g id="xtick_57">
     <g id="line2d_71">
      <g>
       <use style="stroke:#000000;stroke-width:2;" x="763.956999" xlink:href="#m2e30eddf71" y="123.492819"/>
      </g>
     </g>
    </g>
    <g id="xtick_58">
     <g id="line2d_72">
      <g>
       <use style="stroke:#000000;stroke-width:2;" x="769.507582" xlink:href="#m2e30eddf71" y="123.492819"/>
      </g>
     </g>
    </g>
    <g id="xtick_59">
     <g id="line2d_73">
      <g>
       <use style="stroke:#000000;stroke-width:2;" x="806.023829" xlink:href="#m2e30eddf71" y="123.492819"/>
      </g>
     </g>
    </g>
    <g id="xtick_60">
     <g id="line2d_74">
      <g>
       <use style="stroke:#000000;stroke-width:2;" x="827.384464" xlink:href="#m2e30eddf71" y="123.492819"/>
      </g>
     </g>
    </g>
    <g id="xtick_61">
     <g id="line2d_75">
      <g>
       <use style="stroke:#000000;stroke-width:2;" x="842.540076" xlink:href="#m2e30eddf71" y="123.492819"/>
      </g>
     </g>
    </g>
    <g id="xtick_62">
     <g id="line2d_76">
      <g>
       <use style="stroke:#000000;stroke-width:2;" x="854.295682" xlink:href="#m2e30eddf71" y="123.492819"/>
      </g>
     </g>
    </g>
    <g id="xtick_63">
     <g id="line2d_77">
      <g>
       <use style="stroke:#000000;stroke-width:2;" x="863.900711" xlink:href="#m2e30eddf71" y="123.492819"/>
      </g>
     </g>
    </g>
    <g id="xtick_64">
     <g id="line2d_78">
      <g>
       <use style="stroke:#000000;stroke-width:2;" x="872.021648" xlink:href="#m2e30eddf71" y="123.492819"/>
      </g>
     </g>
    </g>
    <g id="xtick_65">
     <g id="line2d_79">
      <g>
       <use style="stroke:#000000;stroke-width:2;" x="879.056323" xlink:href="#m2e30eddf71" y="123.492819"/>
      </g>
     </g>
    </g>
    <g id="xtick_66">
     <g id="line2d_80">
      <g>
       <use style="stroke:#000000;stroke-width:2;" x="885.261347" xlink:href="#m2e30eddf71" y="123.492819"/>
      </g>
     </g>
    </g>
    <g id="xtick_67">
     <g id="line2d_81">
      <g>
       <use style="stroke:#000000;stroke-width:2;" x="890.811929" xlink:href="#m2e30eddf71" y="123.492819"/>
      </g>
     </g>
    </g>
    <g id="text_18">
     <!-- Bout length (syllables) -->
     <g transform="translate(668.191488 165.719382)scale(0.18 -0.18)">
      <use xlink:href="#DejaVuSans-66"/>
      <use x="68.603516" xlink:href="#DejaVuSans-111"/>
      <use x="129.785156" xlink:href="#DejaVuSans-117"/>
      <use x="193.164062" xlink:href="#DejaVuSans-116"/>
      <use x="232.373047" xlink:href="#DejaVuSans-32"/>
      <use x="264.160156" xlink:href="#DejaVuSans-108"/>
      <use x="291.943359" xlink:href="#DejaVuSans-101"/>
      <use x="353.466797" xlink:href="#DejaVuSans-110"/>
      <use x="416.845703" xlink:href="#DejaVuSans-103"/>
      <use x="480.322266" xlink:href="#DejaVuSans-116"/>
      <use x="519.53125" xlink:href="#DejaVuSans-104"/>
      <use x="582.910156" xlink:href="#DejaVuSans-32"/>
      <use x="614.697266" xlink:href="#DejaVuSans-40"/>
      <use x="653.710938" xlink:href="#DejaVuSans-115"/>
      <use x="705.810547" xlink:href="#DejaVuSans-121"/>
      <use x="764.990234" xlink:href="#DejaVuSans-108"/>
      <use x="792.773438" xlink:href="#DejaVuSans-108"/>
      <use x="820.556641" xlink:href="#DejaVuSans-97"/>
      <use x="881.835938" xlink:href="#DejaVuSans-98"/>
      <use x="945.3125" xlink:href="#DejaVuSans-108"/>
      <use x="973.095703" xlink:href="#DejaVuSans-101"/>
      <use x="1034.619141" xlink:href="#DejaVuSans-115"/>
      <use x="1086.71875" xlink:href="#DejaVuSans-41"/>
     </g>
    </g>
   </g>
   <g id="matplotlib.axis_6">
    <g id="ytick_11">
     <g id="line2d_82">
      <g>
       <use style="stroke:#000000;stroke-width:3;" x="648.203234" xlink:href="#m699bf12d97" y="123.492819"/>
      </g>
     </g>
    </g>
    <g id="ytick_12">
     <g id="line2d_83">
      <g>
       <use style="stroke:#000000;stroke-width:3;" x="648.203234" xlink:href="#m699bf12d97" y="93.949341"/>
      </g>
     </g>
    </g>
    <g id="ytick_13">
     <g id="line2d_84">
      <g>
       <use style="stroke:#000000;stroke-width:3;" x="648.203234" xlink:href="#m699bf12d97" y="64.405863"/>
      </g>
     </g>
    </g>
    <g id="ytick_14">
     <g id="line2d_85">
      <g>
       <use style="stroke:#000000;stroke-width:3;" x="648.203234" xlink:href="#m699bf12d97" y="34.862385"/>
      </g>
     </g>
    </g>
    <g id="ytick_15">
     <g id="line2d_86">
      <g>
       <use style="stroke:#000000;stroke-width:3;" x="648.203234" xlink:href="#m699bf12d97" y="5.318906"/>
      </g>
     </g>
    </g>
   </g>
   <g id="line2d_87">
    <path clip-path="url(#p5e8d7d8f39)" d="M 620.816048 123.370318 
L 624.16092 123.155404 
L 627.505791 122.67282 
L 630.850663 121.747314 
L 634.195535 120.240475 
L 637.540406 118.188409 
L 640.885278 115.919534 
L 644.23015 114.025941 
L 647.575021 113.128873 
L 650.919893 113.549581 
L 654.264765 115.114318 
L 657.609636 117.239113 
L 660.954508 119.216679 
L 664.29938 120.489335 
L 667.644251 120.76608 
L 670.989123 120.017734 
L 674.333994 118.459499 
L 677.678866 116.546074 
L 681.023738 114.891806 
L 684.368609 114.0492 
L 687.713481 114.23548 
L 691.058353 115.212384 
L 694.403224 116.439756 
L 697.748096 117.398242 
L 701.092968 117.837889 
L 704.437839 117.796017 
L 707.782711 117.440139 
L 714.472454 116.317044 
L 717.817326 115.732183 
L 721.162197 115.265571 
L 724.507069 114.98474 
L 734.541684 114.665786 
L 737.886556 114.392345 
L 744.576299 113.451285 
L 754.610914 111.868596 
L 761.300657 111.059259 
L 771.335272 110.098875 
L 778.025015 109.49393 
L 784.714758 108.630332 
L 791.404502 107.607775 
L 794.749373 107.290698 
L 798.094245 107.208891 
L 804.783988 107.421463 
L 808.12886 107.359897 
L 811.473732 106.988271 
L 814.818603 106.282884 
L 821.508346 104.278428 
L 824.853218 103.29936 
L 828.19809 102.520179 
L 831.542961 102.004914 
L 834.887833 101.754802 
L 838.232705 101.725633 
L 848.26732 102.07068 
L 851.612191 101.989578 
L 861.646806 101.20582 
L 864.991678 101.181105 
L 868.336549 101.418041 
L 871.681421 101.898981 
L 875.026293 102.578091 
L 878.371164 103.420426 
L 891.750651 107.271661 
L 895.095522 107.801654 
L 898.440394 108.06349 
L 905.130137 108.344915 
L 908.475009 108.649656 
L 915.164752 109.697743 
L 928.544239 112.053766 
L 935.233982 113.110264 
L 951.95834 115.434533 
L 955.303212 116.17944 
L 961.992955 118.019006 
L 968.682698 119.905009 
L 972.02757 120.693448 
L 975.372442 121.31856 
L 978.717313 121.77226 
L 982.062185 122.074889 
L 988.751928 122.368969 
L 998.786543 122.416779 
L 1008.821158 122.393386 
L 1015.510901 122.57032 
L 1035.580131 123.42445 
L 1045.614746 123.450643 
L 1045.614746 123.450643 
" style="fill:none;stroke:#c44e52;stroke-linecap:square;stroke-width:6;"/>
   </g>
   <g id="line2d_88">
    <path clip-path="url(#p5e8d7d8f39)" d="M 832.405577 123.492819 
L 832.405577 5.318906 
" style="fill:none;stroke:#c44e52;stroke-dasharray:11.1,4.8;stroke-dashoffset:0;stroke-opacity:0.5;stroke-width:3;"/>
   </g>
   <g id="patch_67">
    <path d="M 648.203234 123.492819 
L 648.203234 5.318906 
" style="fill:none;stroke:#000000;stroke-linecap:square;stroke-linejoin:miter;stroke-width:3;"/>
   </g>
   <g id="patch_68">
    <path d="M 890.811929 123.492819 
L 890.811929 5.318906 
" style="fill:none;stroke:#000000;stroke-linecap:square;stroke-linejoin:miter;stroke-width:3;"/>
   </g>
   <g id="patch_69">
    <path d="M 648.203234 123.492819 
L 890.811929 123.492819 
" style="fill:none;stroke:#000000;stroke-linecap:square;stroke-linejoin:miter;stroke-width:3;"/>
   </g>
   <g id="patch_70">
    <path d="M 648.203234 5.318906 
L 890.811929 5.318906 
" style="fill:none;stroke:#000000;stroke-linecap:square;stroke-linejoin:miter;stroke-width:3;"/>
   </g>
  </g>
  <g id="axes_4">
   <g id="patch_71">
    <path d="M 939.333668 123.492819 
L 1181.942364 123.492819 
L 1181.942364 5.318906 
L 939.333668 5.318906 
z
" style="fill:#ffffff;"/>
   </g>
   <g id="patch_72">
    <path clip-path="url(#p4c0fdcce88)" d="M 922.530577 123.492819 
L 951.095832 123.492819 
L 951.095832 123.492819 
L 922.530577 123.492819 
z
" style="fill:#4c72b0;opacity:0.4;"/>
   </g>
   <g id="patch_73">
    <path clip-path="url(#p4c0fdcce88)" d="M 951.095832 123.492819 
L 979.661088 123.492819 
L 979.661088 122.872757 
L 951.095832 122.872757 
z
" style="fill:#4c72b0;opacity:0.4;"/>
   </g>
   <g id="patch_74">
    <path clip-path="url(#p4c0fdcce88)" d="M 979.661088 123.492819 
L 1008.226343 123.492819 
L 1008.226343 122.93979 
L 979.661088 122.93979 
z
" style="fill:#4c72b0;opacity:0.4;"/>
   </g>
   <g id="patch_75">
    <path clip-path="url(#p4c0fdcce88)" d="M 1008.226343 123.492819 
L 1036.791598 123.492819 
L 1036.791598 123.124133 
L 1008.226343 123.124133 
z
" style="fill:#4c72b0;opacity:0.4;"/>
   </g>
   <g id="patch_76">
    <path clip-path="url(#p4c0fdcce88)" d="M 1036.791598 123.492819 
L 1065.356853 123.492819 
L 1065.356853 123.224684 
L 1036.791598 123.224684 
z
" style="fill:#4c72b0;opacity:0.4;"/>
   </g>
   <g id="patch_77">
    <path clip-path="url(#p4c0fdcce88)" d="M 1065.356853 123.492819 
L 1093.922109 123.492819 
L 1093.922109 113.069061 
L 1065.356853 113.069061 
z
" style="fill:#4c72b0;opacity:0.4;"/>
   </g>
   <g id="patch_78">
    <path clip-path="url(#p4c0fdcce88)" d="M 1093.922109 123.492819 
L 1122.487364 123.492819 
L 1122.487364 62.14012 
L 1093.922109 62.14012 
z
" style="fill:#4c72b0;opacity:0.4;"/>
   </g>
   <g id="patch_79">
    <path clip-path="url(#p4c0fdcce88)" d="M 1122.487364 123.492819 
L 1151.052619 123.492819 
L 1151.052619 62.307704 
L 1122.487364 62.307704 
z
" style="fill:#4c72b0;opacity:0.4;"/>
   </g>
   <g id="patch_80">
    <path clip-path="url(#p4c0fdcce88)" d="M 1151.052619 123.492819 
L 1179.617874 123.492819 
L 1179.617874 119.521066 
L 1151.052619 119.521066 
z
" style="fill:#4c72b0;opacity:0.4;"/>
   </g>
   <g id="patch_81">
    <path clip-path="url(#p4c0fdcce88)" d="M 1179.617874 123.492819 
L 1208.183129 123.492819 
L 1208.183129 123.224684 
L 1179.617874 123.224684 
z
" style="fill:#4c72b0;opacity:0.4;"/>
   </g>
   <g id="patch_82">
    <path clip-path="url(#p4c0fdcce88)" d="M 1208.183129 123.492819 
L 1236.748385 123.492819 
L 1236.748385 123.476061 
L 1208.183129 123.476061 
z
" style="fill:#4c72b0;opacity:0.4;"/>
   </g>
   <g id="patch_83">
    <path clip-path="url(#p4c0fdcce88)" d="M 1236.748385 123.492819 
L 1265.31364 123.492819 
L 1265.31364 123.492819 
L 1236.748385 123.492819 
z
" style="fill:#4c72b0;opacity:0.4;"/>
   </g>
   <g id="patch_84">
    <path clip-path="url(#p4c0fdcce88)" d="M 1265.31364 123.492819 
L 1293.878895 123.492819 
L 1293.878895 123.492819 
L 1265.31364 123.492819 
z
" style="fill:#4c72b0;opacity:0.4;"/>
   </g>
   <g id="patch_85">
    <path clip-path="url(#p4c0fdcce88)" d="M 1293.878895 123.492819 
L 1322.44415 123.492819 
L 1322.44415 123.492819 
L 1293.878895 123.492819 
z
" style="fill:#4c72b0;opacity:0.4;"/>
   </g>
   <g id="patch_86">
    <path clip-path="url(#p4c0fdcce88)" d="M 1322.44415 123.492819 
L 1351.009406 123.492819 
L 1351.009406 123.492819 
L 1322.44415 123.492819 
z
" style="fill:#4c72b0;opacity:0.4;"/>
   </g>
   <g id="patch_87">
    <path clip-path="url(#p4c0fdcce88)" d="M 1351.009406 123.492819 
L 1379.574661 123.492819 
L 1379.574661 123.492819 
L 1351.009406 123.492819 
z
" style="fill:#4c72b0;opacity:0.4;"/>
   </g>
   <g id="patch_88">
    <path clip-path="url(#p4c0fdcce88)" d="M 1379.574661 123.492819 
L 1408.139916 123.492819 
L 1408.139916 123.492819 
L 1379.574661 123.492819 
z
" style="fill:#4c72b0;opacity:0.4;"/>
   </g>
   <g id="patch_89">
    <path clip-path="url(#p4c0fdcce88)" d="M 1408.139916 123.492819 
L 1436.705171 123.492819 
L 1436.705171 123.492819 
L 1408.139916 123.492819 
z
" style="fill:#4c72b0;opacity:0.4;"/>
   </g>
   <g id="matplotlib.axis_7">
    <g id="xtick_68">
     <g id="line2d_89">
      <g>
       <use style="stroke:#000000;stroke-width:3;" x="939.333668" xlink:href="#m8eaa8544bd" y="123.492819"/>
      </g>
     </g>
     <g id="text_19">
      <!-- 1 -->
      <g transform="translate(934.879918 144.130632)scale(0.14 -0.14)">
       <use xlink:href="#DejaVuSans-49"/>
      </g>
     </g>
    </g>
    <g id="xtick_69">
     <g id="line2d_90">
      <g>
       <use style="stroke:#000000;stroke-width:3;" x="1050.970991" xlink:href="#m8eaa8544bd" y="123.492819"/>
      </g>
     </g>
     <g id="text_20">
      <!-- 10 -->
      <g transform="translate(1042.063491 144.130632)scale(0.14 -0.14)">
       <use xlink:href="#DejaVuSans-49"/>
       <use x="63.623047" xlink:href="#DejaVuSans-48"/>
      </g>
     </g>
    </g>
    <g id="xtick_70">
     <g id="line2d_91">
      <g>
       <use style="stroke:#000000;stroke-width:3;" x="1162.608313" xlink:href="#m8eaa8544bd" y="123.492819"/>
      </g>
     </g>
     <g id="text_21">
      <!-- 100 -->
      <g transform="translate(1149.247063 144.130632)scale(0.14 -0.14)">
       <use xlink:href="#DejaVuSans-49"/>
       <use x="63.623047" xlink:href="#DejaVuSans-48"/>
       <use x="127.246094" xlink:href="#DejaVuSans-48"/>
      </g>
     </g>
    </g>
    <g id="xtick_71">
     <g id="line2d_92">
      <g>
       <use style="stroke:#000000;stroke-width:2;" x="939.333668" xlink:href="#m2e30eddf71" y="123.492819"/>
      </g>
     </g>
    </g>
    <g id="xtick_72">
     <g id="line2d_93">
      <g>
       <use style="stroke:#000000;stroke-width:2;" x="972.939851" xlink:href="#m2e30eddf71" y="123.492819"/>
      </g>
     </g>
    </g>
    <g id="xtick_73">
     <g id="line2d_94">
      <g>
       <use style="stroke:#000000;stroke-width:2;" x="992.598208" xlink:href="#m2e30eddf71" y="123.492819"/>
      </g>
     </g>
    </g>
    <g id="xtick_74">
     <g id="line2d_95">
      <g>
       <use style="stroke:#000000;stroke-width:2;" x="1006.546034" xlink:href="#m2e30eddf71" y="123.492819"/>
      </g>
     </g>
    </g>
    <g id="xtick_75">
     <g id="line2d_96">
      <g>
       <use style="stroke:#000000;stroke-width:2;" x="1017.364808" xlink:href="#m2e30eddf71" y="123.492819"/>
      </g>
     </g>
    </g>
    <g id="xtick_76">
     <g id="line2d_97">
      <g>
       <use style="stroke:#000000;stroke-width:2;" x="1026.20439" xlink:href="#m2e30eddf71" y="123.492819"/>
      </g>
     </g>
    </g>
    <g id="xtick_77">
     <g id="line2d_98">
      <g>
       <use style="stroke:#000000;stroke-width:2;" x="1033.678151" xlink:href="#m2e30eddf71" y="123.492819"/>
      </g>
     </g>
    </g>
    <g id="xtick_78">
     <g id="line2d_99">
      <g>
       <use style="stroke:#000000;stroke-width:2;" x="1040.152216" xlink:href="#m2e30eddf71" y="123.492819"/>
      </g>
     </g>
    </g>
    <g id="xtick_79">
     <g id="line2d_100">
      <g>
       <use style="stroke:#000000;stroke-width:2;" x="1045.862747" xlink:href="#m2e30eddf71" y="123.492819"/>
      </g>
     </g>
    </g>
    <g id="xtick_80">
     <g id="line2d_101">
      <g>
       <use style="stroke:#000000;stroke-width:2;" x="1050.970991" xlink:href="#m2e30eddf71" y="123.492819"/>
      </g>
     </g>
    </g>
    <g id="xtick_81">
     <g id="line2d_102">
      <g>
       <use style="stroke:#000000;stroke-width:2;" x="1084.577173" xlink:href="#m2e30eddf71" y="123.492819"/>
      </g>
     </g>
    </g>
    <g id="xtick_82">
     <g id="line2d_103">
      <g>
       <use style="stroke:#000000;stroke-width:2;" x="1104.23553" xlink:href="#m2e30eddf71" y="123.492819"/>
      </g>
     </g>
    </g>
    <g id="xtick_83">
     <g id="line2d_104">
      <g>
       <use style="stroke:#000000;stroke-width:2;" x="1118.183356" xlink:href="#m2e30eddf71" y="123.492819"/>
      </g>
     </g>
    </g>
    <g id="xtick_84">
     <g id="line2d_105">
      <g>
       <use style="stroke:#000000;stroke-width:2;" x="1129.00213" xlink:href="#m2e30eddf71" y="123.492819"/>
      </g>
     </g>
    </g>
    <g id="xtick_85">
     <g id="line2d_106">
      <g>
       <use style="stroke:#000000;stroke-width:2;" x="1137.841713" xlink:href="#m2e30eddf71" y="123.492819"/>
      </g>
     </g>
    </g>
    <g id="xtick_86">
     <g id="line2d_107">
      <g>
       <use style="stroke:#000000;stroke-width:2;" x="1145.315473" xlink:href="#m2e30eddf71" y="123.492819"/>
      </g>
     </g>
    </g>
    <g id="xtick_87">
     <g id="line2d_108">
      <g>
       <use style="stroke:#000000;stroke-width:2;" x="1151.789539" xlink:href="#m2e30eddf71" y="123.492819"/>
      </g>
     </g>
    </g>
    <g id="xtick_88">
     <g id="line2d_109">
      <g>
       <use style="stroke:#000000;stroke-width:2;" x="1157.500069" xlink:href="#m2e30eddf71" y="123.492819"/>
      </g>
     </g>
    </g>
    <g id="xtick_89">
     <g id="line2d_110">
      <g>
       <use style="stroke:#000000;stroke-width:2;" x="1162.608313" xlink:href="#m2e30eddf71" y="123.492819"/>
      </g>
     </g>
    </g>
    <g id="text_22">
     <!-- Bout length (syllables) -->
     <g transform="translate(959.321923 165.719382)scale(0.18 -0.18)">
      <use xlink:href="#DejaVuSans-66"/>
      <use x="68.603516" xlink:href="#DejaVuSans-111"/>
      <use x="129.785156" xlink:href="#DejaVuSans-117"/>
      <use x="193.164062" xlink:href="#DejaVuSans-116"/>
      <use x="232.373047" xlink:href="#DejaVuSans-32"/>
      <use x="264.160156" xlink:href="#DejaVuSans-108"/>
      <use x="291.943359" xlink:href="#DejaVuSans-101"/>
      <use x="353.466797" xlink:href="#DejaVuSans-110"/>
      <use x="416.845703" xlink:href="#DejaVuSans-103"/>
      <use x="480.322266" xlink:href="#DejaVuSans-116"/>
      <use x="519.53125" xlink:href="#DejaVuSans-104"/>
      <use x="582.910156" xlink:href="#DejaVuSans-32"/>
      <use x="614.697266" xlink:href="#DejaVuSans-40"/>
      <use x="653.710938" xlink:href="#DejaVuSans-115"/>
      <use x="705.810547" xlink:href="#DejaVuSans-121"/>
      <use x="764.990234" xlink:href="#DejaVuSans-108"/>
      <use x="792.773438" xlink:href="#DejaVuSans-108"/>
      <use x="820.556641" xlink:href="#DejaVuSans-97"/>
      <use x="881.835938" xlink:href="#DejaVuSans-98"/>
      <use x="945.3125" xlink:href="#DejaVuSans-108"/>
      <use x="973.095703" xlink:href="#DejaVuSans-101"/>
      <use x="1034.619141" xlink:href="#DejaVuSans-115"/>
      <use x="1086.71875" xlink:href="#DejaVuSans-41"/>
     </g>
    </g>
   </g>
   <g id="matplotlib.axis_8">
    <g id="ytick_16">
     <g id="line2d_111">
      <g>
       <use style="stroke:#000000;stroke-width:3;" x="939.333668" xlink:href="#m699bf12d97" y="123.492819"/>
      </g>
     </g>
    </g>
    <g id="ytick_17">
     <g id="line2d_112">
      <g>
       <use style="stroke:#000000;stroke-width:3;" x="939.333668" xlink:href="#m699bf12d97" y="93.949341"/>
      </g>
     </g>
    </g>
    <g id="ytick_18">
     <g id="line2d_113">
      <g>
       <use style="stroke:#000000;stroke-width:3;" x="939.333668" xlink:href="#m699bf12d97" y="64.405863"/>
      </g>
     </g>
    </g>
    <g id="ytick_19">
     <g id="line2d_114">
      <g>
       <use style="stroke:#000000;stroke-width:3;" x="939.333668" xlink:href="#m699bf12d97" y="34.862385"/>
      </g>
     </g>
    </g>
    <g id="ytick_20">
     <g id="line2d_115">
      <g>
       <use style="stroke:#000000;stroke-width:3;" x="939.333668" xlink:href="#m699bf12d97" y="5.318906"/>
      </g>
     </g>
    </g>
   </g>
   <g id="line2d_116">
    <path clip-path="url(#p4c0fdcce88)" d="M 947.735214 123.482945 
L 956.802098 123.357867 
L 963.602261 123.03729 
L 970.402423 122.679257 
L 974.935865 122.630615 
L 995.336354 122.919826 
L 1020.270284 123.032474 
L 1036.13733 123.178071 
L 1058.80454 123.204882 
L 1063.337981 123.057429 
L 1065.604702 122.86923 
L 1067.871423 122.525897 
L 1070.138144 121.938473 
L 1072.404865 120.997864 
L 1074.671586 119.585944 
L 1076.938307 117.593021 
L 1079.205028 114.938028 
L 1081.471749 111.585724 
L 1083.73847 107.555679 
L 1086.005191 102.921071 
L 1088.271912 97.799942 
L 1097.338795 75.866575 
L 1099.605516 71.046363 
L 1101.872237 66.902917 
L 1104.138958 63.572524 
L 1106.405679 61.101837 
L 1108.6724 59.432998 
L 1110.939121 58.413621 
L 1113.205842 57.830901 
L 1120.006005 56.669859 
L 1126.806167 55.001042 
L 1129.072888 54.843246 
L 1131.339609 55.303306 
L 1133.60633 56.662307 
L 1135.873051 59.150967 
L 1138.139772 62.890699 
L 1140.406493 67.847684 
L 1142.673214 73.817911 
L 1151.740098 100.080728 
L 1154.006818 105.359259 
L 1156.273539 109.706709 
L 1158.54026 113.128961 
L 1160.806981 115.71947 
L 1163.073702 117.62108 
L 1165.340423 118.991596 
L 1167.607144 119.978218 
L 1169.873865 120.702195 
L 1172.140586 121.252845 
L 1176.674028 122.044674 
L 1181.20747 122.578176 
L 1182.942364 122.725799 
L 1182.942364 122.725799 
" style="fill:none;stroke:#4c72b0;stroke-linecap:square;stroke-width:6;"/>
   </g>
   <g id="line2d_117">
    <path clip-path="url(#p4c0fdcce88)" d="M 1120.548873 123.492819 
L 1120.548873 5.318906 
" style="fill:none;stroke:#4c72b0;stroke-dasharray:11.1,4.8;stroke-dashoffset:0;stroke-opacity:0.5;stroke-width:3;"/>
   </g>
   <g id="patch_90">
    <path d="M 939.333668 123.492819 
L 939.333668 5.318906 
" style="fill:none;stroke:#000000;stroke-linecap:square;stroke-linejoin:miter;stroke-width:3;"/>
   </g>
   <g id="patch_91">
    <path d="M 1181.942364 123.492819 
L 1181.942364 5.318906 
" style="fill:none;stroke:#000000;stroke-linecap:square;stroke-linejoin:miter;stroke-width:3;"/>
   </g>
   <g id="patch_92">
    <path d="M 939.333668 123.492819 
L 1181.942364 123.492819 
" style="fill:none;stroke:#000000;stroke-linecap:square;stroke-linejoin:miter;stroke-width:3;"/>
   </g>
   <g id="patch_93">
    <path d="M 939.333668 5.318906 
L 1181.942364 5.318906 
" style="fill:none;stroke:#000000;stroke-linecap:square;stroke-linejoin:miter;stroke-width:3;"/>
   </g>
  </g>
 </g>
 <defs>
  <clipPath id="pc5b59ca154">
   <rect height="118.173913" width="242.608696" x="65.942364" y="5.318906"/>
  </clipPath>
  <clipPath id="p20ad92f0c9">
   <rect height="118.173913" width="242.608696" x="357.072799" y="5.318906"/>
  </clipPath>
  <clipPath id="p5e8d7d8f39">
   <rect height="118.173913" width="242.608696" x="648.203234" y="5.318906"/>
  </clipPath>
  <clipPath id="p4c0fdcce88">
   <rect height="118.173913" width="242.608696" x="939.333668" y="5.318906"/>
  </clipPath>
 </defs>
</svg>
