<?xml version="1.0" encoding="utf-8" standalone="no"?>
<!DOCTYPE svg PUBLIC "-//W3C//DTD SVG 1.1//EN"
  "http://www.w3.org/Graphics/SVG/1.1/DTD/svg11.dtd">
<!-- Created with matplotlib (https://matplotlib.org/) -->
<svg height="261.85625pt" version="1.1" viewBox="0 0 1125.376445 261.85625" width="1125.376445pt" xmlns="http://www.w3.org/2000/svg" xmlns:xlink="http://www.w3.org/1999/xlink">
 <defs>
  <style type="text/css">
*{stroke-linecap:butt;stroke-linejoin:round;}
  </style>
 </defs>
 <g id="figure_1">
  <g id="patch_1">
   <path d="M 0 261.85625 
L 1125.376445 261.85625 
L 1125.376445 0 
L 0 0 
z
" style="fill:#ffffff;"/>
  </g>
  <g id="axes_1">
   <g id="patch_2">
    <path d="M 52.427188 227.2575 
L 280.176445 227.2575 
L 280.176445 18.1575 
L 52.427188 18.1575 
z
" style="fill:#ffffff;"/>
   </g>
   <g id="matplotlib.axis_1">
    <g id="xtick_1">
     <g id="line2d_1">
      <defs>
       <path d="M 0 0 
L 0 -10 
" id="md8fdb609b3" style="stroke:#000000;stroke-width:3;"/>
      </defs>
      <g>
       <use style="stroke:#000000;stroke-width:3;" x="153.35881" xlink:href="#md8fdb609b3" y="227.2575"/>
      </g>
     </g>
     <g id="text_1">
      <!-- $\mathdefault{10^{2}}$ -->
      <defs>
       <path d="M 12.40625 8.296875 
L 28.515625 8.296875 
L 28.515625 63.921875 
L 10.984375 60.40625 
L 10.984375 69.390625 
L 28.421875 72.90625 
L 38.28125 72.90625 
L 38.28125 8.296875 
L 54.390625 8.296875 
L 54.390625 0 
L 12.40625 0 
z
" id="DejaVuSans-49"/>
       <path d="M 31.78125 66.40625 
Q 24.171875 66.40625 20.328125 58.90625 
Q 16.5 51.421875 16.5 36.375 
Q 16.5 21.390625 20.328125 13.890625 
Q 24.171875 6.390625 31.78125 6.390625 
Q 39.453125 6.390625 43.28125 13.890625 
Q 47.125 21.390625 47.125 36.375 
Q 47.125 51.421875 43.28125 58.90625 
Q 39.453125 66.40625 31.78125 66.40625 
z
M 31.78125 74.21875 
Q 44.046875 74.21875 50.515625 64.515625 
Q 56.984375 54.828125 56.984375 36.375 
Q 56.984375 17.96875 50.515625 8.265625 
Q 44.046875 -1.421875 31.78125 -1.421875 
Q 19.53125 -1.421875 13.0625 8.265625 
Q 6.59375 17.96875 6.59375 36.375 
Q 6.59375 54.828125 13.0625 64.515625 
Q 19.53125 74.21875 31.78125 74.21875 
z
" id="DejaVuSans-48"/>
       <path d="M 19.1875 8.296875 
L 53.609375 8.296875 
L 53.609375 0 
L 7.328125 0 
L 7.328125 8.296875 
Q 12.9375 14.109375 22.625 23.890625 
Q 32.328125 33.6875 34.8125 36.53125 
Q 39.546875 41.84375 41.421875 45.53125 
Q 43.3125 49.21875 43.3125 52.78125 
Q 43.3125 58.59375 39.234375 62.25 
Q 35.15625 65.921875 28.609375 65.921875 
Q 23.96875 65.921875 18.8125 64.3125 
Q 13.671875 62.703125 7.8125 59.421875 
L 7.8125 69.390625 
Q 13.765625 71.78125 18.9375 73 
Q 24.125 74.21875 28.421875 74.21875 
Q 39.75 74.21875 46.484375 68.546875 
Q 53.21875 62.890625 53.21875 53.421875 
Q 53.21875 48.921875 51.53125 44.890625 
Q 49.859375 40.875 45.40625 35.40625 
Q 44.1875 33.984375 37.640625 27.21875 
Q 31.109375 20.453125 19.1875 8.296875 
z
" id="DejaVuSans-50"/>
      </defs>
      <g transform="translate(144.55881 238.355938)scale(0.1 -0.1)">
       <use transform="translate(0 0.765625)" xlink:href="#DejaVuSans-49"/>
       <use transform="translate(63.623047 0.765625)" xlink:href="#DejaVuSans-48"/>
       <use transform="translate(128.203125 39.046875)scale(0.7)" xlink:href="#DejaVuSans-50"/>
      </g>
     </g>
    </g>
    <g id="xtick_2">
     <g id="line2d_2">
      <g>
       <use style="stroke:#000000;stroke-width:3;" x="280.176445" xlink:href="#md8fdb609b3" y="227.2575"/>
      </g>
     </g>
     <g id="text_2">
      <!-- $\mathdefault{10^{3}}$ -->
      <defs>
       <path d="M 40.578125 39.3125 
Q 47.65625 37.796875 51.625 33 
Q 55.609375 28.21875 55.609375 21.1875 
Q 55.609375 10.40625 48.1875 4.484375 
Q 40.765625 -1.421875 27.09375 -1.421875 
Q 22.515625 -1.421875 17.65625 -0.515625 
Q 12.796875 0.390625 7.625 2.203125 
L 7.625 11.71875 
Q 11.71875 9.328125 16.59375 8.109375 
Q 21.484375 6.890625 26.8125 6.890625 
Q 36.078125 6.890625 40.9375 10.546875 
Q 45.796875 14.203125 45.796875 21.1875 
Q 45.796875 27.640625 41.28125 31.265625 
Q 36.765625 34.90625 28.71875 34.90625 
L 20.21875 34.90625 
L 20.21875 43.015625 
L 29.109375 43.015625 
Q 36.375 43.015625 40.234375 45.921875 
Q 44.09375 48.828125 44.09375 54.296875 
Q 44.09375 59.90625 40.109375 62.90625 
Q 36.140625 65.921875 28.71875 65.921875 
Q 24.65625 65.921875 20.015625 65.03125 
Q 15.375 64.15625 9.8125 62.3125 
L 9.8125 71.09375 
Q 15.4375 72.65625 20.34375 73.4375 
Q 25.25 74.21875 29.59375 74.21875 
Q 40.828125 74.21875 47.359375 69.109375 
Q 53.90625 64.015625 53.90625 55.328125 
Q 53.90625 49.265625 50.4375 45.09375 
Q 46.96875 40.921875 40.578125 39.3125 
z
" id="DejaVuSans-51"/>
      </defs>
      <g transform="translate(271.376445 238.355938)scale(0.1 -0.1)">
       <use transform="translate(0 0.765625)" xlink:href="#DejaVuSans-49"/>
       <use transform="translate(63.623047 0.765625)" xlink:href="#DejaVuSans-48"/>
       <use transform="translate(128.203125 39.046875)scale(0.7)" xlink:href="#DejaVuSans-51"/>
      </g>
     </g>
    </g>
    <g id="xtick_3">
     <g id="line2d_3">
      <defs>
       <path d="M 0 0 
L 0 -5 
" id="mbc1d88dd1c" style="stroke:#000000;stroke-width:2;"/>
      </defs>
      <g>
       <use style="stroke:#000000;stroke-width:2;" x="64.717086" xlink:href="#mbc1d88dd1c" y="227.2575"/>
      </g>
     </g>
    </g>
    <g id="xtick_4">
     <g id="line2d_4">
      <g>
       <use style="stroke:#000000;stroke-width:2;" x="87.048563" xlink:href="#mbc1d88dd1c" y="227.2575"/>
      </g>
     </g>
    </g>
    <g id="xtick_5">
     <g id="line2d_5">
      <g>
       <use style="stroke:#000000;stroke-width:2;" x="102.892999" xlink:href="#mbc1d88dd1c" y="227.2575"/>
      </g>
     </g>
    </g>
    <g id="xtick_6">
     <g id="line2d_6">
      <g>
       <use style="stroke:#000000;stroke-width:2;" x="115.182897" xlink:href="#mbc1d88dd1c" y="227.2575"/>
      </g>
     </g>
    </g>
    <g id="xtick_7">
     <g id="line2d_7">
      <g>
       <use style="stroke:#000000;stroke-width:2;" x="125.224476" xlink:href="#mbc1d88dd1c" y="227.2575"/>
      </g>
     </g>
    </g>
    <g id="xtick_8">
     <g id="line2d_8">
      <g>
       <use style="stroke:#000000;stroke-width:2;" x="133.714509" xlink:href="#mbc1d88dd1c" y="227.2575"/>
      </g>
     </g>
    </g>
    <g id="xtick_9">
     <g id="line2d_9">
      <g>
       <use style="stroke:#000000;stroke-width:2;" x="141.068911" xlink:href="#mbc1d88dd1c" y="227.2575"/>
      </g>
     </g>
    </g>
    <g id="xtick_10">
     <g id="line2d_10">
      <g>
       <use style="stroke:#000000;stroke-width:2;" x="147.555953" xlink:href="#mbc1d88dd1c" y="227.2575"/>
      </g>
     </g>
    </g>
    <g id="xtick_11">
     <g id="line2d_11">
      <g>
       <use style="stroke:#000000;stroke-width:2;" x="191.534722" xlink:href="#mbc1d88dd1c" y="227.2575"/>
      </g>
     </g>
    </g>
    <g id="xtick_12">
     <g id="line2d_12">
      <g>
       <use style="stroke:#000000;stroke-width:2;" x="213.866199" xlink:href="#mbc1d88dd1c" y="227.2575"/>
      </g>
     </g>
    </g>
    <g id="xtick_13">
     <g id="line2d_13">
      <g>
       <use style="stroke:#000000;stroke-width:2;" x="229.710634" xlink:href="#mbc1d88dd1c" y="227.2575"/>
      </g>
     </g>
    </g>
    <g id="xtick_14">
     <g id="line2d_14">
      <g>
       <use style="stroke:#000000;stroke-width:2;" x="242.000533" xlink:href="#mbc1d88dd1c" y="227.2575"/>
      </g>
     </g>
    </g>
    <g id="xtick_15">
     <g id="line2d_15">
      <g>
       <use style="stroke:#000000;stroke-width:2;" x="252.042111" xlink:href="#mbc1d88dd1c" y="227.2575"/>
      </g>
     </g>
    </g>
    <g id="xtick_16">
     <g id="line2d_16">
      <g>
       <use style="stroke:#000000;stroke-width:2;" x="260.532145" xlink:href="#mbc1d88dd1c" y="227.2575"/>
      </g>
     </g>
    </g>
    <g id="xtick_17">
     <g id="line2d_17">
      <g>
       <use style="stroke:#000000;stroke-width:2;" x="267.886547" xlink:href="#mbc1d88dd1c" y="227.2575"/>
      </g>
     </g>
    </g>
    <g id="xtick_18">
     <g id="line2d_18">
      <g>
       <use style="stroke:#000000;stroke-width:2;" x="274.373589" xlink:href="#mbc1d88dd1c" y="227.2575"/>
      </g>
     </g>
    </g>
    <g id="text_3">
     <!-- Distance (syllables) -->
     <defs>
      <path d="M 19.671875 64.796875 
L 19.671875 8.109375 
L 31.59375 8.109375 
Q 46.6875 8.109375 53.6875 14.9375 
Q 60.6875 21.78125 60.6875 36.53125 
Q 60.6875 51.171875 53.6875 57.984375 
Q 46.6875 64.796875 31.59375 64.796875 
z
M 9.8125 72.90625 
L 30.078125 72.90625 
Q 51.265625 72.90625 61.171875 64.09375 
Q 71.09375 55.28125 71.09375 36.53125 
Q 71.09375 17.671875 61.125 8.828125 
Q 51.171875 0 30.078125 0 
L 9.8125 0 
z
" id="DejaVuSans-68"/>
      <path d="M 9.421875 54.6875 
L 18.40625 54.6875 
L 18.40625 0 
L 9.421875 0 
z
M 9.421875 75.984375 
L 18.40625 75.984375 
L 18.40625 64.59375 
L 9.421875 64.59375 
z
" id="DejaVuSans-105"/>
      <path d="M 44.28125 53.078125 
L 44.28125 44.578125 
Q 40.484375 46.53125 36.375 47.5 
Q 32.28125 48.484375 27.875 48.484375 
Q 21.1875 48.484375 17.84375 46.4375 
Q 14.5 44.390625 14.5 40.28125 
Q 14.5 37.15625 16.890625 35.375 
Q 19.28125 33.59375 26.515625 31.984375 
L 29.59375 31.296875 
Q 39.15625 29.25 43.1875 25.515625 
Q 47.21875 21.78125 47.21875 15.09375 
Q 47.21875 7.46875 41.1875 3.015625 
Q 35.15625 -1.421875 24.609375 -1.421875 
Q 20.21875 -1.421875 15.453125 -0.5625 
Q 10.6875 0.296875 5.421875 2 
L 5.421875 11.28125 
Q 10.40625 8.6875 15.234375 7.390625 
Q 20.0625 6.109375 24.8125 6.109375 
Q 31.15625 6.109375 34.5625 8.28125 
Q 37.984375 10.453125 37.984375 14.40625 
Q 37.984375 18.0625 35.515625 20.015625 
Q 33.0625 21.96875 24.703125 23.78125 
L 21.578125 24.515625 
Q 13.234375 26.265625 9.515625 29.90625 
Q 5.8125 33.546875 5.8125 39.890625 
Q 5.8125 47.609375 11.28125 51.796875 
Q 16.75 56 26.8125 56 
Q 31.78125 56 36.171875 55.265625 
Q 40.578125 54.546875 44.28125 53.078125 
z
" id="DejaVuSans-115"/>
      <path d="M 18.3125 70.21875 
L 18.3125 54.6875 
L 36.8125 54.6875 
L 36.8125 47.703125 
L 18.3125 47.703125 
L 18.3125 18.015625 
Q 18.3125 11.328125 20.140625 9.421875 
Q 21.96875 7.515625 27.59375 7.515625 
L 36.8125 7.515625 
L 36.8125 0 
L 27.59375 0 
Q 17.1875 0 13.234375 3.875 
Q 9.28125 7.765625 9.28125 18.015625 
L 9.28125 47.703125 
L 2.6875 47.703125 
L 2.6875 54.6875 
L 9.28125 54.6875 
L 9.28125 70.21875 
z
" id="DejaVuSans-116"/>
      <path d="M 34.28125 27.484375 
Q 23.390625 27.484375 19.1875 25 
Q 14.984375 22.515625 14.984375 16.5 
Q 14.984375 11.71875 18.140625 8.90625 
Q 21.296875 6.109375 26.703125 6.109375 
Q 34.1875 6.109375 38.703125 11.40625 
Q 43.21875 16.703125 43.21875 25.484375 
L 43.21875 27.484375 
z
M 52.203125 31.203125 
L 52.203125 0 
L 43.21875 0 
L 43.21875 8.296875 
Q 40.140625 3.328125 35.546875 0.953125 
Q 30.953125 -1.421875 24.3125 -1.421875 
Q 15.921875 -1.421875 10.953125 3.296875 
Q 6 8.015625 6 15.921875 
Q 6 25.140625 12.171875 29.828125 
Q 18.359375 34.515625 30.609375 34.515625 
L 43.21875 34.515625 
L 43.21875 35.40625 
Q 43.21875 41.609375 39.140625 45 
Q 35.0625 48.390625 27.6875 48.390625 
Q 23 48.390625 18.546875 47.265625 
Q 14.109375 46.140625 10.015625 43.890625 
L 10.015625 52.203125 
Q 14.9375 54.109375 19.578125 55.046875 
Q 24.21875 56 28.609375 56 
Q 40.484375 56 46.34375 49.84375 
Q 52.203125 43.703125 52.203125 31.203125 
z
" id="DejaVuSans-97"/>
      <path d="M 54.890625 33.015625 
L 54.890625 0 
L 45.90625 0 
L 45.90625 32.71875 
Q 45.90625 40.484375 42.875 44.328125 
Q 39.84375 48.1875 33.796875 48.1875 
Q 26.515625 48.1875 22.3125 43.546875 
Q 18.109375 38.921875 18.109375 30.90625 
L 18.109375 0 
L 9.078125 0 
L 9.078125 54.6875 
L 18.109375 54.6875 
L 18.109375 46.1875 
Q 21.34375 51.125 25.703125 53.5625 
Q 30.078125 56 35.796875 56 
Q 45.21875 56 50.046875 50.171875 
Q 54.890625 44.34375 54.890625 33.015625 
z
" id="DejaVuSans-110"/>
      <path d="M 48.78125 52.59375 
L 48.78125 44.1875 
Q 44.96875 46.296875 41.140625 47.34375 
Q 37.3125 48.390625 33.40625 48.390625 
Q 24.65625 48.390625 19.8125 42.84375 
Q 14.984375 37.3125 14.984375 27.296875 
Q 14.984375 17.28125 19.8125 11.734375 
Q 24.65625 6.203125 33.40625 6.203125 
Q 37.3125 6.203125 41.140625 7.25 
Q 44.96875 8.296875 48.78125 10.40625 
L 48.78125 2.09375 
Q 45.015625 0.34375 40.984375 -0.53125 
Q 36.96875 -1.421875 32.421875 -1.421875 
Q 20.0625 -1.421875 12.78125 6.34375 
Q 5.515625 14.109375 5.515625 27.296875 
Q 5.515625 40.671875 12.859375 48.328125 
Q 20.21875 56 33.015625 56 
Q 37.15625 56 41.109375 55.140625 
Q 45.0625 54.296875 48.78125 52.59375 
z
" id="DejaVuSans-99"/>
      <path d="M 56.203125 29.59375 
L 56.203125 25.203125 
L 14.890625 25.203125 
Q 15.484375 15.921875 20.484375 11.0625 
Q 25.484375 6.203125 34.421875 6.203125 
Q 39.59375 6.203125 44.453125 7.46875 
Q 49.3125 8.734375 54.109375 11.28125 
L 54.109375 2.78125 
Q 49.265625 0.734375 44.1875 -0.34375 
Q 39.109375 -1.421875 33.890625 -1.421875 
Q 20.796875 -1.421875 13.15625 6.1875 
Q 5.515625 13.8125 5.515625 26.8125 
Q 5.515625 40.234375 12.765625 48.109375 
Q 20.015625 56 32.328125 56 
Q 43.359375 56 49.78125 48.890625 
Q 56.203125 41.796875 56.203125 29.59375 
z
M 47.21875 32.234375 
Q 47.125 39.59375 43.09375 43.984375 
Q 39.0625 48.390625 32.421875 48.390625 
Q 24.90625 48.390625 20.390625 44.140625 
Q 15.875 39.890625 15.1875 32.171875 
z
" id="DejaVuSans-101"/>
      <path id="DejaVuSans-32"/>
      <path d="M 31 75.875 
Q 24.46875 64.65625 21.28125 53.65625 
Q 18.109375 42.671875 18.109375 31.390625 
Q 18.109375 20.125 21.3125 9.0625 
Q 24.515625 -2 31 -13.1875 
L 23.1875 -13.1875 
Q 15.875 -1.703125 12.234375 9.375 
Q 8.59375 20.453125 8.59375 31.390625 
Q 8.59375 42.28125 12.203125 53.3125 
Q 15.828125 64.359375 23.1875 75.875 
z
" id="DejaVuSans-40"/>
      <path d="M 32.171875 -5.078125 
Q 28.375 -14.84375 24.75 -17.8125 
Q 21.140625 -20.796875 15.09375 -20.796875 
L 7.90625 -20.796875 
L 7.90625 -13.28125 
L 13.1875 -13.28125 
Q 16.890625 -13.28125 18.9375 -11.515625 
Q 21 -9.765625 23.484375 -3.21875 
L 25.09375 0.875 
L 2.984375 54.6875 
L 12.5 54.6875 
L 29.59375 11.921875 
L 46.6875 54.6875 
L 56.203125 54.6875 
z
" id="DejaVuSans-121"/>
      <path d="M 9.421875 75.984375 
L 18.40625 75.984375 
L 18.40625 0 
L 9.421875 0 
z
" id="DejaVuSans-108"/>
      <path d="M 48.6875 27.296875 
Q 48.6875 37.203125 44.609375 42.84375 
Q 40.53125 48.484375 33.40625 48.484375 
Q 26.265625 48.484375 22.1875 42.84375 
Q 18.109375 37.203125 18.109375 27.296875 
Q 18.109375 17.390625 22.1875 11.75 
Q 26.265625 6.109375 33.40625 6.109375 
Q 40.53125 6.109375 44.609375 11.75 
Q 48.6875 17.390625 48.6875 27.296875 
z
M 18.109375 46.390625 
Q 20.953125 51.265625 25.265625 53.625 
Q 29.59375 56 35.59375 56 
Q 45.5625 56 51.78125 48.09375 
Q 58.015625 40.1875 58.015625 27.296875 
Q 58.015625 14.40625 51.78125 6.484375 
Q 45.5625 -1.421875 35.59375 -1.421875 
Q 29.59375 -1.421875 25.265625 0.953125 
Q 20.953125 3.328125 18.109375 8.203125 
L 18.109375 0 
L 9.078125 0 
L 9.078125 75.984375 
L 18.109375 75.984375 
z
" id="DejaVuSans-98"/>
      <path d="M 8.015625 75.875 
L 15.828125 75.875 
Q 23.140625 64.359375 26.78125 53.3125 
Q 30.421875 42.28125 30.421875 31.390625 
Q 30.421875 20.453125 26.78125 9.375 
Q 23.140625 -1.703125 15.828125 -13.1875 
L 8.015625 -13.1875 
Q 14.5 -2 17.703125 9.0625 
Q 20.90625 20.125 20.90625 31.390625 
Q 20.90625 42.671875 17.703125 53.65625 
Q 14.5 64.65625 8.015625 75.875 
z
" id="DejaVuSans-41"/>
     </defs>
     <g transform="translate(78.094785 258.112813)scale(0.18 -0.18)">
      <use xlink:href="#DejaVuSans-68"/>
      <use x="77.001953" xlink:href="#DejaVuSans-105"/>
      <use x="104.785156" xlink:href="#DejaVuSans-115"/>
      <use x="156.884766" xlink:href="#DejaVuSans-116"/>
      <use x="196.09375" xlink:href="#DejaVuSans-97"/>
      <use x="257.373047" xlink:href="#DejaVuSans-110"/>
      <use x="320.751953" xlink:href="#DejaVuSans-99"/>
      <use x="375.732422" xlink:href="#DejaVuSans-101"/>
      <use x="437.255859" xlink:href="#DejaVuSans-32"/>
      <use x="469.042969" xlink:href="#DejaVuSans-40"/>
      <use x="508.056641" xlink:href="#DejaVuSans-115"/>
      <use x="560.15625" xlink:href="#DejaVuSans-121"/>
      <use x="619.335938" xlink:href="#DejaVuSans-108"/>
      <use x="647.119141" xlink:href="#DejaVuSans-108"/>
      <use x="674.902344" xlink:href="#DejaVuSans-97"/>
      <use x="736.181641" xlink:href="#DejaVuSans-98"/>
      <use x="799.658203" xlink:href="#DejaVuSans-108"/>
      <use x="827.441406" xlink:href="#DejaVuSans-101"/>
      <use x="888.964844" xlink:href="#DejaVuSans-115"/>
      <use x="941.064453" xlink:href="#DejaVuSans-41"/>
     </g>
    </g>
   </g>
   <g id="matplotlib.axis_2">
    <g id="ytick_1">
     <g id="line2d_19">
      <defs>
       <path d="M 0 0 
L 10 0 
" id="m095897c0a0" style="stroke:#000000;stroke-width:3;"/>
      </defs>
      <g>
       <use style="stroke:#000000;stroke-width:3;" x="52.427188" xlink:href="#m095897c0a0" y="215.867103"/>
      </g>
     </g>
     <g id="text_4">
      <!-- −400 -->
      <defs>
       <path d="M 10.59375 35.5 
L 73.1875 35.5 
L 73.1875 27.203125 
L 10.59375 27.203125 
z
" id="DejaVuSans-8722"/>
       <path d="M 37.796875 64.3125 
L 12.890625 25.390625 
L 37.796875 25.390625 
z
M 35.203125 72.90625 
L 47.609375 72.90625 
L 47.609375 25.390625 
L 58.015625 25.390625 
L 58.015625 17.1875 
L 47.609375 17.1875 
L 47.609375 0 
L 37.796875 0 
L 37.796875 17.1875 
L 4.890625 17.1875 
L 4.890625 26.703125 
z
" id="DejaVuSans-52"/>
      </defs>
      <g transform="translate(21.46 219.666322)scale(0.1 -0.1)">
       <use xlink:href="#DejaVuSans-8722"/>
       <use x="83.789062" xlink:href="#DejaVuSans-52"/>
       <use x="147.412109" xlink:href="#DejaVuSans-48"/>
       <use x="211.035156" xlink:href="#DejaVuSans-48"/>
      </g>
     </g>
    </g>
    <g id="ytick_2">
     <g id="line2d_20">
      <g>
       <use style="stroke:#000000;stroke-width:3;" x="52.427188" xlink:href="#m095897c0a0" y="190.685466"/>
      </g>
     </g>
     <g id="text_5">
      <!-- −350 -->
      <defs>
       <path d="M 10.796875 72.90625 
L 49.515625 72.90625 
L 49.515625 64.59375 
L 19.828125 64.59375 
L 19.828125 46.734375 
Q 21.96875 47.46875 24.109375 47.828125 
Q 26.265625 48.1875 28.421875 48.1875 
Q 40.625 48.1875 47.75 41.5 
Q 54.890625 34.8125 54.890625 23.390625 
Q 54.890625 11.625 47.5625 5.09375 
Q 40.234375 -1.421875 26.90625 -1.421875 
Q 22.3125 -1.421875 17.546875 -0.640625 
Q 12.796875 0.140625 7.71875 1.703125 
L 7.71875 11.625 
Q 12.109375 9.234375 16.796875 8.0625 
Q 21.484375 6.890625 26.703125 6.890625 
Q 35.15625 6.890625 40.078125 11.328125 
Q 45.015625 15.765625 45.015625 23.390625 
Q 45.015625 31 40.078125 35.4375 
Q 35.15625 39.890625 26.703125 39.890625 
Q 22.75 39.890625 18.8125 39.015625 
Q 14.890625 38.140625 10.796875 36.28125 
z
" id="DejaVuSans-53"/>
      </defs>
      <g transform="translate(21.46 194.484684)scale(0.1 -0.1)">
       <use xlink:href="#DejaVuSans-8722"/>
       <use x="83.789062" xlink:href="#DejaVuSans-51"/>
       <use x="147.412109" xlink:href="#DejaVuSans-53"/>
       <use x="211.035156" xlink:href="#DejaVuSans-48"/>
      </g>
     </g>
    </g>
    <g id="ytick_3">
     <g id="line2d_21">
      <g>
       <use style="stroke:#000000;stroke-width:3;" x="52.427188" xlink:href="#m095897c0a0" y="165.503828"/>
      </g>
     </g>
     <g id="text_6">
      <!-- −300 -->
      <g transform="translate(21.46 169.303047)scale(0.1 -0.1)">
       <use xlink:href="#DejaVuSans-8722"/>
       <use x="83.789062" xlink:href="#DejaVuSans-51"/>
       <use x="147.412109" xlink:href="#DejaVuSans-48"/>
       <use x="211.035156" xlink:href="#DejaVuSans-48"/>
      </g>
     </g>
    </g>
    <g id="ytick_4">
     <g id="line2d_22">
      <g>
       <use style="stroke:#000000;stroke-width:3;" x="52.427188" xlink:href="#m095897c0a0" y="140.32219"/>
      </g>
     </g>
     <g id="text_7">
      <!-- −250 -->
      <g transform="translate(21.46 144.121409)scale(0.1 -0.1)">
       <use xlink:href="#DejaVuSans-8722"/>
       <use x="83.789062" xlink:href="#DejaVuSans-50"/>
       <use x="147.412109" xlink:href="#DejaVuSans-53"/>
       <use x="211.035156" xlink:href="#DejaVuSans-48"/>
      </g>
     </g>
    </g>
    <g id="ytick_5">
     <g id="line2d_23">
      <g>
       <use style="stroke:#000000;stroke-width:3;" x="52.427188" xlink:href="#m095897c0a0" y="115.140553"/>
      </g>
     </g>
     <g id="text_8">
      <!-- −200 -->
      <g transform="translate(21.46 118.939771)scale(0.1 -0.1)">
       <use xlink:href="#DejaVuSans-8722"/>
       <use x="83.789062" xlink:href="#DejaVuSans-50"/>
       <use x="147.412109" xlink:href="#DejaVuSans-48"/>
       <use x="211.035156" xlink:href="#DejaVuSans-48"/>
      </g>
     </g>
    </g>
    <g id="ytick_6">
     <g id="line2d_24">
      <g>
       <use style="stroke:#000000;stroke-width:3;" x="52.427188" xlink:href="#m095897c0a0" y="89.958915"/>
      </g>
     </g>
     <g id="text_9">
      <!-- −150 -->
      <g transform="translate(21.46 93.758134)scale(0.1 -0.1)">
       <use xlink:href="#DejaVuSans-8722"/>
       <use x="83.789062" xlink:href="#DejaVuSans-49"/>
       <use x="147.412109" xlink:href="#DejaVuSans-53"/>
       <use x="211.035156" xlink:href="#DejaVuSans-48"/>
      </g>
     </g>
    </g>
    <g id="ytick_7">
     <g id="line2d_25">
      <g>
       <use style="stroke:#000000;stroke-width:3;" x="52.427188" xlink:href="#m095897c0a0" y="64.777277"/>
      </g>
     </g>
     <g id="text_10">
      <!-- −100 -->
      <g transform="translate(21.46 68.576496)scale(0.1 -0.1)">
       <use xlink:href="#DejaVuSans-8722"/>
       <use x="83.789062" xlink:href="#DejaVuSans-49"/>
       <use x="147.412109" xlink:href="#DejaVuSans-48"/>
       <use x="211.035156" xlink:href="#DejaVuSans-48"/>
      </g>
     </g>
    </g>
    <g id="ytick_8">
     <g id="line2d_26">
      <g>
       <use style="stroke:#000000;stroke-width:3;" x="52.427188" xlink:href="#m095897c0a0" y="39.59564"/>
      </g>
     </g>
     <g id="text_11">
      <!-- −50 -->
      <g transform="translate(27.8225 43.394858)scale(0.1 -0.1)">
       <use xlink:href="#DejaVuSans-8722"/>
       <use x="83.789062" xlink:href="#DejaVuSans-53"/>
       <use x="147.412109" xlink:href="#DejaVuSans-48"/>
      </g>
     </g>
    </g>
    <g id="text_12">
     <!-- $\Delta$AICc (comp.- exp.) -->
     <defs>
      <path d="M 34.1875 63.1875 
L 14.15625 8.203125 
L 54.25 8.203125 
z
M 0.78125 0 
L 28.609375 72.90625 
L 39.796875 72.90625 
L 67.578125 0 
z
" id="DejaVuSans-916"/>
      <path d="M 34.1875 63.1875 
L 20.796875 26.90625 
L 47.609375 26.90625 
z
M 28.609375 72.90625 
L 39.796875 72.90625 
L 67.578125 0 
L 57.328125 0 
L 50.6875 18.703125 
L 17.828125 18.703125 
L 11.1875 0 
L 0.78125 0 
z
" id="DejaVuSans-65"/>
      <path d="M 9.8125 72.90625 
L 19.671875 72.90625 
L 19.671875 0 
L 9.8125 0 
z
" id="DejaVuSans-73"/>
      <path d="M 64.40625 67.28125 
L 64.40625 56.890625 
Q 59.421875 61.53125 53.78125 63.8125 
Q 48.140625 66.109375 41.796875 66.109375 
Q 29.296875 66.109375 22.65625 58.46875 
Q 16.015625 50.828125 16.015625 36.375 
Q 16.015625 21.96875 22.65625 14.328125 
Q 29.296875 6.6875 41.796875 6.6875 
Q 48.140625 6.6875 53.78125 8.984375 
Q 59.421875 11.28125 64.40625 15.921875 
L 64.40625 5.609375 
Q 59.234375 2.09375 53.4375 0.328125 
Q 47.65625 -1.421875 41.21875 -1.421875 
Q 24.65625 -1.421875 15.125 8.703125 
Q 5.609375 18.84375 5.609375 36.375 
Q 5.609375 53.953125 15.125 64.078125 
Q 24.65625 74.21875 41.21875 74.21875 
Q 47.75 74.21875 53.53125 72.484375 
Q 59.328125 70.75 64.40625 67.28125 
z
" id="DejaVuSans-67"/>
      <path d="M 30.609375 48.390625 
Q 23.390625 48.390625 19.1875 42.75 
Q 14.984375 37.109375 14.984375 27.296875 
Q 14.984375 17.484375 19.15625 11.84375 
Q 23.34375 6.203125 30.609375 6.203125 
Q 37.796875 6.203125 41.984375 11.859375 
Q 46.1875 17.53125 46.1875 27.296875 
Q 46.1875 37.015625 41.984375 42.703125 
Q 37.796875 48.390625 30.609375 48.390625 
z
M 30.609375 56 
Q 42.328125 56 49.015625 48.375 
Q 55.71875 40.765625 55.71875 27.296875 
Q 55.71875 13.875 49.015625 6.21875 
Q 42.328125 -1.421875 30.609375 -1.421875 
Q 18.84375 -1.421875 12.171875 6.21875 
Q 5.515625 13.875 5.515625 27.296875 
Q 5.515625 40.765625 12.171875 48.375 
Q 18.84375 56 30.609375 56 
z
" id="DejaVuSans-111"/>
      <path d="M 52 44.1875 
Q 55.375 50.25 60.0625 53.125 
Q 64.75 56 71.09375 56 
Q 79.640625 56 84.28125 50.015625 
Q 88.921875 44.046875 88.921875 33.015625 
L 88.921875 0 
L 79.890625 0 
L 79.890625 32.71875 
Q 79.890625 40.578125 77.09375 44.375 
Q 74.3125 48.1875 68.609375 48.1875 
Q 61.625 48.1875 57.5625 43.546875 
Q 53.515625 38.921875 53.515625 30.90625 
L 53.515625 0 
L 44.484375 0 
L 44.484375 32.71875 
Q 44.484375 40.625 41.703125 44.40625 
Q 38.921875 48.1875 33.109375 48.1875 
Q 26.21875 48.1875 22.15625 43.53125 
Q 18.109375 38.875 18.109375 30.90625 
L 18.109375 0 
L 9.078125 0 
L 9.078125 54.6875 
L 18.109375 54.6875 
L 18.109375 46.1875 
Q 21.1875 51.21875 25.484375 53.609375 
Q 29.78125 56 35.6875 56 
Q 41.65625 56 45.828125 52.96875 
Q 50 49.953125 52 44.1875 
z
" id="DejaVuSans-109"/>
      <path d="M 18.109375 8.203125 
L 18.109375 -20.796875 
L 9.078125 -20.796875 
L 9.078125 54.6875 
L 18.109375 54.6875 
L 18.109375 46.390625 
Q 20.953125 51.265625 25.265625 53.625 
Q 29.59375 56 35.59375 56 
Q 45.5625 56 51.78125 48.09375 
Q 58.015625 40.1875 58.015625 27.296875 
Q 58.015625 14.40625 51.78125 6.484375 
Q 45.5625 -1.421875 35.59375 -1.421875 
Q 29.59375 -1.421875 25.265625 0.953125 
Q 20.953125 3.328125 18.109375 8.203125 
z
M 48.6875 27.296875 
Q 48.6875 37.203125 44.609375 42.84375 
Q 40.53125 48.484375 33.40625 48.484375 
Q 26.265625 48.484375 22.1875 42.84375 
Q 18.109375 37.203125 18.109375 27.296875 
Q 18.109375 17.390625 22.1875 11.75 
Q 26.265625 6.109375 33.40625 6.109375 
Q 40.53125 6.109375 44.609375 11.75 
Q 48.6875 17.390625 48.6875 27.296875 
z
" id="DejaVuSans-112"/>
      <path d="M 10.6875 12.40625 
L 21 12.40625 
L 21 0 
L 10.6875 0 
z
" id="DejaVuSans-46"/>
      <path d="M 4.890625 31.390625 
L 31.203125 31.390625 
L 31.203125 23.390625 
L 4.890625 23.390625 
z
" id="DejaVuSans-45"/>
      <path d="M 54.890625 54.6875 
L 35.109375 28.078125 
L 55.90625 0 
L 45.3125 0 
L 29.390625 21.484375 
L 13.484375 0 
L 2.875 0 
L 24.125 28.609375 
L 4.6875 54.6875 
L 15.28125 54.6875 
L 29.78125 35.203125 
L 44.28125 54.6875 
z
" id="DejaVuSans-120"/>
     </defs>
     <g transform="translate(13.68 212.1675)rotate(-90)scale(0.18 -0.18)">
      <use transform="translate(0 0.125)" xlink:href="#DejaVuSans-916"/>
      <use transform="translate(68.408203 0.125)" xlink:href="#DejaVuSans-65"/>
      <use transform="translate(136.816406 0.125)" xlink:href="#DejaVuSans-73"/>
      <use transform="translate(166.308594 0.125)" xlink:href="#DejaVuSans-67"/>
      <use transform="translate(236.132812 0.125)" xlink:href="#DejaVuSans-99"/>
      <use transform="translate(291.113281 0.125)" xlink:href="#DejaVuSans-32"/>
      <use transform="translate(322.900391 0.125)" xlink:href="#DejaVuSans-40"/>
      <use transform="translate(361.914062 0.125)" xlink:href="#DejaVuSans-99"/>
      <use transform="translate(416.894531 0.125)" xlink:href="#DejaVuSans-111"/>
      <use transform="translate(478.076172 0.125)" xlink:href="#DejaVuSans-109"/>
      <use transform="translate(575.488281 0.125)" xlink:href="#DejaVuSans-112"/>
      <use transform="translate(638.964844 0.125)" xlink:href="#DejaVuSans-46"/>
      <use transform="translate(670.751953 0.125)" xlink:href="#DejaVuSans-45"/>
      <use transform="translate(706.835938 0.125)" xlink:href="#DejaVuSans-32"/>
      <use transform="translate(738.623047 0.125)" xlink:href="#DejaVuSans-101"/>
      <use transform="translate(800.146484 0.125)" xlink:href="#DejaVuSans-120"/>
      <use transform="translate(859.326172 0.125)" xlink:href="#DejaVuSans-112"/>
      <use transform="translate(922.802734 0.125)" xlink:href="#DejaVuSans-46"/>
      <use transform="translate(954.589844 0.125)" xlink:href="#DejaVuSans-41"/>
     </g>
    </g>
   </g>
   <g id="line2d_27">
    <path clip-path="url(#p1c832c671e)" d="M 52.427188 27.662045 
L 64.717086 32.40458 
L 77.006985 38.18037 
L 87.048563 40.622117 
L 95.538597 48.176893 
L 102.892999 52.294186 
L 109.380041 54.796596 
L 115.182897 56.438947 
L 120.43222 62.407873 
L 125.224476 65.216538 
L 129.632924 66.371673 
L 133.714509 58.16543 
L 137.514374 57.90736 
L 141.068911 60.872459 
L 144.407885 62.510148 
L 147.555953 63.895704 
L 150.53377 64.984099 
L 153.35881 64.801603 
L 156.045986 67.624686 
L 158.10515 68.858533 
L 160.575348 71.372768 
L 162.939497 74.064862 
L 165.206327 77.086057 
L 167.383535 80.258832 
L 169.47794 82.337622 
L 171.495608 84.522101 
L 173.441966 85.676194 
L 175.321883 87.794262 
L 177.139744 91.000453 
L 178.899517 94.610007 
L 180.604798 97.114715 
L 183.864697 105.261052 
L 186.94238 114.397257 
L 188.419042 119.479722 
L 190.981188 129.76164 
L 192.35473 135.407365 
L 193.69485 140.299765 
L 195.003135 145.695652 
L 196.281062 151.886353 
L 197.530009 153.587235 
L 198.751261 157.208261 
L 199.946019 161.809949 
L 201.115409 165.732402 
L 202.260486 170.18565 
L 203.382239 166.30181 
L 204.481601 171.284678 
L 205.559448 175.251332 
L 206.616605 178.693791 
L 207.653852 172.787167 
L 208.671925 177.152608 
L 209.671521 182.494721 
L 210.653297 184.844963 
L 211.426309 180.776289 
L 212.377563 185.607016 
L 213.312665 189.059375 
L 214.232155 189.780706 
L 215.136547 179.816813 
L 216.026327 183.638697 
L 216.901961 182.327933 
L 217.763891 180.057745 
L 218.612539 184.133188 
L 219.448309 182.894309 
L 220.271586 187.217504 
L 221.082738 190.726214 
L 221.882116 189.8233 
L 222.670058 192.156552 
L 223.446886 191.252889 
L 224.21291 193.308237 
L 224.968425 195.775407 
L 225.713716 192.301716 
L 226.302772 190.773819 
L 227.030342 189.334051 
L 227.748425 191.691804 
L 228.457266 193.279642 
L 229.1571 186.429635 
L 229.848153 187.170932 
L 230.530642 189.877552 
L 231.204778 190.329786 
L 231.870762 191.114928 
L 232.528789 192.829672 
L 233.179047 191.155685 
L 233.821717 194.28824 
L 234.456974 192.92106 
L 235.084988 193.828198 
L 235.705921 195.273727 
L 236.319932 197.424521 
L 236.927173 194.871487 
L 237.527792 196.07504 
L 238.003615 197.314294 
L 238.592671 195.080037 
L 239.175493 196.511344 
L 239.752213 197.133983 
L 240.322956 199.03229 
L 240.887845 196.875979 
L 241.446999 198.222731 
L 242.000533 200.733116 
L 242.548559 201.152895 
L 243.091186 201.916101 
L 243.628519 204.435267 
L 244.160661 205.542043 
L 244.68771 204.771795 
L 245.209763 203.471512 
L 245.726914 209.332137 
L 246.239255 207.266852 
L 246.746873 208.028496 
L 247.249855 212.270109 
L 247.64896 208.128089 
L 248.634249 210.336111 
L 249.120362 212.294258 
L 249.602222 212.705441 
L 250.079902 211.358252 
L 250.553475 213.244885 
L 251.023011 209.354142 
L 251.488577 211.24899 
L 251.950241 211.646143 
L 252.408068 217.752955 
L 252.86212 214.220433 
L 253.312459 212.95698 
L 253.759146 216.189013 
L 254.202239 215.832499 
L 254.641796 215.859741 
L 255.077873 211.472586 
L 255.510524 209.997714 
L 255.854214 210.715836 
L 256.704173 209.647281 
L 257.124283 209.570101 
L 257.541213 208.550843 
L 257.955011 208.565792 
L 258.365722 206.359604 
L 258.773394 203.442615 
L 259.17807 203.705622 
L 259.579795 205.870657 
L 259.978611 204.570193 
L 260.374559 204.943505 
L 260.767681 203.641984 
L 261.158018 203.777155 
L 261.545607 203.181726 
L 261.930487 203.385732 
L 262.312697 204.072437 
L 262.692273 203.864787 
L 263.368985 205.029983 
L 263.741375 204.206992 
L 264.478685 205.997473 
L 264.843671 205.817091 
L 265.206254 207.550116 
L 265.566466 207.830702 
L 265.924337 207.640806 
L 266.279898 208.292035 
L 266.984207 209.239469 
L 267.679623 207.383819 
L 268.024065 207.6156 
L 268.366367 207.049143 
L 268.706555 204.716178 
L 269.044654 205.409316 
L 269.313647 206.534015 
L 269.648051 206.606691 
L 269.980437 206.796879 
L 270.310829 205.705913 
L 270.639251 205.836755 
L 270.965726 207.041336 
L 271.290278 206.369285 
L 271.612928 206.945528 
L 271.933699 205.69584 
L 272.252612 206.738953 
L 272.56969 206.691612 
L 272.884952 207.462371 
L 273.19842 205.90038 
L 273.510114 205.497285 
L 273.820054 205.860937 
L 274.12826 206.92366 
L 274.43475 206.26311 
L 274.982172 207.10602 
L 275.28396 205.876856 
L 275.584103 206.276272 
L 275.88262 207.184319 
L 276.179527 207.368893 
L 276.474843 207.880638 
L 276.768583 206.344456 
L 277.060765 207.07014 
L 277.351406 207.12849 
L 277.64052 205.935232 
L 277.928125 206.618498 
L 278.214236 205.793594 
L 278.498868 206.411686 
L 278.782037 206.093591 
L 279.063757 207.555164 
L 279.344044 208.326632 
L 279.622911 207.737836 
L 279.900374 207.545732 
L 280.176445 205.347577 
L 280.176445 205.347577 
" style="fill:none;stroke:#8172b3;stroke-linecap:square;stroke-width:4;"/>
   </g>
   <g id="patch_3">
    <path d="M 52.427188 227.2575 
L 52.427188 18.1575 
" style="fill:none;stroke:#000000;stroke-linecap:square;stroke-linejoin:miter;stroke-width:3;"/>
   </g>
   <g id="patch_4">
    <path d="M 280.176445 227.2575 
L 280.176445 18.1575 
" style="fill:none;stroke:#000000;stroke-linecap:square;stroke-linejoin:miter;stroke-width:3;"/>
   </g>
   <g id="patch_5">
    <path d="M 52.427188 227.2575 
L 280.176445 227.2575 
" style="fill:none;stroke:#000000;stroke-linecap:square;stroke-linejoin:miter;stroke-width:3;"/>
   </g>
   <g id="patch_6">
    <path d="M 52.427188 18.1575 
L 280.176445 18.1575 
" style="fill:none;stroke:#000000;stroke-linecap:square;stroke-linejoin:miter;stroke-width:3;"/>
   </g>
   <g id="text_13">
    <!-- finch -->
    <defs>
     <path d="M 37.109375 75.984375 
L 37.109375 68.5 
L 28.515625 68.5 
Q 23.6875 68.5 21.796875 66.546875 
Q 19.921875 64.59375 19.921875 59.515625 
L 19.921875 54.6875 
L 34.71875 54.6875 
L 34.71875 47.703125 
L 19.921875 47.703125 
L 19.921875 0 
L 10.890625 0 
L 10.890625 47.703125 
L 2.296875 47.703125 
L 2.296875 54.6875 
L 10.890625 54.6875 
L 10.890625 58.5 
Q 10.890625 67.625 15.140625 71.796875 
Q 19.390625 75.984375 28.609375 75.984375 
z
" id="DejaVuSans-102"/>
     <path d="M 54.890625 33.015625 
L 54.890625 0 
L 45.90625 0 
L 45.90625 32.71875 
Q 45.90625 40.484375 42.875 44.328125 
Q 39.84375 48.1875 33.796875 48.1875 
Q 26.515625 48.1875 22.3125 43.546875 
Q 18.109375 38.921875 18.109375 30.90625 
L 18.109375 0 
L 9.078125 0 
L 9.078125 75.984375 
L 18.109375 75.984375 
L 18.109375 46.1875 
Q 21.34375 51.125 25.703125 53.5625 
Q 30.078125 56 35.796875 56 
Q 45.21875 56 50.046875 50.171875 
Q 54.890625 44.34375 54.890625 33.015625 
z
" id="DejaVuSans-104"/>
    </defs>
    <g transform="translate(146.724316 12.1575)scale(0.16 -0.16)">
     <use xlink:href="#DejaVuSans-102"/>
     <use x="35.205078" xlink:href="#DejaVuSans-105"/>
     <use x="62.988281" xlink:href="#DejaVuSans-110"/>
     <use x="126.367188" xlink:href="#DejaVuSans-99"/>
     <use x="181.347656" xlink:href="#DejaVuSans-104"/>
    </g>
   </g>
  </g>
  <g id="axes_2">
   <g id="patch_7">
    <path d="M 331.227187 227.2575 
L 558.976445 227.2575 
L 558.976445 18.1575 
L 331.227187 18.1575 
z
" style="fill:#ffffff;"/>
   </g>
   <g id="matplotlib.axis_3">
    <g id="xtick_19">
     <g id="line2d_28">
      <g>
       <use style="stroke:#000000;stroke-width:3;" x="432.15881" xlink:href="#md8fdb609b3" y="227.2575"/>
      </g>
     </g>
     <g id="text_14">
      <!-- $\mathdefault{10^{2}}$ -->
      <g transform="translate(423.35881 238.355938)scale(0.1 -0.1)">
       <use transform="translate(0 0.765625)" xlink:href="#DejaVuSans-49"/>
       <use transform="translate(63.623047 0.765625)" xlink:href="#DejaVuSans-48"/>
       <use transform="translate(128.203125 39.046875)scale(0.7)" xlink:href="#DejaVuSans-50"/>
      </g>
     </g>
    </g>
    <g id="xtick_20">
     <g id="line2d_29">
      <g>
       <use style="stroke:#000000;stroke-width:3;" x="558.976445" xlink:href="#md8fdb609b3" y="227.2575"/>
      </g>
     </g>
     <g id="text_15">
      <!-- $\mathdefault{10^{3}}$ -->
      <g transform="translate(550.176445 238.355938)scale(0.1 -0.1)">
       <use transform="translate(0 0.765625)" xlink:href="#DejaVuSans-49"/>
       <use transform="translate(63.623047 0.765625)" xlink:href="#DejaVuSans-48"/>
       <use transform="translate(128.203125 39.046875)scale(0.7)" xlink:href="#DejaVuSans-51"/>
      </g>
     </g>
    </g>
    <g id="xtick_21">
     <g id="line2d_30">
      <g>
       <use style="stroke:#000000;stroke-width:2;" x="343.517086" xlink:href="#mbc1d88dd1c" y="227.2575"/>
      </g>
     </g>
    </g>
    <g id="xtick_22">
     <g id="line2d_31">
      <g>
       <use style="stroke:#000000;stroke-width:2;" x="365.848563" xlink:href="#mbc1d88dd1c" y="227.2575"/>
      </g>
     </g>
    </g>
    <g id="xtick_23">
     <g id="line2d_32">
      <g>
       <use style="stroke:#000000;stroke-width:2;" x="381.692999" xlink:href="#mbc1d88dd1c" y="227.2575"/>
      </g>
     </g>
    </g>
    <g id="xtick_24">
     <g id="line2d_33">
      <g>
       <use style="stroke:#000000;stroke-width:2;" x="393.982897" xlink:href="#mbc1d88dd1c" y="227.2575"/>
      </g>
     </g>
    </g>
    <g id="xtick_25">
     <g id="line2d_34">
      <g>
       <use style="stroke:#000000;stroke-width:2;" x="404.024476" xlink:href="#mbc1d88dd1c" y="227.2575"/>
      </g>
     </g>
    </g>
    <g id="xtick_26">
     <g id="line2d_35">
      <g>
       <use style="stroke:#000000;stroke-width:2;" x="412.514509" xlink:href="#mbc1d88dd1c" y="227.2575"/>
      </g>
     </g>
    </g>
    <g id="xtick_27">
     <g id="line2d_36">
      <g>
       <use style="stroke:#000000;stroke-width:2;" x="419.868911" xlink:href="#mbc1d88dd1c" y="227.2575"/>
      </g>
     </g>
    </g>
    <g id="xtick_28">
     <g id="line2d_37">
      <g>
       <use style="stroke:#000000;stroke-width:2;" x="426.355953" xlink:href="#mbc1d88dd1c" y="227.2575"/>
      </g>
     </g>
    </g>
    <g id="xtick_29">
     <g id="line2d_38">
      <g>
       <use style="stroke:#000000;stroke-width:2;" x="470.334722" xlink:href="#mbc1d88dd1c" y="227.2575"/>
      </g>
     </g>
    </g>
    <g id="xtick_30">
     <g id="line2d_39">
      <g>
       <use style="stroke:#000000;stroke-width:2;" x="492.666199" xlink:href="#mbc1d88dd1c" y="227.2575"/>
      </g>
     </g>
    </g>
    <g id="xtick_31">
     <g id="line2d_40">
      <g>
       <use style="stroke:#000000;stroke-width:2;" x="508.510634" xlink:href="#mbc1d88dd1c" y="227.2575"/>
      </g>
     </g>
    </g>
    <g id="xtick_32">
     <g id="line2d_41">
      <g>
       <use style="stroke:#000000;stroke-width:2;" x="520.800533" xlink:href="#mbc1d88dd1c" y="227.2575"/>
      </g>
     </g>
    </g>
    <g id="xtick_33">
     <g id="line2d_42">
      <g>
       <use style="stroke:#000000;stroke-width:2;" x="530.842111" xlink:href="#mbc1d88dd1c" y="227.2575"/>
      </g>
     </g>
    </g>
    <g id="xtick_34">
     <g id="line2d_43">
      <g>
       <use style="stroke:#000000;stroke-width:2;" x="539.332145" xlink:href="#mbc1d88dd1c" y="227.2575"/>
      </g>
     </g>
    </g>
    <g id="xtick_35">
     <g id="line2d_44">
      <g>
       <use style="stroke:#000000;stroke-width:2;" x="546.686547" xlink:href="#mbc1d88dd1c" y="227.2575"/>
      </g>
     </g>
    </g>
    <g id="xtick_36">
     <g id="line2d_45">
      <g>
       <use style="stroke:#000000;stroke-width:2;" x="553.173589" xlink:href="#mbc1d88dd1c" y="227.2575"/>
      </g>
     </g>
    </g>
    <g id="text_16">
     <!-- Distance (syllables) -->
     <g transform="translate(356.894785 258.112813)scale(0.18 -0.18)">
      <use xlink:href="#DejaVuSans-68"/>
      <use x="77.001953" xlink:href="#DejaVuSans-105"/>
      <use x="104.785156" xlink:href="#DejaVuSans-115"/>
      <use x="156.884766" xlink:href="#DejaVuSans-116"/>
      <use x="196.09375" xlink:href="#DejaVuSans-97"/>
      <use x="257.373047" xlink:href="#DejaVuSans-110"/>
      <use x="320.751953" xlink:href="#DejaVuSans-99"/>
      <use x="375.732422" xlink:href="#DejaVuSans-101"/>
      <use x="437.255859" xlink:href="#DejaVuSans-32"/>
      <use x="469.042969" xlink:href="#DejaVuSans-40"/>
      <use x="508.056641" xlink:href="#DejaVuSans-115"/>
      <use x="560.15625" xlink:href="#DejaVuSans-121"/>
      <use x="619.335938" xlink:href="#DejaVuSans-108"/>
      <use x="647.119141" xlink:href="#DejaVuSans-108"/>
      <use x="674.902344" xlink:href="#DejaVuSans-97"/>
      <use x="736.181641" xlink:href="#DejaVuSans-98"/>
      <use x="799.658203" xlink:href="#DejaVuSans-108"/>
      <use x="827.441406" xlink:href="#DejaVuSans-101"/>
      <use x="888.964844" xlink:href="#DejaVuSans-115"/>
      <use x="941.064453" xlink:href="#DejaVuSans-41"/>
     </g>
    </g>
   </g>
   <g id="matplotlib.axis_4">
    <g id="ytick_9">
     <g id="line2d_46">
      <g>
       <use style="stroke:#000000;stroke-width:3;" x="331.227187" xlink:href="#m095897c0a0" y="226.937622"/>
      </g>
     </g>
     <g id="text_17">
      <!-- −600 -->
      <defs>
       <path d="M 33.015625 40.375 
Q 26.375 40.375 22.484375 35.828125 
Q 18.609375 31.296875 18.609375 23.390625 
Q 18.609375 15.53125 22.484375 10.953125 
Q 26.375 6.390625 33.015625 6.390625 
Q 39.65625 6.390625 43.53125 10.953125 
Q 47.40625 15.53125 47.40625 23.390625 
Q 47.40625 31.296875 43.53125 35.828125 
Q 39.65625 40.375 33.015625 40.375 
z
M 52.59375 71.296875 
L 52.59375 62.3125 
Q 48.875 64.0625 45.09375 64.984375 
Q 41.3125 65.921875 37.59375 65.921875 
Q 27.828125 65.921875 22.671875 59.328125 
Q 17.53125 52.734375 16.796875 39.40625 
Q 19.671875 43.65625 24.015625 45.921875 
Q 28.375 48.1875 33.59375 48.1875 
Q 44.578125 48.1875 50.953125 41.515625 
Q 57.328125 34.859375 57.328125 23.390625 
Q 57.328125 12.15625 50.6875 5.359375 
Q 44.046875 -1.421875 33.015625 -1.421875 
Q 20.359375 -1.421875 13.671875 8.265625 
Q 6.984375 17.96875 6.984375 36.375 
Q 6.984375 53.65625 15.1875 63.9375 
Q 23.390625 74.21875 37.203125 74.21875 
Q 40.921875 74.21875 44.703125 73.484375 
Q 48.484375 72.75 52.59375 71.296875 
z
" id="DejaVuSans-54"/>
      </defs>
      <g transform="translate(300.26 230.736841)scale(0.1 -0.1)">
       <use xlink:href="#DejaVuSans-8722"/>
       <use x="83.789062" xlink:href="#DejaVuSans-54"/>
       <use x="147.412109" xlink:href="#DejaVuSans-48"/>
       <use x="211.035156" xlink:href="#DejaVuSans-48"/>
      </g>
     </g>
    </g>
    <g id="ytick_10">
     <g id="line2d_47">
      <g>
       <use style="stroke:#000000;stroke-width:3;" x="331.227187" xlink:href="#m095897c0a0" y="193.278159"/>
      </g>
     </g>
     <g id="text_18">
      <!-- −500 -->
      <g transform="translate(300.26 197.077378)scale(0.1 -0.1)">
       <use xlink:href="#DejaVuSans-8722"/>
       <use x="83.789062" xlink:href="#DejaVuSans-53"/>
       <use x="147.412109" xlink:href="#DejaVuSans-48"/>
       <use x="211.035156" xlink:href="#DejaVuSans-48"/>
      </g>
     </g>
    </g>
    <g id="ytick_11">
     <g id="line2d_48">
      <g>
       <use style="stroke:#000000;stroke-width:3;" x="331.227187" xlink:href="#m095897c0a0" y="159.618697"/>
      </g>
     </g>
     <g id="text_19">
      <!-- −400 -->
      <g transform="translate(300.26 163.417916)scale(0.1 -0.1)">
       <use xlink:href="#DejaVuSans-8722"/>
       <use x="83.789062" xlink:href="#DejaVuSans-52"/>
       <use x="147.412109" xlink:href="#DejaVuSans-48"/>
       <use x="211.035156" xlink:href="#DejaVuSans-48"/>
      </g>
     </g>
    </g>
    <g id="ytick_12">
     <g id="line2d_49">
      <g>
       <use style="stroke:#000000;stroke-width:3;" x="331.227187" xlink:href="#m095897c0a0" y="125.959235"/>
      </g>
     </g>
     <g id="text_20">
      <!-- −300 -->
      <g transform="translate(300.26 129.758453)scale(0.1 -0.1)">
       <use xlink:href="#DejaVuSans-8722"/>
       <use x="83.789062" xlink:href="#DejaVuSans-51"/>
       <use x="147.412109" xlink:href="#DejaVuSans-48"/>
       <use x="211.035156" xlink:href="#DejaVuSans-48"/>
      </g>
     </g>
    </g>
    <g id="ytick_13">
     <g id="line2d_50">
      <g>
       <use style="stroke:#000000;stroke-width:3;" x="331.227187" xlink:href="#m095897c0a0" y="92.299772"/>
      </g>
     </g>
     <g id="text_21">
      <!-- −200 -->
      <g transform="translate(300.26 96.098991)scale(0.1 -0.1)">
       <use xlink:href="#DejaVuSans-8722"/>
       <use x="83.789062" xlink:href="#DejaVuSans-50"/>
       <use x="147.412109" xlink:href="#DejaVuSans-48"/>
       <use x="211.035156" xlink:href="#DejaVuSans-48"/>
      </g>
     </g>
    </g>
    <g id="ytick_14">
     <g id="line2d_51">
      <g>
       <use style="stroke:#000000;stroke-width:3;" x="331.227187" xlink:href="#m095897c0a0" y="58.64031"/>
      </g>
     </g>
     <g id="text_22">
      <!-- −100 -->
      <g transform="translate(300.26 62.439529)scale(0.1 -0.1)">
       <use xlink:href="#DejaVuSans-8722"/>
       <use x="83.789062" xlink:href="#DejaVuSans-49"/>
       <use x="147.412109" xlink:href="#DejaVuSans-48"/>
       <use x="211.035156" xlink:href="#DejaVuSans-48"/>
      </g>
     </g>
    </g>
    <g id="ytick_15">
     <g id="line2d_52">
      <g>
       <use style="stroke:#000000;stroke-width:3;" x="331.227187" xlink:href="#m095897c0a0" y="24.980848"/>
      </g>
     </g>
     <g id="text_23">
      <!-- 0 -->
      <g transform="translate(321.364687 28.780066)scale(0.1 -0.1)">
       <use xlink:href="#DejaVuSans-48"/>
      </g>
     </g>
    </g>
   </g>
   <g id="line2d_53">
    <path clip-path="url(#p8d14f80d06)" d="M 331.227187 27.662045 
L 343.517086 29.727439 
L 355.806985 32.309965 
L 365.848563 34.99157 
L 374.338597 37.38127 
L 381.692999 42.067086 
L 393.982897 51.920726 
L 399.23222 57.654981 
L 404.024476 63.358665 
L 408.432924 69.035791 
L 412.514509 73.347031 
L 419.868911 82.793119 
L 423.207885 84.894272 
L 426.355953 89.654437 
L 429.33377 94.677981 
L 432.15881 99.741871 
L 436.90515 109.368418 
L 439.375348 113.817954 
L 441.739497 119.475464 
L 444.006327 124.312395 
L 446.183535 125.044633 
L 450.295608 129.184999 
L 452.241966 133.531746 
L 454.121883 138.449011 
L 455.939744 142.425534 
L 457.699517 146.809422 
L 459.404798 152.324104 
L 461.058863 156.875023 
L 464.225033 167.220434 
L 465.74238 170.043503 
L 467.219042 174.580813 
L 468.657145 179.468737 
L 469.781188 183.822498 
L 472.49485 191.819692 
L 475.081062 201.750501 
L 476.330009 205.616714 
L 477.551261 211.054334 
L 478.746019 204.767884 
L 479.915409 204.83895 
L 481.060486 197.536299 
L 484.359448 210.659733 
L 485.416605 212.675439 
L 486.453852 217.752955 
L 487.471925 217.630381 
L 488.471521 215.860896 
L 489.453297 215.010782 
L 490.226309 211.142323 
L 491.177563 190.371027 
L 492.112665 179.724924 
L 493.032155 167.581231 
L 493.936547 111.503882 
L 494.826327 111.440773 
L 495.701961 108.905439 
L 496.563891 110.47946 
L 497.412539 107.15565 
L 498.248309 95.281886 
L 499.071586 93.711554 
L 499.882738 90.321773 
L 500.682116 79.850776 
L 501.470058 77.072996 
L 504.513716 77.072996 
L 505.102772 74.086678 
L 508.648153 74.086678 
L 509.330642 66.18829 
L 510.004778 63.03548 
L 510.670762 63.03548 
L 511.328789 60.094783 
L 515.119932 60.094783 
L 515.727173 52.817503 
L 516.327792 51.660439 
L 516.803615 52.908649 
L 517.392671 47.378141 
L 517.975493 46.762373 
L 518.552213 47.568566 
L 519.122956 47.568566 
L 519.687845 46.293384 
L 521.891186 46.293384 
L 522.428519 44.299883 
L 522.960661 40.397607 
L 523.48771 121.916727 
L 528.879902 121.916727 
L 529.353475 35.697007 
L 558.976445 35.697007 
L 558.976445 35.697007 
" style="fill:none;stroke:#03a596;stroke-linecap:square;stroke-width:4;"/>
   </g>
   <g id="patch_8">
    <path d="M 331.227187 227.2575 
L 331.227187 18.1575 
" style="fill:none;stroke:#000000;stroke-linecap:square;stroke-linejoin:miter;stroke-width:3;"/>
   </g>
   <g id="patch_9">
    <path d="M 558.976445 227.2575 
L 558.976445 18.1575 
" style="fill:none;stroke:#000000;stroke-linecap:square;stroke-linejoin:miter;stroke-width:3;"/>
   </g>
   <g id="patch_10">
    <path d="M 331.227187 227.2575 
L 558.976445 227.2575 
" style="fill:none;stroke:#000000;stroke-linecap:square;stroke-linejoin:miter;stroke-width:3;"/>
   </g>
   <g id="patch_11">
    <path d="M 331.227187 18.1575 
L 558.976445 18.1575 
" style="fill:none;stroke:#000000;stroke-linecap:square;stroke-linejoin:miter;stroke-width:3;"/>
   </g>
   <g id="text_24">
    <!-- thrasher -->
    <defs>
     <path d="M 41.109375 46.296875 
Q 39.59375 47.171875 37.8125 47.578125 
Q 36.03125 48 33.890625 48 
Q 26.265625 48 22.1875 43.046875 
Q 18.109375 38.09375 18.109375 28.8125 
L 18.109375 0 
L 9.078125 0 
L 9.078125 54.6875 
L 18.109375 54.6875 
L 18.109375 46.1875 
Q 20.953125 51.171875 25.484375 53.578125 
Q 30.03125 56 36.53125 56 
Q 37.453125 56 38.578125 55.875 
Q 39.703125 55.765625 41.0625 55.515625 
z
" id="DejaVuSans-114"/>
    </defs>
    <g transform="translate(411.255566 12.1575)scale(0.16 -0.16)">
     <use xlink:href="#DejaVuSans-116"/>
     <use x="39.208984" xlink:href="#DejaVuSans-104"/>
     <use x="102.587891" xlink:href="#DejaVuSans-114"/>
     <use x="143.701172" xlink:href="#DejaVuSans-97"/>
     <use x="204.980469" xlink:href="#DejaVuSans-115"/>
     <use x="257.080078" xlink:href="#DejaVuSans-104"/>
     <use x="320.458984" xlink:href="#DejaVuSans-101"/>
     <use x="381.982422" xlink:href="#DejaVuSans-114"/>
    </g>
   </g>
  </g>
  <g id="axes_3">
   <g id="patch_12">
    <path d="M 610.027188 227.2575 
L 837.776445 227.2575 
L 837.776445 18.1575 
L 610.027188 18.1575 
z
" style="fill:#ffffff;"/>
   </g>
   <g id="matplotlib.axis_5">
    <g id="xtick_37">
     <g id="line2d_54">
      <g>
       <use style="stroke:#000000;stroke-width:3;" x="710.95881" xlink:href="#md8fdb609b3" y="227.2575"/>
      </g>
     </g>
     <g id="text_25">
      <!-- $\mathdefault{10^{2}}$ -->
      <g transform="translate(702.15881 238.355938)scale(0.1 -0.1)">
       <use transform="translate(0 0.765625)" xlink:href="#DejaVuSans-49"/>
       <use transform="translate(63.623047 0.765625)" xlink:href="#DejaVuSans-48"/>
       <use transform="translate(128.203125 39.046875)scale(0.7)" xlink:href="#DejaVuSans-50"/>
      </g>
     </g>
    </g>
    <g id="xtick_38">
     <g id="line2d_55">
      <g>
       <use style="stroke:#000000;stroke-width:3;" x="837.776445" xlink:href="#md8fdb609b3" y="227.2575"/>
      </g>
     </g>
     <g id="text_26">
      <!-- $\mathdefault{10^{3}}$ -->
      <g transform="translate(828.976445 238.355938)scale(0.1 -0.1)">
       <use transform="translate(0 0.765625)" xlink:href="#DejaVuSans-49"/>
       <use transform="translate(63.623047 0.765625)" xlink:href="#DejaVuSans-48"/>
       <use transform="translate(128.203125 39.046875)scale(0.7)" xlink:href="#DejaVuSans-51"/>
      </g>
     </g>
    </g>
    <g id="xtick_39">
     <g id="line2d_56">
      <g>
       <use style="stroke:#000000;stroke-width:2;" x="622.317086" xlink:href="#mbc1d88dd1c" y="227.2575"/>
      </g>
     </g>
    </g>
    <g id="xtick_40">
     <g id="line2d_57">
      <g>
       <use style="stroke:#000000;stroke-width:2;" x="644.648563" xlink:href="#mbc1d88dd1c" y="227.2575"/>
      </g>
     </g>
    </g>
    <g id="xtick_41">
     <g id="line2d_58">
      <g>
       <use style="stroke:#000000;stroke-width:2;" x="660.492999" xlink:href="#mbc1d88dd1c" y="227.2575"/>
      </g>
     </g>
    </g>
    <g id="xtick_42">
     <g id="line2d_59">
      <g>
       <use style="stroke:#000000;stroke-width:2;" x="672.782897" xlink:href="#mbc1d88dd1c" y="227.2575"/>
      </g>
     </g>
    </g>
    <g id="xtick_43">
     <g id="line2d_60">
      <g>
       <use style="stroke:#000000;stroke-width:2;" x="682.824476" xlink:href="#mbc1d88dd1c" y="227.2575"/>
      </g>
     </g>
    </g>
    <g id="xtick_44">
     <g id="line2d_61">
      <g>
       <use style="stroke:#000000;stroke-width:2;" x="691.314509" xlink:href="#mbc1d88dd1c" y="227.2575"/>
      </g>
     </g>
    </g>
    <g id="xtick_45">
     <g id="line2d_62">
      <g>
       <use style="stroke:#000000;stroke-width:2;" x="698.668911" xlink:href="#mbc1d88dd1c" y="227.2575"/>
      </g>
     </g>
    </g>
    <g id="xtick_46">
     <g id="line2d_63">
      <g>
       <use style="stroke:#000000;stroke-width:2;" x="705.155953" xlink:href="#mbc1d88dd1c" y="227.2575"/>
      </g>
     </g>
    </g>
    <g id="xtick_47">
     <g id="line2d_64">
      <g>
       <use style="stroke:#000000;stroke-width:2;" x="749.134722" xlink:href="#mbc1d88dd1c" y="227.2575"/>
      </g>
     </g>
    </g>
    <g id="xtick_48">
     <g id="line2d_65">
      <g>
       <use style="stroke:#000000;stroke-width:2;" x="771.466199" xlink:href="#mbc1d88dd1c" y="227.2575"/>
      </g>
     </g>
    </g>
    <g id="xtick_49">
     <g id="line2d_66">
      <g>
       <use style="stroke:#000000;stroke-width:2;" x="787.310634" xlink:href="#mbc1d88dd1c" y="227.2575"/>
      </g>
     </g>
    </g>
    <g id="xtick_50">
     <g id="line2d_67">
      <g>
       <use style="stroke:#000000;stroke-width:2;" x="799.600533" xlink:href="#mbc1d88dd1c" y="227.2575"/>
      </g>
     </g>
    </g>
    <g id="xtick_51">
     <g id="line2d_68">
      <g>
       <use style="stroke:#000000;stroke-width:2;" x="809.642111" xlink:href="#mbc1d88dd1c" y="227.2575"/>
      </g>
     </g>
    </g>
    <g id="xtick_52">
     <g id="line2d_69">
      <g>
       <use style="stroke:#000000;stroke-width:2;" x="818.132145" xlink:href="#mbc1d88dd1c" y="227.2575"/>
      </g>
     </g>
    </g>
    <g id="xtick_53">
     <g id="line2d_70">
      <g>
       <use style="stroke:#000000;stroke-width:2;" x="825.486547" xlink:href="#mbc1d88dd1c" y="227.2575"/>
      </g>
     </g>
    </g>
    <g id="xtick_54">
     <g id="line2d_71">
      <g>
       <use style="stroke:#000000;stroke-width:2;" x="831.973589" xlink:href="#mbc1d88dd1c" y="227.2575"/>
      </g>
     </g>
    </g>
    <g id="text_27">
     <!-- Distance (syllables) -->
     <g transform="translate(635.694785 258.112813)scale(0.18 -0.18)">
      <use xlink:href="#DejaVuSans-68"/>
      <use x="77.001953" xlink:href="#DejaVuSans-105"/>
      <use x="104.785156" xlink:href="#DejaVuSans-115"/>
      <use x="156.884766" xlink:href="#DejaVuSans-116"/>
      <use x="196.09375" xlink:href="#DejaVuSans-97"/>
      <use x="257.373047" xlink:href="#DejaVuSans-110"/>
      <use x="320.751953" xlink:href="#DejaVuSans-99"/>
      <use x="375.732422" xlink:href="#DejaVuSans-101"/>
      <use x="437.255859" xlink:href="#DejaVuSans-32"/>
      <use x="469.042969" xlink:href="#DejaVuSans-40"/>
      <use x="508.056641" xlink:href="#DejaVuSans-115"/>
      <use x="560.15625" xlink:href="#DejaVuSans-121"/>
      <use x="619.335938" xlink:href="#DejaVuSans-108"/>
      <use x="647.119141" xlink:href="#DejaVuSans-108"/>
      <use x="674.902344" xlink:href="#DejaVuSans-97"/>
      <use x="736.181641" xlink:href="#DejaVuSans-98"/>
      <use x="799.658203" xlink:href="#DejaVuSans-108"/>
      <use x="827.441406" xlink:href="#DejaVuSans-101"/>
      <use x="888.964844" xlink:href="#DejaVuSans-115"/>
      <use x="941.064453" xlink:href="#DejaVuSans-41"/>
     </g>
    </g>
   </g>
   <g id="matplotlib.axis_6">
    <g id="ytick_16">
     <g id="line2d_72">
      <g>
       <use style="stroke:#000000;stroke-width:3;" x="610.027188" xlink:href="#m095897c0a0" y="203.203377"/>
      </g>
     </g>
     <g id="text_28">
      <!-- −120 -->
      <g transform="translate(579.06 207.002596)scale(0.1 -0.1)">
       <use xlink:href="#DejaVuSans-8722"/>
       <use x="83.789062" xlink:href="#DejaVuSans-49"/>
       <use x="147.412109" xlink:href="#DejaVuSans-50"/>
       <use x="211.035156" xlink:href="#DejaVuSans-48"/>
      </g>
     </g>
    </g>
    <g id="ytick_17">
     <g id="line2d_73">
      <g>
       <use style="stroke:#000000;stroke-width:3;" x="610.027188" xlink:href="#m095897c0a0" y="174.928318"/>
      </g>
     </g>
     <g id="text_29">
      <!-- −100 -->
      <g transform="translate(579.06 178.727537)scale(0.1 -0.1)">
       <use xlink:href="#DejaVuSans-8722"/>
       <use x="83.789062" xlink:href="#DejaVuSans-49"/>
       <use x="147.412109" xlink:href="#DejaVuSans-48"/>
       <use x="211.035156" xlink:href="#DejaVuSans-48"/>
      </g>
     </g>
    </g>
    <g id="ytick_18">
     <g id="line2d_74">
      <g>
       <use style="stroke:#000000;stroke-width:3;" x="610.027188" xlink:href="#m095897c0a0" y="146.65326"/>
      </g>
     </g>
     <g id="text_30">
      <!-- −80 -->
      <defs>
       <path d="M 31.78125 34.625 
Q 24.75 34.625 20.71875 30.859375 
Q 16.703125 27.09375 16.703125 20.515625 
Q 16.703125 13.921875 20.71875 10.15625 
Q 24.75 6.390625 31.78125 6.390625 
Q 38.8125 6.390625 42.859375 10.171875 
Q 46.921875 13.96875 46.921875 20.515625 
Q 46.921875 27.09375 42.890625 30.859375 
Q 38.875 34.625 31.78125 34.625 
z
M 21.921875 38.8125 
Q 15.578125 40.375 12.03125 44.71875 
Q 8.5 49.078125 8.5 55.328125 
Q 8.5 64.0625 14.71875 69.140625 
Q 20.953125 74.21875 31.78125 74.21875 
Q 42.671875 74.21875 48.875 69.140625 
Q 55.078125 64.0625 55.078125 55.328125 
Q 55.078125 49.078125 51.53125 44.71875 
Q 48 40.375 41.703125 38.8125 
Q 48.828125 37.15625 52.796875 32.3125 
Q 56.78125 27.484375 56.78125 20.515625 
Q 56.78125 9.90625 50.3125 4.234375 
Q 43.84375 -1.421875 31.78125 -1.421875 
Q 19.734375 -1.421875 13.25 4.234375 
Q 6.78125 9.90625 6.78125 20.515625 
Q 6.78125 27.484375 10.78125 32.3125 
Q 14.796875 37.15625 21.921875 38.8125 
z
M 18.3125 54.390625 
Q 18.3125 48.734375 21.84375 45.5625 
Q 25.390625 42.390625 31.78125 42.390625 
Q 38.140625 42.390625 41.71875 45.5625 
Q 45.3125 48.734375 45.3125 54.390625 
Q 45.3125 60.0625 41.71875 63.234375 
Q 38.140625 66.40625 31.78125 66.40625 
Q 25.390625 66.40625 21.84375 63.234375 
Q 18.3125 60.0625 18.3125 54.390625 
z
" id="DejaVuSans-56"/>
      </defs>
      <g transform="translate(585.4225 150.452479)scale(0.1 -0.1)">
       <use xlink:href="#DejaVuSans-8722"/>
       <use x="83.789062" xlink:href="#DejaVuSans-56"/>
       <use x="147.412109" xlink:href="#DejaVuSans-48"/>
      </g>
     </g>
    </g>
    <g id="ytick_19">
     <g id="line2d_75">
      <g>
       <use style="stroke:#000000;stroke-width:3;" x="610.027188" xlink:href="#m095897c0a0" y="118.378201"/>
      </g>
     </g>
     <g id="text_31">
      <!-- −60 -->
      <g transform="translate(585.4225 122.17742)scale(0.1 -0.1)">
       <use xlink:href="#DejaVuSans-8722"/>
       <use x="83.789062" xlink:href="#DejaVuSans-54"/>
       <use x="147.412109" xlink:href="#DejaVuSans-48"/>
      </g>
     </g>
    </g>
    <g id="ytick_20">
     <g id="line2d_76">
      <g>
       <use style="stroke:#000000;stroke-width:3;" x="610.027188" xlink:href="#m095897c0a0" y="90.103142"/>
      </g>
     </g>
     <g id="text_32">
      <!-- −40 -->
      <g transform="translate(585.4225 93.902361)scale(0.1 -0.1)">
       <use xlink:href="#DejaVuSans-8722"/>
       <use x="83.789062" xlink:href="#DejaVuSans-52"/>
       <use x="147.412109" xlink:href="#DejaVuSans-48"/>
      </g>
     </g>
    </g>
    <g id="ytick_21">
     <g id="line2d_77">
      <g>
       <use style="stroke:#000000;stroke-width:3;" x="610.027188" xlink:href="#m095897c0a0" y="61.828084"/>
      </g>
     </g>
     <g id="text_33">
      <!-- −20 -->
      <g transform="translate(585.4225 65.627302)scale(0.1 -0.1)">
       <use xlink:href="#DejaVuSans-8722"/>
       <use x="83.789062" xlink:href="#DejaVuSans-50"/>
       <use x="147.412109" xlink:href="#DejaVuSans-48"/>
      </g>
     </g>
    </g>
    <g id="ytick_22">
     <g id="line2d_78">
      <g>
       <use style="stroke:#000000;stroke-width:3;" x="610.027188" xlink:href="#m095897c0a0" y="33.553025"/>
      </g>
     </g>
     <g id="text_34">
      <!-- 0 -->
      <g transform="translate(600.164688 37.352244)scale(0.1 -0.1)">
       <use xlink:href="#DejaVuSans-48"/>
      </g>
     </g>
    </g>
   </g>
   <g id="line2d_79">
    <path clip-path="url(#pb454f8c748)" d="M 610.027188 101.86127 
L 622.317086 123.434916 
L 634.606985 149.363009 
L 644.648563 147.233001 
L 653.138597 156.605468 
L 660.492999 173.251913 
L 666.980041 179.81128 
L 672.782897 193.708632 
L 678.03222 208.174739 
L 682.824476 204.686631 
L 687.232924 212.658349 
L 691.314509 217.752955 
L 698.668911 177.776308 
L 702.007885 183.103347 
L 705.155953 177.40968 
L 708.13377 157.967122 
L 710.95881 142.971858 
L 713.645986 155.275092 
L 715.70515 161.474905 
L 718.175348 158.908363 
L 720.539497 159.944825 
L 722.806327 167.247242 
L 724.983535 161.567781 
L 727.07794 157.380118 
L 729.095608 143.399954 
L 731.041966 140.358128 
L 732.921883 144.272397 
L 734.739744 139.117192 
L 736.499517 137.893322 
L 738.204798 141.25502 
L 739.858863 143.049021 
L 741.464697 145.752116 
L 743.025033 132.276005 
L 744.54238 108.072443 
L 746.019042 95.843757 
L 747.457145 81.954543 
L 748.581188 28.248993 
L 749.95473 71.25561 
L 751.29485 68.787854 
L 753.881062 62.351379 
L 755.130009 27.662045 
L 756.351261 57.632209 
L 757.546019 56.183963 
L 758.715409 27.677388 
L 823.524337 27.831455 
L 837.776445 27.846741 
L 837.776445 27.846741 
" style="fill:none;stroke:#c44e52;stroke-linecap:square;stroke-width:4;"/>
   </g>
   <g id="patch_13">
    <path d="M 610.027188 227.2575 
L 610.027188 18.1575 
" style="fill:none;stroke:#000000;stroke-linecap:square;stroke-linejoin:miter;stroke-width:3;"/>
   </g>
   <g id="patch_14">
    <path d="M 837.776445 227.2575 
L 837.776445 18.1575 
" style="fill:none;stroke:#000000;stroke-linecap:square;stroke-linejoin:miter;stroke-width:3;"/>
   </g>
   <g id="patch_15">
    <path d="M 610.027188 227.2575 
L 837.776445 227.2575 
" style="fill:none;stroke:#000000;stroke-linecap:square;stroke-linejoin:miter;stroke-width:3;"/>
   </g>
   <g id="patch_16">
    <path d="M 610.027188 18.1575 
L 837.776445 18.1575 
" style="fill:none;stroke:#000000;stroke-linecap:square;stroke-linejoin:miter;stroke-width:3;"/>
   </g>
   <g id="text_35">
    <!-- vireo -->
    <defs>
     <path d="M 2.984375 54.6875 
L 12.5 54.6875 
L 29.59375 8.796875 
L 46.6875 54.6875 
L 56.203125 54.6875 
L 35.6875 0 
L 23.484375 0 
z
" id="DejaVuSans-118"/>
    </defs>
    <g transform="translate(703.840566 12.1575)scale(0.16 -0.16)">
     <use xlink:href="#DejaVuSans-118"/>
     <use x="59.179688" xlink:href="#DejaVuSans-105"/>
     <use x="86.962891" xlink:href="#DejaVuSans-114"/>
     <use x="128.044922" xlink:href="#DejaVuSans-101"/>
     <use x="189.568359" xlink:href="#DejaVuSans-111"/>
    </g>
   </g>
  </g>
  <g id="axes_4">
   <g id="patch_17">
    <path d="M 888.827188 227.2575 
L 1116.576445 227.2575 
L 1116.576445 18.1575 
L 888.827188 18.1575 
z
" style="fill:#ffffff;"/>
   </g>
   <g id="matplotlib.axis_7">
    <g id="xtick_55">
     <g id="line2d_80">
      <g>
       <use style="stroke:#000000;stroke-width:3;" x="989.75881" xlink:href="#md8fdb609b3" y="227.2575"/>
      </g>
     </g>
     <g id="text_36">
      <!-- $\mathdefault{10^{2}}$ -->
      <g transform="translate(980.95881 238.355938)scale(0.1 -0.1)">
       <use transform="translate(0 0.765625)" xlink:href="#DejaVuSans-49"/>
       <use transform="translate(63.623047 0.765625)" xlink:href="#DejaVuSans-48"/>
       <use transform="translate(128.203125 39.046875)scale(0.7)" xlink:href="#DejaVuSans-50"/>
      </g>
     </g>
    </g>
    <g id="xtick_56">
     <g id="line2d_81">
      <g>
       <use style="stroke:#000000;stroke-width:3;" x="1116.576445" xlink:href="#md8fdb609b3" y="227.2575"/>
      </g>
     </g>
     <g id="text_37">
      <!-- $\mathdefault{10^{3}}$ -->
      <g transform="translate(1107.776445 238.355938)scale(0.1 -0.1)">
       <use transform="translate(0 0.765625)" xlink:href="#DejaVuSans-49"/>
       <use transform="translate(63.623047 0.765625)" xlink:href="#DejaVuSans-48"/>
       <use transform="translate(128.203125 39.046875)scale(0.7)" xlink:href="#DejaVuSans-51"/>
      </g>
     </g>
    </g>
    <g id="xtick_57">
     <g id="line2d_82">
      <g>
       <use style="stroke:#000000;stroke-width:2;" x="901.117086" xlink:href="#mbc1d88dd1c" y="227.2575"/>
      </g>
     </g>
    </g>
    <g id="xtick_58">
     <g id="line2d_83">
      <g>
       <use style="stroke:#000000;stroke-width:2;" x="923.448563" xlink:href="#mbc1d88dd1c" y="227.2575"/>
      </g>
     </g>
    </g>
    <g id="xtick_59">
     <g id="line2d_84">
      <g>
       <use style="stroke:#000000;stroke-width:2;" x="939.292999" xlink:href="#mbc1d88dd1c" y="227.2575"/>
      </g>
     </g>
    </g>
    <g id="xtick_60">
     <g id="line2d_85">
      <g>
       <use style="stroke:#000000;stroke-width:2;" x="951.582897" xlink:href="#mbc1d88dd1c" y="227.2575"/>
      </g>
     </g>
    </g>
    <g id="xtick_61">
     <g id="line2d_86">
      <g>
       <use style="stroke:#000000;stroke-width:2;" x="961.624476" xlink:href="#mbc1d88dd1c" y="227.2575"/>
      </g>
     </g>
    </g>
    <g id="xtick_62">
     <g id="line2d_87">
      <g>
       <use style="stroke:#000000;stroke-width:2;" x="970.114509" xlink:href="#mbc1d88dd1c" y="227.2575"/>
      </g>
     </g>
    </g>
    <g id="xtick_63">
     <g id="line2d_88">
      <g>
       <use style="stroke:#000000;stroke-width:2;" x="977.468911" xlink:href="#mbc1d88dd1c" y="227.2575"/>
      </g>
     </g>
    </g>
    <g id="xtick_64">
     <g id="line2d_89">
      <g>
       <use style="stroke:#000000;stroke-width:2;" x="983.955953" xlink:href="#mbc1d88dd1c" y="227.2575"/>
      </g>
     </g>
    </g>
    <g id="xtick_65">
     <g id="line2d_90">
      <g>
       <use style="stroke:#000000;stroke-width:2;" x="1027.934722" xlink:href="#mbc1d88dd1c" y="227.2575"/>
      </g>
     </g>
    </g>
    <g id="xtick_66">
     <g id="line2d_91">
      <g>
       <use style="stroke:#000000;stroke-width:2;" x="1050.266199" xlink:href="#mbc1d88dd1c" y="227.2575"/>
      </g>
     </g>
    </g>
    <g id="xtick_67">
     <g id="line2d_92">
      <g>
       <use style="stroke:#000000;stroke-width:2;" x="1066.110634" xlink:href="#mbc1d88dd1c" y="227.2575"/>
      </g>
     </g>
    </g>
    <g id="xtick_68">
     <g id="line2d_93">
      <g>
       <use style="stroke:#000000;stroke-width:2;" x="1078.400533" xlink:href="#mbc1d88dd1c" y="227.2575"/>
      </g>
     </g>
    </g>
    <g id="xtick_69">
     <g id="line2d_94">
      <g>
       <use style="stroke:#000000;stroke-width:2;" x="1088.442111" xlink:href="#mbc1d88dd1c" y="227.2575"/>
      </g>
     </g>
    </g>
    <g id="xtick_70">
     <g id="line2d_95">
      <g>
       <use style="stroke:#000000;stroke-width:2;" x="1096.932145" xlink:href="#mbc1d88dd1c" y="227.2575"/>
      </g>
     </g>
    </g>
    <g id="xtick_71">
     <g id="line2d_96">
      <g>
       <use style="stroke:#000000;stroke-width:2;" x="1104.286547" xlink:href="#mbc1d88dd1c" y="227.2575"/>
      </g>
     </g>
    </g>
    <g id="xtick_72">
     <g id="line2d_97">
      <g>
       <use style="stroke:#000000;stroke-width:2;" x="1110.773589" xlink:href="#mbc1d88dd1c" y="227.2575"/>
      </g>
     </g>
    </g>
    <g id="text_38">
     <!-- Distance (syllables) -->
     <g transform="translate(914.494785 258.112813)scale(0.18 -0.18)">
      <use xlink:href="#DejaVuSans-68"/>
      <use x="77.001953" xlink:href="#DejaVuSans-105"/>
      <use x="104.785156" xlink:href="#DejaVuSans-115"/>
      <use x="156.884766" xlink:href="#DejaVuSans-116"/>
      <use x="196.09375" xlink:href="#DejaVuSans-97"/>
      <use x="257.373047" xlink:href="#DejaVuSans-110"/>
      <use x="320.751953" xlink:href="#DejaVuSans-99"/>
      <use x="375.732422" xlink:href="#DejaVuSans-101"/>
      <use x="437.255859" xlink:href="#DejaVuSans-32"/>
      <use x="469.042969" xlink:href="#DejaVuSans-40"/>
      <use x="508.056641" xlink:href="#DejaVuSans-115"/>
      <use x="560.15625" xlink:href="#DejaVuSans-121"/>
      <use x="619.335938" xlink:href="#DejaVuSans-108"/>
      <use x="647.119141" xlink:href="#DejaVuSans-108"/>
      <use x="674.902344" xlink:href="#DejaVuSans-97"/>
      <use x="736.181641" xlink:href="#DejaVuSans-98"/>
      <use x="799.658203" xlink:href="#DejaVuSans-108"/>
      <use x="827.441406" xlink:href="#DejaVuSans-101"/>
      <use x="888.964844" xlink:href="#DejaVuSans-115"/>
      <use x="941.064453" xlink:href="#DejaVuSans-41"/>
     </g>
    </g>
   </g>
   <g id="matplotlib.axis_8">
    <g id="ytick_23">
     <g id="line2d_98">
      <g>
       <use style="stroke:#000000;stroke-width:3;" x="888.827188" xlink:href="#m095897c0a0" y="196.230413"/>
      </g>
     </g>
     <g id="text_39">
      <!-- −300 -->
      <g transform="translate(857.86 200.029632)scale(0.1 -0.1)">
       <use xlink:href="#DejaVuSans-8722"/>
       <use x="83.789062" xlink:href="#DejaVuSans-51"/>
       <use x="147.412109" xlink:href="#DejaVuSans-48"/>
       <use x="211.035156" xlink:href="#DejaVuSans-48"/>
      </g>
     </g>
    </g>
    <g id="ytick_24">
     <g id="line2d_99">
      <g>
       <use style="stroke:#000000;stroke-width:3;" x="888.827188" xlink:href="#m095897c0a0" y="163.40336"/>
      </g>
     </g>
     <g id="text_40">
      <!-- −250 -->
      <g transform="translate(857.86 167.202579)scale(0.1 -0.1)">
       <use xlink:href="#DejaVuSans-8722"/>
       <use x="83.789062" xlink:href="#DejaVuSans-50"/>
       <use x="147.412109" xlink:href="#DejaVuSans-53"/>
       <use x="211.035156" xlink:href="#DejaVuSans-48"/>
      </g>
     </g>
    </g>
    <g id="ytick_25">
     <g id="line2d_100">
      <g>
       <use style="stroke:#000000;stroke-width:3;" x="888.827188" xlink:href="#m095897c0a0" y="130.576308"/>
      </g>
     </g>
     <g id="text_41">
      <!-- −200 -->
      <g transform="translate(857.86 134.375526)scale(0.1 -0.1)">
       <use xlink:href="#DejaVuSans-8722"/>
       <use x="83.789062" xlink:href="#DejaVuSans-50"/>
       <use x="147.412109" xlink:href="#DejaVuSans-48"/>
       <use x="211.035156" xlink:href="#DejaVuSans-48"/>
      </g>
     </g>
    </g>
    <g id="ytick_26">
     <g id="line2d_101">
      <g>
       <use style="stroke:#000000;stroke-width:3;" x="888.827188" xlink:href="#m095897c0a0" y="97.749255"/>
      </g>
     </g>
     <g id="text_42">
      <!-- −150 -->
      <g transform="translate(857.86 101.548474)scale(0.1 -0.1)">
       <use xlink:href="#DejaVuSans-8722"/>
       <use x="83.789062" xlink:href="#DejaVuSans-49"/>
       <use x="147.412109" xlink:href="#DejaVuSans-53"/>
       <use x="211.035156" xlink:href="#DejaVuSans-48"/>
      </g>
     </g>
    </g>
    <g id="ytick_27">
     <g id="line2d_102">
      <g>
       <use style="stroke:#000000;stroke-width:3;" x="888.827188" xlink:href="#m095897c0a0" y="64.922202"/>
      </g>
     </g>
     <g id="text_43">
      <!-- −100 -->
      <g transform="translate(857.86 68.721421)scale(0.1 -0.1)">
       <use xlink:href="#DejaVuSans-8722"/>
       <use x="83.789062" xlink:href="#DejaVuSans-49"/>
       <use x="147.412109" xlink:href="#DejaVuSans-48"/>
       <use x="211.035156" xlink:href="#DejaVuSans-48"/>
      </g>
     </g>
    </g>
    <g id="ytick_28">
     <g id="line2d_103">
      <g>
       <use style="stroke:#000000;stroke-width:3;" x="888.827188" xlink:href="#m095897c0a0" y="32.09515"/>
      </g>
     </g>
     <g id="text_44">
      <!-- −50 -->
      <g transform="translate(864.2225 35.894369)scale(0.1 -0.1)">
       <use xlink:href="#DejaVuSans-8722"/>
       <use x="83.789062" xlink:href="#DejaVuSans-53"/>
       <use x="147.412109" xlink:href="#DejaVuSans-48"/>
      </g>
     </g>
    </g>
   </g>
   <g id="line2d_104">
    <path clip-path="url(#p0bfec26c7b)" d="M 888.827188 27.662045 
L 901.117086 40.917893 
L 913.406985 56.340783 
L 923.448563 73.514686 
L 931.938597 90.513403 
L 939.292999 96.871355 
L 945.780041 103.119591 
L 951.582897 115.450889 
L 956.83222 129.487003 
L 966.032924 156.740838 
L 970.114509 138.103867 
L 973.914374 106.56439 
L 977.468911 86.873586 
L 980.807885 86.606547 
L 983.955953 88.266997 
L 986.93377 93.812183 
L 989.75881 100.599764 
L 994.50515 114.449257 
L 999.339497 120.449793 
L 1001.606327 120.559531 
L 1003.783535 126.052866 
L 1005.87794 132.735267 
L 1007.895608 136.911757 
L 1009.841966 142.188091 
L 1011.721883 143.391936 
L 1013.539744 142.883533 
L 1015.299517 143.670647 
L 1017.004798 140.53255 
L 1020.264697 152.445846 
L 1021.825033 159.065063 
L 1023.34238 163.999381 
L 1024.819042 169.727606 
L 1026.257145 175.795835 
L 1027.381188 171.601637 
L 1028.75473 174.253479 
L 1030.09485 178.046802 
L 1031.403135 176.893128 
L 1032.681062 177.540608 
L 1033.930009 182.54633 
L 1035.151261 186.211215 
L 1036.346019 192.556784 
L 1041.959448 215.582198 
L 1043.016605 217.752955 
L 1044.053852 217.495534 
L 1047.053297 208.984036 
L 1047.826309 202.422586 
L 1048.777563 200.804359 
L 1049.712665 176.577448 
L 1050.632155 169.747469 
L 1051.536547 173.054011 
L 1052.426327 173.993519 
L 1053.301961 178.429718 
L 1054.163891 181.493892 
L 1055.012539 182.118675 
L 1055.848309 171.233222 
L 1058.282116 181.01222 
L 1059.070058 183.787012 
L 1059.846886 186.052362 
L 1060.61291 185.549341 
L 1061.368425 188.448192 
L 1062.113716 192.008097 
L 1062.702772 193.661083 
L 1063.430342 193.250245 
L 1064.148425 187.476752 
L 1064.857266 189.008993 
L 1066.248153 194.4028 
L 1066.930642 195.910968 
L 1067.604778 195.586673 
L 1068.928789 199.358357 
L 1069.579047 200.867078 
L 1070.221717 201.4627 
L 1070.856974 201.771357 
L 1071.484988 201.433023 
L 1072.105921 200.146285 
L 1072.719932 199.876964 
L 1073.327173 202.443081 
L 1073.927792 202.863339 
L 1074.403615 203.526286 
L 1074.992671 182.10723 
L 1075.575493 183.968634 
L 1076.152213 184.24893 
L 1076.722956 186.54157 
L 1077.287845 185.841133 
L 1077.846999 186.38168 
L 1078.400533 187.531633 
L 1078.948559 186.099958 
L 1079.491186 186.469379 
L 1080.028519 186.246911 
L 1080.560661 183.130061 
L 1081.08771 184.463053 
L 1081.609763 186.659386 
L 1082.126914 186.802213 
L 1082.639255 186.363169 
L 1083.146873 186.629393 
L 1083.649855 184.262899 
L 1084.04896 182.99953 
L 1084.543808 181.049175 
L 1085.034249 182.522074 
L 1085.520362 183.209072 
L 1086.002222 185.884837 
L 1086.479902 184.534674 
L 1088.350241 189.597013 
L 1088.808068 189.461496 
L 1089.26212 188.962315 
L 1089.712459 188.962006 
L 1090.159146 186.922498 
L 1090.602239 183.853884 
L 1091.041796 182.143143 
L 1091.477873 179.826157 
L 1091.910524 175.888092 
L 1092.254214 174.868729 
L 1092.680833 175.958446 
L 1093.104173 176.709852 
L 1094.355011 180.354928 
L 1095.173394 178.277094 
L 1095.979795 178.028218 
L 1096.774559 175.080682 
L 1097.558018 173.816856 
L 1097.945607 173.998593 
L 1098.330487 172.087668 
L 1098.712697 173.043318 
L 1099.092273 177.939509 
L 1099.394061 174.636674 
L 1099.768985 175.388392 
L 1100.141375 174.895823 
L 1100.511264 176.565043 
L 1100.878685 176.921838 
L 1101.243671 176.853245 
L 1101.606254 175.659309 
L 1101.966466 175.309609 
L 1102.324337 166.305371 
L 1102.679898 173.548768 
L 1103.033178 175.251253 
L 1103.384207 172.628705 
L 1103.733012 172.880333 
L 1104.079623 170.630046 
L 1104.424065 170.201577 
L 1104.766367 169.15513 
L 1105.106555 169.690945 
L 1105.444654 169.901641 
L 1105.713647 169.490224 
L 1106.048051 170.652377 
L 1106.380437 170.969708 
L 1106.710829 171.061874 
L 1107.039251 171.468718 
L 1107.365726 170.648707 
L 1107.690278 167.417307 
L 1108.012928 167.395093 
L 1108.333699 164.961634 
L 1108.652612 164.086192 
L 1108.96969 162.619928 
L 1109.284952 162.034158 
L 1109.59842 162.052569 
L 1109.910114 161.20131 
L 1110.220054 159.006552 
L 1110.52826 159.450346 
L 1111.382172 154.248036 
L 1111.68396 153.4137 
L 1111.984103 153.618592 
L 1112.28262 153.55593 
L 1112.579527 153.952926 
L 1112.874843 153.447882 
L 1113.168583 153.467124 
L 1113.460765 153.990234 
L 1113.751406 153.556936 
L 1114.04052 154.64163 
L 1114.614236 154.227959 
L 1114.898868 153.413526 
L 1115.182037 153.131205 
L 1115.463757 153.10857 
L 1115.744044 152.450416 
L 1116.022911 153.416177 
L 1116.576445 153.778313 
L 1116.576445 153.778313 
" style="fill:none;stroke:#4c72b0;stroke-linecap:square;stroke-width:4;"/>
   </g>
   <g id="patch_18">
    <path d="M 888.827188 227.2575 
L 888.827188 18.1575 
" style="fill:none;stroke:#000000;stroke-linecap:square;stroke-linejoin:miter;stroke-width:3;"/>
   </g>
   <g id="patch_19">
    <path d="M 1116.576445 227.2575 
L 1116.576445 18.1575 
" style="fill:none;stroke:#000000;stroke-linecap:square;stroke-linejoin:miter;stroke-width:3;"/>
   </g>
   <g id="patch_20">
    <path d="M 888.827188 227.2575 
L 1116.576445 227.2575 
" style="fill:none;stroke:#000000;stroke-linecap:square;stroke-linejoin:miter;stroke-width:3;"/>
   </g>
   <g id="patch_21">
    <path d="M 888.827188 18.1575 
L 1116.576445 18.1575 
" style="fill:none;stroke:#000000;stroke-linecap:square;stroke-linejoin:miter;stroke-width:3;"/>
   </g>
   <g id="text_45">
    <!-- starling -->
    <defs>
     <path d="M 45.40625 27.984375 
Q 45.40625 37.75 41.375 43.109375 
Q 37.359375 48.484375 30.078125 48.484375 
Q 22.859375 48.484375 18.828125 43.109375 
Q 14.796875 37.75 14.796875 27.984375 
Q 14.796875 18.265625 18.828125 12.890625 
Q 22.859375 7.515625 30.078125 7.515625 
Q 37.359375 7.515625 41.375 12.890625 
Q 45.40625 18.265625 45.40625 27.984375 
z
M 54.390625 6.78125 
Q 54.390625 -7.171875 48.1875 -13.984375 
Q 42 -20.796875 29.203125 -20.796875 
Q 24.46875 -20.796875 20.265625 -20.09375 
Q 16.0625 -19.390625 12.109375 -17.921875 
L 12.109375 -9.1875 
Q 16.0625 -11.328125 19.921875 -12.34375 
Q 23.78125 -13.375 27.78125 -13.375 
Q 36.625 -13.375 41.015625 -8.765625 
Q 45.40625 -4.15625 45.40625 5.171875 
L 45.40625 9.625 
Q 42.625 4.78125 38.28125 2.390625 
Q 33.9375 0 27.875 0 
Q 17.828125 0 11.671875 7.65625 
Q 5.515625 15.328125 5.515625 27.984375 
Q 5.515625 40.671875 11.671875 48.328125 
Q 17.828125 56 27.875 56 
Q 33.9375 56 38.28125 53.609375 
Q 42.625 51.21875 45.40625 46.390625 
L 45.40625 54.6875 
L 54.390625 54.6875 
z
" id="DejaVuSans-103"/>
    </defs>
    <g transform="translate(972.613066 12.1575)scale(0.16 -0.16)">
     <use xlink:href="#DejaVuSans-115"/>
     <use x="52.099609" xlink:href="#DejaVuSans-116"/>
     <use x="91.308594" xlink:href="#DejaVuSans-97"/>
     <use x="152.587891" xlink:href="#DejaVuSans-114"/>
     <use x="193.701172" xlink:href="#DejaVuSans-108"/>
     <use x="221.484375" xlink:href="#DejaVuSans-105"/>
     <use x="249.267578" xlink:href="#DejaVuSans-110"/>
     <use x="312.646484" xlink:href="#DejaVuSans-103"/>
    </g>
   </g>
  </g>
 </g>
 <defs>
  <clipPath id="p1c832c671e">
   <rect height="209.1" width="227.749258" x="52.427188" y="18.1575"/>
  </clipPath>
  <clipPath id="p8d14f80d06">
   <rect height="209.1" width="227.749258" x="331.227187" y="18.1575"/>
  </clipPath>
  <clipPath id="pb454f8c748">
   <rect height="209.1" width="227.749258" x="610.027188" y="18.1575"/>
  </clipPath>
  <clipPath id="p0bfec26c7b">
   <rect height="209.1" width="227.749258" x="888.827188" y="18.1575"/>
  </clipPath>
 </defs>
</svg>
