<?xml version="1.0" encoding="utf-8" standalone="no"?>
<!DOCTYPE svg PUBLIC "-//W3C//DTD SVG 1.1//EN"
  "http://www.w3.org/Graphics/SVG/1.1/DTD/svg11.dtd">
<!-- Created with matplotlib (https://matplotlib.org/) -->
<svg height="261.85625pt" version="1.1" viewBox="0 0 1125.39858 261.85625" width="1125.39858pt" xmlns="http://www.w3.org/2000/svg" xmlns:xlink="http://www.w3.org/1999/xlink">
 <defs>
  <style type="text/css">
*{stroke-linecap:butt;stroke-linejoin:round;}
  </style>
 </defs>
 <g id="figure_1">
  <g id="patch_1">
   <path d="M 0 261.85625 
L 1125.39858 261.85625 
L 1125.39858 0 
L 0 0 
z
" style="fill:#ffffff;"/>
  </g>
  <g id="axes_1">
   <g id="patch_2">
    <path d="M 52.427188 227.2575 
L 288.99858 227.2575 
L 288.99858 18.1575 
L 52.427188 18.1575 
z
" style="fill:#ffffff;"/>
   </g>
   <g id="matplotlib.axis_1">
    <g id="xtick_1">
     <g id="line2d_1">
      <defs>
       <path d="M 0 0 
L 0 -10 
" id="m5d095d1bc9" style="stroke:#000000;stroke-width:3;"/>
      </defs>
      <g>
       <use style="stroke:#000000;stroke-width:3;" x="158.49073" xlink:href="#m5d095d1bc9" y="227.2575"/>
      </g>
     </g>
     <g id="text_1">
      <!-- $\mathdefault{10^{2}}$ -->
      <defs>
       <path d="M 12.40625 8.296875 
L 28.515625 8.296875 
L 28.515625 63.921875 
L 10.984375 60.40625 
L 10.984375 69.390625 
L 28.421875 72.90625 
L 38.28125 72.90625 
L 38.28125 8.296875 
L 54.390625 8.296875 
L 54.390625 0 
L 12.40625 0 
z
" id="DejaVuSans-49"/>
       <path d="M 31.78125 66.40625 
Q 24.171875 66.40625 20.328125 58.90625 
Q 16.5 51.421875 16.5 36.375 
Q 16.5 21.390625 20.328125 13.890625 
Q 24.171875 6.390625 31.78125 6.390625 
Q 39.453125 6.390625 43.28125 13.890625 
Q 47.125 21.390625 47.125 36.375 
Q 47.125 51.421875 43.28125 58.90625 
Q 39.453125 66.40625 31.78125 66.40625 
z
M 31.78125 74.21875 
Q 44.046875 74.21875 50.515625 64.515625 
Q 56.984375 54.828125 56.984375 36.375 
Q 56.984375 17.96875 50.515625 8.265625 
Q 44.046875 -1.421875 31.78125 -1.421875 
Q 19.53125 -1.421875 13.0625 8.265625 
Q 6.59375 17.96875 6.59375 36.375 
Q 6.59375 54.828125 13.0625 64.515625 
Q 19.53125 74.21875 31.78125 74.21875 
z
" id="DejaVuSans-48"/>
       <path d="M 19.1875 8.296875 
L 53.609375 8.296875 
L 53.609375 0 
L 7.328125 0 
L 7.328125 8.296875 
Q 12.9375 14.109375 22.625 23.890625 
Q 32.328125 33.6875 34.8125 36.53125 
Q 39.546875 41.84375 41.421875 45.53125 
Q 43.3125 49.21875 43.3125 52.78125 
Q 43.3125 58.59375 39.234375 62.25 
Q 35.15625 65.921875 28.609375 65.921875 
Q 23.96875 65.921875 18.8125 64.3125 
Q 13.671875 62.703125 7.8125 59.421875 
L 7.8125 69.390625 
Q 13.765625 71.78125 18.9375 73 
Q 24.125 74.21875 28.421875 74.21875 
Q 39.75 74.21875 46.484375 68.546875 
Q 53.21875 62.890625 53.21875 53.421875 
Q 53.21875 48.921875 51.53125 44.890625 
Q 49.859375 40.875 45.40625 35.40625 
Q 44.1875 33.984375 37.640625 27.21875 
Q 31.109375 20.453125 19.1875 8.296875 
z
" id="DejaVuSans-50"/>
      </defs>
      <g transform="translate(149.69073 238.355938)scale(0.1 -0.1)">
       <use transform="translate(0 0.765625)" xlink:href="#DejaVuSans-49"/>
       <use transform="translate(63.623047 0.765625)" xlink:href="#DejaVuSans-48"/>
       <use transform="translate(128.203125 39.046875)scale(0.7)" xlink:href="#DejaVuSans-50"/>
      </g>
     </g>
    </g>
    <g id="xtick_2">
     <g id="line2d_2">
      <g>
       <use style="stroke:#000000;stroke-width:3;" x="278.245335" xlink:href="#m5d095d1bc9" y="227.2575"/>
      </g>
     </g>
     <g id="text_2">
      <!-- $\mathdefault{10^{3}}$ -->
      <defs>
       <path d="M 40.578125 39.3125 
Q 47.65625 37.796875 51.625 33 
Q 55.609375 28.21875 55.609375 21.1875 
Q 55.609375 10.40625 48.1875 4.484375 
Q 40.765625 -1.421875 27.09375 -1.421875 
Q 22.515625 -1.421875 17.65625 -0.515625 
Q 12.796875 0.390625 7.625 2.203125 
L 7.625 11.71875 
Q 11.71875 9.328125 16.59375 8.109375 
Q 21.484375 6.890625 26.8125 6.890625 
Q 36.078125 6.890625 40.9375 10.546875 
Q 45.796875 14.203125 45.796875 21.1875 
Q 45.796875 27.640625 41.28125 31.265625 
Q 36.765625 34.90625 28.71875 34.90625 
L 20.21875 34.90625 
L 20.21875 43.015625 
L 29.109375 43.015625 
Q 36.375 43.015625 40.234375 45.921875 
Q 44.09375 48.828125 44.09375 54.296875 
Q 44.09375 59.90625 40.109375 62.90625 
Q 36.140625 65.921875 28.71875 65.921875 
Q 24.65625 65.921875 20.015625 65.03125 
Q 15.375 64.15625 9.8125 62.3125 
L 9.8125 71.09375 
Q 15.4375 72.65625 20.34375 73.4375 
Q 25.25 74.21875 29.59375 74.21875 
Q 40.828125 74.21875 47.359375 69.109375 
Q 53.90625 64.015625 53.90625 55.328125 
Q 53.90625 49.265625 50.4375 45.09375 
Q 46.96875 40.921875 40.578125 39.3125 
z
" id="DejaVuSans-51"/>
      </defs>
      <g transform="translate(269.445335 238.355938)scale(0.1 -0.1)">
       <use transform="translate(0 0.765625)" xlink:href="#DejaVuSans-49"/>
       <use transform="translate(63.623047 0.765625)" xlink:href="#DejaVuSans-48"/>
       <use transform="translate(128.203125 39.046875)scale(0.7)" xlink:href="#DejaVuSans-51"/>
      </g>
     </g>
    </g>
    <g id="xtick_3">
     <g id="line2d_3">
      <defs>
       <path d="M 0 0 
L 0 -5 
" id="m983f6a41fb" style="stroke:#000000;stroke-width:2;"/>
      </defs>
      <g>
       <use style="stroke:#000000;stroke-width:2;" x="74.785853" xlink:href="#m983f6a41fb" y="227.2575"/>
      </g>
     </g>
    </g>
    <g id="xtick_4">
     <g id="line2d_4">
      <g>
       <use style="stroke:#000000;stroke-width:2;" x="95.873592" xlink:href="#m983f6a41fb" y="227.2575"/>
      </g>
     </g>
    </g>
    <g id="xtick_5">
     <g id="line2d_5">
      <g>
       <use style="stroke:#000000;stroke-width:2;" x="110.835581" xlink:href="#m983f6a41fb" y="227.2575"/>
      </g>
     </g>
    </g>
    <g id="xtick_6">
     <g id="line2d_6">
      <g>
       <use style="stroke:#000000;stroke-width:2;" x="122.441001" xlink:href="#m983f6a41fb" y="227.2575"/>
      </g>
     </g>
    </g>
    <g id="xtick_7">
     <g id="line2d_7">
      <g>
       <use style="stroke:#000000;stroke-width:2;" x="131.92332" xlink:href="#m983f6a41fb" y="227.2575"/>
      </g>
     </g>
    </g>
    <g id="xtick_8">
     <g id="line2d_8">
      <g>
       <use style="stroke:#000000;stroke-width:2;" x="139.940507" xlink:href="#m983f6a41fb" y="227.2575"/>
      </g>
     </g>
    </g>
    <g id="xtick_9">
     <g id="line2d_9">
      <g>
       <use style="stroke:#000000;stroke-width:2;" x="146.885309" xlink:href="#m983f6a41fb" y="227.2575"/>
      </g>
     </g>
    </g>
    <g id="xtick_10">
     <g id="line2d_10">
      <g>
       <use style="stroke:#000000;stroke-width:2;" x="153.011059" xlink:href="#m983f6a41fb" y="227.2575"/>
      </g>
     </g>
    </g>
    <g id="xtick_11">
     <g id="line2d_11">
      <g>
       <use style="stroke:#000000;stroke-width:2;" x="194.540458" xlink:href="#m983f6a41fb" y="227.2575"/>
      </g>
     </g>
    </g>
    <g id="xtick_12">
     <g id="line2d_12">
      <g>
       <use style="stroke:#000000;stroke-width:2;" x="215.628197" xlink:href="#m983f6a41fb" y="227.2575"/>
      </g>
     </g>
    </g>
    <g id="xtick_13">
     <g id="line2d_13">
      <g>
       <use style="stroke:#000000;stroke-width:2;" x="230.590186" xlink:href="#m983f6a41fb" y="227.2575"/>
      </g>
     </g>
    </g>
    <g id="xtick_14">
     <g id="line2d_14">
      <g>
       <use style="stroke:#000000;stroke-width:2;" x="242.195606" xlink:href="#m983f6a41fb" y="227.2575"/>
      </g>
     </g>
    </g>
    <g id="xtick_15">
     <g id="line2d_15">
      <g>
       <use style="stroke:#000000;stroke-width:2;" x="251.677925" xlink:href="#m983f6a41fb" y="227.2575"/>
      </g>
     </g>
    </g>
    <g id="xtick_16">
     <g id="line2d_16">
      <g>
       <use style="stroke:#000000;stroke-width:2;" x="259.695112" xlink:href="#m983f6a41fb" y="227.2575"/>
      </g>
     </g>
    </g>
    <g id="xtick_17">
     <g id="line2d_17">
      <g>
       <use style="stroke:#000000;stroke-width:2;" x="266.639914" xlink:href="#m983f6a41fb" y="227.2575"/>
      </g>
     </g>
    </g>
    <g id="xtick_18">
     <g id="line2d_18">
      <g>
       <use style="stroke:#000000;stroke-width:2;" x="272.765664" xlink:href="#m983f6a41fb" y="227.2575"/>
      </g>
     </g>
    </g>
    <g id="text_3">
     <!-- Distance (phones) -->
     <defs>
      <path d="M 19.671875 64.796875 
L 19.671875 8.109375 
L 31.59375 8.109375 
Q 46.6875 8.109375 53.6875 14.9375 
Q 60.6875 21.78125 60.6875 36.53125 
Q 60.6875 51.171875 53.6875 57.984375 
Q 46.6875 64.796875 31.59375 64.796875 
z
M 9.8125 72.90625 
L 30.078125 72.90625 
Q 51.265625 72.90625 61.171875 64.09375 
Q 71.09375 55.28125 71.09375 36.53125 
Q 71.09375 17.671875 61.125 8.828125 
Q 51.171875 0 30.078125 0 
L 9.8125 0 
z
" id="DejaVuSans-68"/>
      <path d="M 9.421875 54.6875 
L 18.40625 54.6875 
L 18.40625 0 
L 9.421875 0 
z
M 9.421875 75.984375 
L 18.40625 75.984375 
L 18.40625 64.59375 
L 9.421875 64.59375 
z
" id="DejaVuSans-105"/>
      <path d="M 44.28125 53.078125 
L 44.28125 44.578125 
Q 40.484375 46.53125 36.375 47.5 
Q 32.28125 48.484375 27.875 48.484375 
Q 21.1875 48.484375 17.84375 46.4375 
Q 14.5 44.390625 14.5 40.28125 
Q 14.5 37.15625 16.890625 35.375 
Q 19.28125 33.59375 26.515625 31.984375 
L 29.59375 31.296875 
Q 39.15625 29.25 43.1875 25.515625 
Q 47.21875 21.78125 47.21875 15.09375 
Q 47.21875 7.46875 41.1875 3.015625 
Q 35.15625 -1.421875 24.609375 -1.421875 
Q 20.21875 -1.421875 15.453125 -0.5625 
Q 10.6875 0.296875 5.421875 2 
L 5.421875 11.28125 
Q 10.40625 8.6875 15.234375 7.390625 
Q 20.0625 6.109375 24.8125 6.109375 
Q 31.15625 6.109375 34.5625 8.28125 
Q 37.984375 10.453125 37.984375 14.40625 
Q 37.984375 18.0625 35.515625 20.015625 
Q 33.0625 21.96875 24.703125 23.78125 
L 21.578125 24.515625 
Q 13.234375 26.265625 9.515625 29.90625 
Q 5.8125 33.546875 5.8125 39.890625 
Q 5.8125 47.609375 11.28125 51.796875 
Q 16.75 56 26.8125 56 
Q 31.78125 56 36.171875 55.265625 
Q 40.578125 54.546875 44.28125 53.078125 
z
" id="DejaVuSans-115"/>
      <path d="M 18.3125 70.21875 
L 18.3125 54.6875 
L 36.8125 54.6875 
L 36.8125 47.703125 
L 18.3125 47.703125 
L 18.3125 18.015625 
Q 18.3125 11.328125 20.140625 9.421875 
Q 21.96875 7.515625 27.59375 7.515625 
L 36.8125 7.515625 
L 36.8125 0 
L 27.59375 0 
Q 17.1875 0 13.234375 3.875 
Q 9.28125 7.765625 9.28125 18.015625 
L 9.28125 47.703125 
L 2.6875 47.703125 
L 2.6875 54.6875 
L 9.28125 54.6875 
L 9.28125 70.21875 
z
" id="DejaVuSans-116"/>
      <path d="M 34.28125 27.484375 
Q 23.390625 27.484375 19.1875 25 
Q 14.984375 22.515625 14.984375 16.5 
Q 14.984375 11.71875 18.140625 8.90625 
Q 21.296875 6.109375 26.703125 6.109375 
Q 34.1875 6.109375 38.703125 11.40625 
Q 43.21875 16.703125 43.21875 25.484375 
L 43.21875 27.484375 
z
M 52.203125 31.203125 
L 52.203125 0 
L 43.21875 0 
L 43.21875 8.296875 
Q 40.140625 3.328125 35.546875 0.953125 
Q 30.953125 -1.421875 24.3125 -1.421875 
Q 15.921875 -1.421875 10.953125 3.296875 
Q 6 8.015625 6 15.921875 
Q 6 25.140625 12.171875 29.828125 
Q 18.359375 34.515625 30.609375 34.515625 
L 43.21875 34.515625 
L 43.21875 35.40625 
Q 43.21875 41.609375 39.140625 45 
Q 35.0625 48.390625 27.6875 48.390625 
Q 23 48.390625 18.546875 47.265625 
Q 14.109375 46.140625 10.015625 43.890625 
L 10.015625 52.203125 
Q 14.9375 54.109375 19.578125 55.046875 
Q 24.21875 56 28.609375 56 
Q 40.484375 56 46.34375 49.84375 
Q 52.203125 43.703125 52.203125 31.203125 
z
" id="DejaVuSans-97"/>
      <path d="M 54.890625 33.015625 
L 54.890625 0 
L 45.90625 0 
L 45.90625 32.71875 
Q 45.90625 40.484375 42.875 44.328125 
Q 39.84375 48.1875 33.796875 48.1875 
Q 26.515625 48.1875 22.3125 43.546875 
Q 18.109375 38.921875 18.109375 30.90625 
L 18.109375 0 
L 9.078125 0 
L 9.078125 54.6875 
L 18.109375 54.6875 
L 18.109375 46.1875 
Q 21.34375 51.125 25.703125 53.5625 
Q 30.078125 56 35.796875 56 
Q 45.21875 56 50.046875 50.171875 
Q 54.890625 44.34375 54.890625 33.015625 
z
" id="DejaVuSans-110"/>
      <path d="M 48.78125 52.59375 
L 48.78125 44.1875 
Q 44.96875 46.296875 41.140625 47.34375 
Q 37.3125 48.390625 33.40625 48.390625 
Q 24.65625 48.390625 19.8125 42.84375 
Q 14.984375 37.3125 14.984375 27.296875 
Q 14.984375 17.28125 19.8125 11.734375 
Q 24.65625 6.203125 33.40625 6.203125 
Q 37.3125 6.203125 41.140625 7.25 
Q 44.96875 8.296875 48.78125 10.40625 
L 48.78125 2.09375 
Q 45.015625 0.34375 40.984375 -0.53125 
Q 36.96875 -1.421875 32.421875 -1.421875 
Q 20.0625 -1.421875 12.78125 6.34375 
Q 5.515625 14.109375 5.515625 27.296875 
Q 5.515625 40.671875 12.859375 48.328125 
Q 20.21875 56 33.015625 56 
Q 37.15625 56 41.109375 55.140625 
Q 45.0625 54.296875 48.78125 52.59375 
z
" id="DejaVuSans-99"/>
      <path d="M 56.203125 29.59375 
L 56.203125 25.203125 
L 14.890625 25.203125 
Q 15.484375 15.921875 20.484375 11.0625 
Q 25.484375 6.203125 34.421875 6.203125 
Q 39.59375 6.203125 44.453125 7.46875 
Q 49.3125 8.734375 54.109375 11.28125 
L 54.109375 2.78125 
Q 49.265625 0.734375 44.1875 -0.34375 
Q 39.109375 -1.421875 33.890625 -1.421875 
Q 20.796875 -1.421875 13.15625 6.1875 
Q 5.515625 13.8125 5.515625 26.8125 
Q 5.515625 40.234375 12.765625 48.109375 
Q 20.015625 56 32.328125 56 
Q 43.359375 56 49.78125 48.890625 
Q 56.203125 41.796875 56.203125 29.59375 
z
M 47.21875 32.234375 
Q 47.125 39.59375 43.09375 43.984375 
Q 39.0625 48.390625 32.421875 48.390625 
Q 24.90625 48.390625 20.390625 44.140625 
Q 15.875 39.890625 15.1875 32.171875 
z
" id="DejaVuSans-101"/>
      <path id="DejaVuSans-32"/>
      <path d="M 31 75.875 
Q 24.46875 64.65625 21.28125 53.65625 
Q 18.109375 42.671875 18.109375 31.390625 
Q 18.109375 20.125 21.3125 9.0625 
Q 24.515625 -2 31 -13.1875 
L 23.1875 -13.1875 
Q 15.875 -1.703125 12.234375 9.375 
Q 8.59375 20.453125 8.59375 31.390625 
Q 8.59375 42.28125 12.203125 53.3125 
Q 15.828125 64.359375 23.1875 75.875 
z
" id="DejaVuSans-40"/>
      <path d="M 18.109375 8.203125 
L 18.109375 -20.796875 
L 9.078125 -20.796875 
L 9.078125 54.6875 
L 18.109375 54.6875 
L 18.109375 46.390625 
Q 20.953125 51.265625 25.265625 53.625 
Q 29.59375 56 35.59375 56 
Q 45.5625 56 51.78125 48.09375 
Q 58.015625 40.1875 58.015625 27.296875 
Q 58.015625 14.40625 51.78125 6.484375 
Q 45.5625 -1.421875 35.59375 -1.421875 
Q 29.59375 -1.421875 25.265625 0.953125 
Q 20.953125 3.328125 18.109375 8.203125 
z
M 48.6875 27.296875 
Q 48.6875 37.203125 44.609375 42.84375 
Q 40.53125 48.484375 33.40625 48.484375 
Q 26.265625 48.484375 22.1875 42.84375 
Q 18.109375 37.203125 18.109375 27.296875 
Q 18.109375 17.390625 22.1875 11.75 
Q 26.265625 6.109375 33.40625 6.109375 
Q 40.53125 6.109375 44.609375 11.75 
Q 48.6875 17.390625 48.6875 27.296875 
z
" id="DejaVuSans-112"/>
      <path d="M 54.890625 33.015625 
L 54.890625 0 
L 45.90625 0 
L 45.90625 32.71875 
Q 45.90625 40.484375 42.875 44.328125 
Q 39.84375 48.1875 33.796875 48.1875 
Q 26.515625 48.1875 22.3125 43.546875 
Q 18.109375 38.921875 18.109375 30.90625 
L 18.109375 0 
L 9.078125 0 
L 9.078125 75.984375 
L 18.109375 75.984375 
L 18.109375 46.1875 
Q 21.34375 51.125 25.703125 53.5625 
Q 30.078125 56 35.796875 56 
Q 45.21875 56 50.046875 50.171875 
Q 54.890625 44.34375 54.890625 33.015625 
z
" id="DejaVuSans-104"/>
      <path d="M 30.609375 48.390625 
Q 23.390625 48.390625 19.1875 42.75 
Q 14.984375 37.109375 14.984375 27.296875 
Q 14.984375 17.484375 19.15625 11.84375 
Q 23.34375 6.203125 30.609375 6.203125 
Q 37.796875 6.203125 41.984375 11.859375 
Q 46.1875 17.53125 46.1875 27.296875 
Q 46.1875 37.015625 41.984375 42.703125 
Q 37.796875 48.390625 30.609375 48.390625 
z
M 30.609375 56 
Q 42.328125 56 49.015625 48.375 
Q 55.71875 40.765625 55.71875 27.296875 
Q 55.71875 13.875 49.015625 6.21875 
Q 42.328125 -1.421875 30.609375 -1.421875 
Q 18.84375 -1.421875 12.171875 6.21875 
Q 5.515625 13.875 5.515625 27.296875 
Q 5.515625 40.765625 12.171875 48.375 
Q 18.84375 56 30.609375 56 
z
" id="DejaVuSans-111"/>
      <path d="M 8.015625 75.875 
L 15.828125 75.875 
Q 23.140625 64.359375 26.78125 53.3125 
Q 30.421875 42.28125 30.421875 31.390625 
Q 30.421875 20.453125 26.78125 9.375 
Q 23.140625 -1.703125 15.828125 -13.1875 
L 8.015625 -13.1875 
Q 14.5 -2 17.703125 9.0625 
Q 20.90625 20.125 20.90625 31.390625 
Q 20.90625 42.671875 17.703125 53.65625 
Q 14.5 64.65625 8.015625 75.875 
z
" id="DejaVuSans-41"/>
     </defs>
     <g transform="translate(88.62304 258.112813)scale(0.18 -0.18)">
      <use xlink:href="#DejaVuSans-68"/>
      <use x="77.001953" xlink:href="#DejaVuSans-105"/>
      <use x="104.785156" xlink:href="#DejaVuSans-115"/>
      <use x="156.884766" xlink:href="#DejaVuSans-116"/>
      <use x="196.09375" xlink:href="#DejaVuSans-97"/>
      <use x="257.373047" xlink:href="#DejaVuSans-110"/>
      <use x="320.751953" xlink:href="#DejaVuSans-99"/>
      <use x="375.732422" xlink:href="#DejaVuSans-101"/>
      <use x="437.255859" xlink:href="#DejaVuSans-32"/>
      <use x="469.042969" xlink:href="#DejaVuSans-40"/>
      <use x="508.056641" xlink:href="#DejaVuSans-112"/>
      <use x="571.533203" xlink:href="#DejaVuSans-104"/>
      <use x="634.912109" xlink:href="#DejaVuSans-111"/>
      <use x="696.09375" xlink:href="#DejaVuSans-110"/>
      <use x="759.472656" xlink:href="#DejaVuSans-101"/>
      <use x="820.996094" xlink:href="#DejaVuSans-115"/>
      <use x="873.095703" xlink:href="#DejaVuSans-41"/>
     </g>
    </g>
   </g>
   <g id="matplotlib.axis_2">
    <g id="ytick_1">
     <g id="line2d_19">
      <defs>
       <path d="M 0 0 
L 10 0 
" id="mf4288bd472" style="stroke:#000000;stroke-width:3;"/>
      </defs>
      <g>
       <use style="stroke:#000000;stroke-width:3;" x="52.427188" xlink:href="#mf4288bd472" y="215.348538"/>
      </g>
     </g>
     <g id="text_4">
      <!-- −300 -->
      <defs>
       <path d="M 10.59375 35.5 
L 73.1875 35.5 
L 73.1875 27.203125 
L 10.59375 27.203125 
z
" id="DejaVuSans-8722"/>
      </defs>
      <g transform="translate(21.46 219.147757)scale(0.1 -0.1)">
       <use xlink:href="#DejaVuSans-8722"/>
       <use x="83.789062" xlink:href="#DejaVuSans-51"/>
       <use x="147.412109" xlink:href="#DejaVuSans-48"/>
       <use x="211.035156" xlink:href="#DejaVuSans-48"/>
      </g>
     </g>
    </g>
    <g id="ytick_2">
     <g id="line2d_20">
      <g>
       <use style="stroke:#000000;stroke-width:3;" x="52.427188" xlink:href="#mf4288bd472" y="183.048272"/>
      </g>
     </g>
     <g id="text_5">
      <!-- −250 -->
      <defs>
       <path d="M 10.796875 72.90625 
L 49.515625 72.90625 
L 49.515625 64.59375 
L 19.828125 64.59375 
L 19.828125 46.734375 
Q 21.96875 47.46875 24.109375 47.828125 
Q 26.265625 48.1875 28.421875 48.1875 
Q 40.625 48.1875 47.75 41.5 
Q 54.890625 34.8125 54.890625 23.390625 
Q 54.890625 11.625 47.5625 5.09375 
Q 40.234375 -1.421875 26.90625 -1.421875 
Q 22.3125 -1.421875 17.546875 -0.640625 
Q 12.796875 0.140625 7.71875 1.703125 
L 7.71875 11.625 
Q 12.109375 9.234375 16.796875 8.0625 
Q 21.484375 6.890625 26.703125 6.890625 
Q 35.15625 6.890625 40.078125 11.328125 
Q 45.015625 15.765625 45.015625 23.390625 
Q 45.015625 31 40.078125 35.4375 
Q 35.15625 39.890625 26.703125 39.890625 
Q 22.75 39.890625 18.8125 39.015625 
Q 14.890625 38.140625 10.796875 36.28125 
z
" id="DejaVuSans-53"/>
      </defs>
      <g transform="translate(21.46 186.847491)scale(0.1 -0.1)">
       <use xlink:href="#DejaVuSans-8722"/>
       <use x="83.789062" xlink:href="#DejaVuSans-50"/>
       <use x="147.412109" xlink:href="#DejaVuSans-53"/>
       <use x="211.035156" xlink:href="#DejaVuSans-48"/>
      </g>
     </g>
    </g>
    <g id="ytick_3">
     <g id="line2d_21">
      <g>
       <use style="stroke:#000000;stroke-width:3;" x="52.427188" xlink:href="#mf4288bd472" y="150.748006"/>
      </g>
     </g>
     <g id="text_6">
      <!-- −200 -->
      <g transform="translate(21.46 154.547225)scale(0.1 -0.1)">
       <use xlink:href="#DejaVuSans-8722"/>
       <use x="83.789062" xlink:href="#DejaVuSans-50"/>
       <use x="147.412109" xlink:href="#DejaVuSans-48"/>
       <use x="211.035156" xlink:href="#DejaVuSans-48"/>
      </g>
     </g>
    </g>
    <g id="ytick_4">
     <g id="line2d_22">
      <g>
       <use style="stroke:#000000;stroke-width:3;" x="52.427188" xlink:href="#mf4288bd472" y="118.44774"/>
      </g>
     </g>
     <g id="text_7">
      <!-- −150 -->
      <g transform="translate(21.46 122.246959)scale(0.1 -0.1)">
       <use xlink:href="#DejaVuSans-8722"/>
       <use x="83.789062" xlink:href="#DejaVuSans-49"/>
       <use x="147.412109" xlink:href="#DejaVuSans-53"/>
       <use x="211.035156" xlink:href="#DejaVuSans-48"/>
      </g>
     </g>
    </g>
    <g id="ytick_5">
     <g id="line2d_23">
      <g>
       <use style="stroke:#000000;stroke-width:3;" x="52.427188" xlink:href="#mf4288bd472" y="86.147475"/>
      </g>
     </g>
     <g id="text_8">
      <!-- −100 -->
      <g transform="translate(21.46 89.946693)scale(0.1 -0.1)">
       <use xlink:href="#DejaVuSans-8722"/>
       <use x="83.789062" xlink:href="#DejaVuSans-49"/>
       <use x="147.412109" xlink:href="#DejaVuSans-48"/>
       <use x="211.035156" xlink:href="#DejaVuSans-48"/>
      </g>
     </g>
    </g>
    <g id="ytick_6">
     <g id="line2d_24">
      <g>
       <use style="stroke:#000000;stroke-width:3;" x="52.427188" xlink:href="#mf4288bd472" y="53.847209"/>
      </g>
     </g>
     <g id="text_9">
      <!-- −50 -->
      <g transform="translate(27.8225 57.646428)scale(0.1 -0.1)">
       <use xlink:href="#DejaVuSans-8722"/>
       <use x="83.789062" xlink:href="#DejaVuSans-53"/>
       <use x="147.412109" xlink:href="#DejaVuSans-48"/>
      </g>
     </g>
    </g>
    <g id="ytick_7">
     <g id="line2d_25">
      <g>
       <use style="stroke:#000000;stroke-width:3;" x="52.427188" xlink:href="#mf4288bd472" y="21.546943"/>
      </g>
     </g>
     <g id="text_10">
      <!-- 0 -->
      <g transform="translate(42.564688 25.346162)scale(0.1 -0.1)">
       <use xlink:href="#DejaVuSans-48"/>
      </g>
     </g>
    </g>
    <g id="text_11">
     <!-- $\Delta$AICc (comp.- exp.) -->
     <defs>
      <path d="M 34.1875 63.1875 
L 14.15625 8.203125 
L 54.25 8.203125 
z
M 0.78125 0 
L 28.609375 72.90625 
L 39.796875 72.90625 
L 67.578125 0 
z
" id="DejaVuSans-916"/>
      <path d="M 34.1875 63.1875 
L 20.796875 26.90625 
L 47.609375 26.90625 
z
M 28.609375 72.90625 
L 39.796875 72.90625 
L 67.578125 0 
L 57.328125 0 
L 50.6875 18.703125 
L 17.828125 18.703125 
L 11.1875 0 
L 0.78125 0 
z
" id="DejaVuSans-65"/>
      <path d="M 9.8125 72.90625 
L 19.671875 72.90625 
L 19.671875 0 
L 9.8125 0 
z
" id="DejaVuSans-73"/>
      <path d="M 64.40625 67.28125 
L 64.40625 56.890625 
Q 59.421875 61.53125 53.78125 63.8125 
Q 48.140625 66.109375 41.796875 66.109375 
Q 29.296875 66.109375 22.65625 58.46875 
Q 16.015625 50.828125 16.015625 36.375 
Q 16.015625 21.96875 22.65625 14.328125 
Q 29.296875 6.6875 41.796875 6.6875 
Q 48.140625 6.6875 53.78125 8.984375 
Q 59.421875 11.28125 64.40625 15.921875 
L 64.40625 5.609375 
Q 59.234375 2.09375 53.4375 0.328125 
Q 47.65625 -1.421875 41.21875 -1.421875 
Q 24.65625 -1.421875 15.125 8.703125 
Q 5.609375 18.84375 5.609375 36.375 
Q 5.609375 53.953125 15.125 64.078125 
Q 24.65625 74.21875 41.21875 74.21875 
Q 47.75 74.21875 53.53125 72.484375 
Q 59.328125 70.75 64.40625 67.28125 
z
" id="DejaVuSans-67"/>
      <path d="M 52 44.1875 
Q 55.375 50.25 60.0625 53.125 
Q 64.75 56 71.09375 56 
Q 79.640625 56 84.28125 50.015625 
Q 88.921875 44.046875 88.921875 33.015625 
L 88.921875 0 
L 79.890625 0 
L 79.890625 32.71875 
Q 79.890625 40.578125 77.09375 44.375 
Q 74.3125 48.1875 68.609375 48.1875 
Q 61.625 48.1875 57.5625 43.546875 
Q 53.515625 38.921875 53.515625 30.90625 
L 53.515625 0 
L 44.484375 0 
L 44.484375 32.71875 
Q 44.484375 40.625 41.703125 44.40625 
Q 38.921875 48.1875 33.109375 48.1875 
Q 26.21875 48.1875 22.15625 43.53125 
Q 18.109375 38.875 18.109375 30.90625 
L 18.109375 0 
L 9.078125 0 
L 9.078125 54.6875 
L 18.109375 54.6875 
L 18.109375 46.1875 
Q 21.1875 51.21875 25.484375 53.609375 
Q 29.78125 56 35.6875 56 
Q 41.65625 56 45.828125 52.96875 
Q 50 49.953125 52 44.1875 
z
" id="DejaVuSans-109"/>
      <path d="M 10.6875 12.40625 
L 21 12.40625 
L 21 0 
L 10.6875 0 
z
" id="DejaVuSans-46"/>
      <path d="M 4.890625 31.390625 
L 31.203125 31.390625 
L 31.203125 23.390625 
L 4.890625 23.390625 
z
" id="DejaVuSans-45"/>
      <path d="M 54.890625 54.6875 
L 35.109375 28.078125 
L 55.90625 0 
L 45.3125 0 
L 29.390625 21.484375 
L 13.484375 0 
L 2.875 0 
L 24.125 28.609375 
L 4.6875 54.6875 
L 15.28125 54.6875 
L 29.78125 35.203125 
L 44.28125 54.6875 
z
" id="DejaVuSans-120"/>
     </defs>
     <g transform="translate(13.68 212.1675)rotate(-90)scale(0.18 -0.18)">
      <use transform="translate(0 0.125)" xlink:href="#DejaVuSans-916"/>
      <use transform="translate(68.408203 0.125)" xlink:href="#DejaVuSans-65"/>
      <use transform="translate(136.816406 0.125)" xlink:href="#DejaVuSans-73"/>
      <use transform="translate(166.308594 0.125)" xlink:href="#DejaVuSans-67"/>
      <use transform="translate(236.132812 0.125)" xlink:href="#DejaVuSans-99"/>
      <use transform="translate(291.113281 0.125)" xlink:href="#DejaVuSans-32"/>
      <use transform="translate(322.900391 0.125)" xlink:href="#DejaVuSans-40"/>
      <use transform="translate(361.914062 0.125)" xlink:href="#DejaVuSans-99"/>
      <use transform="translate(416.894531 0.125)" xlink:href="#DejaVuSans-111"/>
      <use transform="translate(478.076172 0.125)" xlink:href="#DejaVuSans-109"/>
      <use transform="translate(575.488281 0.125)" xlink:href="#DejaVuSans-112"/>
      <use transform="translate(638.964844 0.125)" xlink:href="#DejaVuSans-46"/>
      <use transform="translate(670.751953 0.125)" xlink:href="#DejaVuSans-45"/>
      <use transform="translate(706.835938 0.125)" xlink:href="#DejaVuSans-32"/>
      <use transform="translate(738.623047 0.125)" xlink:href="#DejaVuSans-101"/>
      <use transform="translate(800.146484 0.125)" xlink:href="#DejaVuSans-120"/>
      <use transform="translate(859.326172 0.125)" xlink:href="#DejaVuSans-112"/>
      <use transform="translate(922.802734 0.125)" xlink:href="#DejaVuSans-46"/>
      <use transform="translate(954.589844 0.125)" xlink:href="#DejaVuSans-41"/>
     </g>
    </g>
   </g>
   <g id="line2d_26">
    <path clip-path="url(#p94853cb8da)" d="M 63.180433 27.662045 
L 74.785853 36.995117 
L 86.391273 39.4189 
L 95.873592 48.23 
L 103.890778 54.803858 
L 110.835581 59.107188 
L 116.961331 70.044158 
L 122.441001 71.950131 
L 127.397966 57.851044 
L 131.92332 65.904357 
L 136.086243 67.667756 
L 139.940507 69.706888 
L 143.528741 68.586234 
L 146.885309 69.856224 
L 150.038321 70.675534 
L 153.011059 67.585359 
L 155.823029 69.251686 
L 158.49073 71.243334 
L 161.028246 75.249338 
L 162.972725 79.729075 
L 165.305348 79.264213 
L 169.678407 86.938626 
L 171.734357 87.892698 
L 173.712115 92.58906 
L 175.617411 90.448143 
L 177.455367 92.538113 
L 179.230583 93.25418 
L 180.9472 92.70581 
L 182.608963 95.063432 
L 184.21927 98.389609 
L 185.781212 100.12308 
L 187.29761 101.623466 
L 188.771044 102.740941 
L 190.203883 105.417484 
L 191.598304 107.687428 
L 192.956312 109.586202 
L 194.017752 110.158677 
L 195.314796 111.777884 
L 196.580279 114.357217 
L 197.815699 114.603919 
L 199.022453 116.848061 
L 200.201841 117.934455 
L 201.355076 118.432878 
L 202.483293 119.592704 
L 203.587554 121.146212 
L 204.668857 123.442007 
L 206.766268 124.706379 
L 207.784085 125.813528 
L 208.782364 128.270352 
L 209.761843 129.849976 
L 210.723215 129.674968 
L 211.667139 130.878016 
L 212.594236 123.657562 
L 213.324195 130.52033 
L 214.222469 131.278689 
L 215.105491 133.360634 
L 215.973771 133.860104 
L 216.827793 135.275499 
L 217.668018 135.859082 
L 218.494884 135.595168 
L 219.308809 132.583307 
L 220.110193 132.58003 
L 220.899415 134.19906 
L 221.67684 134.433245 
L 222.442815 136.148041 
L 223.197672 136.088066 
L 223.94173 137.751739 
L 224.675294 136.28695 
L 225.398654 135.42779 
L 226.112091 136.424585 
L 226.815874 137.621613 
L 227.372123 137.931634 
L 228.059171 137.737151 
L 228.737261 137.95502 
L 229.406623 139.40746 
L 230.067481 141.120417 
L 231.364524 141.434329 
L 232.001115 142.573488 
L 232.630007 142.8709 
L 233.251385 142.962799 
L 233.865428 144.539508 
L 234.472304 145.484415 
L 235.665218 148.175407 
L 236.251569 148.654105 
L 236.831383 149.283053 
L 237.404804 150.105032 
L 237.971972 151.925111 
L 238.421294 152.769567 
L 238.977543 152.424197 
L 239.527906 151.947473 
L 240.611461 152.944464 
L 241.144889 152.46435 
L 242.713111 154.291276 
L 243.732923 157.142662 
L 244.235427 156.75315 
L 244.733123 157.494125 
L 245.2261 159.860861 
L 245.714449 160.709706 
L 246.198255 161.32389 
L 247.152571 162.092717 
L 247.529448 163.174774 
L 247.996735 164.113382 
L 248.459862 165.844478 
L 248.918901 166.093149 
L 249.373924 168.312262 
L 249.825 168.668771 
L 250.272197 170.465214 
L 250.715583 170.096454 
L 251.15522 171.310672 
L 251.591172 170.642073 
L 252.0235 171.437001 
L 252.452264 172.619828 
L 252.877522 174.985031 
L 253.717746 176.07169 
L 254.132822 177.167835 
L 254.544612 177.480568 
L 254.953167 176.663733 
L 257.261509 183.371222 
L 257.649347 183.594592 
L 258.034313 185.302936 
L 258.416451 185.769893 
L 258.795802 186.895189 
L 259.546302 188.044959 
L 259.91753 188.044959 
L 260.286127 189.019392 
L 260.652129 190.748927 
L 261.015574 191.07664 
L 261.376497 191.060525 
L 261.734932 193.094096 
L 262.019913 193.467147 
L 262.373956 194.308696 
L 262.725605 196.596525 
L 263.074893 197.609921 
L 263.421851 197.176959 
L 263.766509 198.969808 
L 264.108899 199.139885 
L 264.786989 200.258976 
L 265.78783 202.175265 
L 266.117209 203.213399 
L 266.769774 202.910269 
L 267.093012 203.361365 
L 267.987533 205.079843 
L 268.303313 204.707791 
L 268.617187 204.683314 
L 269.239309 204.355046 
L 269.547601 204.933161 
L 269.854077 206.53924 
L 270.158757 206.601784 
L 270.461663 206.431726 
L 270.762814 206.483044 
L 271.359937 207.154822 
L 271.655946 206.920052 
L 271.950281 206.297495 
L 272.242959 207.776189 
L 272.533999 208.352724 
L 272.82342 206.67513 
L 273.111239 207.079592 
L 273.625333 208.459812 
L 274.190651 209.242491 
L 274.471023 209.932575 
L 274.749891 209.962603 
L 275.303181 211.638384 
L 275.577634 211.25979 
L 275.850646 212.774281 
L 276.122233 213.31854 
L 276.392409 213.016749 
L 277.722629 215.68342 
L 278.245335 217.752955 
L 278.245335 217.752955 
" style="fill:none;stroke:#55a868;stroke-linecap:square;stroke-width:4;"/>
   </g>
   <g id="patch_3">
    <path d="M 52.427188 227.2575 
L 52.427188 18.1575 
" style="fill:none;stroke:#000000;stroke-linecap:square;stroke-linejoin:miter;stroke-width:3;"/>
   </g>
   <g id="patch_4">
    <path d="M 288.99858 227.2575 
L 288.99858 18.1575 
" style="fill:none;stroke:#000000;stroke-linecap:square;stroke-linejoin:miter;stroke-width:3;"/>
   </g>
   <g id="patch_5">
    <path d="M 52.427188 227.2575 
L 288.99858 227.2575 
" style="fill:none;stroke:#000000;stroke-linecap:square;stroke-linejoin:miter;stroke-width:3;"/>
   </g>
   <g id="patch_6">
    <path d="M 52.427188 18.1575 
L 288.99858 18.1575 
" style="fill:none;stroke:#000000;stroke-linecap:square;stroke-linejoin:miter;stroke-width:3;"/>
   </g>
   <g id="text_12">
    <!-- English -->
    <defs>
     <path d="M 9.8125 72.90625 
L 55.90625 72.90625 
L 55.90625 64.59375 
L 19.671875 64.59375 
L 19.671875 43.015625 
L 54.390625 43.015625 
L 54.390625 34.71875 
L 19.671875 34.71875 
L 19.671875 8.296875 
L 56.78125 8.296875 
L 56.78125 0 
L 9.8125 0 
z
" id="DejaVuSans-69"/>
     <path d="M 45.40625 27.984375 
Q 45.40625 37.75 41.375 43.109375 
Q 37.359375 48.484375 30.078125 48.484375 
Q 22.859375 48.484375 18.828125 43.109375 
Q 14.796875 37.75 14.796875 27.984375 
Q 14.796875 18.265625 18.828125 12.890625 
Q 22.859375 7.515625 30.078125 7.515625 
Q 37.359375 7.515625 41.375 12.890625 
Q 45.40625 18.265625 45.40625 27.984375 
z
M 54.390625 6.78125 
Q 54.390625 -7.171875 48.1875 -13.984375 
Q 42 -20.796875 29.203125 -20.796875 
Q 24.46875 -20.796875 20.265625 -20.09375 
Q 16.0625 -19.390625 12.109375 -17.921875 
L 12.109375 -9.1875 
Q 16.0625 -11.328125 19.921875 -12.34375 
Q 23.78125 -13.375 27.78125 -13.375 
Q 36.625 -13.375 41.015625 -8.765625 
Q 45.40625 -4.15625 45.40625 5.171875 
L 45.40625 9.625 
Q 42.625 4.78125 38.28125 2.390625 
Q 33.9375 0 27.875 0 
Q 17.828125 0 11.671875 7.65625 
Q 5.515625 15.328125 5.515625 27.984375 
Q 5.515625 40.671875 11.671875 48.328125 
Q 17.828125 56 27.875 56 
Q 33.9375 56 38.28125 53.609375 
Q 42.625 51.21875 45.40625 46.390625 
L 45.40625 54.6875 
L 54.390625 54.6875 
z
" id="DejaVuSans-103"/>
     <path d="M 9.421875 75.984375 
L 18.40625 75.984375 
L 18.40625 0 
L 9.421875 0 
z
" id="DejaVuSans-108"/>
    </defs>
    <g transform="translate(141.826634 12.1575)scale(0.16 -0.16)">
     <use xlink:href="#DejaVuSans-69"/>
     <use x="63.183594" xlink:href="#DejaVuSans-110"/>
     <use x="126.5625" xlink:href="#DejaVuSans-103"/>
     <use x="190.039062" xlink:href="#DejaVuSans-108"/>
     <use x="217.822266" xlink:href="#DejaVuSans-105"/>
     <use x="245.605469" xlink:href="#DejaVuSans-115"/>
     <use x="297.705078" xlink:href="#DejaVuSans-104"/>
    </g>
   </g>
  </g>
  <g id="axes_2">
   <g id="patch_7">
    <path d="M 331.227187 227.2575 
L 567.79858 227.2575 
L 567.79858 18.1575 
L 331.227187 18.1575 
z
" style="fill:#ffffff;"/>
   </g>
   <g id="matplotlib.axis_3">
    <g id="xtick_19">
     <g id="line2d_27">
      <g>
       <use style="stroke:#000000;stroke-width:3;" x="437.29073" xlink:href="#m5d095d1bc9" y="227.2575"/>
      </g>
     </g>
     <g id="text_13">
      <!-- $\mathdefault{10^{2}}$ -->
      <g transform="translate(428.49073 238.355938)scale(0.1 -0.1)">
       <use transform="translate(0 0.765625)" xlink:href="#DejaVuSans-49"/>
       <use transform="translate(63.623047 0.765625)" xlink:href="#DejaVuSans-48"/>
       <use transform="translate(128.203125 39.046875)scale(0.7)" xlink:href="#DejaVuSans-50"/>
      </g>
     </g>
    </g>
    <g id="xtick_20">
     <g id="line2d_28">
      <g>
       <use style="stroke:#000000;stroke-width:3;" x="557.045335" xlink:href="#m5d095d1bc9" y="227.2575"/>
      </g>
     </g>
     <g id="text_14">
      <!-- $\mathdefault{10^{3}}$ -->
      <g transform="translate(548.245335 238.355938)scale(0.1 -0.1)">
       <use transform="translate(0 0.765625)" xlink:href="#DejaVuSans-49"/>
       <use transform="translate(63.623047 0.765625)" xlink:href="#DejaVuSans-48"/>
       <use transform="translate(128.203125 39.046875)scale(0.7)" xlink:href="#DejaVuSans-51"/>
      </g>
     </g>
    </g>
    <g id="xtick_21">
     <g id="line2d_29">
      <g>
       <use style="stroke:#000000;stroke-width:2;" x="353.585853" xlink:href="#m983f6a41fb" y="227.2575"/>
      </g>
     </g>
    </g>
    <g id="xtick_22">
     <g id="line2d_30">
      <g>
       <use style="stroke:#000000;stroke-width:2;" x="374.673592" xlink:href="#m983f6a41fb" y="227.2575"/>
      </g>
     </g>
    </g>
    <g id="xtick_23">
     <g id="line2d_31">
      <g>
       <use style="stroke:#000000;stroke-width:2;" x="389.635581" xlink:href="#m983f6a41fb" y="227.2575"/>
      </g>
     </g>
    </g>
    <g id="xtick_24">
     <g id="line2d_32">
      <g>
       <use style="stroke:#000000;stroke-width:2;" x="401.241001" xlink:href="#m983f6a41fb" y="227.2575"/>
      </g>
     </g>
    </g>
    <g id="xtick_25">
     <g id="line2d_33">
      <g>
       <use style="stroke:#000000;stroke-width:2;" x="410.72332" xlink:href="#m983f6a41fb" y="227.2575"/>
      </g>
     </g>
    </g>
    <g id="xtick_26">
     <g id="line2d_34">
      <g>
       <use style="stroke:#000000;stroke-width:2;" x="418.740507" xlink:href="#m983f6a41fb" y="227.2575"/>
      </g>
     </g>
    </g>
    <g id="xtick_27">
     <g id="line2d_35">
      <g>
       <use style="stroke:#000000;stroke-width:2;" x="425.685309" xlink:href="#m983f6a41fb" y="227.2575"/>
      </g>
     </g>
    </g>
    <g id="xtick_28">
     <g id="line2d_36">
      <g>
       <use style="stroke:#000000;stroke-width:2;" x="431.811059" xlink:href="#m983f6a41fb" y="227.2575"/>
      </g>
     </g>
    </g>
    <g id="xtick_29">
     <g id="line2d_37">
      <g>
       <use style="stroke:#000000;stroke-width:2;" x="473.340458" xlink:href="#m983f6a41fb" y="227.2575"/>
      </g>
     </g>
    </g>
    <g id="xtick_30">
     <g id="line2d_38">
      <g>
       <use style="stroke:#000000;stroke-width:2;" x="494.428197" xlink:href="#m983f6a41fb" y="227.2575"/>
      </g>
     </g>
    </g>
    <g id="xtick_31">
     <g id="line2d_39">
      <g>
       <use style="stroke:#000000;stroke-width:2;" x="509.390186" xlink:href="#m983f6a41fb" y="227.2575"/>
      </g>
     </g>
    </g>
    <g id="xtick_32">
     <g id="line2d_40">
      <g>
       <use style="stroke:#000000;stroke-width:2;" x="520.995606" xlink:href="#m983f6a41fb" y="227.2575"/>
      </g>
     </g>
    </g>
    <g id="xtick_33">
     <g id="line2d_41">
      <g>
       <use style="stroke:#000000;stroke-width:2;" x="530.477925" xlink:href="#m983f6a41fb" y="227.2575"/>
      </g>
     </g>
    </g>
    <g id="xtick_34">
     <g id="line2d_42">
      <g>
       <use style="stroke:#000000;stroke-width:2;" x="538.495112" xlink:href="#m983f6a41fb" y="227.2575"/>
      </g>
     </g>
    </g>
    <g id="xtick_35">
     <g id="line2d_43">
      <g>
       <use style="stroke:#000000;stroke-width:2;" x="545.439914" xlink:href="#m983f6a41fb" y="227.2575"/>
      </g>
     </g>
    </g>
    <g id="xtick_36">
     <g id="line2d_44">
      <g>
       <use style="stroke:#000000;stroke-width:2;" x="551.565664" xlink:href="#m983f6a41fb" y="227.2575"/>
      </g>
     </g>
    </g>
    <g id="text_15">
     <!-- Distance (phones) -->
     <g transform="translate(367.42304 258.112813)scale(0.18 -0.18)">
      <use xlink:href="#DejaVuSans-68"/>
      <use x="77.001953" xlink:href="#DejaVuSans-105"/>
      <use x="104.785156" xlink:href="#DejaVuSans-115"/>
      <use x="156.884766" xlink:href="#DejaVuSans-116"/>
      <use x="196.09375" xlink:href="#DejaVuSans-97"/>
      <use x="257.373047" xlink:href="#DejaVuSans-110"/>
      <use x="320.751953" xlink:href="#DejaVuSans-99"/>
      <use x="375.732422" xlink:href="#DejaVuSans-101"/>
      <use x="437.255859" xlink:href="#DejaVuSans-32"/>
      <use x="469.042969" xlink:href="#DejaVuSans-40"/>
      <use x="508.056641" xlink:href="#DejaVuSans-112"/>
      <use x="571.533203" xlink:href="#DejaVuSans-104"/>
      <use x="634.912109" xlink:href="#DejaVuSans-111"/>
      <use x="696.09375" xlink:href="#DejaVuSans-110"/>
      <use x="759.472656" xlink:href="#DejaVuSans-101"/>
      <use x="820.996094" xlink:href="#DejaVuSans-115"/>
      <use x="873.095703" xlink:href="#DejaVuSans-41"/>
     </g>
    </g>
   </g>
   <g id="matplotlib.axis_4">
    <g id="ytick_8">
     <g id="line2d_45">
      <g>
       <use style="stroke:#000000;stroke-width:3;" x="331.227187" xlink:href="#mf4288bd472" y="213.77411"/>
      </g>
     </g>
     <g id="text_16">
      <!-- −180 -->
      <defs>
       <path d="M 31.78125 34.625 
Q 24.75 34.625 20.71875 30.859375 
Q 16.703125 27.09375 16.703125 20.515625 
Q 16.703125 13.921875 20.71875 10.15625 
Q 24.75 6.390625 31.78125 6.390625 
Q 38.8125 6.390625 42.859375 10.171875 
Q 46.921875 13.96875 46.921875 20.515625 
Q 46.921875 27.09375 42.890625 30.859375 
Q 38.875 34.625 31.78125 34.625 
z
M 21.921875 38.8125 
Q 15.578125 40.375 12.03125 44.71875 
Q 8.5 49.078125 8.5 55.328125 
Q 8.5 64.0625 14.71875 69.140625 
Q 20.953125 74.21875 31.78125 74.21875 
Q 42.671875 74.21875 48.875 69.140625 
Q 55.078125 64.0625 55.078125 55.328125 
Q 55.078125 49.078125 51.53125 44.71875 
Q 48 40.375 41.703125 38.8125 
Q 48.828125 37.15625 52.796875 32.3125 
Q 56.78125 27.484375 56.78125 20.515625 
Q 56.78125 9.90625 50.3125 4.234375 
Q 43.84375 -1.421875 31.78125 -1.421875 
Q 19.734375 -1.421875 13.25 4.234375 
Q 6.78125 9.90625 6.78125 20.515625 
Q 6.78125 27.484375 10.78125 32.3125 
Q 14.796875 37.15625 21.921875 38.8125 
z
M 18.3125 54.390625 
Q 18.3125 48.734375 21.84375 45.5625 
Q 25.390625 42.390625 31.78125 42.390625 
Q 38.140625 42.390625 41.71875 45.5625 
Q 45.3125 48.734375 45.3125 54.390625 
Q 45.3125 60.0625 41.71875 63.234375 
Q 38.140625 66.40625 31.78125 66.40625 
Q 25.390625 66.40625 21.84375 63.234375 
Q 18.3125 60.0625 18.3125 54.390625 
z
" id="DejaVuSans-56"/>
      </defs>
      <g transform="translate(300.26 217.573329)scale(0.1 -0.1)">
       <use xlink:href="#DejaVuSans-8722"/>
       <use x="83.789062" xlink:href="#DejaVuSans-49"/>
       <use x="147.412109" xlink:href="#DejaVuSans-56"/>
       <use x="211.035156" xlink:href="#DejaVuSans-48"/>
      </g>
     </g>
    </g>
    <g id="ytick_9">
     <g id="line2d_46">
      <g>
       <use style="stroke:#000000;stroke-width:3;" x="331.227187" xlink:href="#mf4288bd472" y="188.644049"/>
      </g>
     </g>
     <g id="text_17">
      <!-- −160 -->
      <defs>
       <path d="M 33.015625 40.375 
Q 26.375 40.375 22.484375 35.828125 
Q 18.609375 31.296875 18.609375 23.390625 
Q 18.609375 15.53125 22.484375 10.953125 
Q 26.375 6.390625 33.015625 6.390625 
Q 39.65625 6.390625 43.53125 10.953125 
Q 47.40625 15.53125 47.40625 23.390625 
Q 47.40625 31.296875 43.53125 35.828125 
Q 39.65625 40.375 33.015625 40.375 
z
M 52.59375 71.296875 
L 52.59375 62.3125 
Q 48.875 64.0625 45.09375 64.984375 
Q 41.3125 65.921875 37.59375 65.921875 
Q 27.828125 65.921875 22.671875 59.328125 
Q 17.53125 52.734375 16.796875 39.40625 
Q 19.671875 43.65625 24.015625 45.921875 
Q 28.375 48.1875 33.59375 48.1875 
Q 44.578125 48.1875 50.953125 41.515625 
Q 57.328125 34.859375 57.328125 23.390625 
Q 57.328125 12.15625 50.6875 5.359375 
Q 44.046875 -1.421875 33.015625 -1.421875 
Q 20.359375 -1.421875 13.671875 8.265625 
Q 6.984375 17.96875 6.984375 36.375 
Q 6.984375 53.65625 15.1875 63.9375 
Q 23.390625 74.21875 37.203125 74.21875 
Q 40.921875 74.21875 44.703125 73.484375 
Q 48.484375 72.75 52.59375 71.296875 
z
" id="DejaVuSans-54"/>
      </defs>
      <g transform="translate(300.26 192.443267)scale(0.1 -0.1)">
       <use xlink:href="#DejaVuSans-8722"/>
       <use x="83.789062" xlink:href="#DejaVuSans-49"/>
       <use x="147.412109" xlink:href="#DejaVuSans-54"/>
       <use x="211.035156" xlink:href="#DejaVuSans-48"/>
      </g>
     </g>
    </g>
    <g id="ytick_10">
     <g id="line2d_47">
      <g>
       <use style="stroke:#000000;stroke-width:3;" x="331.227187" xlink:href="#mf4288bd472" y="163.513987"/>
      </g>
     </g>
     <g id="text_18">
      <!-- −140 -->
      <defs>
       <path d="M 37.796875 64.3125 
L 12.890625 25.390625 
L 37.796875 25.390625 
z
M 35.203125 72.90625 
L 47.609375 72.90625 
L 47.609375 25.390625 
L 58.015625 25.390625 
L 58.015625 17.1875 
L 47.609375 17.1875 
L 47.609375 0 
L 37.796875 0 
L 37.796875 17.1875 
L 4.890625 17.1875 
L 4.890625 26.703125 
z
" id="DejaVuSans-52"/>
      </defs>
      <g transform="translate(300.26 167.313206)scale(0.1 -0.1)">
       <use xlink:href="#DejaVuSans-8722"/>
       <use x="83.789062" xlink:href="#DejaVuSans-49"/>
       <use x="147.412109" xlink:href="#DejaVuSans-52"/>
       <use x="211.035156" xlink:href="#DejaVuSans-48"/>
      </g>
     </g>
    </g>
    <g id="ytick_11">
     <g id="line2d_48">
      <g>
       <use style="stroke:#000000;stroke-width:3;" x="331.227187" xlink:href="#mf4288bd472" y="138.383925"/>
      </g>
     </g>
     <g id="text_19">
      <!-- −120 -->
      <g transform="translate(300.26 142.183144)scale(0.1 -0.1)">
       <use xlink:href="#DejaVuSans-8722"/>
       <use x="83.789062" xlink:href="#DejaVuSans-49"/>
       <use x="147.412109" xlink:href="#DejaVuSans-50"/>
       <use x="211.035156" xlink:href="#DejaVuSans-48"/>
      </g>
     </g>
    </g>
    <g id="ytick_12">
     <g id="line2d_49">
      <g>
       <use style="stroke:#000000;stroke-width:3;" x="331.227187" xlink:href="#mf4288bd472" y="113.253863"/>
      </g>
     </g>
     <g id="text_20">
      <!-- −100 -->
      <g transform="translate(300.26 117.053082)scale(0.1 -0.1)">
       <use xlink:href="#DejaVuSans-8722"/>
       <use x="83.789062" xlink:href="#DejaVuSans-49"/>
       <use x="147.412109" xlink:href="#DejaVuSans-48"/>
       <use x="211.035156" xlink:href="#DejaVuSans-48"/>
      </g>
     </g>
    </g>
    <g id="ytick_13">
     <g id="line2d_50">
      <g>
       <use style="stroke:#000000;stroke-width:3;" x="331.227187" xlink:href="#mf4288bd472" y="88.123802"/>
      </g>
     </g>
     <g id="text_21">
      <!-- −80 -->
      <g transform="translate(306.6225 91.92302)scale(0.1 -0.1)">
       <use xlink:href="#DejaVuSans-8722"/>
       <use x="83.789062" xlink:href="#DejaVuSans-56"/>
       <use x="147.412109" xlink:href="#DejaVuSans-48"/>
      </g>
     </g>
    </g>
    <g id="ytick_14">
     <g id="line2d_51">
      <g>
       <use style="stroke:#000000;stroke-width:3;" x="331.227187" xlink:href="#mf4288bd472" y="62.99374"/>
      </g>
     </g>
     <g id="text_22">
      <!-- −60 -->
      <g transform="translate(306.6225 66.792959)scale(0.1 -0.1)">
       <use xlink:href="#DejaVuSans-8722"/>
       <use x="83.789062" xlink:href="#DejaVuSans-54"/>
       <use x="147.412109" xlink:href="#DejaVuSans-48"/>
      </g>
     </g>
    </g>
    <g id="ytick_15">
     <g id="line2d_52">
      <g>
       <use style="stroke:#000000;stroke-width:3;" x="331.227187" xlink:href="#mf4288bd472" y="37.863678"/>
      </g>
     </g>
     <g id="text_23">
      <!-- −40 -->
      <g transform="translate(306.6225 41.662897)scale(0.1 -0.1)">
       <use xlink:href="#DejaVuSans-8722"/>
       <use x="83.789062" xlink:href="#DejaVuSans-52"/>
       <use x="147.412109" xlink:href="#DejaVuSans-48"/>
      </g>
     </g>
    </g>
   </g>
   <g id="line2d_53">
    <path clip-path="url(#p597f4ce2c4)" d="M 341.980433 27.662045 
L 353.585853 41.19021 
L 365.191273 48.32573 
L 374.673592 44.917456 
L 382.690778 57.531631 
L 389.635581 56.916653 
L 395.761331 55.009044 
L 401.241001 59.966476 
L 406.197966 67.067517 
L 410.72332 73.86705 
L 414.886243 79.917915 
L 418.740507 87.967821 
L 422.328741 84.6457 
L 425.685309 78.398975 
L 428.838321 83.953063 
L 431.811059 88.483852 
L 434.623029 56.005793 
L 437.29073 62.298422 
L 439.828246 63.355007 
L 444.105348 65.498561 
L 446.337826 66.869741 
L 448.478407 69.661043 
L 450.534357 73.404742 
L 452.512115 75.548526 
L 454.417411 77.840955 
L 456.255367 78.287344 
L 458.030583 79.033648 
L 459.7472 81.658424 
L 461.408963 83.376453 
L 463.01927 85.464745 
L 464.581212 81.74454 
L 466.09761 83.984602 
L 467.571044 84.554154 
L 469.003883 88.853325 
L 470.398304 90.592322 
L 471.756312 91.31089 
L 472.817752 94.080397 
L 474.114796 95.59797 
L 475.380279 99.528084 
L 476.615699 100.181956 
L 477.822453 99.88356 
L 479.001841 103.601263 
L 480.155076 104.06019 
L 481.283293 106.578424 
L 482.387554 105.139151 
L 483.468857 107.543071 
L 484.528135 107.241099 
L 485.566268 107.492338 
L 486.584085 108.61272 
L 487.582364 108.61272 
L 488.561843 109.047331 
L 490.467139 111.797083 
L 491.394236 112.400067 
L 492.124195 114.044616 
L 493.022469 114.553371 
L 493.905491 116.828377 
L 494.773771 118.741578 
L 495.627793 119.018407 
L 498.910193 126.406531 
L 499.699415 126.126043 
L 500.47684 126.633135 
L 501.242815 126.811165 
L 501.997672 129.053908 
L 502.74173 128.886791 
L 503.475294 126.224204 
L 504.198654 125.715162 
L 504.912091 126.243002 
L 505.615874 126.274389 
L 506.172123 125.893642 
L 506.859171 127.341403 
L 507.537261 128.395653 
L 508.206623 130.797189 
L 508.867481 131.318548 
L 509.520046 132.622563 
L 510.164524 134.536481 
L 510.801115 135.097465 
L 511.430007 136.800749 
L 512.051385 137.188842 
L 513.272304 138.874527 
L 513.872182 140.602116 
L 514.465218 143.204616 
L 515.051569 144.736643 
L 516.204804 148.864606 
L 516.771972 149.961849 
L 517.221294 151.437208 
L 517.777543 151.866712 
L 518.327906 151.936746 
L 518.872505 152.260626 
L 519.411461 152.044424 
L 519.944889 149.248999 
L 520.472901 152.056101 
L 520.995606 152.118523 
L 521.513111 153.642562 
L 522.025517 156.15446 
L 522.532923 156.844112 
L 524.0261 161.642916 
L 524.514449 163.369104 
L 524.998255 163.441053 
L 525.952571 164.944982 
L 526.329448 167.427487 
L 527.259862 171.125208 
L 527.718901 171.478885 
L 528.173924 172.642014 
L 528.625 173.078942 
L 529.515583 175.941842 
L 529.95522 176.737484 
L 530.391172 176.817636 
L 530.8235 177.114504 
L 531.677522 181.835381 
L 532.099331 183.446706 
L 532.517746 184.351147 
L 533.344612 186.904277 
L 533.753167 181.823775 
L 534.077715 182.965421 
L 534.480574 181.961343 
L 534.880336 182.335688 
L 535.277048 183.094332 
L 536.061509 185.599577 
L 536.449347 185.380102 
L 537.216451 186.761301 
L 537.595802 186.761301 
L 537.972406 187.132251 
L 538.346302 188.489533 
L 538.71753 189.278781 
L 539.086127 190.471974 
L 539.452129 189.659329 
L 539.815574 185.997276 
L 540.534932 187.965968 
L 540.819913 187.965968 
L 541.173956 189.524108 
L 541.525605 189.524108 
L 541.874893 189.909762 
L 542.221851 189.133605 
L 542.566509 189.464054 
L 542.908899 189.271576 
L 543.586989 190.38669 
L 543.922747 190.284804 
L 544.256352 189.763552 
L 544.58783 190.6624 
L 544.917209 190.843865 
L 545.244515 191.292802 
L 545.569774 192.080515 
L 545.893012 192.354577 
L 546.214253 192.36829 
L 546.533522 193.519296 
L 546.787533 193.43402 
L 547.103313 194.726048 
L 547.417187 195.487664 
L 548.039309 197.739023 
L 548.347601 197.97793 
L 548.654077 197.418196 
L 548.958757 198.069382 
L 549.261663 198.081268 
L 550.159937 199.9766 
L 550.750281 202.680511 
L 551.042959 202.461426 
L 551.333999 203.055996 
L 551.911239 203.179884 
L 552.140353 203.533819 
L 552.425333 204.321964 
L 552.70876 206.022742 
L 552.990651 206.527673 
L 553.271023 206.431838 
L 553.827271 208.461104 
L 554.103181 210.046083 
L 554.377634 210.156897 
L 554.922233 213.744395 
L 555.192409 213.674007 
L 555.728587 215.330557 
L 555.994617 214.777386 
L 556.259293 214.699411 
L 556.522629 215.125348 
L 556.784638 216.189 
L 557.045335 217.752955 
L 557.045335 217.752955 
" style="fill:none;stroke:#721825;stroke-linecap:square;stroke-width:4;"/>
   </g>
   <g id="patch_8">
    <path d="M 331.227187 227.2575 
L 331.227187 18.1575 
" style="fill:none;stroke:#000000;stroke-linecap:square;stroke-linejoin:miter;stroke-width:3;"/>
   </g>
   <g id="patch_9">
    <path d="M 567.79858 227.2575 
L 567.79858 18.1575 
" style="fill:none;stroke:#000000;stroke-linecap:square;stroke-linejoin:miter;stroke-width:3;"/>
   </g>
   <g id="patch_10">
    <path d="M 331.227187 227.2575 
L 567.79858 227.2575 
" style="fill:none;stroke:#000000;stroke-linecap:square;stroke-linejoin:miter;stroke-width:3;"/>
   </g>
   <g id="patch_11">
    <path d="M 331.227187 18.1575 
L 567.79858 18.1575 
" style="fill:none;stroke:#000000;stroke-linecap:square;stroke-linejoin:miter;stroke-width:3;"/>
   </g>
   <g id="text_24">
    <!-- German -->
    <defs>
     <path d="M 59.515625 10.40625 
L 59.515625 29.984375 
L 43.40625 29.984375 
L 43.40625 38.09375 
L 69.28125 38.09375 
L 69.28125 6.78125 
Q 63.578125 2.734375 56.6875 0.65625 
Q 49.8125 -1.421875 42 -1.421875 
Q 24.90625 -1.421875 15.25 8.5625 
Q 5.609375 18.5625 5.609375 36.375 
Q 5.609375 54.25 15.25 64.234375 
Q 24.90625 74.21875 42 74.21875 
Q 49.125 74.21875 55.546875 72.453125 
Q 61.96875 70.703125 67.390625 67.28125 
L 67.390625 56.78125 
Q 61.921875 61.421875 55.765625 63.765625 
Q 49.609375 66.109375 42.828125 66.109375 
Q 29.4375 66.109375 22.71875 58.640625 
Q 16.015625 51.171875 16.015625 36.375 
Q 16.015625 21.625 22.71875 14.15625 
Q 29.4375 6.6875 42.828125 6.6875 
Q 48.046875 6.6875 52.140625 7.59375 
Q 56.25 8.5 59.515625 10.40625 
z
" id="DejaVuSans-71"/>
     <path d="M 41.109375 46.296875 
Q 39.59375 47.171875 37.8125 47.578125 
Q 36.03125 48 33.890625 48 
Q 26.265625 48 22.1875 43.046875 
Q 18.109375 38.09375 18.109375 28.8125 
L 18.109375 0 
L 9.078125 0 
L 9.078125 54.6875 
L 18.109375 54.6875 
L 18.109375 46.1875 
Q 20.953125 51.171875 25.484375 53.578125 
Q 30.03125 56 36.53125 56 
Q 37.453125 56 38.578125 55.875 
Q 39.703125 55.765625 41.0625 55.515625 
z
" id="DejaVuSans-114"/>
    </defs>
    <g transform="translate(417.339134 12.1575)scale(0.16 -0.16)">
     <use xlink:href="#DejaVuSans-71"/>
     <use x="77.490234" xlink:href="#DejaVuSans-101"/>
     <use x="139.013672" xlink:href="#DejaVuSans-114"/>
     <use x="180.111328" xlink:href="#DejaVuSans-109"/>
     <use x="277.523438" xlink:href="#DejaVuSans-97"/>
     <use x="338.802734" xlink:href="#DejaVuSans-110"/>
    </g>
   </g>
  </g>
  <g id="axes_3">
   <g id="patch_12">
    <path d="M 610.027188 227.2575 
L 846.59858 227.2575 
L 846.59858 18.1575 
L 610.027188 18.1575 
z
" style="fill:#ffffff;"/>
   </g>
   <g id="matplotlib.axis_5">
    <g id="xtick_37">
     <g id="line2d_54">
      <g>
       <use style="stroke:#000000;stroke-width:3;" x="716.09073" xlink:href="#m5d095d1bc9" y="227.2575"/>
      </g>
     </g>
     <g id="text_25">
      <!-- $\mathdefault{10^{2}}$ -->
      <g transform="translate(707.29073 238.355938)scale(0.1 -0.1)">
       <use transform="translate(0 0.765625)" xlink:href="#DejaVuSans-49"/>
       <use transform="translate(63.623047 0.765625)" xlink:href="#DejaVuSans-48"/>
       <use transform="translate(128.203125 39.046875)scale(0.7)" xlink:href="#DejaVuSans-50"/>
      </g>
     </g>
    </g>
    <g id="xtick_38">
     <g id="line2d_55">
      <g>
       <use style="stroke:#000000;stroke-width:3;" x="835.845335" xlink:href="#m5d095d1bc9" y="227.2575"/>
      </g>
     </g>
     <g id="text_26">
      <!-- $\mathdefault{10^{3}}$ -->
      <g transform="translate(827.045335 238.355938)scale(0.1 -0.1)">
       <use transform="translate(0 0.765625)" xlink:href="#DejaVuSans-49"/>
       <use transform="translate(63.623047 0.765625)" xlink:href="#DejaVuSans-48"/>
       <use transform="translate(128.203125 39.046875)scale(0.7)" xlink:href="#DejaVuSans-51"/>
      </g>
     </g>
    </g>
    <g id="xtick_39">
     <g id="line2d_56">
      <g>
       <use style="stroke:#000000;stroke-width:2;" x="632.385853" xlink:href="#m983f6a41fb" y="227.2575"/>
      </g>
     </g>
    </g>
    <g id="xtick_40">
     <g id="line2d_57">
      <g>
       <use style="stroke:#000000;stroke-width:2;" x="653.473592" xlink:href="#m983f6a41fb" y="227.2575"/>
      </g>
     </g>
    </g>
    <g id="xtick_41">
     <g id="line2d_58">
      <g>
       <use style="stroke:#000000;stroke-width:2;" x="668.435581" xlink:href="#m983f6a41fb" y="227.2575"/>
      </g>
     </g>
    </g>
    <g id="xtick_42">
     <g id="line2d_59">
      <g>
       <use style="stroke:#000000;stroke-width:2;" x="680.041001" xlink:href="#m983f6a41fb" y="227.2575"/>
      </g>
     </g>
    </g>
    <g id="xtick_43">
     <g id="line2d_60">
      <g>
       <use style="stroke:#000000;stroke-width:2;" x="689.52332" xlink:href="#m983f6a41fb" y="227.2575"/>
      </g>
     </g>
    </g>
    <g id="xtick_44">
     <g id="line2d_61">
      <g>
       <use style="stroke:#000000;stroke-width:2;" x="697.540507" xlink:href="#m983f6a41fb" y="227.2575"/>
      </g>
     </g>
    </g>
    <g id="xtick_45">
     <g id="line2d_62">
      <g>
       <use style="stroke:#000000;stroke-width:2;" x="704.485309" xlink:href="#m983f6a41fb" y="227.2575"/>
      </g>
     </g>
    </g>
    <g id="xtick_46">
     <g id="line2d_63">
      <g>
       <use style="stroke:#000000;stroke-width:2;" x="710.611059" xlink:href="#m983f6a41fb" y="227.2575"/>
      </g>
     </g>
    </g>
    <g id="xtick_47">
     <g id="line2d_64">
      <g>
       <use style="stroke:#000000;stroke-width:2;" x="752.140458" xlink:href="#m983f6a41fb" y="227.2575"/>
      </g>
     </g>
    </g>
    <g id="xtick_48">
     <g id="line2d_65">
      <g>
       <use style="stroke:#000000;stroke-width:2;" x="773.228197" xlink:href="#m983f6a41fb" y="227.2575"/>
      </g>
     </g>
    </g>
    <g id="xtick_49">
     <g id="line2d_66">
      <g>
       <use style="stroke:#000000;stroke-width:2;" x="788.190186" xlink:href="#m983f6a41fb" y="227.2575"/>
      </g>
     </g>
    </g>
    <g id="xtick_50">
     <g id="line2d_67">
      <g>
       <use style="stroke:#000000;stroke-width:2;" x="799.795606" xlink:href="#m983f6a41fb" y="227.2575"/>
      </g>
     </g>
    </g>
    <g id="xtick_51">
     <g id="line2d_68">
      <g>
       <use style="stroke:#000000;stroke-width:2;" x="809.277925" xlink:href="#m983f6a41fb" y="227.2575"/>
      </g>
     </g>
    </g>
    <g id="xtick_52">
     <g id="line2d_69">
      <g>
       <use style="stroke:#000000;stroke-width:2;" x="817.295112" xlink:href="#m983f6a41fb" y="227.2575"/>
      </g>
     </g>
    </g>
    <g id="xtick_53">
     <g id="line2d_70">
      <g>
       <use style="stroke:#000000;stroke-width:2;" x="824.239914" xlink:href="#m983f6a41fb" y="227.2575"/>
      </g>
     </g>
    </g>
    <g id="xtick_54">
     <g id="line2d_71">
      <g>
       <use style="stroke:#000000;stroke-width:2;" x="830.365664" xlink:href="#m983f6a41fb" y="227.2575"/>
      </g>
     </g>
    </g>
    <g id="text_27">
     <!-- Distance (phones) -->
     <g transform="translate(646.22304 258.112813)scale(0.18 -0.18)">
      <use xlink:href="#DejaVuSans-68"/>
      <use x="77.001953" xlink:href="#DejaVuSans-105"/>
      <use x="104.785156" xlink:href="#DejaVuSans-115"/>
      <use x="156.884766" xlink:href="#DejaVuSans-116"/>
      <use x="196.09375" xlink:href="#DejaVuSans-97"/>
      <use x="257.373047" xlink:href="#DejaVuSans-110"/>
      <use x="320.751953" xlink:href="#DejaVuSans-99"/>
      <use x="375.732422" xlink:href="#DejaVuSans-101"/>
      <use x="437.255859" xlink:href="#DejaVuSans-32"/>
      <use x="469.042969" xlink:href="#DejaVuSans-40"/>
      <use x="508.056641" xlink:href="#DejaVuSans-112"/>
      <use x="571.533203" xlink:href="#DejaVuSans-104"/>
      <use x="634.912109" xlink:href="#DejaVuSans-111"/>
      <use x="696.09375" xlink:href="#DejaVuSans-110"/>
      <use x="759.472656" xlink:href="#DejaVuSans-101"/>
      <use x="820.996094" xlink:href="#DejaVuSans-115"/>
      <use x="873.095703" xlink:href="#DejaVuSans-41"/>
     </g>
    </g>
   </g>
   <g id="matplotlib.axis_6">
    <g id="ytick_16">
     <g id="line2d_72">
      <g>
       <use style="stroke:#000000;stroke-width:3;" x="610.027188" xlink:href="#mf4288bd472" y="209.113199"/>
      </g>
     </g>
     <g id="text_28">
      <!-- −600 -->
      <g transform="translate(579.06 212.912418)scale(0.1 -0.1)">
       <use xlink:href="#DejaVuSans-8722"/>
       <use x="83.789062" xlink:href="#DejaVuSans-54"/>
       <use x="147.412109" xlink:href="#DejaVuSans-48"/>
       <use x="211.035156" xlink:href="#DejaVuSans-48"/>
      </g>
     </g>
    </g>
    <g id="ytick_17">
     <g id="line2d_73">
      <g>
       <use style="stroke:#000000;stroke-width:3;" x="610.027188" xlink:href="#mf4288bd472" y="178.135217"/>
      </g>
     </g>
     <g id="text_29">
      <!-- −500 -->
      <g transform="translate(579.06 181.934435)scale(0.1 -0.1)">
       <use xlink:href="#DejaVuSans-8722"/>
       <use x="83.789062" xlink:href="#DejaVuSans-53"/>
       <use x="147.412109" xlink:href="#DejaVuSans-48"/>
       <use x="211.035156" xlink:href="#DejaVuSans-48"/>
      </g>
     </g>
    </g>
    <g id="ytick_18">
     <g id="line2d_74">
      <g>
       <use style="stroke:#000000;stroke-width:3;" x="610.027188" xlink:href="#mf4288bd472" y="147.157234"/>
      </g>
     </g>
     <g id="text_30">
      <!-- −400 -->
      <g transform="translate(579.06 150.956453)scale(0.1 -0.1)">
       <use xlink:href="#DejaVuSans-8722"/>
       <use x="83.789062" xlink:href="#DejaVuSans-52"/>
       <use x="147.412109" xlink:href="#DejaVuSans-48"/>
       <use x="211.035156" xlink:href="#DejaVuSans-48"/>
      </g>
     </g>
    </g>
    <g id="ytick_19">
     <g id="line2d_75">
      <g>
       <use style="stroke:#000000;stroke-width:3;" x="610.027188" xlink:href="#mf4288bd472" y="116.179252"/>
      </g>
     </g>
     <g id="text_31">
      <!-- −300 -->
      <g transform="translate(579.06 119.978471)scale(0.1 -0.1)">
       <use xlink:href="#DejaVuSans-8722"/>
       <use x="83.789062" xlink:href="#DejaVuSans-51"/>
       <use x="147.412109" xlink:href="#DejaVuSans-48"/>
       <use x="211.035156" xlink:href="#DejaVuSans-48"/>
      </g>
     </g>
    </g>
    <g id="ytick_20">
     <g id="line2d_76">
      <g>
       <use style="stroke:#000000;stroke-width:3;" x="610.027188" xlink:href="#mf4288bd472" y="85.20127"/>
      </g>
     </g>
     <g id="text_32">
      <!-- −200 -->
      <g transform="translate(579.06 89.000489)scale(0.1 -0.1)">
       <use xlink:href="#DejaVuSans-8722"/>
       <use x="83.789062" xlink:href="#DejaVuSans-50"/>
       <use x="147.412109" xlink:href="#DejaVuSans-48"/>
       <use x="211.035156" xlink:href="#DejaVuSans-48"/>
      </g>
     </g>
    </g>
    <g id="ytick_21">
     <g id="line2d_77">
      <g>
       <use style="stroke:#000000;stroke-width:3;" x="610.027188" xlink:href="#mf4288bd472" y="54.223288"/>
      </g>
     </g>
     <g id="text_33">
      <!-- −100 -->
      <g transform="translate(579.06 58.022506)scale(0.1 -0.1)">
       <use xlink:href="#DejaVuSans-8722"/>
       <use x="83.789062" xlink:href="#DejaVuSans-49"/>
       <use x="147.412109" xlink:href="#DejaVuSans-48"/>
       <use x="211.035156" xlink:href="#DejaVuSans-48"/>
      </g>
     </g>
    </g>
    <g id="ytick_22">
     <g id="line2d_78">
      <g>
       <use style="stroke:#000000;stroke-width:3;" x="610.027188" xlink:href="#mf4288bd472" y="23.245305"/>
      </g>
     </g>
     <g id="text_34">
      <!-- 0 -->
      <g transform="translate(600.164688 27.044524)scale(0.1 -0.1)">
       <use xlink:href="#DejaVuSans-48"/>
      </g>
     </g>
    </g>
   </g>
   <g id="line2d_79">
    <path clip-path="url(#p78001eb16b)" d="M 620.780433 27.662045 
L 632.385853 31.246658 
L 643.991273 34.226568 
L 653.473592 38.474326 
L 661.490778 43.425321 
L 668.435581 47.066183 
L 674.561331 52.055347 
L 680.041001 57.071456 
L 684.997966 60.942194 
L 689.52332 64.187654 
L 693.686243 67.908598 
L 697.540507 70.512786 
L 701.128741 65.785353 
L 704.485309 69.063058 
L 707.638321 71.727645 
L 710.611059 74.623954 
L 713.423029 78.178001 
L 716.09073 81.035752 
L 718.628246 84.91919 
L 720.572725 87.220937 
L 722.905348 88.997316 
L 725.137826 92.333906 
L 727.278407 93.385751 
L 729.334357 95.608243 
L 731.312115 98.375179 
L 733.217411 100.66142 
L 735.055367 102.546637 
L 736.830583 97.342105 
L 738.5472 100.829176 
L 740.208963 102.046312 
L 741.81927 104.266357 
L 743.381212 106.864843 
L 744.89761 108.925636 
L 746.371044 111.817454 
L 747.803883 115.297977 
L 749.198304 106.860572 
L 750.556312 110.087928 
L 751.617752 111.097849 
L 752.914796 114.171074 
L 754.180279 115.649309 
L 755.415699 117.808241 
L 756.622453 117.486872 
L 757.801841 120.061146 
L 758.955076 119.82465 
L 760.083293 116.793025 
L 761.187554 117.58029 
L 762.268857 120.11007 
L 763.328135 120.883904 
L 764.366268 123.985908 
L 765.384085 124.815516 
L 766.382364 127.321958 
L 767.361843 128.40784 
L 769.267139 132.189761 
L 770.194236 133.550053 
L 770.924195 134.877328 
L 771.822469 135.948259 
L 772.705491 137.785242 
L 774.427793 136.245853 
L 775.268018 138.371239 
L 776.094884 138.201102 
L 776.908809 140.995858 
L 777.710193 142.400488 
L 778.499415 144.236243 
L 779.27684 143.053499 
L 780.042815 143.69428 
L 780.797672 144.609419 
L 781.54173 146.724227 
L 782.998654 148.485317 
L 783.712091 149.070878 
L 784.415874 149.359639 
L 784.972123 149.198908 
L 785.659171 151.346706 
L 786.337261 150.269886 
L 787.006623 151.970643 
L 787.667481 152.694603 
L 788.320046 153.88087 
L 788.964524 154.007338 
L 789.601115 154.610862 
L 790.230007 156.246587 
L 790.851385 156.926826 
L 791.465428 157.220908 
L 792.072304 159.094397 
L 792.672182 159.823213 
L 793.265218 156.048067 
L 793.851569 156.540738 
L 794.431383 157.275237 
L 795.004804 157.051514 
L 795.571972 158.306542 
L 796.021294 159.014249 
L 796.577543 159.188677 
L 797.127906 159.842283 
L 797.672505 161.556659 
L 798.211461 162.285563 
L 798.744889 163.327867 
L 799.272901 163.802062 
L 799.795606 164.777983 
L 800.313111 165.04538 
L 800.825517 166.126678 
L 801.835427 167.013961 
L 802.333123 167.346619 
L 803.798255 169.663185 
L 804.752571 171.916723 
L 805.129448 172.369491 
L 806.518901 175.752885 
L 808.75522 179.954194 
L 809.191172 180.033406 
L 809.6235 179.504219 
L 810.052264 179.792384 
L 810.477522 180.720881 
L 811.317746 183.151115 
L 811.732822 184.167469 
L 812.144612 183.850186 
L 812.553167 183.957659 
L 812.877715 184.847041 
L 813.280574 187.020446 
L 813.680336 187.06898 
L 814.077048 187.590253 
L 814.470758 185.620636 
L 814.861509 186.573185 
L 815.634313 187.147945 
L 816.016451 188.246121 
L 816.395802 188.453384 
L 816.772406 190.254 
L 817.146302 189.979766 
L 817.51753 182.425131 
L 817.886127 182.083838 
L 818.252129 182.989635 
L 818.615574 183.447779 
L 818.976497 182.845362 
L 819.619913 185.368464 
L 819.973956 185.328532 
L 820.674893 186.386297 
L 821.366509 188.764156 
L 822.049049 189.981609 
L 822.386989 190.464845 
L 822.722747 191.289978 
L 823.056352 191.594556 
L 823.38783 192.206573 
L 823.717209 193.44409 
L 825.014253 195.851034 
L 825.587533 198.021133 
L 826.217187 199.788801 
L 826.529178 200.639434 
L 826.839309 201.836415 
L 827.147601 202.493807 
L 827.454077 196.715649 
L 827.758757 203.109504 
L 828.061663 203.573692 
L 828.362814 204.377691 
L 828.662232 204.733333 
L 828.959937 205.851783 
L 829.550281 206.973326 
L 829.842959 206.802444 
L 830.133999 206.837992 
L 830.42342 207.174567 
L 830.711239 207.742035 
L 830.940353 207.626213 
L 831.225333 208.919615 
L 831.50876 208.713556 
L 831.790651 208.801158 
L 832.071023 209.690737 
L 832.349891 210.090686 
L 833.177634 212.182264 
L 833.450646 212.506015 
L 833.992409 213.610997 
L 834.528587 215.733313 
L 835.322629 217.010251 
L 835.584638 217.218844 
L 835.845335 217.752955 
L 835.845335 217.752955 
" style="fill:none;stroke:#dd8452;stroke-linecap:square;stroke-width:4;"/>
   </g>
   <g id="patch_13">
    <path d="M 610.027188 227.2575 
L 610.027188 18.1575 
" style="fill:none;stroke:#000000;stroke-linecap:square;stroke-linejoin:miter;stroke-width:3;"/>
   </g>
   <g id="patch_14">
    <path d="M 846.59858 227.2575 
L 846.59858 18.1575 
" style="fill:none;stroke:#000000;stroke-linecap:square;stroke-linejoin:miter;stroke-width:3;"/>
   </g>
   <g id="patch_15">
    <path d="M 610.027188 227.2575 
L 846.59858 227.2575 
" style="fill:none;stroke:#000000;stroke-linecap:square;stroke-linejoin:miter;stroke-width:3;"/>
   </g>
   <g id="patch_16">
    <path d="M 610.027188 18.1575 
L 846.59858 18.1575 
" style="fill:none;stroke:#000000;stroke-linecap:square;stroke-linejoin:miter;stroke-width:3;"/>
   </g>
   <g id="text_35">
    <!-- Italian -->
    <g transform="translate(703.496634 12.1575)scale(0.16 -0.16)">
     <use xlink:href="#DejaVuSans-73"/>
     <use x="29.492188" xlink:href="#DejaVuSans-116"/>
     <use x="68.701172" xlink:href="#DejaVuSans-97"/>
     <use x="129.980469" xlink:href="#DejaVuSans-108"/>
     <use x="157.763672" xlink:href="#DejaVuSans-105"/>
     <use x="185.546875" xlink:href="#DejaVuSans-97"/>
     <use x="246.826172" xlink:href="#DejaVuSans-110"/>
    </g>
   </g>
  </g>
  <g id="axes_4">
   <g id="patch_17">
    <path d="M 888.827188 227.2575 
L 1125.39858 227.2575 
L 1125.39858 18.1575 
L 888.827188 18.1575 
z
" style="fill:#ffffff;"/>
   </g>
   <g id="matplotlib.axis_7">
    <g id="xtick_55">
     <g id="line2d_80">
      <g>
       <use style="stroke:#000000;stroke-width:3;" x="994.89073" xlink:href="#m5d095d1bc9" y="227.2575"/>
      </g>
     </g>
     <g id="text_36">
      <!-- $\mathdefault{10^{2}}$ -->
      <g transform="translate(986.09073 238.355938)scale(0.1 -0.1)">
       <use transform="translate(0 0.765625)" xlink:href="#DejaVuSans-49"/>
       <use transform="translate(63.623047 0.765625)" xlink:href="#DejaVuSans-48"/>
       <use transform="translate(128.203125 39.046875)scale(0.7)" xlink:href="#DejaVuSans-50"/>
      </g>
     </g>
    </g>
    <g id="xtick_56">
     <g id="line2d_81">
      <g>
       <use style="stroke:#000000;stroke-width:3;" x="1114.645335" xlink:href="#m5d095d1bc9" y="227.2575"/>
      </g>
     </g>
     <g id="text_37">
      <!-- $\mathdefault{10^{3}}$ -->
      <g transform="translate(1105.845335 238.355938)scale(0.1 -0.1)">
       <use transform="translate(0 0.765625)" xlink:href="#DejaVuSans-49"/>
       <use transform="translate(63.623047 0.765625)" xlink:href="#DejaVuSans-48"/>
       <use transform="translate(128.203125 39.046875)scale(0.7)" xlink:href="#DejaVuSans-51"/>
      </g>
     </g>
    </g>
    <g id="xtick_57">
     <g id="line2d_82">
      <g>
       <use style="stroke:#000000;stroke-width:2;" x="911.185853" xlink:href="#m983f6a41fb" y="227.2575"/>
      </g>
     </g>
    </g>
    <g id="xtick_58">
     <g id="line2d_83">
      <g>
       <use style="stroke:#000000;stroke-width:2;" x="932.273592" xlink:href="#m983f6a41fb" y="227.2575"/>
      </g>
     </g>
    </g>
    <g id="xtick_59">
     <g id="line2d_84">
      <g>
       <use style="stroke:#000000;stroke-width:2;" x="947.235581" xlink:href="#m983f6a41fb" y="227.2575"/>
      </g>
     </g>
    </g>
    <g id="xtick_60">
     <g id="line2d_85">
      <g>
       <use style="stroke:#000000;stroke-width:2;" x="958.841001" xlink:href="#m983f6a41fb" y="227.2575"/>
      </g>
     </g>
    </g>
    <g id="xtick_61">
     <g id="line2d_86">
      <g>
       <use style="stroke:#000000;stroke-width:2;" x="968.32332" xlink:href="#m983f6a41fb" y="227.2575"/>
      </g>
     </g>
    </g>
    <g id="xtick_62">
     <g id="line2d_87">
      <g>
       <use style="stroke:#000000;stroke-width:2;" x="976.340507" xlink:href="#m983f6a41fb" y="227.2575"/>
      </g>
     </g>
    </g>
    <g id="xtick_63">
     <g id="line2d_88">
      <g>
       <use style="stroke:#000000;stroke-width:2;" x="983.285309" xlink:href="#m983f6a41fb" y="227.2575"/>
      </g>
     </g>
    </g>
    <g id="xtick_64">
     <g id="line2d_89">
      <g>
       <use style="stroke:#000000;stroke-width:2;" x="989.411059" xlink:href="#m983f6a41fb" y="227.2575"/>
      </g>
     </g>
    </g>
    <g id="xtick_65">
     <g id="line2d_90">
      <g>
       <use style="stroke:#000000;stroke-width:2;" x="1030.940458" xlink:href="#m983f6a41fb" y="227.2575"/>
      </g>
     </g>
    </g>
    <g id="xtick_66">
     <g id="line2d_91">
      <g>
       <use style="stroke:#000000;stroke-width:2;" x="1052.028197" xlink:href="#m983f6a41fb" y="227.2575"/>
      </g>
     </g>
    </g>
    <g id="xtick_67">
     <g id="line2d_92">
      <g>
       <use style="stroke:#000000;stroke-width:2;" x="1066.990186" xlink:href="#m983f6a41fb" y="227.2575"/>
      </g>
     </g>
    </g>
    <g id="xtick_68">
     <g id="line2d_93">
      <g>
       <use style="stroke:#000000;stroke-width:2;" x="1078.595606" xlink:href="#m983f6a41fb" y="227.2575"/>
      </g>
     </g>
    </g>
    <g id="xtick_69">
     <g id="line2d_94">
      <g>
       <use style="stroke:#000000;stroke-width:2;" x="1088.077925" xlink:href="#m983f6a41fb" y="227.2575"/>
      </g>
     </g>
    </g>
    <g id="xtick_70">
     <g id="line2d_95">
      <g>
       <use style="stroke:#000000;stroke-width:2;" x="1096.095112" xlink:href="#m983f6a41fb" y="227.2575"/>
      </g>
     </g>
    </g>
    <g id="xtick_71">
     <g id="line2d_96">
      <g>
       <use style="stroke:#000000;stroke-width:2;" x="1103.039914" xlink:href="#m983f6a41fb" y="227.2575"/>
      </g>
     </g>
    </g>
    <g id="xtick_72">
     <g id="line2d_97">
      <g>
       <use style="stroke:#000000;stroke-width:2;" x="1109.165664" xlink:href="#m983f6a41fb" y="227.2575"/>
      </g>
     </g>
    </g>
    <g id="text_38">
     <!-- Distance (phones) -->
     <g transform="translate(925.02304 258.112813)scale(0.18 -0.18)">
      <use xlink:href="#DejaVuSans-68"/>
      <use x="77.001953" xlink:href="#DejaVuSans-105"/>
      <use x="104.785156" xlink:href="#DejaVuSans-115"/>
      <use x="156.884766" xlink:href="#DejaVuSans-116"/>
      <use x="196.09375" xlink:href="#DejaVuSans-97"/>
      <use x="257.373047" xlink:href="#DejaVuSans-110"/>
      <use x="320.751953" xlink:href="#DejaVuSans-99"/>
      <use x="375.732422" xlink:href="#DejaVuSans-101"/>
      <use x="437.255859" xlink:href="#DejaVuSans-32"/>
      <use x="469.042969" xlink:href="#DejaVuSans-40"/>
      <use x="508.056641" xlink:href="#DejaVuSans-112"/>
      <use x="571.533203" xlink:href="#DejaVuSans-104"/>
      <use x="634.912109" xlink:href="#DejaVuSans-111"/>
      <use x="696.09375" xlink:href="#DejaVuSans-110"/>
      <use x="759.472656" xlink:href="#DejaVuSans-101"/>
      <use x="820.996094" xlink:href="#DejaVuSans-115"/>
      <use x="873.095703" xlink:href="#DejaVuSans-41"/>
     </g>
    </g>
   </g>
   <g id="matplotlib.axis_8">
    <g id="ytick_23">
     <g id="line2d_98">
      <g>
       <use style="stroke:#000000;stroke-width:3;" x="888.827188" xlink:href="#mf4288bd472" y="199.267109"/>
      </g>
     </g>
     <g id="text_39">
      <!-- −300 -->
      <g transform="translate(857.86 203.066328)scale(0.1 -0.1)">
       <use xlink:href="#DejaVuSans-8722"/>
       <use x="83.789062" xlink:href="#DejaVuSans-51"/>
       <use x="147.412109" xlink:href="#DejaVuSans-48"/>
       <use x="211.035156" xlink:href="#DejaVuSans-48"/>
      </g>
     </g>
    </g>
    <g id="ytick_24">
     <g id="line2d_99">
      <g>
       <use style="stroke:#000000;stroke-width:3;" x="888.827188" xlink:href="#mf4288bd472" y="168.701064"/>
      </g>
     </g>
     <g id="text_40">
      <!-- −250 -->
      <g transform="translate(857.86 172.500283)scale(0.1 -0.1)">
       <use xlink:href="#DejaVuSans-8722"/>
       <use x="83.789062" xlink:href="#DejaVuSans-50"/>
       <use x="147.412109" xlink:href="#DejaVuSans-53"/>
       <use x="211.035156" xlink:href="#DejaVuSans-48"/>
      </g>
     </g>
    </g>
    <g id="ytick_25">
     <g id="line2d_100">
      <g>
       <use style="stroke:#000000;stroke-width:3;" x="888.827188" xlink:href="#mf4288bd472" y="138.135019"/>
      </g>
     </g>
     <g id="text_41">
      <!-- −200 -->
      <g transform="translate(857.86 141.934238)scale(0.1 -0.1)">
       <use xlink:href="#DejaVuSans-8722"/>
       <use x="83.789062" xlink:href="#DejaVuSans-50"/>
       <use x="147.412109" xlink:href="#DejaVuSans-48"/>
       <use x="211.035156" xlink:href="#DejaVuSans-48"/>
      </g>
     </g>
    </g>
    <g id="ytick_26">
     <g id="line2d_101">
      <g>
       <use style="stroke:#000000;stroke-width:3;" x="888.827188" xlink:href="#mf4288bd472" y="107.568974"/>
      </g>
     </g>
     <g id="text_42">
      <!-- −150 -->
      <g transform="translate(857.86 111.368193)scale(0.1 -0.1)">
       <use xlink:href="#DejaVuSans-8722"/>
       <use x="83.789062" xlink:href="#DejaVuSans-49"/>
       <use x="147.412109" xlink:href="#DejaVuSans-53"/>
       <use x="211.035156" xlink:href="#DejaVuSans-48"/>
      </g>
     </g>
    </g>
    <g id="ytick_27">
     <g id="line2d_102">
      <g>
       <use style="stroke:#000000;stroke-width:3;" x="888.827188" xlink:href="#mf4288bd472" y="77.002929"/>
      </g>
     </g>
     <g id="text_43">
      <!-- −100 -->
      <g transform="translate(857.86 80.802148)scale(0.1 -0.1)">
       <use xlink:href="#DejaVuSans-8722"/>
       <use x="83.789062" xlink:href="#DejaVuSans-49"/>
       <use x="147.412109" xlink:href="#DejaVuSans-48"/>
       <use x="211.035156" xlink:href="#DejaVuSans-48"/>
      </g>
     </g>
    </g>
    <g id="ytick_28">
     <g id="line2d_103">
      <g>
       <use style="stroke:#000000;stroke-width:3;" x="888.827188" xlink:href="#mf4288bd472" y="46.436884"/>
      </g>
     </g>
     <g id="text_44">
      <!-- −50 -->
      <g transform="translate(864.2225 50.236103)scale(0.1 -0.1)">
       <use xlink:href="#DejaVuSans-8722"/>
       <use x="83.789062" xlink:href="#DejaVuSans-53"/>
       <use x="147.412109" xlink:href="#DejaVuSans-48"/>
      </g>
     </g>
    </g>
   </g>
   <g id="line2d_104">
    <path clip-path="url(#p35438fce8a)" d="M 899.580433 27.662045 
L 911.185853 33.613144 
L 922.791273 30.857313 
L 932.273592 35.637353 
L 947.235581 48.495464 
L 953.361331 50.503122 
L 958.841001 52.045683 
L 963.797966 53.065583 
L 968.32332 57.087821 
L 972.486243 57.102619 
L 976.340507 61.116088 
L 979.928741 54.145211 
L 983.285309 58.014473 
L 986.438321 60.052802 
L 989.411059 62.390779 
L 992.223029 65.576951 
L 994.89073 63.622831 
L 997.428246 65.124247 
L 999.372725 65.544082 
L 1001.705348 67.733684 
L 1003.937826 67.912693 
L 1006.078407 68.416128 
L 1008.134357 70.719372 
L 1010.112115 73.558333 
L 1012.017411 74.80756 
L 1013.855367 76.34784 
L 1015.630583 78.592646 
L 1017.3472 80.220401 
L 1019.008963 80.900857 
L 1020.61927 83.152877 
L 1022.181212 85.702302 
L 1023.69761 85.936109 
L 1025.171044 87.299683 
L 1026.603883 87.613272 
L 1027.998304 88.659118 
L 1029.356312 91.075328 
L 1030.417752 92.591989 
L 1031.714796 93.146789 
L 1032.980279 94.780912 
L 1034.215699 96.057646 
L 1035.422453 95.587275 
L 1036.601841 96.997533 
L 1037.755076 98.148273 
L 1038.883293 97.250427 
L 1039.987554 97.654239 
L 1041.068857 101.455559 
L 1042.128135 101.961793 
L 1043.166268 102.742001 
L 1044.184085 105.105969 
L 1045.182364 104.508979 
L 1046.161843 105.666401 
L 1048.067139 106.552162 
L 1048.994236 106.25846 
L 1049.724195 106.162185 
L 1050.622469 107.72161 
L 1051.505491 110.209798 
L 1052.373771 111.453808 
L 1053.227793 114.612135 
L 1054.068018 115.800199 
L 1055.708809 116.715256 
L 1056.510193 116.525857 
L 1057.299415 119.076385 
L 1058.07684 119.558836 
L 1058.842815 121.539251 
L 1060.34173 124.788207 
L 1061.075294 126.059813 
L 1061.798654 126.073245 
L 1062.512091 126.787135 
L 1063.215874 129.004228 
L 1063.772123 129.748323 
L 1064.459171 131.788099 
L 1065.137261 132.906009 
L 1065.806623 134.313348 
L 1066.467481 136.311382 
L 1067.120046 135.676437 
L 1067.764524 136.386956 
L 1068.401115 132.108526 
L 1069.030007 134.067664 
L 1069.651385 133.933257 
L 1070.265428 137.336716 
L 1070.872304 137.155948 
L 1071.472182 137.389993 
L 1072.065218 140.423161 
L 1073.231383 141.270821 
L 1073.804804 142.238033 
L 1074.371972 142.121884 
L 1074.821294 143.708264 
L 1075.377543 144.880431 
L 1075.927906 146.655711 
L 1076.472505 147.557329 
L 1077.011461 149.057532 
L 1078.072901 151.360397 
L 1078.595606 150.985901 
L 1079.113111 150.199235 
L 1079.625517 151.821412 
L 1080.132923 150.114407 
L 1080.635427 150.673963 
L 1082.114449 157.200195 
L 1083.929448 165.171434 
L 1084.396735 165.056464 
L 1084.859862 167.75438 
L 1085.773924 169.579253 
L 1086.225 171.036623 
L 1087.55522 173.039972 
L 1087.991172 174.840523 
L 1088.4235 175.954274 
L 1088.852264 177.968022 
L 1089.277522 176.615672 
L 1089.699331 177.024025 
L 1090.117746 177.832405 
L 1090.532822 176.867344 
L 1090.944612 176.578759 
L 1091.353167 178.803149 
L 1091.677715 181.482865 
L 1092.480336 182.308965 
L 1092.877048 181.657034 
L 1093.270758 182.781349 
L 1093.661509 182.781349 
L 1094.049347 181.897006 
L 1094.434313 182.910653 
L 1094.816451 185.6371 
L 1095.195802 185.15991 
L 1095.572406 187.426185 
L 1095.946302 187.457598 
L 1096.31753 188.431807 
L 1096.686127 188.439868 
L 1097.052129 189.210709 
L 1097.415574 190.509575 
L 1097.776497 191.167738 
L 1098.134932 192.340973 
L 1098.419913 192.077674 
L 1098.773956 193.322381 
L 1099.125605 193.471048 
L 1099.474893 194.590276 
L 1099.821851 194.851748 
L 1100.166509 196.146366 
L 1100.849049 197.792099 
L 1101.186989 199.308276 
L 1101.522747 199.234273 
L 1101.856352 201.698501 
L 1102.18783 196.801653 
L 1102.517209 196.92424 
L 1103.169774 195.853239 
L 1103.493012 196.456335 
L 1103.814253 198.422411 
L 1104.133522 199.098752 
L 1104.387533 200.262026 
L 1104.703313 200.28797 
L 1105.017187 199.55327 
L 1105.329178 200.469201 
L 1105.639309 200.115754 
L 1106.254077 202.779399 
L 1106.558757 202.946277 
L 1106.861663 203.281138 
L 1107.162814 204.950645 
L 1107.462232 205.585235 
L 1107.759937 205.642133 
L 1108.055946 205.115096 
L 1108.350281 206.090282 
L 1108.642959 206.080178 
L 1108.933999 205.940088 
L 1109.22342 206.5185 
L 1109.511239 207.66259 
L 1109.740353 207.919057 
L 1110.025333 208.040847 
L 1110.30876 209.143329 
L 1110.590651 209.583912 
L 1110.871023 210.283284 
L 1111.427271 212.937554 
L 1111.703181 212.603369 
L 1111.977634 213.389691 
L 1112.250646 213.560214 
L 1112.522233 212.665623 
L 1112.792409 213.163387 
L 1113.061189 213.073044 
L 1113.328587 214.013484 
L 1113.594617 215.769304 
L 1113.859293 216.464308 
L 1114.122629 209.418943 
L 1114.384638 217.24022 
L 1114.645335 217.752955 
L 1114.645335 217.752955 
" style="fill:none;stroke:#03585d;stroke-linecap:square;stroke-width:4;"/>
   </g>
   <g id="patch_18">
    <path d="M 888.827188 227.2575 
L 888.827188 18.1575 
" style="fill:none;stroke:#000000;stroke-linecap:square;stroke-linejoin:miter;stroke-width:3;"/>
   </g>
   <g id="patch_19">
    <path d="M 1125.39858 227.2575 
L 1125.39858 18.1575 
" style="fill:none;stroke:#000000;stroke-linecap:square;stroke-linejoin:miter;stroke-width:3;"/>
   </g>
   <g id="patch_20">
    <path d="M 888.827188 227.2575 
L 1125.39858 227.2575 
" style="fill:none;stroke:#000000;stroke-linecap:square;stroke-linejoin:miter;stroke-width:3;"/>
   </g>
   <g id="patch_21">
    <path d="M 888.827188 18.1575 
L 1125.39858 18.1575 
" style="fill:none;stroke:#000000;stroke-linecap:square;stroke-linejoin:miter;stroke-width:3;"/>
   </g>
   <g id="text_45">
    <!-- Japanese -->
    <defs>
     <path d="M 9.8125 72.90625 
L 19.671875 72.90625 
L 19.671875 5.078125 
Q 19.671875 -8.109375 14.671875 -14.0625 
Q 9.671875 -20.015625 -1.421875 -20.015625 
L -5.171875 -20.015625 
L -5.171875 -11.71875 
L -2.09375 -11.71875 
Q 4.4375 -11.71875 7.125 -8.046875 
Q 9.8125 -4.390625 9.8125 5.078125 
z
" id="DejaVuSans-74"/>
    </defs>
    <g transform="translate(970.786634 12.1575)scale(0.16 -0.16)">
     <use xlink:href="#DejaVuSans-74"/>
     <use x="29.492188" xlink:href="#DejaVuSans-97"/>
     <use x="90.771484" xlink:href="#DejaVuSans-112"/>
     <use x="154.248047" xlink:href="#DejaVuSans-97"/>
     <use x="215.527344" xlink:href="#DejaVuSans-110"/>
     <use x="278.90625" xlink:href="#DejaVuSans-101"/>
     <use x="340.429688" xlink:href="#DejaVuSans-115"/>
     <use x="392.529297" xlink:href="#DejaVuSans-101"/>
    </g>
   </g>
  </g>
 </g>
 <defs>
  <clipPath id="p94853cb8da">
   <rect height="209.1" width="236.571392" x="52.427188" y="18.1575"/>
  </clipPath>
  <clipPath id="p597f4ce2c4">
   <rect height="209.1" width="236.571392" x="331.227187" y="18.1575"/>
  </clipPath>
  <clipPath id="p78001eb16b">
   <rect height="209.1" width="236.571392" x="610.027188" y="18.1575"/>
  </clipPath>
  <clipPath id="p35438fce8a">
   <rect height="209.1" width="236.571392" x="888.827188" y="18.1575"/>
  </clipPath>
 </defs>
</svg>
