<?xml version="1.0" encoding="utf-8" standalone="no"?>
<!DOCTYPE svg PUBLIC "-//W3C//DTD SVG 1.1//EN"
  "http://www.w3.org/Graphics/SVG/1.1/DTD/svg11.dtd">
<!-- Created with matplotlib (https://matplotlib.org/) -->
<svg height="261.85625pt" version="1.1" viewBox="0 0 1125.934517 261.85625" width="1125.934517pt" xmlns="http://www.w3.org/2000/svg" xmlns:xlink="http://www.w3.org/1999/xlink">
 <defs>
  <style type="text/css">
*{stroke-linecap:butt;stroke-linejoin:round;}
  </style>
 </defs>
 <g id="figure_1">
  <g id="patch_1">
   <path d="M 0 261.85625 
L 1125.934517 261.85625 
L 1125.934517 0 
L 0 0 
z
" style="fill:#ffffff;"/>
  </g>
  <g id="axes_1">
   <g id="patch_2">
    <path d="M 43.563125 227.2575 
L 291.109517 227.2575 
L 291.109517 18.1575 
L 43.563125 18.1575 
z
" style="fill:#ffffff;"/>
   </g>
   <g id="matplotlib.axis_1">
    <g id="xtick_1">
     <g id="line2d_1">
      <defs>
       <path d="M 0 0 
L 0 -10 
" id="mb1689f6fb4" style="stroke:#000000;stroke-width:3;"/>
      </defs>
      <g>
       <use style="stroke:#000000;stroke-width:3;" x="154.547158" xlink:href="#mb1689f6fb4" y="227.2575"/>
      </g>
     </g>
     <g id="text_1">
      <!-- $\mathdefault{10^{2}}$ -->
      <defs>
       <path d="M 12.40625 8.296875 
L 28.515625 8.296875 
L 28.515625 63.921875 
L 10.984375 60.40625 
L 10.984375 69.390625 
L 28.421875 72.90625 
L 38.28125 72.90625 
L 38.28125 8.296875 
L 54.390625 8.296875 
L 54.390625 0 
L 12.40625 0 
z
" id="DejaVuSans-49"/>
       <path d="M 31.78125 66.40625 
Q 24.171875 66.40625 20.328125 58.90625 
Q 16.5 51.421875 16.5 36.375 
Q 16.5 21.390625 20.328125 13.890625 
Q 24.171875 6.390625 31.78125 6.390625 
Q 39.453125 6.390625 43.28125 13.890625 
Q 47.125 21.390625 47.125 36.375 
Q 47.125 51.421875 43.28125 58.90625 
Q 39.453125 66.40625 31.78125 66.40625 
z
M 31.78125 74.21875 
Q 44.046875 74.21875 50.515625 64.515625 
Q 56.984375 54.828125 56.984375 36.375 
Q 56.984375 17.96875 50.515625 8.265625 
Q 44.046875 -1.421875 31.78125 -1.421875 
Q 19.53125 -1.421875 13.0625 8.265625 
Q 6.59375 17.96875 6.59375 36.375 
Q 6.59375 54.828125 13.0625 64.515625 
Q 19.53125 74.21875 31.78125 74.21875 
z
" id="DejaVuSans-48"/>
       <path d="M 19.1875 8.296875 
L 53.609375 8.296875 
L 53.609375 0 
L 7.328125 0 
L 7.328125 8.296875 
Q 12.9375 14.109375 22.625 23.890625 
Q 32.328125 33.6875 34.8125 36.53125 
Q 39.546875 41.84375 41.421875 45.53125 
Q 43.3125 49.21875 43.3125 52.78125 
Q 43.3125 58.59375 39.234375 62.25 
Q 35.15625 65.921875 28.609375 65.921875 
Q 23.96875 65.921875 18.8125 64.3125 
Q 13.671875 62.703125 7.8125 59.421875 
L 7.8125 69.390625 
Q 13.765625 71.78125 18.9375 73 
Q 24.125 74.21875 28.421875 74.21875 
Q 39.75 74.21875 46.484375 68.546875 
Q 53.21875 62.890625 53.21875 53.421875 
Q 53.21875 48.921875 51.53125 44.890625 
Q 49.859375 40.875 45.40625 35.40625 
Q 44.1875 33.984375 37.640625 27.21875 
Q 31.109375 20.453125 19.1875 8.296875 
z
" id="DejaVuSans-50"/>
      </defs>
      <g transform="translate(145.747158 238.355938)scale(0.1 -0.1)">
       <use transform="translate(0 0.765625)" xlink:href="#DejaVuSans-49"/>
       <use transform="translate(63.623047 0.765625)" xlink:href="#DejaVuSans-48"/>
       <use transform="translate(128.203125 39.046875)scale(0.7)" xlink:href="#DejaVuSans-50"/>
      </g>
     </g>
    </g>
    <g id="xtick_2">
     <g id="line2d_2">
      <g>
       <use style="stroke:#000000;stroke-width:3;" x="279.857408" xlink:href="#mb1689f6fb4" y="227.2575"/>
      </g>
     </g>
     <g id="text_2">
      <!-- $\mathdefault{10^{3}}$ -->
      <defs>
       <path d="M 40.578125 39.3125 
Q 47.65625 37.796875 51.625 33 
Q 55.609375 28.21875 55.609375 21.1875 
Q 55.609375 10.40625 48.1875 4.484375 
Q 40.765625 -1.421875 27.09375 -1.421875 
Q 22.515625 -1.421875 17.65625 -0.515625 
Q 12.796875 0.390625 7.625 2.203125 
L 7.625 11.71875 
Q 11.71875 9.328125 16.59375 8.109375 
Q 21.484375 6.890625 26.8125 6.890625 
Q 36.078125 6.890625 40.9375 10.546875 
Q 45.796875 14.203125 45.796875 21.1875 
Q 45.796875 27.640625 41.28125 31.265625 
Q 36.765625 34.90625 28.71875 34.90625 
L 20.21875 34.90625 
L 20.21875 43.015625 
L 29.109375 43.015625 
Q 36.375 43.015625 40.234375 45.921875 
Q 44.09375 48.828125 44.09375 54.296875 
Q 44.09375 59.90625 40.109375 62.90625 
Q 36.140625 65.921875 28.71875 65.921875 
Q 24.65625 65.921875 20.015625 65.03125 
Q 15.375 64.15625 9.8125 62.3125 
L 9.8125 71.09375 
Q 15.4375 72.65625 20.34375 73.4375 
Q 25.25 74.21875 29.59375 74.21875 
Q 40.828125 74.21875 47.359375 69.109375 
Q 53.90625 64.015625 53.90625 55.328125 
Q 53.90625 49.265625 50.4375 45.09375 
Q 46.96875 40.921875 40.578125 39.3125 
z
" id="DejaVuSans-51"/>
      </defs>
      <g transform="translate(271.057408 238.355938)scale(0.1 -0.1)">
       <use transform="translate(0 0.765625)" xlink:href="#DejaVuSans-49"/>
       <use transform="translate(63.623047 0.765625)" xlink:href="#DejaVuSans-48"/>
       <use transform="translate(128.203125 39.046875)scale(0.7)" xlink:href="#DejaVuSans-51"/>
      </g>
     </g>
    </g>
    <g id="xtick_3">
     <g id="line2d_3">
      <defs>
       <path d="M 0 0 
L 0 -5 
" id="mc2ccbb1c18" style="stroke:#000000;stroke-width:2;"/>
      </defs>
      <g>
       <use style="stroke:#000000;stroke-width:2;" x="66.959052" xlink:href="#mc2ccbb1c18" y="227.2575"/>
      </g>
     </g>
    </g>
    <g id="xtick_4">
     <g id="line2d_4">
      <g>
       <use style="stroke:#000000;stroke-width:2;" x="89.025092" xlink:href="#mc2ccbb1c18" y="227.2575"/>
      </g>
     </g>
    </g>
    <g id="xtick_5">
     <g id="line2d_5">
      <g>
       <use style="stroke:#000000;stroke-width:2;" x="104.681196" xlink:href="#mc2ccbb1c18" y="227.2575"/>
      </g>
     </g>
    </g>
    <g id="xtick_6">
     <g id="line2d_6">
      <g>
       <use style="stroke:#000000;stroke-width:2;" x="116.825014" xlink:href="#mc2ccbb1c18" y="227.2575"/>
      </g>
     </g>
    </g>
    <g id="xtick_7">
     <g id="line2d_7">
      <g>
       <use style="stroke:#000000;stroke-width:2;" x="126.747236" xlink:href="#mc2ccbb1c18" y="227.2575"/>
      </g>
     </g>
    </g>
    <g id="xtick_8">
     <g id="line2d_8">
      <g>
       <use style="stroke:#000000;stroke-width:2;" x="135.136355" xlink:href="#mc2ccbb1c18" y="227.2575"/>
      </g>
     </g>
    </g>
    <g id="xtick_9">
     <g id="line2d_9">
      <g>
       <use style="stroke:#000000;stroke-width:2;" x="142.40334" xlink:href="#mc2ccbb1c18" y="227.2575"/>
      </g>
     </g>
    </g>
    <g id="xtick_10">
     <g id="line2d_10">
      <g>
       <use style="stroke:#000000;stroke-width:2;" x="148.813275" xlink:href="#mc2ccbb1c18" y="227.2575"/>
      </g>
     </g>
    </g>
    <g id="xtick_11">
     <g id="line2d_11">
      <g>
       <use style="stroke:#000000;stroke-width:2;" x="192.269302" xlink:href="#mc2ccbb1c18" y="227.2575"/>
      </g>
     </g>
    </g>
    <g id="xtick_12">
     <g id="line2d_12">
      <g>
       <use style="stroke:#000000;stroke-width:2;" x="214.335342" xlink:href="#mc2ccbb1c18" y="227.2575"/>
      </g>
     </g>
    </g>
    <g id="xtick_13">
     <g id="line2d_13">
      <g>
       <use style="stroke:#000000;stroke-width:2;" x="229.991446" xlink:href="#mc2ccbb1c18" y="227.2575"/>
      </g>
     </g>
    </g>
    <g id="xtick_14">
     <g id="line2d_14">
      <g>
       <use style="stroke:#000000;stroke-width:2;" x="242.135264" xlink:href="#mc2ccbb1c18" y="227.2575"/>
      </g>
     </g>
    </g>
    <g id="xtick_15">
     <g id="line2d_15">
      <g>
       <use style="stroke:#000000;stroke-width:2;" x="252.057486" xlink:href="#mc2ccbb1c18" y="227.2575"/>
      </g>
     </g>
    </g>
    <g id="xtick_16">
     <g id="line2d_16">
      <g>
       <use style="stroke:#000000;stroke-width:2;" x="260.446605" xlink:href="#mc2ccbb1c18" y="227.2575"/>
      </g>
     </g>
    </g>
    <g id="xtick_17">
     <g id="line2d_17">
      <g>
       <use style="stroke:#000000;stroke-width:2;" x="267.71359" xlink:href="#mc2ccbb1c18" y="227.2575"/>
      </g>
     </g>
    </g>
    <g id="xtick_18">
     <g id="line2d_18">
      <g>
       <use style="stroke:#000000;stroke-width:2;" x="274.123526" xlink:href="#mc2ccbb1c18" y="227.2575"/>
      </g>
     </g>
    </g>
    <g id="text_3">
     <!-- Distance (phones) -->
     <defs>
      <path d="M 19.671875 64.796875 
L 19.671875 8.109375 
L 31.59375 8.109375 
Q 46.6875 8.109375 53.6875 14.9375 
Q 60.6875 21.78125 60.6875 36.53125 
Q 60.6875 51.171875 53.6875 57.984375 
Q 46.6875 64.796875 31.59375 64.796875 
z
M 9.8125 72.90625 
L 30.078125 72.90625 
Q 51.265625 72.90625 61.171875 64.09375 
Q 71.09375 55.28125 71.09375 36.53125 
Q 71.09375 17.671875 61.125 8.828125 
Q 51.171875 0 30.078125 0 
L 9.8125 0 
z
" id="DejaVuSans-68"/>
      <path d="M 9.421875 54.6875 
L 18.40625 54.6875 
L 18.40625 0 
L 9.421875 0 
z
M 9.421875 75.984375 
L 18.40625 75.984375 
L 18.40625 64.59375 
L 9.421875 64.59375 
z
" id="DejaVuSans-105"/>
      <path d="M 44.28125 53.078125 
L 44.28125 44.578125 
Q 40.484375 46.53125 36.375 47.5 
Q 32.28125 48.484375 27.875 48.484375 
Q 21.1875 48.484375 17.84375 46.4375 
Q 14.5 44.390625 14.5 40.28125 
Q 14.5 37.15625 16.890625 35.375 
Q 19.28125 33.59375 26.515625 31.984375 
L 29.59375 31.296875 
Q 39.15625 29.25 43.1875 25.515625 
Q 47.21875 21.78125 47.21875 15.09375 
Q 47.21875 7.46875 41.1875 3.015625 
Q 35.15625 -1.421875 24.609375 -1.421875 
Q 20.21875 -1.421875 15.453125 -0.5625 
Q 10.6875 0.296875 5.421875 2 
L 5.421875 11.28125 
Q 10.40625 8.6875 15.234375 7.390625 
Q 20.0625 6.109375 24.8125 6.109375 
Q 31.15625 6.109375 34.5625 8.28125 
Q 37.984375 10.453125 37.984375 14.40625 
Q 37.984375 18.0625 35.515625 20.015625 
Q 33.0625 21.96875 24.703125 23.78125 
L 21.578125 24.515625 
Q 13.234375 26.265625 9.515625 29.90625 
Q 5.8125 33.546875 5.8125 39.890625 
Q 5.8125 47.609375 11.28125 51.796875 
Q 16.75 56 26.8125 56 
Q 31.78125 56 36.171875 55.265625 
Q 40.578125 54.546875 44.28125 53.078125 
z
" id="DejaVuSans-115"/>
      <path d="M 18.3125 70.21875 
L 18.3125 54.6875 
L 36.8125 54.6875 
L 36.8125 47.703125 
L 18.3125 47.703125 
L 18.3125 18.015625 
Q 18.3125 11.328125 20.140625 9.421875 
Q 21.96875 7.515625 27.59375 7.515625 
L 36.8125 7.515625 
L 36.8125 0 
L 27.59375 0 
Q 17.1875 0 13.234375 3.875 
Q 9.28125 7.765625 9.28125 18.015625 
L 9.28125 47.703125 
L 2.6875 47.703125 
L 2.6875 54.6875 
L 9.28125 54.6875 
L 9.28125 70.21875 
z
" id="DejaVuSans-116"/>
      <path d="M 34.28125 27.484375 
Q 23.390625 27.484375 19.1875 25 
Q 14.984375 22.515625 14.984375 16.5 
Q 14.984375 11.71875 18.140625 8.90625 
Q 21.296875 6.109375 26.703125 6.109375 
Q 34.1875 6.109375 38.703125 11.40625 
Q 43.21875 16.703125 43.21875 25.484375 
L 43.21875 27.484375 
z
M 52.203125 31.203125 
L 52.203125 0 
L 43.21875 0 
L 43.21875 8.296875 
Q 40.140625 3.328125 35.546875 0.953125 
Q 30.953125 -1.421875 24.3125 -1.421875 
Q 15.921875 -1.421875 10.953125 3.296875 
Q 6 8.015625 6 15.921875 
Q 6 25.140625 12.171875 29.828125 
Q 18.359375 34.515625 30.609375 34.515625 
L 43.21875 34.515625 
L 43.21875 35.40625 
Q 43.21875 41.609375 39.140625 45 
Q 35.0625 48.390625 27.6875 48.390625 
Q 23 48.390625 18.546875 47.265625 
Q 14.109375 46.140625 10.015625 43.890625 
L 10.015625 52.203125 
Q 14.9375 54.109375 19.578125 55.046875 
Q 24.21875 56 28.609375 56 
Q 40.484375 56 46.34375 49.84375 
Q 52.203125 43.703125 52.203125 31.203125 
z
" id="DejaVuSans-97"/>
      <path d="M 54.890625 33.015625 
L 54.890625 0 
L 45.90625 0 
L 45.90625 32.71875 
Q 45.90625 40.484375 42.875 44.328125 
Q 39.84375 48.1875 33.796875 48.1875 
Q 26.515625 48.1875 22.3125 43.546875 
Q 18.109375 38.921875 18.109375 30.90625 
L 18.109375 0 
L 9.078125 0 
L 9.078125 54.6875 
L 18.109375 54.6875 
L 18.109375 46.1875 
Q 21.34375 51.125 25.703125 53.5625 
Q 30.078125 56 35.796875 56 
Q 45.21875 56 50.046875 50.171875 
Q 54.890625 44.34375 54.890625 33.015625 
z
" id="DejaVuSans-110"/>
      <path d="M 48.78125 52.59375 
L 48.78125 44.1875 
Q 44.96875 46.296875 41.140625 47.34375 
Q 37.3125 48.390625 33.40625 48.390625 
Q 24.65625 48.390625 19.8125 42.84375 
Q 14.984375 37.3125 14.984375 27.296875 
Q 14.984375 17.28125 19.8125 11.734375 
Q 24.65625 6.203125 33.40625 6.203125 
Q 37.3125 6.203125 41.140625 7.25 
Q 44.96875 8.296875 48.78125 10.40625 
L 48.78125 2.09375 
Q 45.015625 0.34375 40.984375 -0.53125 
Q 36.96875 -1.421875 32.421875 -1.421875 
Q 20.0625 -1.421875 12.78125 6.34375 
Q 5.515625 14.109375 5.515625 27.296875 
Q 5.515625 40.671875 12.859375 48.328125 
Q 20.21875 56 33.015625 56 
Q 37.15625 56 41.109375 55.140625 
Q 45.0625 54.296875 48.78125 52.59375 
z
" id="DejaVuSans-99"/>
      <path d="M 56.203125 29.59375 
L 56.203125 25.203125 
L 14.890625 25.203125 
Q 15.484375 15.921875 20.484375 11.0625 
Q 25.484375 6.203125 34.421875 6.203125 
Q 39.59375 6.203125 44.453125 7.46875 
Q 49.3125 8.734375 54.109375 11.28125 
L 54.109375 2.78125 
Q 49.265625 0.734375 44.1875 -0.34375 
Q 39.109375 -1.421875 33.890625 -1.421875 
Q 20.796875 -1.421875 13.15625 6.1875 
Q 5.515625 13.8125 5.515625 26.8125 
Q 5.515625 40.234375 12.765625 48.109375 
Q 20.015625 56 32.328125 56 
Q 43.359375 56 49.78125 48.890625 
Q 56.203125 41.796875 56.203125 29.59375 
z
M 47.21875 32.234375 
Q 47.125 39.59375 43.09375 43.984375 
Q 39.0625 48.390625 32.421875 48.390625 
Q 24.90625 48.390625 20.390625 44.140625 
Q 15.875 39.890625 15.1875 32.171875 
z
" id="DejaVuSans-101"/>
      <path id="DejaVuSans-32"/>
      <path d="M 31 75.875 
Q 24.46875 64.65625 21.28125 53.65625 
Q 18.109375 42.671875 18.109375 31.390625 
Q 18.109375 20.125 21.3125 9.0625 
Q 24.515625 -2 31 -13.1875 
L 23.1875 -13.1875 
Q 15.875 -1.703125 12.234375 9.375 
Q 8.59375 20.453125 8.59375 31.390625 
Q 8.59375 42.28125 12.203125 53.3125 
Q 15.828125 64.359375 23.1875 75.875 
z
" id="DejaVuSans-40"/>
      <path d="M 18.109375 8.203125 
L 18.109375 -20.796875 
L 9.078125 -20.796875 
L 9.078125 54.6875 
L 18.109375 54.6875 
L 18.109375 46.390625 
Q 20.953125 51.265625 25.265625 53.625 
Q 29.59375 56 35.59375 56 
Q 45.5625 56 51.78125 48.09375 
Q 58.015625 40.1875 58.015625 27.296875 
Q 58.015625 14.40625 51.78125 6.484375 
Q 45.5625 -1.421875 35.59375 -1.421875 
Q 29.59375 -1.421875 25.265625 0.953125 
Q 20.953125 3.328125 18.109375 8.203125 
z
M 48.6875 27.296875 
Q 48.6875 37.203125 44.609375 42.84375 
Q 40.53125 48.484375 33.40625 48.484375 
Q 26.265625 48.484375 22.1875 42.84375 
Q 18.109375 37.203125 18.109375 27.296875 
Q 18.109375 17.390625 22.1875 11.75 
Q 26.265625 6.109375 33.40625 6.109375 
Q 40.53125 6.109375 44.609375 11.75 
Q 48.6875 17.390625 48.6875 27.296875 
z
" id="DejaVuSans-112"/>
      <path d="M 54.890625 33.015625 
L 54.890625 0 
L 45.90625 0 
L 45.90625 32.71875 
Q 45.90625 40.484375 42.875 44.328125 
Q 39.84375 48.1875 33.796875 48.1875 
Q 26.515625 48.1875 22.3125 43.546875 
Q 18.109375 38.921875 18.109375 30.90625 
L 18.109375 0 
L 9.078125 0 
L 9.078125 75.984375 
L 18.109375 75.984375 
L 18.109375 46.1875 
Q 21.34375 51.125 25.703125 53.5625 
Q 30.078125 56 35.796875 56 
Q 45.21875 56 50.046875 50.171875 
Q 54.890625 44.34375 54.890625 33.015625 
z
" id="DejaVuSans-104"/>
      <path d="M 30.609375 48.390625 
Q 23.390625 48.390625 19.1875 42.75 
Q 14.984375 37.109375 14.984375 27.296875 
Q 14.984375 17.484375 19.15625 11.84375 
Q 23.34375 6.203125 30.609375 6.203125 
Q 37.796875 6.203125 41.984375 11.859375 
Q 46.1875 17.53125 46.1875 27.296875 
Q 46.1875 37.015625 41.984375 42.703125 
Q 37.796875 48.390625 30.609375 48.390625 
z
M 30.609375 56 
Q 42.328125 56 49.015625 48.375 
Q 55.71875 40.765625 55.71875 27.296875 
Q 55.71875 13.875 49.015625 6.21875 
Q 42.328125 -1.421875 30.609375 -1.421875 
Q 18.84375 -1.421875 12.171875 6.21875 
Q 5.515625 13.875 5.515625 27.296875 
Q 5.515625 40.765625 12.171875 48.375 
Q 18.84375 56 30.609375 56 
z
" id="DejaVuSans-111"/>
      <path d="M 8.015625 75.875 
L 15.828125 75.875 
Q 23.140625 64.359375 26.78125 53.3125 
Q 30.421875 42.28125 30.421875 31.390625 
Q 30.421875 20.453125 26.78125 9.375 
Q 23.140625 -1.703125 15.828125 -13.1875 
L 8.015625 -13.1875 
Q 14.5 -2 17.703125 9.0625 
Q 20.90625 20.125 20.90625 31.390625 
Q 20.90625 42.671875 17.703125 53.65625 
Q 14.5 64.65625 8.015625 75.875 
z
" id="DejaVuSans-41"/>
     </defs>
     <g transform="translate(85.246477 258.112813)scale(0.18 -0.18)">
      <use xlink:href="#DejaVuSans-68"/>
      <use x="77.001953" xlink:href="#DejaVuSans-105"/>
      <use x="104.785156" xlink:href="#DejaVuSans-115"/>
      <use x="156.884766" xlink:href="#DejaVuSans-116"/>
      <use x="196.09375" xlink:href="#DejaVuSans-97"/>
      <use x="257.373047" xlink:href="#DejaVuSans-110"/>
      <use x="320.751953" xlink:href="#DejaVuSans-99"/>
      <use x="375.732422" xlink:href="#DejaVuSans-101"/>
      <use x="437.255859" xlink:href="#DejaVuSans-32"/>
      <use x="469.042969" xlink:href="#DejaVuSans-40"/>
      <use x="508.056641" xlink:href="#DejaVuSans-112"/>
      <use x="571.533203" xlink:href="#DejaVuSans-104"/>
      <use x="634.912109" xlink:href="#DejaVuSans-111"/>
      <use x="696.09375" xlink:href="#DejaVuSans-110"/>
      <use x="759.472656" xlink:href="#DejaVuSans-101"/>
      <use x="820.996094" xlink:href="#DejaVuSans-115"/>
      <use x="873.095703" xlink:href="#DejaVuSans-41"/>
     </g>
    </g>
   </g>
   <g id="matplotlib.axis_2">
    <g id="ytick_1">
     <g id="line2d_19">
      <defs>
       <path d="M 0 0 
L 10 0 
" id="md4a70dd412" style="stroke:#000000;stroke-width:3;"/>
      </defs>
      <g>
       <use style="stroke:#000000;stroke-width:3;" x="43.563125" xlink:href="#md4a70dd412" y="227.2575"/>
      </g>
     </g>
     <g id="text_4">
      <!-- 0.5 -->
      <defs>
       <path d="M 10.6875 12.40625 
L 21 12.40625 
L 21 0 
L 10.6875 0 
z
" id="DejaVuSans-46"/>
       <path d="M 10.796875 72.90625 
L 49.515625 72.90625 
L 49.515625 64.59375 
L 19.828125 64.59375 
L 19.828125 46.734375 
Q 21.96875 47.46875 24.109375 47.828125 
Q 26.265625 48.1875 28.421875 48.1875 
Q 40.625 48.1875 47.75 41.5 
Q 54.890625 34.8125 54.890625 23.390625 
Q 54.890625 11.625 47.5625 5.09375 
Q 40.234375 -1.421875 26.90625 -1.421875 
Q 22.3125 -1.421875 17.546875 -0.640625 
Q 12.796875 0.140625 7.71875 1.703125 
L 7.71875 11.625 
Q 12.109375 9.234375 16.796875 8.0625 
Q 21.484375 6.890625 26.703125 6.890625 
Q 35.15625 6.890625 40.078125 11.328125 
Q 45.015625 15.765625 45.015625 23.390625 
Q 45.015625 31 40.078125 35.4375 
Q 35.15625 39.890625 26.703125 39.890625 
Q 22.75 39.890625 18.8125 39.015625 
Q 14.890625 38.140625 10.796875 36.28125 
z
" id="DejaVuSans-53"/>
      </defs>
      <g transform="translate(24.16 231.056719)scale(0.1 -0.1)">
       <use xlink:href="#DejaVuSans-48"/>
       <use x="63.623047" xlink:href="#DejaVuSans-46"/>
       <use x="95.410156" xlink:href="#DejaVuSans-53"/>
      </g>
     </g>
    </g>
    <g id="ytick_2">
     <g id="line2d_20">
      <g>
       <use style="stroke:#000000;stroke-width:3;" x="43.563125" xlink:href="#md4a70dd412" y="186.2575"/>
      </g>
     </g>
     <g id="text_5">
      <!-- 0.6 -->
      <defs>
       <path d="M 33.015625 40.375 
Q 26.375 40.375 22.484375 35.828125 
Q 18.609375 31.296875 18.609375 23.390625 
Q 18.609375 15.53125 22.484375 10.953125 
Q 26.375 6.390625 33.015625 6.390625 
Q 39.65625 6.390625 43.53125 10.953125 
Q 47.40625 15.53125 47.40625 23.390625 
Q 47.40625 31.296875 43.53125 35.828125 
Q 39.65625 40.375 33.015625 40.375 
z
M 52.59375 71.296875 
L 52.59375 62.3125 
Q 48.875 64.0625 45.09375 64.984375 
Q 41.3125 65.921875 37.59375 65.921875 
Q 27.828125 65.921875 22.671875 59.328125 
Q 17.53125 52.734375 16.796875 39.40625 
Q 19.671875 43.65625 24.015625 45.921875 
Q 28.375 48.1875 33.59375 48.1875 
Q 44.578125 48.1875 50.953125 41.515625 
Q 57.328125 34.859375 57.328125 23.390625 
Q 57.328125 12.15625 50.6875 5.359375 
Q 44.046875 -1.421875 33.015625 -1.421875 
Q 20.359375 -1.421875 13.671875 8.265625 
Q 6.984375 17.96875 6.984375 36.375 
Q 6.984375 53.65625 15.1875 63.9375 
Q 23.390625 74.21875 37.203125 74.21875 
Q 40.921875 74.21875 44.703125 73.484375 
Q 48.484375 72.75 52.59375 71.296875 
z
" id="DejaVuSans-54"/>
      </defs>
      <g transform="translate(24.16 190.056719)scale(0.1 -0.1)">
       <use xlink:href="#DejaVuSans-48"/>
       <use x="63.623047" xlink:href="#DejaVuSans-46"/>
       <use x="95.410156" xlink:href="#DejaVuSans-54"/>
      </g>
     </g>
    </g>
    <g id="ytick_3">
     <g id="line2d_21">
      <g>
       <use style="stroke:#000000;stroke-width:3;" x="43.563125" xlink:href="#md4a70dd412" y="145.2575"/>
      </g>
     </g>
     <g id="text_6">
      <!-- 0.7 -->
      <defs>
       <path d="M 8.203125 72.90625 
L 55.078125 72.90625 
L 55.078125 68.703125 
L 28.609375 0 
L 18.3125 0 
L 43.21875 64.59375 
L 8.203125 64.59375 
z
" id="DejaVuSans-55"/>
      </defs>
      <g transform="translate(24.16 149.056719)scale(0.1 -0.1)">
       <use xlink:href="#DejaVuSans-48"/>
       <use x="63.623047" xlink:href="#DejaVuSans-46"/>
       <use x="95.410156" xlink:href="#DejaVuSans-55"/>
      </g>
     </g>
    </g>
    <g id="ytick_4">
     <g id="line2d_22">
      <g>
       <use style="stroke:#000000;stroke-width:3;" x="43.563125" xlink:href="#md4a70dd412" y="104.2575"/>
      </g>
     </g>
     <g id="text_7">
      <!-- 0.8 -->
      <defs>
       <path d="M 31.78125 34.625 
Q 24.75 34.625 20.71875 30.859375 
Q 16.703125 27.09375 16.703125 20.515625 
Q 16.703125 13.921875 20.71875 10.15625 
Q 24.75 6.390625 31.78125 6.390625 
Q 38.8125 6.390625 42.859375 10.171875 
Q 46.921875 13.96875 46.921875 20.515625 
Q 46.921875 27.09375 42.890625 30.859375 
Q 38.875 34.625 31.78125 34.625 
z
M 21.921875 38.8125 
Q 15.578125 40.375 12.03125 44.71875 
Q 8.5 49.078125 8.5 55.328125 
Q 8.5 64.0625 14.71875 69.140625 
Q 20.953125 74.21875 31.78125 74.21875 
Q 42.671875 74.21875 48.875 69.140625 
Q 55.078125 64.0625 55.078125 55.328125 
Q 55.078125 49.078125 51.53125 44.71875 
Q 48 40.375 41.703125 38.8125 
Q 48.828125 37.15625 52.796875 32.3125 
Q 56.78125 27.484375 56.78125 20.515625 
Q 56.78125 9.90625 50.3125 4.234375 
Q 43.84375 -1.421875 31.78125 -1.421875 
Q 19.734375 -1.421875 13.25 4.234375 
Q 6.78125 9.90625 6.78125 20.515625 
Q 6.78125 27.484375 10.78125 32.3125 
Q 14.796875 37.15625 21.921875 38.8125 
z
M 18.3125 54.390625 
Q 18.3125 48.734375 21.84375 45.5625 
Q 25.390625 42.390625 31.78125 42.390625 
Q 38.140625 42.390625 41.71875 45.5625 
Q 45.3125 48.734375 45.3125 54.390625 
Q 45.3125 60.0625 41.71875 63.234375 
Q 38.140625 66.40625 31.78125 66.40625 
Q 25.390625 66.40625 21.84375 63.234375 
Q 18.3125 60.0625 18.3125 54.390625 
z
" id="DejaVuSans-56"/>
      </defs>
      <g transform="translate(24.16 108.056719)scale(0.1 -0.1)">
       <use xlink:href="#DejaVuSans-48"/>
       <use x="63.623047" xlink:href="#DejaVuSans-46"/>
       <use x="95.410156" xlink:href="#DejaVuSans-56"/>
      </g>
     </g>
    </g>
    <g id="ytick_5">
     <g id="line2d_23">
      <g>
       <use style="stroke:#000000;stroke-width:3;" x="43.563125" xlink:href="#md4a70dd412" y="63.2575"/>
      </g>
     </g>
     <g id="text_8">
      <!-- 0.9 -->
      <defs>
       <path d="M 10.984375 1.515625 
L 10.984375 10.5 
Q 14.703125 8.734375 18.5 7.8125 
Q 22.3125 6.890625 25.984375 6.890625 
Q 35.75 6.890625 40.890625 13.453125 
Q 46.046875 20.015625 46.78125 33.40625 
Q 43.953125 29.203125 39.59375 26.953125 
Q 35.25 24.703125 29.984375 24.703125 
Q 19.046875 24.703125 12.671875 31.3125 
Q 6.296875 37.9375 6.296875 49.421875 
Q 6.296875 60.640625 12.9375 67.421875 
Q 19.578125 74.21875 30.609375 74.21875 
Q 43.265625 74.21875 49.921875 64.515625 
Q 56.59375 54.828125 56.59375 36.375 
Q 56.59375 19.140625 48.40625 8.859375 
Q 40.234375 -1.421875 26.421875 -1.421875 
Q 22.703125 -1.421875 18.890625 -0.6875 
Q 15.09375 0.046875 10.984375 1.515625 
z
M 30.609375 32.421875 
Q 37.25 32.421875 41.125 36.953125 
Q 45.015625 41.5 45.015625 49.421875 
Q 45.015625 57.28125 41.125 61.84375 
Q 37.25 66.40625 30.609375 66.40625 
Q 23.96875 66.40625 20.09375 61.84375 
Q 16.21875 57.28125 16.21875 49.421875 
Q 16.21875 41.5 20.09375 36.953125 
Q 23.96875 32.421875 30.609375 32.421875 
z
" id="DejaVuSans-57"/>
      </defs>
      <g transform="translate(24.16 67.056719)scale(0.1 -0.1)">
       <use xlink:href="#DejaVuSans-48"/>
       <use x="63.623047" xlink:href="#DejaVuSans-46"/>
       <use x="95.410156" xlink:href="#DejaVuSans-57"/>
      </g>
     </g>
    </g>
    <g id="ytick_6">
     <g id="line2d_24">
      <g>
       <use style="stroke:#000000;stroke-width:3;" x="43.563125" xlink:href="#md4a70dd412" y="22.2575"/>
      </g>
     </g>
     <g id="text_9">
      <!-- 1.0 -->
      <g transform="translate(24.16 26.056719)scale(0.1 -0.1)">
       <use xlink:href="#DejaVuSans-49"/>
       <use x="63.623047" xlink:href="#DejaVuSans-46"/>
       <use x="95.410156" xlink:href="#DejaVuSans-48"/>
      </g>
     </g>
    </g>
    <g id="text_10">
     <!-- $r^2$ power-law component -->
     <defs>
      <path d="M 44.578125 46.390625 
Q 43.21875 47.125 41.453125 47.515625 
Q 39.703125 47.90625 37.703125 47.90625 
Q 30.515625 47.90625 25.140625 42.453125 
Q 19.78125 37.015625 18.015625 27.875 
L 12.5 0 
L 3.515625 0 
L 14.203125 54.6875 
L 23.1875 54.6875 
L 21.484375 46.1875 
Q 25.046875 50.921875 30 53.453125 
Q 34.96875 56 40.578125 56 
Q 42.046875 56 43.453125 55.828125 
Q 44.875 55.671875 46.296875 55.28125 
z
" id="DejaVuSans-Oblique-114"/>
      <path d="M 4.203125 54.6875 
L 13.1875 54.6875 
L 24.421875 12.015625 
L 35.59375 54.6875 
L 46.1875 54.6875 
L 57.421875 12.015625 
L 68.609375 54.6875 
L 77.59375 54.6875 
L 63.28125 0 
L 52.6875 0 
L 40.921875 44.828125 
L 29.109375 0 
L 18.5 0 
z
" id="DejaVuSans-119"/>
      <path d="M 41.109375 46.296875 
Q 39.59375 47.171875 37.8125 47.578125 
Q 36.03125 48 33.890625 48 
Q 26.265625 48 22.1875 43.046875 
Q 18.109375 38.09375 18.109375 28.8125 
L 18.109375 0 
L 9.078125 0 
L 9.078125 54.6875 
L 18.109375 54.6875 
L 18.109375 46.1875 
Q 20.953125 51.171875 25.484375 53.578125 
Q 30.03125 56 36.53125 56 
Q 37.453125 56 38.578125 55.875 
Q 39.703125 55.765625 41.0625 55.515625 
z
" id="DejaVuSans-114"/>
      <path d="M 4.890625 31.390625 
L 31.203125 31.390625 
L 31.203125 23.390625 
L 4.890625 23.390625 
z
" id="DejaVuSans-45"/>
      <path d="M 9.421875 75.984375 
L 18.40625 75.984375 
L 18.40625 0 
L 9.421875 0 
z
" id="DejaVuSans-108"/>
      <path d="M 52 44.1875 
Q 55.375 50.25 60.0625 53.125 
Q 64.75 56 71.09375 56 
Q 79.640625 56 84.28125 50.015625 
Q 88.921875 44.046875 88.921875 33.015625 
L 88.921875 0 
L 79.890625 0 
L 79.890625 32.71875 
Q 79.890625 40.578125 77.09375 44.375 
Q 74.3125 48.1875 68.609375 48.1875 
Q 61.625 48.1875 57.5625 43.546875 
Q 53.515625 38.921875 53.515625 30.90625 
L 53.515625 0 
L 44.484375 0 
L 44.484375 32.71875 
Q 44.484375 40.625 41.703125 44.40625 
Q 38.921875 48.1875 33.109375 48.1875 
Q 26.21875 48.1875 22.15625 43.53125 
Q 18.109375 38.875 18.109375 30.90625 
L 18.109375 0 
L 9.078125 0 
L 9.078125 54.6875 
L 18.109375 54.6875 
L 18.109375 46.1875 
Q 21.1875 51.21875 25.484375 53.609375 
Q 29.78125 56 35.6875 56 
Q 41.65625 56 45.828125 52.96875 
Q 50 49.953125 52 44.1875 
z
" id="DejaVuSans-109"/>
     </defs>
     <g transform="translate(16.38 234.2175)rotate(-90)scale(0.18 -0.18)">
      <use transform="translate(0 0.765625)" xlink:href="#DejaVuSans-Oblique-114"/>
      <use transform="translate(45.763177 39.046875)scale(0.7)" xlink:href="#DejaVuSans-50"/>
      <use transform="translate(93.033685 0.765625)" xlink:href="#DejaVuSans-32"/>
      <use transform="translate(124.820794 0.765625)" xlink:href="#DejaVuSans-112"/>
      <use transform="translate(188.297357 0.765625)" xlink:href="#DejaVuSans-111"/>
      <use transform="translate(249.478997 0.765625)" xlink:href="#DejaVuSans-119"/>
      <use transform="translate(331.266107 0.765625)" xlink:href="#DejaVuSans-101"/>
      <use transform="translate(392.789544 0.765625)" xlink:href="#DejaVuSans-114"/>
      <use transform="translate(433.902826 0.765625)" xlink:href="#DejaVuSans-45"/>
      <use transform="translate(469.98681 0.765625)" xlink:href="#DejaVuSans-108"/>
      <use transform="translate(497.770013 0.765625)" xlink:href="#DejaVuSans-97"/>
      <use transform="translate(559.04931 0.765625)" xlink:href="#DejaVuSans-119"/>
      <use transform="translate(640.836419 0.765625)" xlink:href="#DejaVuSans-32"/>
      <use transform="translate(672.623529 0.765625)" xlink:href="#DejaVuSans-99"/>
      <use transform="translate(727.603997 0.765625)" xlink:href="#DejaVuSans-111"/>
      <use transform="translate(788.785638 0.765625)" xlink:href="#DejaVuSans-109"/>
      <use transform="translate(886.197747 0.765625)" xlink:href="#DejaVuSans-112"/>
      <use transform="translate(949.67431 0.765625)" xlink:href="#DejaVuSans-111"/>
      <use transform="translate(1010.855951 0.765625)" xlink:href="#DejaVuSans-110"/>
      <use transform="translate(1074.234857 0.765625)" xlink:href="#DejaVuSans-101"/>
      <use transform="translate(1135.758294 0.765625)" xlink:href="#DejaVuSans-110"/>
      <use transform="translate(1199.137201 0.765625)" xlink:href="#DejaVuSans-116"/>
     </g>
    </g>
   </g>
   <g id="line2d_25">
    <path clip-path="url(#p9dd072bceb)" d="M 54.815234 37.981787 
L 66.959052 136.931458 
L 79.10287 60.616855 
L 89.025092 57.523336 
L 97.41421 50.672173 
L 104.681196 69.735623 
L 111.091131 75.771414 
L 116.825014 62.253232 
L 122.011942 69.492367 
L 126.747236 75.764568 
L 131.103284 102.419538 
L 135.136355 73.856796 
L 138.891054 79.26254 
L 142.40334 102.334402 
L 145.702626 68.082226 
L 148.813275 67.804489 
L 151.755697 88.486076 
L 154.547158 71.130559 
L 157.202394 108.017502 
L 159.237082 65.950146 
L 161.677919 91.733352 
L 164.013967 65.971859 
L 166.253853 74.330306 
L 168.405182 85.45161 
L 170.474692 77.308842 
L 172.468378 94.187946 
L 174.391602 93.879536 
L 176.249173 77.207964 
L 178.045427 95.884693 
L 179.784282 92.391857 
L 181.469294 87.575811 
L 183.103698 96.070287 
L 184.690445 89.545176 
L 186.232235 91.111442 
L 187.731546 98.828614 
L 189.190656 86.815308 
L 190.611665 90.093266 
L 191.722347 94.533135 
L 193.079564 104.795043 
L 194.403754 90.305764 
L 195.696488 86.798894 
L 196.959226 88.747471 
L 198.193328 98.322129 
L 199.400063 97.999808 
L 200.58062 96.019707 
L 201.736111 91.017654 
L 202.867577 90.069096 
L 203.975997 101.876006 
L 205.062291 105.383215 
L 206.127326 93.042472 
L 207.171918 94.160885 
L 208.196836 100.600207 
L 209.202809 105.171996 
L 210.190523 105.83938 
L 211.160629 99.460762 
L 211.924453 101.133507 
L 212.8644 105.342178 
L 213.788387 110.466708 
L 214.696948 104.183868 
L 215.59059 106.850459 
L 216.469794 106.953381 
L 217.33502 115.85693 
L 218.186704 109.276945 
L 219.025266 114.964961 
L 219.851102 114.30302 
L 220.664593 114.749183 
L 221.466103 109.854527 
L 222.25598 119.185809 
L 223.034556 115.177174 
L 223.802151 110.064542 
L 224.559069 120.01638 
L 225.305604 121.288316 
L 226.042037 118.812945 
L 226.624091 119.433944 
L 227.343012 118.113478 
L 228.05256 124.129105 
L 228.752976 124.26152 
L 229.444491 124.595632 
L 230.12733 127.501413 
L 230.801708 135.913921 
L 231.46783 137.41734 
L 232.125898 141.566976 
L 232.776104 142.532373 
L 233.418633 142.409198 
L 234.053664 146.514546 
L 234.68137 144.944357 
L 235.301919 144.52105 
L 236.522184 149.02862 
L 237.122207 212.604552 
L 237.715687 150.092195 
L 238.185855 149.711812 
L 238.767909 154.594626 
L 239.343804 152.676719 
L 240.477627 158.917434 
L 241.035802 160.310763 
L 242.135264 161.609506 
L 242.676777 162.955319 
L 243.212954 167.704006 
L 243.7439 161.225902 
L 244.269716 172.362625 
L 244.790501 168.35153 
L 245.306349 165.510098 
L 245.817353 167.586047 
L 246.323603 161.813468 
L 246.825188 159.842227 
L 247.322192 162.123199 
L 247.716553 162.537702 
L 248.205519 162.077843 
L 248.690131 162.311651 
L 249.170465 164.435345 
L 249.646597 162.769683 
L 250.1186 164.606029 
L 250.586544 163.847867 
L 251.050498 156.131697 
L 251.510531 153.93221 
L 251.966708 156.711652 
L 252.419092 156.775728 
L 252.867747 158.002 
L 253.312734 150.91128 
L 253.754112 149.795348 
L 254.191938 152.488899 
L 254.62627 152.120657 
L 255.824277 175.993192 
L 256.245825 171.89868 
L 256.664133 174.094714 
L 257.07925 174.692459 
L 257.491224 176.438306 
L 257.900103 171.614861 
L 258.305933 172.737542 
L 258.708759 170.617713 
L 259.108625 169.389032 
L 259.505575 172.550086 
L 259.89965 172.272995 
L 260.290892 169.152097 
L 260.679342 169.152097 
L 261.448021 159.677293 
L 261.828327 159.923017 
L 262.205993 162.849477 
L 262.879258 158.883393 
L 263.249726 161.179759 
L 263.617689 166.68311 
L 263.983181 157.473542 
L 264.346235 160.611604 
L 264.706883 160.065152 
L 265.065156 156.738643 
L 265.421087 161.365691 
L 265.774704 158.945668 
L 266.126039 161.150261 
L 266.47512 160.276436 
L 266.821976 151.08459 
L 267.166636 151.154969 
L 267.509126 146.79002 
L 267.849475 149.849701 
L 268.187708 143.303372 
L 268.523852 141.941593 
L 269.123728 147.004547 
L 269.782593 158.145628 
L 270.109058 155.574593 
L 270.433576 156.618221 
L 270.75617 155.761734 
L 271.076864 152.3003 
L 271.395679 155.801361 
L 271.712637 156.644256 
L 272.02776 162.768989 
L 272.962326 174.673901 
L 273.270315 182.742632 
L 273.576571 182.83169 
L 274.183961 169.743255 
L 274.485132 171.246467 
L 274.724875 170.430946 
L 275.023076 170.801007 
L 275.319652 175.111264 
L 275.614621 177.711061 
L 275.907999 178.198763 
L 276.490053 182.716735 
L 276.778762 182.794474 
L 277.065948 187.15831 
L 277.635812 185.541033 
L 277.918522 191.614711 
L 278.199771 190.783256 
L 278.479574 190.851765 
L 278.757946 195.844574 
L 279.034901 190.67079 
L 279.310454 194.46354 
L 279.857408 197.063841 
L 279.857408 197.063841 
" style="fill:none;stroke:#55a868;stroke-linecap:square;stroke-width:4;"/>
   </g>
   <g id="patch_3">
    <path d="M 43.563125 227.2575 
L 43.563125 18.1575 
" style="fill:none;stroke:#000000;stroke-linecap:square;stroke-linejoin:miter;stroke-width:3;"/>
   </g>
   <g id="patch_4">
    <path d="M 291.109517 227.2575 
L 291.109517 18.1575 
" style="fill:none;stroke:#000000;stroke-linecap:square;stroke-linejoin:miter;stroke-width:3;"/>
   </g>
   <g id="patch_5">
    <path d="M 43.563125 227.2575 
L 291.109517 227.2575 
" style="fill:none;stroke:#000000;stroke-linecap:square;stroke-linejoin:miter;stroke-width:3;"/>
   </g>
   <g id="patch_6">
    <path d="M 43.563125 18.1575 
L 291.109517 18.1575 
" style="fill:none;stroke:#000000;stroke-linecap:square;stroke-linejoin:miter;stroke-width:3;"/>
   </g>
   <g id="text_11">
    <!-- English -->
    <defs>
     <path d="M 9.8125 72.90625 
L 55.90625 72.90625 
L 55.90625 64.59375 
L 19.671875 64.59375 
L 19.671875 43.015625 
L 54.390625 43.015625 
L 54.390625 34.71875 
L 19.671875 34.71875 
L 19.671875 8.296875 
L 56.78125 8.296875 
L 56.78125 0 
L 9.8125 0 
z
" id="DejaVuSans-69"/>
     <path d="M 45.40625 27.984375 
Q 45.40625 37.75 41.375 43.109375 
Q 37.359375 48.484375 30.078125 48.484375 
Q 22.859375 48.484375 18.828125 43.109375 
Q 14.796875 37.75 14.796875 27.984375 
Q 14.796875 18.265625 18.828125 12.890625 
Q 22.859375 7.515625 30.078125 7.515625 
Q 37.359375 7.515625 41.375 12.890625 
Q 45.40625 18.265625 45.40625 27.984375 
z
M 54.390625 6.78125 
Q 54.390625 -7.171875 48.1875 -13.984375 
Q 42 -20.796875 29.203125 -20.796875 
Q 24.46875 -20.796875 20.265625 -20.09375 
Q 16.0625 -19.390625 12.109375 -17.921875 
L 12.109375 -9.1875 
Q 16.0625 -11.328125 19.921875 -12.34375 
Q 23.78125 -13.375 27.78125 -13.375 
Q 36.625 -13.375 41.015625 -8.765625 
Q 45.40625 -4.15625 45.40625 5.171875 
L 45.40625 9.625 
Q 42.625 4.78125 38.28125 2.390625 
Q 33.9375 0 27.875 0 
Q 17.828125 0 11.671875 7.65625 
Q 5.515625 15.328125 5.515625 27.984375 
Q 5.515625 40.671875 11.671875 48.328125 
Q 17.828125 56 27.875 56 
Q 33.9375 56 38.28125 53.609375 
Q 42.625 51.21875 45.40625 46.390625 
L 45.40625 54.6875 
L 54.390625 54.6875 
z
" id="DejaVuSans-103"/>
    </defs>
    <g transform="translate(138.450071 12.1575)scale(0.16 -0.16)">
     <use xlink:href="#DejaVuSans-69"/>
     <use x="63.183594" xlink:href="#DejaVuSans-110"/>
     <use x="126.5625" xlink:href="#DejaVuSans-103"/>
     <use x="190.039062" xlink:href="#DejaVuSans-108"/>
     <use x="217.822266" xlink:href="#DejaVuSans-105"/>
     <use x="245.605469" xlink:href="#DejaVuSans-115"/>
     <use x="297.705078" xlink:href="#DejaVuSans-104"/>
    </g>
   </g>
  </g>
  <g id="axes_2">
   <g id="patch_7">
    <path d="M 321.838125 227.2575 
L 569.384517 227.2575 
L 569.384517 18.1575 
L 321.838125 18.1575 
z
" style="fill:#ffffff;"/>
   </g>
   <g id="matplotlib.axis_3">
    <g id="xtick_19">
     <g id="line2d_26">
      <g>
       <use style="stroke:#000000;stroke-width:3;" x="432.822158" xlink:href="#mb1689f6fb4" y="227.2575"/>
      </g>
     </g>
     <g id="text_12">
      <!-- $\mathdefault{10^{2}}$ -->
      <g transform="translate(424.022158 238.355938)scale(0.1 -0.1)">
       <use transform="translate(0 0.765625)" xlink:href="#DejaVuSans-49"/>
       <use transform="translate(63.623047 0.765625)" xlink:href="#DejaVuSans-48"/>
       <use transform="translate(128.203125 39.046875)scale(0.7)" xlink:href="#DejaVuSans-50"/>
      </g>
     </g>
    </g>
    <g id="xtick_20">
     <g id="line2d_27">
      <g>
       <use style="stroke:#000000;stroke-width:3;" x="558.132408" xlink:href="#mb1689f6fb4" y="227.2575"/>
      </g>
     </g>
     <g id="text_13">
      <!-- $\mathdefault{10^{3}}$ -->
      <g transform="translate(549.332408 238.355938)scale(0.1 -0.1)">
       <use transform="translate(0 0.765625)" xlink:href="#DejaVuSans-49"/>
       <use transform="translate(63.623047 0.765625)" xlink:href="#DejaVuSans-48"/>
       <use transform="translate(128.203125 39.046875)scale(0.7)" xlink:href="#DejaVuSans-51"/>
      </g>
     </g>
    </g>
    <g id="xtick_21">
     <g id="line2d_28">
      <g>
       <use style="stroke:#000000;stroke-width:2;" x="345.234052" xlink:href="#mc2ccbb1c18" y="227.2575"/>
      </g>
     </g>
    </g>
    <g id="xtick_22">
     <g id="line2d_29">
      <g>
       <use style="stroke:#000000;stroke-width:2;" x="367.300092" xlink:href="#mc2ccbb1c18" y="227.2575"/>
      </g>
     </g>
    </g>
    <g id="xtick_23">
     <g id="line2d_30">
      <g>
       <use style="stroke:#000000;stroke-width:2;" x="382.956196" xlink:href="#mc2ccbb1c18" y="227.2575"/>
      </g>
     </g>
    </g>
    <g id="xtick_24">
     <g id="line2d_31">
      <g>
       <use style="stroke:#000000;stroke-width:2;" x="395.100014" xlink:href="#mc2ccbb1c18" y="227.2575"/>
      </g>
     </g>
    </g>
    <g id="xtick_25">
     <g id="line2d_32">
      <g>
       <use style="stroke:#000000;stroke-width:2;" x="405.022236" xlink:href="#mc2ccbb1c18" y="227.2575"/>
      </g>
     </g>
    </g>
    <g id="xtick_26">
     <g id="line2d_33">
      <g>
       <use style="stroke:#000000;stroke-width:2;" x="413.411355" xlink:href="#mc2ccbb1c18" y="227.2575"/>
      </g>
     </g>
    </g>
    <g id="xtick_27">
     <g id="line2d_34">
      <g>
       <use style="stroke:#000000;stroke-width:2;" x="420.67834" xlink:href="#mc2ccbb1c18" y="227.2575"/>
      </g>
     </g>
    </g>
    <g id="xtick_28">
     <g id="line2d_35">
      <g>
       <use style="stroke:#000000;stroke-width:2;" x="427.088275" xlink:href="#mc2ccbb1c18" y="227.2575"/>
      </g>
     </g>
    </g>
    <g id="xtick_29">
     <g id="line2d_36">
      <g>
       <use style="stroke:#000000;stroke-width:2;" x="470.544302" xlink:href="#mc2ccbb1c18" y="227.2575"/>
      </g>
     </g>
    </g>
    <g id="xtick_30">
     <g id="line2d_37">
      <g>
       <use style="stroke:#000000;stroke-width:2;" x="492.610342" xlink:href="#mc2ccbb1c18" y="227.2575"/>
      </g>
     </g>
    </g>
    <g id="xtick_31">
     <g id="line2d_38">
      <g>
       <use style="stroke:#000000;stroke-width:2;" x="508.266446" xlink:href="#mc2ccbb1c18" y="227.2575"/>
      </g>
     </g>
    </g>
    <g id="xtick_32">
     <g id="line2d_39">
      <g>
       <use style="stroke:#000000;stroke-width:2;" x="520.410264" xlink:href="#mc2ccbb1c18" y="227.2575"/>
      </g>
     </g>
    </g>
    <g id="xtick_33">
     <g id="line2d_40">
      <g>
       <use style="stroke:#000000;stroke-width:2;" x="530.332486" xlink:href="#mc2ccbb1c18" y="227.2575"/>
      </g>
     </g>
    </g>
    <g id="xtick_34">
     <g id="line2d_41">
      <g>
       <use style="stroke:#000000;stroke-width:2;" x="538.721605" xlink:href="#mc2ccbb1c18" y="227.2575"/>
      </g>
     </g>
    </g>
    <g id="xtick_35">
     <g id="line2d_42">
      <g>
       <use style="stroke:#000000;stroke-width:2;" x="545.98859" xlink:href="#mc2ccbb1c18" y="227.2575"/>
      </g>
     </g>
    </g>
    <g id="xtick_36">
     <g id="line2d_43">
      <g>
       <use style="stroke:#000000;stroke-width:2;" x="552.398526" xlink:href="#mc2ccbb1c18" y="227.2575"/>
      </g>
     </g>
    </g>
    <g id="text_14">
     <!-- Distance (phones) -->
     <g transform="translate(363.521477 258.112813)scale(0.18 -0.18)">
      <use xlink:href="#DejaVuSans-68"/>
      <use x="77.001953" xlink:href="#DejaVuSans-105"/>
      <use x="104.785156" xlink:href="#DejaVuSans-115"/>
      <use x="156.884766" xlink:href="#DejaVuSans-116"/>
      <use x="196.09375" xlink:href="#DejaVuSans-97"/>
      <use x="257.373047" xlink:href="#DejaVuSans-110"/>
      <use x="320.751953" xlink:href="#DejaVuSans-99"/>
      <use x="375.732422" xlink:href="#DejaVuSans-101"/>
      <use x="437.255859" xlink:href="#DejaVuSans-32"/>
      <use x="469.042969" xlink:href="#DejaVuSans-40"/>
      <use x="508.056641" xlink:href="#DejaVuSans-112"/>
      <use x="571.533203" xlink:href="#DejaVuSans-104"/>
      <use x="634.912109" xlink:href="#DejaVuSans-111"/>
      <use x="696.09375" xlink:href="#DejaVuSans-110"/>
      <use x="759.472656" xlink:href="#DejaVuSans-101"/>
      <use x="820.996094" xlink:href="#DejaVuSans-115"/>
      <use x="873.095703" xlink:href="#DejaVuSans-41"/>
     </g>
    </g>
   </g>
   <g id="matplotlib.axis_4">
    <g id="ytick_7">
     <g id="line2d_44">
      <g>
       <use style="stroke:#000000;stroke-width:3;" x="321.838125" xlink:href="#md4a70dd412" y="227.2575"/>
      </g>
     </g>
     <g id="text_15">
      <!-- 0.5 -->
      <g transform="translate(302.435 231.056719)scale(0.1 -0.1)">
       <use xlink:href="#DejaVuSans-48"/>
       <use x="63.623047" xlink:href="#DejaVuSans-46"/>
       <use x="95.410156" xlink:href="#DejaVuSans-53"/>
      </g>
     </g>
    </g>
    <g id="ytick_8">
     <g id="line2d_45">
      <g>
       <use style="stroke:#000000;stroke-width:3;" x="321.838125" xlink:href="#md4a70dd412" y="186.2575"/>
      </g>
     </g>
     <g id="text_16">
      <!-- 0.6 -->
      <g transform="translate(302.435 190.056719)scale(0.1 -0.1)">
       <use xlink:href="#DejaVuSans-48"/>
       <use x="63.623047" xlink:href="#DejaVuSans-46"/>
       <use x="95.410156" xlink:href="#DejaVuSans-54"/>
      </g>
     </g>
    </g>
    <g id="ytick_9">
     <g id="line2d_46">
      <g>
       <use style="stroke:#000000;stroke-width:3;" x="321.838125" xlink:href="#md4a70dd412" y="145.2575"/>
      </g>
     </g>
     <g id="text_17">
      <!-- 0.7 -->
      <g transform="translate(302.435 149.056719)scale(0.1 -0.1)">
       <use xlink:href="#DejaVuSans-48"/>
       <use x="63.623047" xlink:href="#DejaVuSans-46"/>
       <use x="95.410156" xlink:href="#DejaVuSans-55"/>
      </g>
     </g>
    </g>
    <g id="ytick_10">
     <g id="line2d_47">
      <g>
       <use style="stroke:#000000;stroke-width:3;" x="321.838125" xlink:href="#md4a70dd412" y="104.2575"/>
      </g>
     </g>
     <g id="text_18">
      <!-- 0.8 -->
      <g transform="translate(302.435 108.056719)scale(0.1 -0.1)">
       <use xlink:href="#DejaVuSans-48"/>
       <use x="63.623047" xlink:href="#DejaVuSans-46"/>
       <use x="95.410156" xlink:href="#DejaVuSans-56"/>
      </g>
     </g>
    </g>
    <g id="ytick_11">
     <g id="line2d_48">
      <g>
       <use style="stroke:#000000;stroke-width:3;" x="321.838125" xlink:href="#md4a70dd412" y="63.2575"/>
      </g>
     </g>
     <g id="text_19">
      <!-- 0.9 -->
      <g transform="translate(302.435 67.056719)scale(0.1 -0.1)">
       <use xlink:href="#DejaVuSans-48"/>
       <use x="63.623047" xlink:href="#DejaVuSans-46"/>
       <use x="95.410156" xlink:href="#DejaVuSans-57"/>
      </g>
     </g>
    </g>
    <g id="ytick_12">
     <g id="line2d_49">
      <g>
       <use style="stroke:#000000;stroke-width:3;" x="321.838125" xlink:href="#md4a70dd412" y="22.2575"/>
      </g>
     </g>
     <g id="text_20">
      <!-- 1.0 -->
      <g transform="translate(302.435 26.056719)scale(0.1 -0.1)">
       <use xlink:href="#DejaVuSans-49"/>
       <use x="63.623047" xlink:href="#DejaVuSans-46"/>
       <use x="95.410156" xlink:href="#DejaVuSans-48"/>
      </g>
     </g>
    </g>
   </g>
   <g id="line2d_50">
    <path clip-path="url(#pa21922e889)" d="M 333.090234 23.752523 
L 345.234052 23.628312 
L 357.37787 23.898052 
L 367.300092 25.090977 
L 375.68921 28.082497 
L 382.956196 27.748517 
L 389.366131 29.21079 
L 395.100014 35.867395 
L 400.286942 32.123438 
L 405.022236 30.878567 
L 409.378284 29.925023 
L 413.411355 30.633814 
L 417.166054 34.533258 
L 420.67834 35.833756 
L 423.977626 37.393093 
L 427.088275 36.52934 
L 430.030697 40.913391 
L 432.822158 41.992043 
L 435.477394 43.877055 
L 437.512082 39.944326 
L 439.952919 42.276377 
L 442.288967 43.022959 
L 444.528853 44.06434 
L 446.680182 51.636052 
L 448.749692 46.232647 
L 450.743378 50.428846 
L 452.666602 51.645802 
L 454.524173 52.350799 
L 456.320427 53.541741 
L 458.059282 51.84356 
L 459.744294 52.086516 
L 461.378698 55.37959 
L 462.965445 57.273062 
L 464.507235 55.593188 
L 466.006546 60.264617 
L 467.465656 61.924703 
L 468.886665 88.895434 
L 469.997347 68.030807 
L 471.354564 74.940946 
L 472.678754 62.420972 
L 473.971488 72.6725 
L 475.234226 76.588998 
L 476.468328 74.666657 
L 477.675063 68.361147 
L 478.85562 69.932157 
L 480.011111 73.626052 
L 481.142577 83.677592 
L 482.250997 83.350995 
L 483.337291 80.423924 
L 484.402326 81.347506 
L 485.446918 81.347506 
L 486.471836 84.685216 
L 487.477809 83.324347 
L 488.465523 92.463969 
L 489.435629 86.45253 
L 490.199453 88.497656 
L 491.1394 89.169094 
L 492.063387 94.460561 
L 492.971948 101.441693 
L 493.86559 94.640605 
L 494.744794 94.314083 
L 495.61002 95.041339 
L 496.461704 101.493667 
L 497.300266 101.102291 
L 498.126102 101.762612 
L 498.939593 103.032865 
L 499.741103 104.639954 
L 501.309556 108.980176 
L 502.077151 112.248778 
L 502.834069 112.5644 
L 503.580604 113.914654 
L 505.618012 122.574171 
L 506.32756 121.738202 
L 507.027976 122.393143 
L 507.719491 122.672686 
L 508.40233 121.978149 
L 509.076708 123.201443 
L 509.74283 129.805202 
L 510.400898 127.294155 
L 511.051104 127.237414 
L 511.693633 130.241694 
L 512.328664 130.426607 
L 512.95637 131.820376 
L 513.576919 136.263061 
L 514.190472 137.302573 
L 514.797184 138.686043 
L 515.397207 140.457728 
L 515.990687 141.153479 
L 517.042909 141.750739 
L 517.618804 143.014954 
L 518.188668 145.971698 
L 518.752627 147.935929 
L 519.863309 154.634278 
L 520.410264 154.96655 
L 520.951777 155.907701 
L 521.487954 159.534522 
L 522.0189 159.647645 
L 522.544716 160.6635 
L 523.065501 160.927616 
L 523.581349 170.086953 
L 524.092353 155.294604 
L 524.598603 185.824161 
L 525.100188 156.888189 
L 525.597192 176.013609 
L 525.991553 160.910413 
L 526.480519 160.212446 
L 526.965131 164.451742 
L 527.445465 199.848475 
L 527.921597 198.936334 
L 528.3936 193.63288 
L 528.861544 241.79862 
L 529.325498 168.474291 
L 529.785531 171.122401 
L 530.241708 216.995582 
L 530.694092 198.376267 
L 531.142747 174.102743 
L 531.587734 175.681306 
L 532.029112 176.261922 
L 532.466938 178.750715 
L 532.90127 211.955917 
L 533.332164 180.948792 
L 533.759672 185.251907 
L 534.099277 184.575703 
L 534.520825 171.172722 
L 534.939133 171.61545 
L 535.35425 193.501338 
L 535.766224 194.913769 
L 536.175103 205.856035 
L 536.580933 197.065887 
L 536.983759 195.199934 
L 537.383625 198.7306 
L 537.780575 198.7306 
L 538.17465 200.147569 
L 538.565892 202.452347 
L 538.954342 200.276398 
L 539.340038 201.736474 
L 539.723021 205.462783 
L 540.103327 212.699226 
L 540.480993 209.869509 
L 540.856057 211.656395 
L 541.154258 211.656395 
L 541.524726 211.145075 
L 541.892689 211.145075 
L 542.258181 214.949624 
L 542.621235 221.740418 
L 542.981883 223.223223 
L 543.340156 228.662944 
L 543.696087 231.998154 
L 543.98215 262.85625 
M 544.252991 262.85625 
L 544.401039 257.549183 
L 544.75012 252.793061 
L 545.096976 256.652893 
L 545.441636 254.19235 
L 545.784126 253.120134 
L 546.124475 255.160641 
L 546.462708 258.072131 
L 546.798852 258.066137 
L 547.383965 262.85625 
L 547.383965 262.85625 
" style="fill:none;stroke:#721825;stroke-linecap:square;stroke-width:4;"/>
   </g>
   <g id="patch_8">
    <path d="M 321.838125 227.2575 
L 321.838125 18.1575 
" style="fill:none;stroke:#000000;stroke-linecap:square;stroke-linejoin:miter;stroke-width:3;"/>
   </g>
   <g id="patch_9">
    <path d="M 569.384517 227.2575 
L 569.384517 18.1575 
" style="fill:none;stroke:#000000;stroke-linecap:square;stroke-linejoin:miter;stroke-width:3;"/>
   </g>
   <g id="patch_10">
    <path d="M 321.838125 227.2575 
L 569.384517 227.2575 
" style="fill:none;stroke:#000000;stroke-linecap:square;stroke-linejoin:miter;stroke-width:3;"/>
   </g>
   <g id="patch_11">
    <path d="M 321.838125 18.1575 
L 569.384517 18.1575 
" style="fill:none;stroke:#000000;stroke-linecap:square;stroke-linejoin:miter;stroke-width:3;"/>
   </g>
   <g id="text_21">
    <!-- German -->
    <defs>
     <path d="M 59.515625 10.40625 
L 59.515625 29.984375 
L 43.40625 29.984375 
L 43.40625 38.09375 
L 69.28125 38.09375 
L 69.28125 6.78125 
Q 63.578125 2.734375 56.6875 0.65625 
Q 49.8125 -1.421875 42 -1.421875 
Q 24.90625 -1.421875 15.25 8.5625 
Q 5.609375 18.5625 5.609375 36.375 
Q 5.609375 54.25 15.25 64.234375 
Q 24.90625 74.21875 42 74.21875 
Q 49.125 74.21875 55.546875 72.453125 
Q 61.96875 70.703125 67.390625 67.28125 
L 67.390625 56.78125 
Q 61.921875 61.421875 55.765625 63.765625 
Q 49.609375 66.109375 42.828125 66.109375 
Q 29.4375 66.109375 22.71875 58.640625 
Q 16.015625 51.171875 16.015625 36.375 
Q 16.015625 21.625 22.71875 14.15625 
Q 29.4375 6.6875 42.828125 6.6875 
Q 48.046875 6.6875 52.140625 7.59375 
Q 56.25 8.5 59.515625 10.40625 
z
" id="DejaVuSans-71"/>
    </defs>
    <g transform="translate(413.437571 12.1575)scale(0.16 -0.16)">
     <use xlink:href="#DejaVuSans-71"/>
     <use x="77.490234" xlink:href="#DejaVuSans-101"/>
     <use x="139.013672" xlink:href="#DejaVuSans-114"/>
     <use x="180.111328" xlink:href="#DejaVuSans-109"/>
     <use x="277.523438" xlink:href="#DejaVuSans-97"/>
     <use x="338.802734" xlink:href="#DejaVuSans-110"/>
    </g>
   </g>
  </g>
  <g id="axes_3">
   <g id="patch_12">
    <path d="M 600.113125 227.2575 
L 847.659517 227.2575 
L 847.659517 18.1575 
L 600.113125 18.1575 
z
" style="fill:#ffffff;"/>
   </g>
   <g id="matplotlib.axis_5">
    <g id="xtick_37">
     <g id="line2d_51">
      <g>
       <use style="stroke:#000000;stroke-width:3;" x="711.097158" xlink:href="#mb1689f6fb4" y="227.2575"/>
      </g>
     </g>
     <g id="text_22">
      <!-- $\mathdefault{10^{2}}$ -->
      <g transform="translate(702.297158 238.355938)scale(0.1 -0.1)">
       <use transform="translate(0 0.765625)" xlink:href="#DejaVuSans-49"/>
       <use transform="translate(63.623047 0.765625)" xlink:href="#DejaVuSans-48"/>
       <use transform="translate(128.203125 39.046875)scale(0.7)" xlink:href="#DejaVuSans-50"/>
      </g>
     </g>
    </g>
    <g id="xtick_38">
     <g id="line2d_52">
      <g>
       <use style="stroke:#000000;stroke-width:3;" x="836.407408" xlink:href="#mb1689f6fb4" y="227.2575"/>
      </g>
     </g>
     <g id="text_23">
      <!-- $\mathdefault{10^{3}}$ -->
      <g transform="translate(827.607408 238.355938)scale(0.1 -0.1)">
       <use transform="translate(0 0.765625)" xlink:href="#DejaVuSans-49"/>
       <use transform="translate(63.623047 0.765625)" xlink:href="#DejaVuSans-48"/>
       <use transform="translate(128.203125 39.046875)scale(0.7)" xlink:href="#DejaVuSans-51"/>
      </g>
     </g>
    </g>
    <g id="xtick_39">
     <g id="line2d_53">
      <g>
       <use style="stroke:#000000;stroke-width:2;" x="623.509052" xlink:href="#mc2ccbb1c18" y="227.2575"/>
      </g>
     </g>
    </g>
    <g id="xtick_40">
     <g id="line2d_54">
      <g>
       <use style="stroke:#000000;stroke-width:2;" x="645.575092" xlink:href="#mc2ccbb1c18" y="227.2575"/>
      </g>
     </g>
    </g>
    <g id="xtick_41">
     <g id="line2d_55">
      <g>
       <use style="stroke:#000000;stroke-width:2;" x="661.231196" xlink:href="#mc2ccbb1c18" y="227.2575"/>
      </g>
     </g>
    </g>
    <g id="xtick_42">
     <g id="line2d_56">
      <g>
       <use style="stroke:#000000;stroke-width:2;" x="673.375014" xlink:href="#mc2ccbb1c18" y="227.2575"/>
      </g>
     </g>
    </g>
    <g id="xtick_43">
     <g id="line2d_57">
      <g>
       <use style="stroke:#000000;stroke-width:2;" x="683.297236" xlink:href="#mc2ccbb1c18" y="227.2575"/>
      </g>
     </g>
    </g>
    <g id="xtick_44">
     <g id="line2d_58">
      <g>
       <use style="stroke:#000000;stroke-width:2;" x="691.686355" xlink:href="#mc2ccbb1c18" y="227.2575"/>
      </g>
     </g>
    </g>
    <g id="xtick_45">
     <g id="line2d_59">
      <g>
       <use style="stroke:#000000;stroke-width:2;" x="698.95334" xlink:href="#mc2ccbb1c18" y="227.2575"/>
      </g>
     </g>
    </g>
    <g id="xtick_46">
     <g id="line2d_60">
      <g>
       <use style="stroke:#000000;stroke-width:2;" x="705.363275" xlink:href="#mc2ccbb1c18" y="227.2575"/>
      </g>
     </g>
    </g>
    <g id="xtick_47">
     <g id="line2d_61">
      <g>
       <use style="stroke:#000000;stroke-width:2;" x="748.819302" xlink:href="#mc2ccbb1c18" y="227.2575"/>
      </g>
     </g>
    </g>
    <g id="xtick_48">
     <g id="line2d_62">
      <g>
       <use style="stroke:#000000;stroke-width:2;" x="770.885342" xlink:href="#mc2ccbb1c18" y="227.2575"/>
      </g>
     </g>
    </g>
    <g id="xtick_49">
     <g id="line2d_63">
      <g>
       <use style="stroke:#000000;stroke-width:2;" x="786.541446" xlink:href="#mc2ccbb1c18" y="227.2575"/>
      </g>
     </g>
    </g>
    <g id="xtick_50">
     <g id="line2d_64">
      <g>
       <use style="stroke:#000000;stroke-width:2;" x="798.685264" xlink:href="#mc2ccbb1c18" y="227.2575"/>
      </g>
     </g>
    </g>
    <g id="xtick_51">
     <g id="line2d_65">
      <g>
       <use style="stroke:#000000;stroke-width:2;" x="808.607486" xlink:href="#mc2ccbb1c18" y="227.2575"/>
      </g>
     </g>
    </g>
    <g id="xtick_52">
     <g id="line2d_66">
      <g>
       <use style="stroke:#000000;stroke-width:2;" x="816.996605" xlink:href="#mc2ccbb1c18" y="227.2575"/>
      </g>
     </g>
    </g>
    <g id="xtick_53">
     <g id="line2d_67">
      <g>
       <use style="stroke:#000000;stroke-width:2;" x="824.26359" xlink:href="#mc2ccbb1c18" y="227.2575"/>
      </g>
     </g>
    </g>
    <g id="xtick_54">
     <g id="line2d_68">
      <g>
       <use style="stroke:#000000;stroke-width:2;" x="830.673526" xlink:href="#mc2ccbb1c18" y="227.2575"/>
      </g>
     </g>
    </g>
    <g id="text_24">
     <!-- Distance (phones) -->
     <g transform="translate(641.796477 258.112813)scale(0.18 -0.18)">
      <use xlink:href="#DejaVuSans-68"/>
      <use x="77.001953" xlink:href="#DejaVuSans-105"/>
      <use x="104.785156" xlink:href="#DejaVuSans-115"/>
      <use x="156.884766" xlink:href="#DejaVuSans-116"/>
      <use x="196.09375" xlink:href="#DejaVuSans-97"/>
      <use x="257.373047" xlink:href="#DejaVuSans-110"/>
      <use x="320.751953" xlink:href="#DejaVuSans-99"/>
      <use x="375.732422" xlink:href="#DejaVuSans-101"/>
      <use x="437.255859" xlink:href="#DejaVuSans-32"/>
      <use x="469.042969" xlink:href="#DejaVuSans-40"/>
      <use x="508.056641" xlink:href="#DejaVuSans-112"/>
      <use x="571.533203" xlink:href="#DejaVuSans-104"/>
      <use x="634.912109" xlink:href="#DejaVuSans-111"/>
      <use x="696.09375" xlink:href="#DejaVuSans-110"/>
      <use x="759.472656" xlink:href="#DejaVuSans-101"/>
      <use x="820.996094" xlink:href="#DejaVuSans-115"/>
      <use x="873.095703" xlink:href="#DejaVuSans-41"/>
     </g>
    </g>
   </g>
   <g id="matplotlib.axis_6">
    <g id="ytick_13">
     <g id="line2d_69">
      <g>
       <use style="stroke:#000000;stroke-width:3;" x="600.113125" xlink:href="#md4a70dd412" y="227.2575"/>
      </g>
     </g>
     <g id="text_25">
      <!-- 0.5 -->
      <g transform="translate(580.71 231.056719)scale(0.1 -0.1)">
       <use xlink:href="#DejaVuSans-48"/>
       <use x="63.623047" xlink:href="#DejaVuSans-46"/>
       <use x="95.410156" xlink:href="#DejaVuSans-53"/>
      </g>
     </g>
    </g>
    <g id="ytick_14">
     <g id="line2d_70">
      <g>
       <use style="stroke:#000000;stroke-width:3;" x="600.113125" xlink:href="#md4a70dd412" y="186.2575"/>
      </g>
     </g>
     <g id="text_26">
      <!-- 0.6 -->
      <g transform="translate(580.71 190.056719)scale(0.1 -0.1)">
       <use xlink:href="#DejaVuSans-48"/>
       <use x="63.623047" xlink:href="#DejaVuSans-46"/>
       <use x="95.410156" xlink:href="#DejaVuSans-54"/>
      </g>
     </g>
    </g>
    <g id="ytick_15">
     <g id="line2d_71">
      <g>
       <use style="stroke:#000000;stroke-width:3;" x="600.113125" xlink:href="#md4a70dd412" y="145.2575"/>
      </g>
     </g>
     <g id="text_27">
      <!-- 0.7 -->
      <g transform="translate(580.71 149.056719)scale(0.1 -0.1)">
       <use xlink:href="#DejaVuSans-48"/>
       <use x="63.623047" xlink:href="#DejaVuSans-46"/>
       <use x="95.410156" xlink:href="#DejaVuSans-55"/>
      </g>
     </g>
    </g>
    <g id="ytick_16">
     <g id="line2d_72">
      <g>
       <use style="stroke:#000000;stroke-width:3;" x="600.113125" xlink:href="#md4a70dd412" y="104.2575"/>
      </g>
     </g>
     <g id="text_28">
      <!-- 0.8 -->
      <g transform="translate(580.71 108.056719)scale(0.1 -0.1)">
       <use xlink:href="#DejaVuSans-48"/>
       <use x="63.623047" xlink:href="#DejaVuSans-46"/>
       <use x="95.410156" xlink:href="#DejaVuSans-56"/>
      </g>
     </g>
    </g>
    <g id="ytick_17">
     <g id="line2d_73">
      <g>
       <use style="stroke:#000000;stroke-width:3;" x="600.113125" xlink:href="#md4a70dd412" y="63.2575"/>
      </g>
     </g>
     <g id="text_29">
      <!-- 0.9 -->
      <g transform="translate(580.71 67.056719)scale(0.1 -0.1)">
       <use xlink:href="#DejaVuSans-48"/>
       <use x="63.623047" xlink:href="#DejaVuSans-46"/>
       <use x="95.410156" xlink:href="#DejaVuSans-57"/>
      </g>
     </g>
    </g>
    <g id="ytick_18">
     <g id="line2d_74">
      <g>
       <use style="stroke:#000000;stroke-width:3;" x="600.113125" xlink:href="#md4a70dd412" y="22.2575"/>
      </g>
     </g>
     <g id="text_30">
      <!-- 1.0 -->
      <g transform="translate(580.71 26.056719)scale(0.1 -0.1)">
       <use xlink:href="#DejaVuSans-49"/>
       <use x="63.623047" xlink:href="#DejaVuSans-46"/>
       <use x="95.410156" xlink:href="#DejaVuSans-48"/>
      </g>
     </g>
    </g>
   </g>
   <g id="line2d_75">
    <path clip-path="url(#p9a78140bfe)" d="M 611.365234 48.198691 
L 623.509052 53.538616 
L 635.65287 48.147239 
L 645.575092 44.395787 
L 653.96421 43.099688 
L 661.231196 49.431056 
L 667.641131 46.78259 
L 673.375014 43.087338 
L 678.561942 63.018374 
L 683.297236 32.507192 
L 687.653284 68.541907 
L 691.686355 76.217779 
L 695.441054 33.752962 
L 698.95334 33.010638 
L 702.252626 32.866664 
L 705.363275 33.377374 
L 708.305697 32.990856 
L 713.752394 32.885657 
L 715.787082 37.238708 
L 718.227919 37.655226 
L 720.563967 51.520994 
L 722.803853 39.479008 
L 724.955182 41.362192 
L 727.024692 41.170284 
L 729.018378 41.581514 
L 730.941602 38.177387 
L 732.799173 46.057803 
L 734.595427 44.246695 
L 736.334282 46.800149 
L 738.019294 43.052836 
L 739.653698 45.474611 
L 741.240445 48.458693 
L 742.782235 48.442972 
L 744.281546 45.139067 
L 745.740656 59.725041 
L 747.161665 60.301976 
L 748.272347 55.543157 
L 749.629564 56.445169 
L 750.953754 52.213646 
L 752.246488 55.524779 
L 753.509226 61.41021 
L 754.743328 59.793078 
L 755.950063 60.628566 
L 757.13062 60.399159 
L 758.286111 59.84562 
L 759.417577 62.59885 
L 760.525997 60.450141 
L 761.612291 55.933364 
L 762.677326 54.526912 
L 763.721918 54.733101 
L 764.746836 53.255752 
L 765.752809 47.946114 
L 766.740523 56.200185 
L 767.710629 48.388827 
L 768.474453 52.533342 
L 769.4144 48.843731 
L 770.338387 49.507232 
L 771.246948 51.162323 
L 772.14059 49.200906 
L 773.019794 49.610614 
L 773.88502 54.40507 
L 774.736704 52.296615 
L 775.575266 51.487493 
L 776.401102 53.154975 
L 777.214593 49.340759 
L 778.016103 51.56773 
L 778.80598 49.695584 
L 781.109069 59.810343 
L 781.855604 52.762062 
L 782.592037 54.256413 
L 783.174091 52.235205 
L 783.893012 53.297834 
L 784.60256 57.000542 
L 785.302976 55.394771 
L 786.67733 53.256143 
L 787.351708 54.832871 
L 788.01783 56.951771 
L 789.326104 58.321263 
L 789.968633 55.595845 
L 790.603664 57.35417 
L 791.23137 58.46767 
L 791.851919 58.322392 
L 792.465472 64.038108 
L 793.072184 57.3872 
L 793.672207 58.787604 
L 794.265687 58.308889 
L 794.735855 57.620206 
L 795.317909 59.051213 
L 795.893804 59.222164 
L 796.463668 59.529751 
L 797.027627 57.4075 
L 797.585802 57.988617 
L 798.138309 66.036081 
L 798.685264 60.5771 
L 799.226777 58.11809 
L 799.762954 59.87168 
L 800.2939 60.425548 
L 800.819716 60.117688 
L 801.340501 68.918367 
L 801.856349 63.801655 
L 802.367353 69.48365 
L 802.873603 66.142716 
L 804.266553 62.658025 
L 804.755519 62.042836 
L 805.240131 63.898955 
L 805.720465 61.390912 
L 806.196597 62.765385 
L 806.6686 64.660998 
L 807.136544 62.903671 
L 807.600498 63.151107 
L 808.060531 62.897546 
L 808.516708 62.937343 
L 808.969092 67.016737 
L 809.417747 64.974997 
L 809.862734 69.385842 
L 810.304112 68.857165 
L 810.741938 69.969555 
L 811.17627 72.670092 
L 811.607164 68.271281 
L 812.795825 65.601102 
L 813.214133 66.890665 
L 813.62925 66.522045 
L 814.041224 74.020074 
L 814.450103 71.911886 
L 814.855933 77.089355 
L 815.258759 70.318598 
L 815.658625 77.250415 
L 816.055575 68.635907 
L 816.44965 72.654884 
L 816.840892 68.450698 
L 817.229342 73.717184 
L 817.615038 70.87323 
L 817.998021 71.057174 
L 818.378327 71.866495 
L 818.755993 73.185233 
L 819.131057 72.42599 
L 819.429258 72.43408 
L 819.799726 74.143235 
L 820.167689 76.601245 
L 820.533181 77.884326 
L 820.896235 114.746817 
L 821.256883 78.780023 
L 821.615156 78.458381 
L 821.971087 74.995209 
L 822.324704 79.369546 
L 822.676039 78.813891 
L 823.02512 79.375158 
L 823.371976 80.168824 
L 823.716636 81.472319 
L 824.059126 78.288395 
L 824.399475 78.16448 
L 824.737708 79.354695 
L 825.073852 81.716666 
L 825.407932 82.446736 
L 825.673728 81.228027 
L 826.004157 80.850238 
L 826.332593 83.135256 
L 826.659058 81.890224 
L 826.983576 78.532345 
L 827.30617 76.449306 
L 827.626864 81.008729 
L 827.945679 78.750416 
L 828.262637 77.622926 
L 828.57776 80.718573 
L 828.891068 77.967644 
L 829.202584 78.81116 
L 829.512326 78.739847 
L 829.820315 80.155193 
L 830.126571 79.287788 
L 830.431113 81.98991 
L 830.733961 81.590534 
L 831.035132 82.576823 
L 831.274875 81.303817 
L 831.869652 84.371889 
L 832.457999 83.910917 
L 832.749804 82.658035 
L 833.040053 82.748025 
L 833.615948 84.178692 
L 833.901626 87.538709 
L 834.185812 86.098836 
L 834.468522 84.083409 
L 834.749771 83.668233 
L 835.307946 84.46543 
L 835.584901 87.70626 
L 835.860454 86.685714 
L 836.134618 85.118029 
L 836.407408 85.933712 
L 836.407408 85.933712 
" style="fill:none;stroke:#dd8452;stroke-linecap:square;stroke-width:4;"/>
   </g>
   <g id="patch_13">
    <path d="M 600.113125 227.2575 
L 600.113125 18.1575 
" style="fill:none;stroke:#000000;stroke-linecap:square;stroke-linejoin:miter;stroke-width:3;"/>
   </g>
   <g id="patch_14">
    <path d="M 847.659517 227.2575 
L 847.659517 18.1575 
" style="fill:none;stroke:#000000;stroke-linecap:square;stroke-linejoin:miter;stroke-width:3;"/>
   </g>
   <g id="patch_15">
    <path d="M 600.113125 227.2575 
L 847.659517 227.2575 
" style="fill:none;stroke:#000000;stroke-linecap:square;stroke-linejoin:miter;stroke-width:3;"/>
   </g>
   <g id="patch_16">
    <path d="M 600.113125 18.1575 
L 847.659517 18.1575 
" style="fill:none;stroke:#000000;stroke-linecap:square;stroke-linejoin:miter;stroke-width:3;"/>
   </g>
   <g id="text_31">
    <!-- Italian -->
    <defs>
     <path d="M 9.8125 72.90625 
L 19.671875 72.90625 
L 19.671875 0 
L 9.8125 0 
z
" id="DejaVuSans-73"/>
    </defs>
    <g transform="translate(699.070071 12.1575)scale(0.16 -0.16)">
     <use xlink:href="#DejaVuSans-73"/>
     <use x="29.492188" xlink:href="#DejaVuSans-116"/>
     <use x="68.701172" xlink:href="#DejaVuSans-97"/>
     <use x="129.980469" xlink:href="#DejaVuSans-108"/>
     <use x="157.763672" xlink:href="#DejaVuSans-105"/>
     <use x="185.546875" xlink:href="#DejaVuSans-97"/>
     <use x="246.826172" xlink:href="#DejaVuSans-110"/>
    </g>
   </g>
  </g>
  <g id="axes_4">
   <g id="patch_17">
    <path d="M 878.388125 227.2575 
L 1125.934517 227.2575 
L 1125.934517 18.1575 
L 878.388125 18.1575 
z
" style="fill:#ffffff;"/>
   </g>
   <g id="matplotlib.axis_7">
    <g id="xtick_55">
     <g id="line2d_76">
      <g>
       <use style="stroke:#000000;stroke-width:3;" x="989.372158" xlink:href="#mb1689f6fb4" y="227.2575"/>
      </g>
     </g>
     <g id="text_32">
      <!-- $\mathdefault{10^{2}}$ -->
      <g transform="translate(980.572158 238.355938)scale(0.1 -0.1)">
       <use transform="translate(0 0.765625)" xlink:href="#DejaVuSans-49"/>
       <use transform="translate(63.623047 0.765625)" xlink:href="#DejaVuSans-48"/>
       <use transform="translate(128.203125 39.046875)scale(0.7)" xlink:href="#DejaVuSans-50"/>
      </g>
     </g>
    </g>
    <g id="xtick_56">
     <g id="line2d_77">
      <g>
       <use style="stroke:#000000;stroke-width:3;" x="1114.682408" xlink:href="#mb1689f6fb4" y="227.2575"/>
      </g>
     </g>
     <g id="text_33">
      <!-- $\mathdefault{10^{3}}$ -->
      <g transform="translate(1105.882408 238.355938)scale(0.1 -0.1)">
       <use transform="translate(0 0.765625)" xlink:href="#DejaVuSans-49"/>
       <use transform="translate(63.623047 0.765625)" xlink:href="#DejaVuSans-48"/>
       <use transform="translate(128.203125 39.046875)scale(0.7)" xlink:href="#DejaVuSans-51"/>
      </g>
     </g>
    </g>
    <g id="xtick_57">
     <g id="line2d_78">
      <g>
       <use style="stroke:#000000;stroke-width:2;" x="901.784052" xlink:href="#mc2ccbb1c18" y="227.2575"/>
      </g>
     </g>
    </g>
    <g id="xtick_58">
     <g id="line2d_79">
      <g>
       <use style="stroke:#000000;stroke-width:2;" x="923.850092" xlink:href="#mc2ccbb1c18" y="227.2575"/>
      </g>
     </g>
    </g>
    <g id="xtick_59">
     <g id="line2d_80">
      <g>
       <use style="stroke:#000000;stroke-width:2;" x="939.506196" xlink:href="#mc2ccbb1c18" y="227.2575"/>
      </g>
     </g>
    </g>
    <g id="xtick_60">
     <g id="line2d_81">
      <g>
       <use style="stroke:#000000;stroke-width:2;" x="951.650014" xlink:href="#mc2ccbb1c18" y="227.2575"/>
      </g>
     </g>
    </g>
    <g id="xtick_61">
     <g id="line2d_82">
      <g>
       <use style="stroke:#000000;stroke-width:2;" x="961.572236" xlink:href="#mc2ccbb1c18" y="227.2575"/>
      </g>
     </g>
    </g>
    <g id="xtick_62">
     <g id="line2d_83">
      <g>
       <use style="stroke:#000000;stroke-width:2;" x="969.961355" xlink:href="#mc2ccbb1c18" y="227.2575"/>
      </g>
     </g>
    </g>
    <g id="xtick_63">
     <g id="line2d_84">
      <g>
       <use style="stroke:#000000;stroke-width:2;" x="977.22834" xlink:href="#mc2ccbb1c18" y="227.2575"/>
      </g>
     </g>
    </g>
    <g id="xtick_64">
     <g id="line2d_85">
      <g>
       <use style="stroke:#000000;stroke-width:2;" x="983.638275" xlink:href="#mc2ccbb1c18" y="227.2575"/>
      </g>
     </g>
    </g>
    <g id="xtick_65">
     <g id="line2d_86">
      <g>
       <use style="stroke:#000000;stroke-width:2;" x="1027.094302" xlink:href="#mc2ccbb1c18" y="227.2575"/>
      </g>
     </g>
    </g>
    <g id="xtick_66">
     <g id="line2d_87">
      <g>
       <use style="stroke:#000000;stroke-width:2;" x="1049.160342" xlink:href="#mc2ccbb1c18" y="227.2575"/>
      </g>
     </g>
    </g>
    <g id="xtick_67">
     <g id="line2d_88">
      <g>
       <use style="stroke:#000000;stroke-width:2;" x="1064.816446" xlink:href="#mc2ccbb1c18" y="227.2575"/>
      </g>
     </g>
    </g>
    <g id="xtick_68">
     <g id="line2d_89">
      <g>
       <use style="stroke:#000000;stroke-width:2;" x="1076.960264" xlink:href="#mc2ccbb1c18" y="227.2575"/>
      </g>
     </g>
    </g>
    <g id="xtick_69">
     <g id="line2d_90">
      <g>
       <use style="stroke:#000000;stroke-width:2;" x="1086.882486" xlink:href="#mc2ccbb1c18" y="227.2575"/>
      </g>
     </g>
    </g>
    <g id="xtick_70">
     <g id="line2d_91">
      <g>
       <use style="stroke:#000000;stroke-width:2;" x="1095.271605" xlink:href="#mc2ccbb1c18" y="227.2575"/>
      </g>
     </g>
    </g>
    <g id="xtick_71">
     <g id="line2d_92">
      <g>
       <use style="stroke:#000000;stroke-width:2;" x="1102.53859" xlink:href="#mc2ccbb1c18" y="227.2575"/>
      </g>
     </g>
    </g>
    <g id="xtick_72">
     <g id="line2d_93">
      <g>
       <use style="stroke:#000000;stroke-width:2;" x="1108.948526" xlink:href="#mc2ccbb1c18" y="227.2575"/>
      </g>
     </g>
    </g>
    <g id="text_34">
     <!-- Distance (phones) -->
     <g transform="translate(920.071477 258.112813)scale(0.18 -0.18)">
      <use xlink:href="#DejaVuSans-68"/>
      <use x="77.001953" xlink:href="#DejaVuSans-105"/>
      <use x="104.785156" xlink:href="#DejaVuSans-115"/>
      <use x="156.884766" xlink:href="#DejaVuSans-116"/>
      <use x="196.09375" xlink:href="#DejaVuSans-97"/>
      <use x="257.373047" xlink:href="#DejaVuSans-110"/>
      <use x="320.751953" xlink:href="#DejaVuSans-99"/>
      <use x="375.732422" xlink:href="#DejaVuSans-101"/>
      <use x="437.255859" xlink:href="#DejaVuSans-32"/>
      <use x="469.042969" xlink:href="#DejaVuSans-40"/>
      <use x="508.056641" xlink:href="#DejaVuSans-112"/>
      <use x="571.533203" xlink:href="#DejaVuSans-104"/>
      <use x="634.912109" xlink:href="#DejaVuSans-111"/>
      <use x="696.09375" xlink:href="#DejaVuSans-110"/>
      <use x="759.472656" xlink:href="#DejaVuSans-101"/>
      <use x="820.996094" xlink:href="#DejaVuSans-115"/>
      <use x="873.095703" xlink:href="#DejaVuSans-41"/>
     </g>
    </g>
   </g>
   <g id="matplotlib.axis_8">
    <g id="ytick_19">
     <g id="line2d_94">
      <g>
       <use style="stroke:#000000;stroke-width:3;" x="878.388125" xlink:href="#md4a70dd412" y="227.2575"/>
      </g>
     </g>
     <g id="text_35">
      <!-- 0.5 -->
      <g transform="translate(858.985 231.056719)scale(0.1 -0.1)">
       <use xlink:href="#DejaVuSans-48"/>
       <use x="63.623047" xlink:href="#DejaVuSans-46"/>
       <use x="95.410156" xlink:href="#DejaVuSans-53"/>
      </g>
     </g>
    </g>
    <g id="ytick_20">
     <g id="line2d_95">
      <g>
       <use style="stroke:#000000;stroke-width:3;" x="878.388125" xlink:href="#md4a70dd412" y="186.2575"/>
      </g>
     </g>
     <g id="text_36">
      <!-- 0.6 -->
      <g transform="translate(858.985 190.056719)scale(0.1 -0.1)">
       <use xlink:href="#DejaVuSans-48"/>
       <use x="63.623047" xlink:href="#DejaVuSans-46"/>
       <use x="95.410156" xlink:href="#DejaVuSans-54"/>
      </g>
     </g>
    </g>
    <g id="ytick_21">
     <g id="line2d_96">
      <g>
       <use style="stroke:#000000;stroke-width:3;" x="878.388125" xlink:href="#md4a70dd412" y="145.2575"/>
      </g>
     </g>
     <g id="text_37">
      <!-- 0.7 -->
      <g transform="translate(858.985 149.056719)scale(0.1 -0.1)">
       <use xlink:href="#DejaVuSans-48"/>
       <use x="63.623047" xlink:href="#DejaVuSans-46"/>
       <use x="95.410156" xlink:href="#DejaVuSans-55"/>
      </g>
     </g>
    </g>
    <g id="ytick_22">
     <g id="line2d_97">
      <g>
       <use style="stroke:#000000;stroke-width:3;" x="878.388125" xlink:href="#md4a70dd412" y="104.2575"/>
      </g>
     </g>
     <g id="text_38">
      <!-- 0.8 -->
      <g transform="translate(858.985 108.056719)scale(0.1 -0.1)">
       <use xlink:href="#DejaVuSans-48"/>
       <use x="63.623047" xlink:href="#DejaVuSans-46"/>
       <use x="95.410156" xlink:href="#DejaVuSans-56"/>
      </g>
     </g>
    </g>
    <g id="ytick_23">
     <g id="line2d_98">
      <g>
       <use style="stroke:#000000;stroke-width:3;" x="878.388125" xlink:href="#md4a70dd412" y="63.2575"/>
      </g>
     </g>
     <g id="text_39">
      <!-- 0.9 -->
      <g transform="translate(858.985 67.056719)scale(0.1 -0.1)">
       <use xlink:href="#DejaVuSans-48"/>
       <use x="63.623047" xlink:href="#DejaVuSans-46"/>
       <use x="95.410156" xlink:href="#DejaVuSans-57"/>
      </g>
     </g>
    </g>
    <g id="ytick_24">
     <g id="line2d_99">
      <g>
       <use style="stroke:#000000;stroke-width:3;" x="878.388125" xlink:href="#md4a70dd412" y="22.2575"/>
      </g>
     </g>
     <g id="text_40">
      <!-- 1.0 -->
      <g transform="translate(858.985 26.056719)scale(0.1 -0.1)">
       <use xlink:href="#DejaVuSans-49"/>
       <use x="63.623047" xlink:href="#DejaVuSans-46"/>
       <use x="95.410156" xlink:href="#DejaVuSans-48"/>
      </g>
     </g>
    </g>
   </g>
   <g id="line2d_100">
    <path clip-path="url(#p730f3f6f82)" d="M 889.640234 31.559773 
L 901.784052 34.639129 
L 913.92787 43.904542 
L 923.850092 39.660612 
L 932.23921 56.795154 
L 939.506196 45.202272 
L 945.916131 40.353888 
L 951.650014 42.781083 
L 956.836942 43.230735 
L 961.572236 39.973103 
L 965.928284 46.294706 
L 969.961355 44.822786 
L 973.716054 45.866502 
L 977.22834 43.45519 
L 980.527626 52.475973 
L 983.638275 45.573717 
L 986.580697 46.871759 
L 989.372158 48.29462 
L 992.027394 48.616917 
L 994.062082 50.851185 
L 996.502919 60.069041 
L 998.838967 70.177735 
L 1001.078853 45.571668 
L 1003.230182 48.119304 
L 1005.299692 48.972535 
L 1007.293378 47.498912 
L 1009.216602 50.147623 
L 1011.074173 54.6039 
L 1012.870427 79.383007 
L 1014.609282 68.804992 
L 1016.294294 63.046392 
L 1017.928698 86.263185 
L 1019.515445 57.6491 
L 1021.057235 66.82733 
L 1022.556546 66.219846 
L 1024.015656 80.598647 
L 1025.436665 76.668523 
L 1026.547347 71.065719 
L 1027.904564 74.692028 
L 1029.228754 70.434924 
L 1030.521488 72.009456 
L 1031.784226 90.451094 
L 1033.018328 79.343754 
L 1034.225063 107.041076 
L 1035.40562 85.832448 
L 1036.561111 83.850558 
L 1037.692577 93.546978 
L 1038.800997 92.106731 
L 1039.887291 104.074413 
L 1040.952326 105.166609 
L 1041.996918 94.114844 
L 1043.021836 103.508167 
L 1044.027809 96.886044 
L 1045.015523 103.53763 
L 1045.985629 96.191199 
L 1046.749453 92.032182 
L 1047.6894 95.574297 
L 1048.613387 103.99403 
L 1049.521948 109.974327 
L 1050.41559 118.303169 
L 1052.16002 109.883942 
L 1053.011704 106.111687 
L 1053.850266 109.493 
L 1054.676102 113.371707 
L 1055.489593 109.516092 
L 1056.291103 108.928407 
L 1057.08098 106.865115 
L 1057.859556 117.007527 
L 1058.627151 109.004276 
L 1059.384069 106.411472 
L 1060.130604 103.327702 
L 1060.867037 102.934715 
L 1061.449091 103.123209 
L 1062.168012 104.542186 
L 1062.87756 103.279897 
L 1064.269491 103.243688 
L 1064.95233 100.965123 
L 1065.626708 97.395821 
L 1066.29283 104.133971 
L 1066.950898 107.290425 
L 1067.601104 104.671503 
L 1068.243633 107.395117 
L 1068.878664 108.187265 
L 1069.50637 105.345638 
L 1070.126919 106.444595 
L 1070.740472 105.325693 
L 1071.347184 106.638693 
L 1071.947207 106.129591 
L 1072.540687 103.536902 
L 1073.010855 106.001417 
L 1073.592909 103.283983 
L 1074.168804 106.303729 
L 1074.738668 103.203955 
L 1075.302627 104.212682 
L 1075.860802 105.851503 
L 1076.413309 104.843703 
L 1076.960264 110.82183 
L 1077.501777 107.172032 
L 1078.037954 108.865345 
L 1078.5689 111.464863 
L 1079.094716 110.295447 
L 1079.615501 113.10614 
L 1080.131349 111.771661 
L 1080.642353 111.744946 
L 1081.148603 115.294689 
L 1081.650188 115.965821 
L 1082.147192 115.865971 
L 1082.541553 131.500845 
L 1083.030519 122.013514 
L 1083.515131 124.066341 
L 1083.995465 122.880743 
L 1084.9436 123.183921 
L 1085.411544 124.381941 
L 1085.875498 126.40801 
L 1086.335531 125.488567 
L 1086.791708 126.422645 
L 1087.244092 123.409046 
L 1087.692747 130.999241 
L 1088.137734 125.133101 
L 1088.579112 124.287424 
L 1089.016938 124.293903 
L 1089.45127 126.357425 
L 1089.882164 135.345709 
L 1090.309672 133.934117 
L 1090.649277 137.974914 
L 1091.070825 136.008153 
L 1091.489133 135.160964 
L 1091.90425 141.572754 
L 1092.316224 137.26643 
L 1092.725103 137.26643 
L 1093.130933 127.314225 
L 1093.533759 125.852553 
L 1093.933625 136.270799 
L 1094.330575 130.884574 
L 1094.72465 130.327765 
L 1095.115892 126.381149 
L 1095.504342 126.0442 
L 1095.890038 125.205993 
L 1096.273021 126.432619 
L 1096.653327 126.180605 
L 1097.030993 129.682621 
L 1097.406057 125.459017 
L 1097.704258 136.394171 
L 1098.074726 125.535582 
L 1098.442689 127.188229 
L 1098.808181 126.547328 
L 1099.171235 126.859455 
L 1099.531883 126.242714 
L 1099.890156 127.763615 
L 1100.246087 126.664219 
L 1100.951039 125.895295 
L 1101.30012 127.880423 
L 1101.646976 134.876781 
L 1101.991636 131.099965 
L 1102.334126 130.987907 
L 1102.674475 127.3127 
L 1103.012708 127.266744 
L 1103.348852 127.710168 
L 1103.682932 129.01262 
L 1103.948728 132.177749 
L 1104.279157 129.44102 
L 1104.607593 127.712564 
L 1104.934058 129.155564 
L 1105.258576 128.798497 
L 1105.58117 128.275123 
L 1105.901864 128.739415 
L 1106.220679 128.049439 
L 1106.537637 128.144488 
L 1106.85276 127.948358 
L 1107.166068 129.641602 
L 1107.477584 129.010816 
L 1107.787326 127.88779 
L 1108.095315 128.71249 
L 1108.401571 132.509066 
L 1108.706113 130.279891 
L 1109.008961 131.757685 
L 1109.549875 129.426099 
L 1109.848076 130.924401 
L 1110.144652 129.665774 
L 1110.439621 129.412058 
L 1110.732999 129.593485 
L 1111.024804 129.449136 
L 1111.315053 130.705563 
L 1111.603762 129.938259 
L 1111.890948 128.682466 
L 1112.176626 129.38654 
L 1112.460812 128.564834 
L 1112.743522 129.854194 
L 1113.024771 129.012531 
L 1113.582946 129.674895 
L 1113.859901 132.470534 
L 1114.135454 171.16323 
L 1114.409618 133.727789 
L 1114.682408 130.783065 
L 1114.682408 130.783065 
" style="fill:none;stroke:#03585d;stroke-linecap:square;stroke-width:4;"/>
   </g>
   <g id="patch_18">
    <path d="M 878.388125 227.2575 
L 878.388125 18.1575 
" style="fill:none;stroke:#000000;stroke-linecap:square;stroke-linejoin:miter;stroke-width:3;"/>
   </g>
   <g id="patch_19">
    <path d="M 1125.934517 227.2575 
L 1125.934517 18.1575 
" style="fill:none;stroke:#000000;stroke-linecap:square;stroke-linejoin:miter;stroke-width:3;"/>
   </g>
   <g id="patch_20">
    <path d="M 878.388125 227.2575 
L 1125.934517 227.2575 
" style="fill:none;stroke:#000000;stroke-linecap:square;stroke-linejoin:miter;stroke-width:3;"/>
   </g>
   <g id="patch_21">
    <path d="M 878.388125 18.1575 
L 1125.934517 18.1575 
" style="fill:none;stroke:#000000;stroke-linecap:square;stroke-linejoin:miter;stroke-width:3;"/>
   </g>
   <g id="text_41">
    <!-- Japanese -->
    <defs>
     <path d="M 9.8125 72.90625 
L 19.671875 72.90625 
L 19.671875 5.078125 
Q 19.671875 -8.109375 14.671875 -14.0625 
Q 9.671875 -20.015625 -1.421875 -20.015625 
L -5.171875 -20.015625 
L -5.171875 -11.71875 
L -2.09375 -11.71875 
Q 4.4375 -11.71875 7.125 -8.046875 
Q 9.8125 -4.390625 9.8125 5.078125 
z
" id="DejaVuSans-74"/>
    </defs>
    <g transform="translate(965.835071 12.1575)scale(0.16 -0.16)">
     <use xlink:href="#DejaVuSans-74"/>
     <use x="29.492188" xlink:href="#DejaVuSans-97"/>
     <use x="90.771484" xlink:href="#DejaVuSans-112"/>
     <use x="154.248047" xlink:href="#DejaVuSans-97"/>
     <use x="215.527344" xlink:href="#DejaVuSans-110"/>
     <use x="278.90625" xlink:href="#DejaVuSans-101"/>
     <use x="340.429688" xlink:href="#DejaVuSans-115"/>
     <use x="392.529297" xlink:href="#DejaVuSans-101"/>
    </g>
   </g>
  </g>
 </g>
 <defs>
  <clipPath id="p9dd072bceb">
   <rect height="209.1" width="247.546392" x="43.563125" y="18.1575"/>
  </clipPath>
  <clipPath id="pa21922e889">
   <rect height="209.1" width="247.546392" x="321.838125" y="18.1575"/>
  </clipPath>
  <clipPath id="p9a78140bfe">
   <rect height="209.1" width="247.546392" x="600.113125" y="18.1575"/>
  </clipPath>
  <clipPath id="p730f3f6f82">
   <rect height="209.1" width="247.546392" x="878.388125" y="18.1575"/>
  </clipPath>
 </defs>
</svg>
