<?xml version="1.0" encoding="utf-8" standalone="no"?>
<!DOCTYPE svg PUBLIC "-//W3C//DTD SVG 1.1//EN"
  "http://www.w3.org/Graphics/SVG/1.1/DTD/svg11.dtd">
<!-- Created with matplotlib (https://matplotlib.org/) -->
<svg height="169.462819pt" version="1.1" viewBox="0 0 1195.303614 169.462819" width="1195.303614pt" xmlns="http://www.w3.org/2000/svg" xmlns:xlink="http://www.w3.org/1999/xlink">
 <defs>
  <style type="text/css">
*{stroke-linecap:butt;stroke-linejoin:round;}
  </style>
 </defs>
 <g id="figure_1">
  <g id="patch_1">
   <path d="M 0 169.462819 
L 1195.303614 169.462819 
L 1195.303614 0 
L 0 0 
z
" style="fill:#ffffff;"/>
  </g>
  <g id="axes_1">
   <g id="patch_2">
    <path d="M 65.942364 123.492819 
L 308.55106 123.492819 
L 308.55106 5.318906 
L 65.942364 5.318906 
z
" style="fill:#ffffff;"/>
   </g>
   <g id="PolyCollection_1">
    <path clip-path="url(#peea1c3bffc)" d="M 148.103921 123.491156 
L 148.103921 123.492819 
L 150.155911 123.492819 
L 152.207901 123.492819 
L 154.259891 123.492819 
L 156.311881 123.492819 
L 158.363871 123.492819 
L 160.415861 123.492819 
L 162.467852 123.492819 
L 164.519842 123.492819 
L 166.571832 123.492819 
L 168.623822 123.492819 
L 170.675812 123.492819 
L 172.727802 123.492819 
L 174.779793 123.492819 
L 176.831783 123.492819 
L 178.883773 123.492819 
L 180.935763 123.492819 
L 182.987753 123.492819 
L 185.039743 123.492819 
L 187.091733 123.492819 
L 189.143724 123.492819 
L 191.195714 123.492819 
L 193.247704 123.492819 
L 195.299694 123.492819 
L 197.351684 123.492819 
L 199.403674 123.492819 
L 201.455665 123.492819 
L 203.507655 123.492819 
L 205.559645 123.492819 
L 207.611635 123.492819 
L 209.663625 123.492819 
L 211.715615 123.492819 
L 213.767605 123.492819 
L 215.819596 123.492819 
L 217.871586 123.492819 
L 219.923576 123.492819 
L 221.975566 123.492819 
L 224.027556 123.492819 
L 226.079546 123.492819 
L 228.131537 123.492819 
L 230.183527 123.492819 
L 232.235517 123.492819 
L 234.287507 123.492819 
L 236.339497 123.492819 
L 238.391487 123.492819 
L 240.443477 123.492819 
L 242.495468 123.492819 
L 244.547458 123.492819 
L 246.599448 123.492819 
L 248.651438 123.492819 
L 250.703428 123.492819 
L 252.755418 123.492819 
L 254.807409 123.492819 
L 256.859399 123.492819 
L 258.911389 123.492819 
L 260.963379 123.492819 
L 263.015369 123.492819 
L 265.067359 123.492819 
L 267.119349 123.492819 
L 269.17134 123.492819 
L 271.22333 123.492819 
L 273.27532 123.492819 
L 275.32731 123.492819 
L 277.3793 123.492819 
L 279.43129 123.492819 
L 281.483281 123.492819 
L 283.535271 123.492819 
L 285.587261 123.492819 
L 287.639251 123.492819 
L 289.691241 123.492819 
L 291.743231 123.492819 
L 293.795221 123.492819 
L 295.847212 123.492819 
L 297.899202 123.492819 
L 299.951192 123.492819 
L 302.003182 123.492819 
L 304.055172 123.492819 
L 306.107162 123.492819 
L 308.159153 123.492819 
L 310.211143 123.492819 
L 312.263133 123.492819 
L 314.315123 123.492819 
L 316.367113 123.492819 
L 318.419103 123.492819 
L 320.471093 123.492819 
L 322.523084 123.492819 
L 324.575074 123.492819 
L 326.627064 123.492819 
L 328.679054 123.492819 
L 330.731044 123.492819 
L 332.783034 123.492819 
L 334.835025 123.492819 
L 336.887015 123.492819 
L 338.939005 123.492819 
L 340.990995 123.492819 
L 343.042985 123.492819 
L 345.094975 123.492819 
L 347.146965 123.492819 
L 349.198956 123.492819 
L 351.250946 123.492819 
L 353.302936 123.492819 
L 355.354926 123.492819 
L 357.406916 123.492819 
L 359.458906 123.492819 
L 361.510897 123.492819 
L 363.562887 123.492819 
L 365.614877 123.492819 
L 367.666867 123.492819 
L 369.718857 123.492819 
L 371.770847 123.492819 
L 373.822837 123.492819 
L 375.874828 123.492819 
L 377.926818 123.492819 
L 379.978808 123.492819 
L 382.030798 123.492819 
L 384.082788 123.492819 
L 386.134778 123.492819 
L 388.186769 123.492819 
L 390.238759 123.492819 
L 392.290749 123.492819 
L 394.342739 123.492819 
L 396.394729 123.492819 
L 398.446719 123.492819 
L 400.498709 123.492819 
L 402.5507 123.492819 
L 404.60269 123.492819 
L 406.65468 123.492819 
L 408.70667 123.492819 
L 408.70667 123.490857 
L 408.70667 123.490857 
L 406.65468 123.489602 
L 404.60269 123.486958 
L 402.5507 123.482159 
L 400.498709 123.474032 
L 398.446719 123.460951 
L 396.394729 123.440808 
L 394.342739 123.411043 
L 392.290749 123.368703 
L 390.238759 123.310509 
L 388.186769 123.232834 
L 386.134778 123.13154 
L 384.082788 123.001566 
L 382.030798 122.836317 
L 379.978808 122.626947 
L 377.926818 122.361828 
L 375.874828 122.026551 
L 373.822837 121.604827 
L 371.770847 121.080529 
L 369.718857 120.440831 
L 367.666867 119.680051 
L 365.614877 118.803427 
L 363.562887 117.829886 
L 361.510897 116.792814 
L 359.458906 115.738202 
L 357.406916 114.720057 
L 355.354926 113.793674 
L 353.302936 113.007958 
L 351.250946 112.39835 
L 349.198956 111.981821 
L 347.146965 111.754922 
L 345.094975 111.695088 
L 343.042985 111.764548 
L 340.990995 111.915576 
L 338.939005 112.095564 
L 336.887015 112.250668 
L 334.835025 112.327317 
L 332.783034 112.271666 
L 330.731044 112.027678 
L 328.679054 111.534955 
L 326.627064 110.727523 
L 324.575074 109.534594 
L 322.523084 107.883995 
L 320.471093 105.708465 
L 318.419103 102.954477 
L 316.367113 99.592597 
L 314.315123 95.627767 
L 312.263133 91.107388 
L 310.211143 86.124996 
L 308.159153 80.817853 
L 306.107162 75.357959 
L 304.055172 69.937529 
L 302.003182 64.751491 
L 299.951192 59.98032 
L 297.899202 55.776436 
L 295.847212 52.256329 
L 293.795221 49.49902 
L 291.743231 47.549864 
L 289.691241 46.427531 
L 287.639251 46.131455 
L 285.587261 46.647281 
L 283.535271 47.948725 
L 281.483281 49.995794 
L 279.43129 52.730818 
L 277.3793 56.074912 
L 275.32731 59.927505 
L 273.27532 64.170439 
L 271.22333 68.676196 
L 269.17134 73.318076 
L 267.119349 77.979373 
L 265.067359 82.559332 
L 263.015369 86.975255 
L 260.963379 91.161779 
L 258.911389 95.069099 
L 256.859399 98.661596 
L 254.807409 101.917285 
L 252.755418 104.82752 
L 250.703428 107.396091 
L 248.651438 109.637184 
L 246.599448 111.572391 
L 244.547458 113.227461 
L 242.495468 114.629589 
L 240.443477 115.805689 
L 238.391487 116.781681 
L 236.339497 117.582437 
L 234.287507 118.231993 
L 232.235517 118.753696 
L 230.183527 119.170138 
L 228.131537 119.502858 
L 226.079546 119.771887 
L 224.027556 119.995225 
L 221.975566 120.188398 
L 219.923576 120.364182 
L 217.871586 120.532568 
L 215.819596 120.700944 
L 213.767605 120.87436 
L 211.715615 121.055784 
L 209.663625 121.246231 
L 207.611635 121.444812 
L 205.559645 121.6488 
L 203.507655 121.853863 
L 201.455665 122.054562 
L 199.403674 122.245104 
L 197.351684 122.420225 
L 195.299694 122.57601 
L 193.247704 122.710444 
L 191.195714 122.823577 
L 189.143724 122.917274 
L 187.091733 122.994655 
L 185.039743 123.059391 
L 182.987753 123.115032 
L 180.935763 123.16451 
L 178.883773 123.209873 
L 176.831783 123.25225 
L 174.779793 123.291989 
L 172.727802 123.328884 
L 170.675812 123.362441 
L 168.623822 123.39211 
L 166.571832 123.417472 
L 164.519842 123.438352 
L 162.467852 123.454858 
L 160.415861 123.467359 
L 158.363871 123.47641 
L 156.311881 123.482662 
L 154.259891 123.486761 
L 152.207901 123.48928 
L 150.155911 123.490655 
L 148.103921 123.491156 
z
" style="fill:#8172b3;fill-opacity:0.25;"/>
   </g>
   <g id="matplotlib.axis_1">
    <g id="xtick_1">
     <g id="line2d_1">
      <defs>
       <path d="M 0 0 
L 0 -10 
" id="m85519ca00f" style="stroke:#000000;stroke-width:3;"/>
      </defs>
      <g>
       <use style="stroke:#000000;stroke-width:3;" x="65.942364" xlink:href="#m85519ca00f" y="123.492819"/>
      </g>
     </g>
     <g id="text_1">
      <!-- 1 -->
      <defs>
       <path d="M 12.40625 8.296875 
L 28.515625 8.296875 
L 28.515625 63.921875 
L 10.984375 60.40625 
L 10.984375 69.390625 
L 28.421875 72.90625 
L 38.28125 72.90625 
L 38.28125 8.296875 
L 54.390625 8.296875 
L 54.390625 0 
L 12.40625 0 
z
" id="DejaVuSans-49"/>
      </defs>
      <g transform="translate(61.488614 144.130632)scale(0.14 -0.14)">
       <use xlink:href="#DejaVuSans-49"/>
      </g>
     </g>
    </g>
    <g id="xtick_2">
     <g id="line2d_2">
      <g>
       <use style="stroke:#000000;stroke-width:3;" x="187.246712" xlink:href="#m85519ca00f" y="123.492819"/>
      </g>
     </g>
     <g id="text_2">
      <!-- 10 -->
      <defs>
       <path d="M 31.78125 66.40625 
Q 24.171875 66.40625 20.328125 58.90625 
Q 16.5 51.421875 16.5 36.375 
Q 16.5 21.390625 20.328125 13.890625 
Q 24.171875 6.390625 31.78125 6.390625 
Q 39.453125 6.390625 43.28125 13.890625 
Q 47.125 21.390625 47.125 36.375 
Q 47.125 51.421875 43.28125 58.90625 
Q 39.453125 66.40625 31.78125 66.40625 
z
M 31.78125 74.21875 
Q 44.046875 74.21875 50.515625 64.515625 
Q 56.984375 54.828125 56.984375 36.375 
Q 56.984375 17.96875 50.515625 8.265625 
Q 44.046875 -1.421875 31.78125 -1.421875 
Q 19.53125 -1.421875 13.0625 8.265625 
Q 6.59375 17.96875 6.59375 36.375 
Q 6.59375 54.828125 13.0625 64.515625 
Q 19.53125 74.21875 31.78125 74.21875 
z
" id="DejaVuSans-48"/>
      </defs>
      <g transform="translate(178.339212 144.130632)scale(0.14 -0.14)">
       <use xlink:href="#DejaVuSans-49"/>
       <use x="63.623047" xlink:href="#DejaVuSans-48"/>
      </g>
     </g>
    </g>
    <g id="xtick_3">
     <g id="line2d_3">
      <g>
       <use style="stroke:#000000;stroke-width:3;" x="308.55106" xlink:href="#m85519ca00f" y="123.492819"/>
      </g>
     </g>
     <g id="text_3">
      <!-- 100 -->
      <g transform="translate(295.18981 144.130632)scale(0.14 -0.14)">
       <use xlink:href="#DejaVuSans-49"/>
       <use x="63.623047" xlink:href="#DejaVuSans-48"/>
       <use x="127.246094" xlink:href="#DejaVuSans-48"/>
      </g>
     </g>
    </g>
    <g id="xtick_4">
     <g id="line2d_4">
      <defs>
       <path d="M 0 0 
L 0 -5 
" id="medc8d51996" style="stroke:#000000;stroke-width:2;"/>
      </defs>
      <g>
       <use style="stroke:#000000;stroke-width:2;" x="65.942364" xlink:href="#medc8d51996" y="123.492819"/>
      </g>
     </g>
    </g>
    <g id="xtick_5">
     <g id="line2d_5">
      <g>
       <use style="stroke:#000000;stroke-width:2;" x="102.458611" xlink:href="#medc8d51996" y="123.492819"/>
      </g>
     </g>
    </g>
    <g id="xtick_6">
     <g id="line2d_6">
      <g>
       <use style="stroke:#000000;stroke-width:2;" x="123.819247" xlink:href="#medc8d51996" y="123.492819"/>
      </g>
     </g>
    </g>
    <g id="xtick_7">
     <g id="line2d_7">
      <g>
       <use style="stroke:#000000;stroke-width:2;" x="138.974859" xlink:href="#medc8d51996" y="123.492819"/>
      </g>
     </g>
    </g>
    <g id="xtick_8">
     <g id="line2d_8">
      <g>
       <use style="stroke:#000000;stroke-width:2;" x="150.730465" xlink:href="#medc8d51996" y="123.492819"/>
      </g>
     </g>
    </g>
    <g id="xtick_9">
     <g id="line2d_9">
      <g>
       <use style="stroke:#000000;stroke-width:2;" x="160.335494" xlink:href="#medc8d51996" y="123.492819"/>
      </g>
     </g>
    </g>
    <g id="xtick_10">
     <g id="line2d_10">
      <g>
       <use style="stroke:#000000;stroke-width:2;" x="168.456431" xlink:href="#medc8d51996" y="123.492819"/>
      </g>
     </g>
    </g>
    <g id="xtick_11">
     <g id="line2d_11">
      <g>
       <use style="stroke:#000000;stroke-width:2;" x="175.491106" xlink:href="#medc8d51996" y="123.492819"/>
      </g>
     </g>
    </g>
    <g id="xtick_12">
     <g id="line2d_12">
      <g>
       <use style="stroke:#000000;stroke-width:2;" x="181.696129" xlink:href="#medc8d51996" y="123.492819"/>
      </g>
     </g>
    </g>
    <g id="xtick_13">
     <g id="line2d_13">
      <g>
       <use style="stroke:#000000;stroke-width:2;" x="187.246712" xlink:href="#medc8d51996" y="123.492819"/>
      </g>
     </g>
    </g>
    <g id="xtick_14">
     <g id="line2d_14">
      <g>
       <use style="stroke:#000000;stroke-width:2;" x="223.762959" xlink:href="#medc8d51996" y="123.492819"/>
      </g>
     </g>
    </g>
    <g id="xtick_15">
     <g id="line2d_15">
      <g>
       <use style="stroke:#000000;stroke-width:2;" x="245.123595" xlink:href="#medc8d51996" y="123.492819"/>
      </g>
     </g>
    </g>
    <g id="xtick_16">
     <g id="line2d_16">
      <g>
       <use style="stroke:#000000;stroke-width:2;" x="260.279207" xlink:href="#medc8d51996" y="123.492819"/>
      </g>
     </g>
    </g>
    <g id="xtick_17">
     <g id="line2d_17">
      <g>
       <use style="stroke:#000000;stroke-width:2;" x="272.034812" xlink:href="#medc8d51996" y="123.492819"/>
      </g>
     </g>
    </g>
    <g id="xtick_18">
     <g id="line2d_18">
      <g>
       <use style="stroke:#000000;stroke-width:2;" x="281.639842" xlink:href="#medc8d51996" y="123.492819"/>
      </g>
     </g>
    </g>
    <g id="xtick_19">
     <g id="line2d_19">
      <g>
       <use style="stroke:#000000;stroke-width:2;" x="289.760779" xlink:href="#medc8d51996" y="123.492819"/>
      </g>
     </g>
    </g>
    <g id="xtick_20">
     <g id="line2d_20">
      <g>
       <use style="stroke:#000000;stroke-width:2;" x="296.795454" xlink:href="#medc8d51996" y="123.492819"/>
      </g>
     </g>
    </g>
    <g id="xtick_21">
     <g id="line2d_21">
      <g>
       <use style="stroke:#000000;stroke-width:2;" x="303.000477" xlink:href="#medc8d51996" y="123.492819"/>
      </g>
     </g>
    </g>
    <g id="xtick_22">
     <g id="line2d_22">
      <g>
       <use style="stroke:#000000;stroke-width:2;" x="308.55106" xlink:href="#medc8d51996" y="123.492819"/>
      </g>
     </g>
    </g>
    <g id="text_4">
     <!-- Bout length (syllables) -->
     <defs>
      <path d="M 19.671875 34.8125 
L 19.671875 8.109375 
L 35.5 8.109375 
Q 43.453125 8.109375 47.28125 11.40625 
Q 51.125 14.703125 51.125 21.484375 
Q 51.125 28.328125 47.28125 31.5625 
Q 43.453125 34.8125 35.5 34.8125 
z
M 19.671875 64.796875 
L 19.671875 42.828125 
L 34.28125 42.828125 
Q 41.5 42.828125 45.03125 45.53125 
Q 48.578125 48.25 48.578125 53.8125 
Q 48.578125 59.328125 45.03125 62.0625 
Q 41.5 64.796875 34.28125 64.796875 
z
M 9.8125 72.90625 
L 35.015625 72.90625 
Q 46.296875 72.90625 52.390625 68.21875 
Q 58.5 63.53125 58.5 54.890625 
Q 58.5 48.1875 55.375 44.234375 
Q 52.25 40.28125 46.1875 39.3125 
Q 53.46875 37.75 57.5 32.78125 
Q 61.53125 27.828125 61.53125 20.40625 
Q 61.53125 10.640625 54.890625 5.3125 
Q 48.25 0 35.984375 0 
L 9.8125 0 
z
" id="DejaVuSans-66"/>
      <path d="M 30.609375 48.390625 
Q 23.390625 48.390625 19.1875 42.75 
Q 14.984375 37.109375 14.984375 27.296875 
Q 14.984375 17.484375 19.15625 11.84375 
Q 23.34375 6.203125 30.609375 6.203125 
Q 37.796875 6.203125 41.984375 11.859375 
Q 46.1875 17.53125 46.1875 27.296875 
Q 46.1875 37.015625 41.984375 42.703125 
Q 37.796875 48.390625 30.609375 48.390625 
z
M 30.609375 56 
Q 42.328125 56 49.015625 48.375 
Q 55.71875 40.765625 55.71875 27.296875 
Q 55.71875 13.875 49.015625 6.21875 
Q 42.328125 -1.421875 30.609375 -1.421875 
Q 18.84375 -1.421875 12.171875 6.21875 
Q 5.515625 13.875 5.515625 27.296875 
Q 5.515625 40.765625 12.171875 48.375 
Q 18.84375 56 30.609375 56 
z
" id="DejaVuSans-111"/>
      <path d="M 8.5 21.578125 
L 8.5 54.6875 
L 17.484375 54.6875 
L 17.484375 21.921875 
Q 17.484375 14.15625 20.5 10.265625 
Q 23.53125 6.390625 29.59375 6.390625 
Q 36.859375 6.390625 41.078125 11.03125 
Q 45.3125 15.671875 45.3125 23.6875 
L 45.3125 54.6875 
L 54.296875 54.6875 
L 54.296875 0 
L 45.3125 0 
L 45.3125 8.40625 
Q 42.046875 3.421875 37.71875 1 
Q 33.40625 -1.421875 27.6875 -1.421875 
Q 18.265625 -1.421875 13.375 4.4375 
Q 8.5 10.296875 8.5 21.578125 
z
M 31.109375 56 
z
" id="DejaVuSans-117"/>
      <path d="M 18.3125 70.21875 
L 18.3125 54.6875 
L 36.8125 54.6875 
L 36.8125 47.703125 
L 18.3125 47.703125 
L 18.3125 18.015625 
Q 18.3125 11.328125 20.140625 9.421875 
Q 21.96875 7.515625 27.59375 7.515625 
L 36.8125 7.515625 
L 36.8125 0 
L 27.59375 0 
Q 17.1875 0 13.234375 3.875 
Q 9.28125 7.765625 9.28125 18.015625 
L 9.28125 47.703125 
L 2.6875 47.703125 
L 2.6875 54.6875 
L 9.28125 54.6875 
L 9.28125 70.21875 
z
" id="DejaVuSans-116"/>
      <path id="DejaVuSans-32"/>
      <path d="M 9.421875 75.984375 
L 18.40625 75.984375 
L 18.40625 0 
L 9.421875 0 
z
" id="DejaVuSans-108"/>
      <path d="M 56.203125 29.59375 
L 56.203125 25.203125 
L 14.890625 25.203125 
Q 15.484375 15.921875 20.484375 11.0625 
Q 25.484375 6.203125 34.421875 6.203125 
Q 39.59375 6.203125 44.453125 7.46875 
Q 49.3125 8.734375 54.109375 11.28125 
L 54.109375 2.78125 
Q 49.265625 0.734375 44.1875 -0.34375 
Q 39.109375 -1.421875 33.890625 -1.421875 
Q 20.796875 -1.421875 13.15625 6.1875 
Q 5.515625 13.8125 5.515625 26.8125 
Q 5.515625 40.234375 12.765625 48.109375 
Q 20.015625 56 32.328125 56 
Q 43.359375 56 49.78125 48.890625 
Q 56.203125 41.796875 56.203125 29.59375 
z
M 47.21875 32.234375 
Q 47.125 39.59375 43.09375 43.984375 
Q 39.0625 48.390625 32.421875 48.390625 
Q 24.90625 48.390625 20.390625 44.140625 
Q 15.875 39.890625 15.1875 32.171875 
z
" id="DejaVuSans-101"/>
      <path d="M 54.890625 33.015625 
L 54.890625 0 
L 45.90625 0 
L 45.90625 32.71875 
Q 45.90625 40.484375 42.875 44.328125 
Q 39.84375 48.1875 33.796875 48.1875 
Q 26.515625 48.1875 22.3125 43.546875 
Q 18.109375 38.921875 18.109375 30.90625 
L 18.109375 0 
L 9.078125 0 
L 9.078125 54.6875 
L 18.109375 54.6875 
L 18.109375 46.1875 
Q 21.34375 51.125 25.703125 53.5625 
Q 30.078125 56 35.796875 56 
Q 45.21875 56 50.046875 50.171875 
Q 54.890625 44.34375 54.890625 33.015625 
z
" id="DejaVuSans-110"/>
      <path d="M 45.40625 27.984375 
Q 45.40625 37.75 41.375 43.109375 
Q 37.359375 48.484375 30.078125 48.484375 
Q 22.859375 48.484375 18.828125 43.109375 
Q 14.796875 37.75 14.796875 27.984375 
Q 14.796875 18.265625 18.828125 12.890625 
Q 22.859375 7.515625 30.078125 7.515625 
Q 37.359375 7.515625 41.375 12.890625 
Q 45.40625 18.265625 45.40625 27.984375 
z
M 54.390625 6.78125 
Q 54.390625 -7.171875 48.1875 -13.984375 
Q 42 -20.796875 29.203125 -20.796875 
Q 24.46875 -20.796875 20.265625 -20.09375 
Q 16.0625 -19.390625 12.109375 -17.921875 
L 12.109375 -9.1875 
Q 16.0625 -11.328125 19.921875 -12.34375 
Q 23.78125 -13.375 27.78125 -13.375 
Q 36.625 -13.375 41.015625 -8.765625 
Q 45.40625 -4.15625 45.40625 5.171875 
L 45.40625 9.625 
Q 42.625 4.78125 38.28125 2.390625 
Q 33.9375 0 27.875 0 
Q 17.828125 0 11.671875 7.65625 
Q 5.515625 15.328125 5.515625 27.984375 
Q 5.515625 40.671875 11.671875 48.328125 
Q 17.828125 56 27.875 56 
Q 33.9375 56 38.28125 53.609375 
Q 42.625 51.21875 45.40625 46.390625 
L 45.40625 54.6875 
L 54.390625 54.6875 
z
" id="DejaVuSans-103"/>
      <path d="M 54.890625 33.015625 
L 54.890625 0 
L 45.90625 0 
L 45.90625 32.71875 
Q 45.90625 40.484375 42.875 44.328125 
Q 39.84375 48.1875 33.796875 48.1875 
Q 26.515625 48.1875 22.3125 43.546875 
Q 18.109375 38.921875 18.109375 30.90625 
L 18.109375 0 
L 9.078125 0 
L 9.078125 75.984375 
L 18.109375 75.984375 
L 18.109375 46.1875 
Q 21.34375 51.125 25.703125 53.5625 
Q 30.078125 56 35.796875 56 
Q 45.21875 56 50.046875 50.171875 
Q 54.890625 44.34375 54.890625 33.015625 
z
" id="DejaVuSans-104"/>
      <path d="M 31 75.875 
Q 24.46875 64.65625 21.28125 53.65625 
Q 18.109375 42.671875 18.109375 31.390625 
Q 18.109375 20.125 21.3125 9.0625 
Q 24.515625 -2 31 -13.1875 
L 23.1875 -13.1875 
Q 15.875 -1.703125 12.234375 9.375 
Q 8.59375 20.453125 8.59375 31.390625 
Q 8.59375 42.28125 12.203125 53.3125 
Q 15.828125 64.359375 23.1875 75.875 
z
" id="DejaVuSans-40"/>
      <path d="M 44.28125 53.078125 
L 44.28125 44.578125 
Q 40.484375 46.53125 36.375 47.5 
Q 32.28125 48.484375 27.875 48.484375 
Q 21.1875 48.484375 17.84375 46.4375 
Q 14.5 44.390625 14.5 40.28125 
Q 14.5 37.15625 16.890625 35.375 
Q 19.28125 33.59375 26.515625 31.984375 
L 29.59375 31.296875 
Q 39.15625 29.25 43.1875 25.515625 
Q 47.21875 21.78125 47.21875 15.09375 
Q 47.21875 7.46875 41.1875 3.015625 
Q 35.15625 -1.421875 24.609375 -1.421875 
Q 20.21875 -1.421875 15.453125 -0.5625 
Q 10.6875 0.296875 5.421875 2 
L 5.421875 11.28125 
Q 10.40625 8.6875 15.234375 7.390625 
Q 20.0625 6.109375 24.8125 6.109375 
Q 31.15625 6.109375 34.5625 8.28125 
Q 37.984375 10.453125 37.984375 14.40625 
Q 37.984375 18.0625 35.515625 20.015625 
Q 33.0625 21.96875 24.703125 23.78125 
L 21.578125 24.515625 
Q 13.234375 26.265625 9.515625 29.90625 
Q 5.8125 33.546875 5.8125 39.890625 
Q 5.8125 47.609375 11.28125 51.796875 
Q 16.75 56 26.8125 56 
Q 31.78125 56 36.171875 55.265625 
Q 40.578125 54.546875 44.28125 53.078125 
z
" id="DejaVuSans-115"/>
      <path d="M 32.171875 -5.078125 
Q 28.375 -14.84375 24.75 -17.8125 
Q 21.140625 -20.796875 15.09375 -20.796875 
L 7.90625 -20.796875 
L 7.90625 -13.28125 
L 13.1875 -13.28125 
Q 16.890625 -13.28125 18.9375 -11.515625 
Q 21 -9.765625 23.484375 -3.21875 
L 25.09375 0.875 
L 2.984375 54.6875 
L 12.5 54.6875 
L 29.59375 11.921875 
L 46.6875 54.6875 
L 56.203125 54.6875 
z
" id="DejaVuSans-121"/>
      <path d="M 34.28125 27.484375 
Q 23.390625 27.484375 19.1875 25 
Q 14.984375 22.515625 14.984375 16.5 
Q 14.984375 11.71875 18.140625 8.90625 
Q 21.296875 6.109375 26.703125 6.109375 
Q 34.1875 6.109375 38.703125 11.40625 
Q 43.21875 16.703125 43.21875 25.484375 
L 43.21875 27.484375 
z
M 52.203125 31.203125 
L 52.203125 0 
L 43.21875 0 
L 43.21875 8.296875 
Q 40.140625 3.328125 35.546875 0.953125 
Q 30.953125 -1.421875 24.3125 -1.421875 
Q 15.921875 -1.421875 10.953125 3.296875 
Q 6 8.015625 6 15.921875 
Q 6 25.140625 12.171875 29.828125 
Q 18.359375 34.515625 30.609375 34.515625 
L 43.21875 34.515625 
L 43.21875 35.40625 
Q 43.21875 41.609375 39.140625 45 
Q 35.0625 48.390625 27.6875 48.390625 
Q 23 48.390625 18.546875 47.265625 
Q 14.109375 46.140625 10.015625 43.890625 
L 10.015625 52.203125 
Q 14.9375 54.109375 19.578125 55.046875 
Q 24.21875 56 28.609375 56 
Q 40.484375 56 46.34375 49.84375 
Q 52.203125 43.703125 52.203125 31.203125 
z
" id="DejaVuSans-97"/>
      <path d="M 48.6875 27.296875 
Q 48.6875 37.203125 44.609375 42.84375 
Q 40.53125 48.484375 33.40625 48.484375 
Q 26.265625 48.484375 22.1875 42.84375 
Q 18.109375 37.203125 18.109375 27.296875 
Q 18.109375 17.390625 22.1875 11.75 
Q 26.265625 6.109375 33.40625 6.109375 
Q 40.53125 6.109375 44.609375 11.75 
Q 48.6875 17.390625 48.6875 27.296875 
z
M 18.109375 46.390625 
Q 20.953125 51.265625 25.265625 53.625 
Q 29.59375 56 35.59375 56 
Q 45.5625 56 51.78125 48.09375 
Q 58.015625 40.1875 58.015625 27.296875 
Q 58.015625 14.40625 51.78125 6.484375 
Q 45.5625 -1.421875 35.59375 -1.421875 
Q 29.59375 -1.421875 25.265625 0.953125 
Q 20.953125 3.328125 18.109375 8.203125 
L 18.109375 0 
L 9.078125 0 
L 9.078125 75.984375 
L 18.109375 75.984375 
z
" id="DejaVuSans-98"/>
      <path d="M 8.015625 75.875 
L 15.828125 75.875 
Q 23.140625 64.359375 26.78125 53.3125 
Q 30.421875 42.28125 30.421875 31.390625 
Q 30.421875 20.453125 26.78125 9.375 
Q 23.140625 -1.703125 15.828125 -13.1875 
L 8.015625 -13.1875 
Q 14.5 -2 17.703125 9.0625 
Q 20.90625 20.125 20.90625 31.390625 
Q 20.90625 42.671875 17.703125 53.65625 
Q 14.5 64.65625 8.015625 75.875 
z
" id="DejaVuSans-41"/>
     </defs>
     <g transform="translate(85.930618 165.719382)scale(0.18 -0.18)">
      <use xlink:href="#DejaVuSans-66"/>
      <use x="68.603516" xlink:href="#DejaVuSans-111"/>
      <use x="129.785156" xlink:href="#DejaVuSans-117"/>
      <use x="193.164062" xlink:href="#DejaVuSans-116"/>
      <use x="232.373047" xlink:href="#DejaVuSans-32"/>
      <use x="264.160156" xlink:href="#DejaVuSans-108"/>
      <use x="291.943359" xlink:href="#DejaVuSans-101"/>
      <use x="353.466797" xlink:href="#DejaVuSans-110"/>
      <use x="416.845703" xlink:href="#DejaVuSans-103"/>
      <use x="480.322266" xlink:href="#DejaVuSans-116"/>
      <use x="519.53125" xlink:href="#DejaVuSans-104"/>
      <use x="582.910156" xlink:href="#DejaVuSans-32"/>
      <use x="614.697266" xlink:href="#DejaVuSans-40"/>
      <use x="653.710938" xlink:href="#DejaVuSans-115"/>
      <use x="705.810547" xlink:href="#DejaVuSans-121"/>
      <use x="764.990234" xlink:href="#DejaVuSans-108"/>
      <use x="792.773438" xlink:href="#DejaVuSans-108"/>
      <use x="820.556641" xlink:href="#DejaVuSans-97"/>
      <use x="881.835938" xlink:href="#DejaVuSans-98"/>
      <use x="945.3125" xlink:href="#DejaVuSans-108"/>
      <use x="973.095703" xlink:href="#DejaVuSans-101"/>
      <use x="1034.619141" xlink:href="#DejaVuSans-115"/>
      <use x="1086.71875" xlink:href="#DejaVuSans-41"/>
     </g>
    </g>
   </g>
   <g id="matplotlib.axis_2">
    <g id="ytick_1">
     <g id="line2d_23">
      <defs>
       <path d="M 0 0 
L 10 0 
" id="ma84a372f8c" style="stroke:#000000;stroke-width:3;"/>
      </defs>
      <g>
       <use style="stroke:#000000;stroke-width:3;" x="65.942364" xlink:href="#ma84a372f8c" y="123.492819"/>
      </g>
     </g>
     <g id="text_5">
      <!-- 0.00 -->
      <defs>
       <path d="M 10.6875 12.40625 
L 21 12.40625 
L 21 0 
L 10.6875 0 
z
" id="DejaVuSans-46"/>
      </defs>
      <g transform="translate(24.770489 128.811726)scale(0.14 -0.14)">
       <use xlink:href="#DejaVuSans-48"/>
       <use x="63.623047" xlink:href="#DejaVuSans-46"/>
       <use x="95.410156" xlink:href="#DejaVuSans-48"/>
       <use x="159.033203" xlink:href="#DejaVuSans-48"/>
      </g>
     </g>
    </g>
    <g id="ytick_2">
     <g id="line2d_24">
      <g>
       <use style="stroke:#000000;stroke-width:3;" x="65.942364" xlink:href="#ma84a372f8c" y="93.949341"/>
      </g>
     </g>
     <g id="text_6">
      <!-- 0.25 -->
      <defs>
       <path d="M 19.1875 8.296875 
L 53.609375 8.296875 
L 53.609375 0 
L 7.328125 0 
L 7.328125 8.296875 
Q 12.9375 14.109375 22.625 23.890625 
Q 32.328125 33.6875 34.8125 36.53125 
Q 39.546875 41.84375 41.421875 45.53125 
Q 43.3125 49.21875 43.3125 52.78125 
Q 43.3125 58.59375 39.234375 62.25 
Q 35.15625 65.921875 28.609375 65.921875 
Q 23.96875 65.921875 18.8125 64.3125 
Q 13.671875 62.703125 7.8125 59.421875 
L 7.8125 69.390625 
Q 13.765625 71.78125 18.9375 73 
Q 24.125 74.21875 28.421875 74.21875 
Q 39.75 74.21875 46.484375 68.546875 
Q 53.21875 62.890625 53.21875 53.421875 
Q 53.21875 48.921875 51.53125 44.890625 
Q 49.859375 40.875 45.40625 35.40625 
Q 44.1875 33.984375 37.640625 27.21875 
Q 31.109375 20.453125 19.1875 8.296875 
z
" id="DejaVuSans-50"/>
       <path d="M 10.796875 72.90625 
L 49.515625 72.90625 
L 49.515625 64.59375 
L 19.828125 64.59375 
L 19.828125 46.734375 
Q 21.96875 47.46875 24.109375 47.828125 
Q 26.265625 48.1875 28.421875 48.1875 
Q 40.625 48.1875 47.75 41.5 
Q 54.890625 34.8125 54.890625 23.390625 
Q 54.890625 11.625 47.5625 5.09375 
Q 40.234375 -1.421875 26.90625 -1.421875 
Q 22.3125 -1.421875 17.546875 -0.640625 
Q 12.796875 0.140625 7.71875 1.703125 
L 7.71875 11.625 
Q 12.109375 9.234375 16.796875 8.0625 
Q 21.484375 6.890625 26.703125 6.890625 
Q 35.15625 6.890625 40.078125 11.328125 
Q 45.015625 15.765625 45.015625 23.390625 
Q 45.015625 31 40.078125 35.4375 
Q 35.15625 39.890625 26.703125 39.890625 
Q 22.75 39.890625 18.8125 39.015625 
Q 14.890625 38.140625 10.796875 36.28125 
z
" id="DejaVuSans-53"/>
      </defs>
      <g transform="translate(24.770489 99.268247)scale(0.14 -0.14)">
       <use xlink:href="#DejaVuSans-48"/>
       <use x="63.623047" xlink:href="#DejaVuSans-46"/>
       <use x="95.410156" xlink:href="#DejaVuSans-50"/>
       <use x="159.033203" xlink:href="#DejaVuSans-53"/>
      </g>
     </g>
    </g>
    <g id="ytick_3">
     <g id="line2d_25">
      <g>
       <use style="stroke:#000000;stroke-width:3;" x="65.942364" xlink:href="#ma84a372f8c" y="64.405863"/>
      </g>
     </g>
     <g id="text_7">
      <!-- 0.50 -->
      <g transform="translate(24.770489 69.724769)scale(0.14 -0.14)">
       <use xlink:href="#DejaVuSans-48"/>
       <use x="63.623047" xlink:href="#DejaVuSans-46"/>
       <use x="95.410156" xlink:href="#DejaVuSans-53"/>
       <use x="159.033203" xlink:href="#DejaVuSans-48"/>
      </g>
     </g>
    </g>
    <g id="ytick_4">
     <g id="line2d_26">
      <g>
       <use style="stroke:#000000;stroke-width:3;" x="65.942364" xlink:href="#ma84a372f8c" y="34.862385"/>
      </g>
     </g>
     <g id="text_8">
      <!-- 0.75 -->
      <defs>
       <path d="M 8.203125 72.90625 
L 55.078125 72.90625 
L 55.078125 68.703125 
L 28.609375 0 
L 18.3125 0 
L 43.21875 64.59375 
L 8.203125 64.59375 
z
" id="DejaVuSans-55"/>
      </defs>
      <g transform="translate(24.770489 40.181291)scale(0.14 -0.14)">
       <use xlink:href="#DejaVuSans-48"/>
       <use x="63.623047" xlink:href="#DejaVuSans-46"/>
       <use x="95.410156" xlink:href="#DejaVuSans-55"/>
       <use x="159.033203" xlink:href="#DejaVuSans-53"/>
      </g>
     </g>
    </g>
    <g id="ytick_5">
     <g id="line2d_27">
      <g>
       <use style="stroke:#000000;stroke-width:3;" x="65.942364" xlink:href="#ma84a372f8c" y="5.318906"/>
      </g>
     </g>
     <g id="text_9">
      <!-- 1.00 -->
      <g transform="translate(24.770489 10.637812)scale(0.14 -0.14)">
       <use xlink:href="#DejaVuSans-49"/>
       <use x="63.623047" xlink:href="#DejaVuSans-46"/>
       <use x="95.410156" xlink:href="#DejaVuSans-48"/>
       <use x="159.033203" xlink:href="#DejaVuSans-48"/>
      </g>
     </g>
    </g>
    <g id="text_10">
     <!-- Prob. Density -->
     <defs>
      <path d="M 19.671875 64.796875 
L 19.671875 37.40625 
L 32.078125 37.40625 
Q 38.96875 37.40625 42.71875 40.96875 
Q 46.484375 44.53125 46.484375 51.125 
Q 46.484375 57.671875 42.71875 61.234375 
Q 38.96875 64.796875 32.078125 64.796875 
z
M 9.8125 72.90625 
L 32.078125 72.90625 
Q 44.34375 72.90625 50.609375 67.359375 
Q 56.890625 61.8125 56.890625 51.125 
Q 56.890625 40.328125 50.609375 34.8125 
Q 44.34375 29.296875 32.078125 29.296875 
L 19.671875 29.296875 
L 19.671875 0 
L 9.8125 0 
z
" id="DejaVuSans-80"/>
      <path d="M 41.109375 46.296875 
Q 39.59375 47.171875 37.8125 47.578125 
Q 36.03125 48 33.890625 48 
Q 26.265625 48 22.1875 43.046875 
Q 18.109375 38.09375 18.109375 28.8125 
L 18.109375 0 
L 9.078125 0 
L 9.078125 54.6875 
L 18.109375 54.6875 
L 18.109375 46.1875 
Q 20.953125 51.171875 25.484375 53.578125 
Q 30.03125 56 36.53125 56 
Q 37.453125 56 38.578125 55.875 
Q 39.703125 55.765625 41.0625 55.515625 
z
" id="DejaVuSans-114"/>
      <path d="M 19.671875 64.796875 
L 19.671875 8.109375 
L 31.59375 8.109375 
Q 46.6875 8.109375 53.6875 14.9375 
Q 60.6875 21.78125 60.6875 36.53125 
Q 60.6875 51.171875 53.6875 57.984375 
Q 46.6875 64.796875 31.59375 64.796875 
z
M 9.8125 72.90625 
L 30.078125 72.90625 
Q 51.265625 72.90625 61.171875 64.09375 
Q 71.09375 55.28125 71.09375 36.53125 
Q 71.09375 17.671875 61.125 8.828125 
Q 51.171875 0 30.078125 0 
L 9.8125 0 
z
" id="DejaVuSans-68"/>
      <path d="M 9.421875 54.6875 
L 18.40625 54.6875 
L 18.40625 0 
L 9.421875 0 
z
M 9.421875 75.984375 
L 18.40625 75.984375 
L 18.40625 64.59375 
L 9.421875 64.59375 
z
" id="DejaVuSans-105"/>
     </defs>
     <g transform="translate(13.677187 124.684769)rotate(-90)scale(0.18 -0.18)">
      <use xlink:href="#DejaVuSans-80"/>
      <use x="60.287109" xlink:href="#DejaVuSans-114"/>
      <use x="101.369141" xlink:href="#DejaVuSans-111"/>
      <use x="162.550781" xlink:href="#DejaVuSans-98"/>
      <use x="226.027344" xlink:href="#DejaVuSans-46"/>
      <use x="257.814453" xlink:href="#DejaVuSans-32"/>
      <use x="289.601562" xlink:href="#DejaVuSans-68"/>
      <use x="366.603516" xlink:href="#DejaVuSans-101"/>
      <use x="428.126953" xlink:href="#DejaVuSans-110"/>
      <use x="491.505859" xlink:href="#DejaVuSans-115"/>
      <use x="543.605469" xlink:href="#DejaVuSans-105"/>
      <use x="571.388672" xlink:href="#DejaVuSans-116"/>
      <use x="610.597656" xlink:href="#DejaVuSans-121"/>
     </g>
    </g>
   </g>
   <g id="line2d_28">
    <path clip-path="url(#peea1c3bffc)" d="M 148.103921 123.491156 
L 168.623822 123.39211 
L 185.039743 123.059391 
L 193.247704 122.710444 
L 199.403674 122.245104 
L 228.131537 119.502858 
L 232.235517 118.753696 
L 234.287507 118.231993 
L 236.339497 117.582437 
L 238.391487 116.781681 
L 240.443477 115.805689 
L 242.495468 114.629589 
L 244.547458 113.227461 
L 246.599448 111.572391 
L 248.651438 109.637184 
L 250.703428 107.396091 
L 252.755418 104.82752 
L 254.807409 101.917285 
L 256.859399 98.661596 
L 258.911389 95.069099 
L 260.963379 91.161779 
L 265.067359 82.559332 
L 275.32731 59.927505 
L 277.3793 56.074912 
L 279.43129 52.730818 
L 281.483281 49.995794 
L 283.535271 47.948725 
L 285.587261 46.647281 
L 287.639251 46.131455 
L 289.691241 46.427531 
L 291.743231 47.549864 
L 293.795221 49.49902 
L 295.847212 52.256329 
L 297.899202 55.776436 
L 299.951192 59.98032 
L 302.003182 64.751491 
L 306.107162 75.357959 
L 310.211143 86.124996 
L 312.263133 91.107388 
L 314.315123 95.627767 
L 316.367113 99.592597 
L 318.419103 102.954477 
L 320.471093 105.708465 
L 322.523084 107.883995 
L 324.575074 109.534594 
L 326.627064 110.727523 
L 328.679054 111.534955 
L 330.731044 112.027678 
L 332.783034 112.271666 
L 334.835025 112.327317 
L 338.939005 112.095564 
L 343.042985 111.764548 
L 345.094975 111.695088 
L 347.146965 111.754922 
L 349.198956 111.981821 
L 351.250946 112.39835 
L 353.302936 113.007958 
L 355.354926 113.793674 
L 359.458906 115.738202 
L 365.614877 118.803427 
L 369.718857 120.440831 
L 373.822837 121.604827 
L 377.926818 122.361828 
L 382.030798 122.836317 
L 388.186769 123.232834 
L 396.394729 123.440808 
L 408.70667 123.490857 
L 408.70667 123.490857 
" style="fill:none;stroke:#8172b3;stroke-linecap:square;stroke-width:6;"/>
   </g>
   <g id="line2d_29">
    <path clip-path="url(#peea1c3bffc)" d="M 288.233663 123.492819 
L 288.233663 5.318906 
" style="fill:none;stroke:#8172b3;stroke-dasharray:11.1,4.8;stroke-dashoffset:0;stroke-opacity:0.5;stroke-width:3;"/>
   </g>
   <g id="patch_3">
    <path d="M 65.942364 123.492819 
L 65.942364 5.318906 
" style="fill:none;stroke:#000000;stroke-linecap:square;stroke-linejoin:miter;stroke-width:3;"/>
   </g>
   <g id="patch_4">
    <path d="M 308.55106 123.492819 
L 308.55106 5.318906 
" style="fill:none;stroke:#000000;stroke-linecap:square;stroke-linejoin:miter;stroke-width:3;"/>
   </g>
   <g id="patch_5">
    <path d="M 65.942364 123.492819 
L 308.55106 123.492819 
" style="fill:none;stroke:#000000;stroke-linecap:square;stroke-linejoin:miter;stroke-width:3;"/>
   </g>
   <g id="patch_6">
    <path d="M 65.942364 5.318906 
L 308.55106 5.318906 
" style="fill:none;stroke:#000000;stroke-linecap:square;stroke-linejoin:miter;stroke-width:3;"/>
   </g>
  </g>
  <g id="axes_2">
   <g id="patch_7">
    <path d="M 939.333668 123.492819 
L 1181.942364 123.492819 
L 1181.942364 5.318906 
L 939.333668 5.318906 
z
" style="fill:#ffffff;"/>
   </g>
   <g id="PolyCollection_2">
    <path clip-path="url(#p5489212e25)" d="M 948.46273 123.482945 
L 948.46273 123.492819 
L 950.925734 123.492819 
L 953.388737 123.492819 
L 955.85174 123.492819 
L 958.314744 123.492819 
L 960.777747 123.492819 
L 963.240751 123.492819 
L 965.703754 123.492819 
L 968.166757 123.492819 
L 970.629761 123.492819 
L 973.092764 123.492819 
L 975.555768 123.492819 
L 978.018771 123.492819 
L 980.481774 123.492819 
L 982.944778 123.492819 
L 985.407781 123.492819 
L 987.870785 123.492819 
L 990.333788 123.492819 
L 992.796791 123.492819 
L 995.259795 123.492819 
L 997.722798 123.492819 
L 1000.185802 123.492819 
L 1002.648805 123.492819 
L 1005.111808 123.492819 
L 1007.574812 123.492819 
L 1010.037815 123.492819 
L 1012.500819 123.492819 
L 1014.963822 123.492819 
L 1017.426825 123.492819 
L 1019.889829 123.492819 
L 1022.352832 123.492819 
L 1024.815836 123.492819 
L 1027.278839 123.492819 
L 1029.741842 123.492819 
L 1032.204846 123.492819 
L 1034.667849 123.492819 
L 1037.130853 123.492819 
L 1039.593856 123.492819 
L 1042.056859 123.492819 
L 1044.519863 123.492819 
L 1046.982866 123.492819 
L 1049.44587 123.492819 
L 1051.908873 123.492819 
L 1054.371876 123.492819 
L 1056.83488 123.492819 
L 1059.297883 123.492819 
L 1061.760887 123.492819 
L 1064.22389 123.492819 
L 1066.686893 123.492819 
L 1069.149897 123.492819 
L 1071.6129 123.492819 
L 1074.075903 123.492819 
L 1076.538907 123.492819 
L 1079.00191 123.492819 
L 1081.464914 123.492819 
L 1083.927917 123.492819 
L 1086.39092 123.492819 
L 1088.853924 123.492819 
L 1091.316927 123.492819 
L 1093.779931 123.492819 
L 1096.242934 123.492819 
L 1098.705937 123.492819 
L 1101.168941 123.492819 
L 1103.631944 123.492819 
L 1106.094948 123.492819 
L 1108.557951 123.492819 
L 1111.020954 123.492819 
L 1113.483958 123.492819 
L 1115.946961 123.492819 
L 1118.409965 123.492819 
L 1120.872968 123.492819 
L 1123.335971 123.492819 
L 1125.798975 123.492819 
L 1128.261978 123.492819 
L 1130.724982 123.492819 
L 1133.187985 123.492819 
L 1135.650988 123.492819 
L 1138.113992 123.492819 
L 1140.576995 123.492819 
L 1143.039999 123.492819 
L 1145.503002 123.492819 
L 1147.966005 123.492819 
L 1150.429009 123.492819 
L 1152.892012 123.492819 
L 1155.355016 123.492819 
L 1157.818019 123.492819 
L 1160.281022 123.492819 
L 1162.744026 123.492819 
L 1165.207029 123.492819 
L 1167.670033 123.492819 
L 1170.133036 123.492819 
L 1172.596039 123.492819 
L 1175.059043 123.492819 
L 1177.522046 123.492819 
L 1179.98505 123.492819 
L 1182.448053 123.492819 
L 1184.911056 123.492819 
L 1187.37406 123.492819 
L 1189.837063 123.492819 
L 1192.300066 123.492819 
L 1194.76307 123.492819 
L 1197.226073 123.492819 
L 1199.689077 123.492819 
L 1202.15208 123.492819 
L 1204.615083 123.492819 
L 1207.078087 123.492819 
L 1209.54109 123.492819 
L 1212.004094 123.492819 
L 1214.467097 123.492819 
L 1216.9301 123.492819 
L 1219.393104 123.492819 
L 1221.856107 123.492819 
L 1224.319111 123.492819 
L 1226.782114 123.492819 
L 1229.245117 123.492819 
L 1231.708121 123.492819 
L 1234.171124 123.492819 
L 1236.634128 123.492819 
L 1239.097131 123.492819 
L 1241.560134 123.492819 
L 1244.023138 123.492819 
L 1246.486141 123.492819 
L 1248.949145 123.492819 
L 1251.412148 123.492819 
L 1253.875151 123.492819 
L 1256.338155 123.492819 
L 1258.801158 123.492819 
L 1261.264162 123.492819 
L 1261.264162 123.488276 
L 1261.264162 123.488276 
L 1258.801158 123.490396 
L 1256.338155 123.490687 
L 1253.875151 123.48972 
L 1251.412148 123.487573 
L 1248.949145 123.484083 
L 1246.486141 123.479036 
L 1244.023138 123.472307 
L 1241.560134 123.463933 
L 1239.097131 123.45409 
L 1236.634128 123.442967 
L 1234.171124 123.43058 
L 1231.708121 123.416618 
L 1229.245117 123.400411 
L 1226.782114 123.381038 
L 1224.319111 123.357506 
L 1221.856107 123.328828 
L 1219.393104 123.293866 
L 1216.9301 123.250928 
L 1214.467097 123.197255 
L 1212.004094 123.128632 
L 1209.54109 123.039338 
L 1207.078087 122.922539 
L 1204.615083 122.771052 
L 1202.15208 122.578176 
L 1199.689077 122.338044 
L 1197.226073 122.044674 
L 1194.76307 121.68891 
L 1192.300066 121.252845 
L 1189.837063 120.702195 
L 1187.37406 119.978218 
L 1184.911056 118.991596 
L 1182.448053 117.62108 
L 1179.98505 115.71947 
L 1177.522046 113.128961 
L 1175.059043 109.706709 
L 1172.596039 105.359259 
L 1170.133036 100.080728 
L 1167.670033 93.985157 
L 1165.207029 87.320445 
L 1162.744026 80.452769 
L 1160.281022 73.817911 
L 1157.818019 67.847684 
L 1155.355016 62.890699 
L 1152.892012 59.150967 
L 1150.429009 56.662307 
L 1147.966005 55.303306 
L 1145.503002 54.843246 
L 1143.039999 55.001042 
L 1140.576995 55.500036 
L 1138.113992 56.109185 
L 1135.650988 56.669859 
L 1133.187985 57.111741 
L 1130.724982 57.459898 
L 1128.261978 57.830901 
L 1125.798975 58.413621 
L 1123.335971 59.432998 
L 1120.872968 61.101837 
L 1118.409965 63.572524 
L 1115.946961 66.902917 
L 1113.483958 71.046363 
L 1111.020954 75.866575 
L 1108.557951 81.168774 
L 1106.094948 86.733854 
L 1103.631944 92.344584 
L 1101.168941 97.799942 
L 1098.705937 102.921071 
L 1096.242934 107.555679 
L 1093.779931 111.585724 
L 1091.316927 114.938028 
L 1088.853924 117.593021 
L 1086.39092 119.585944 
L 1083.927917 120.997864 
L 1081.464914 121.938473 
L 1079.00191 122.525897 
L 1076.538907 122.86923 
L 1074.075903 123.057429 
L 1071.6129 123.155273 
L 1069.149897 123.204882 
L 1066.686893 123.230384 
L 1064.22389 123.243553 
L 1061.760887 123.248979 
L 1059.297883 123.248024 
L 1056.83488 123.24135 
L 1054.371876 123.230145 
L 1051.908873 123.216316 
L 1049.44587 123.202048 
L 1046.982866 123.189085 
L 1044.519863 123.178071 
L 1042.056859 123.168218 
L 1039.593856 123.15748 
L 1037.130853 123.143257 
L 1034.667849 123.12342 
L 1032.204846 123.097272 
L 1029.741842 123.066011 
L 1027.278839 123.032474 
L 1024.815836 123.000285 
L 1022.352832 122.972791 
L 1019.889829 122.952197 
L 1017.426825 122.939103 
L 1014.963822 122.932482 
L 1012.500819 122.930041 
L 1010.037815 122.928986 
L 1007.574812 122.927119 
L 1005.111808 122.923878 
L 1002.648805 122.920656 
L 1000.185802 122.919826 
L 997.722798 122.922571 
L 995.259795 122.926618 
L 992.796791 122.925442 
L 990.333788 122.91007 
L 987.870785 122.873265 
L 985.407781 122.814342 
L 982.944778 122.742091 
L 980.481774 122.673861 
L 978.018771 122.630615 
L 975.555768 122.629825 
L 973.092764 122.679257 
L 970.629761 122.77438 
L 968.166757 122.900335 
L 965.703754 123.03729 
L 963.240751 123.166601 
L 960.777747 123.275332 
L 958.314744 123.357867 
L 955.85174 123.414891 
L 953.388737 123.450933 
L 950.925734 123.471835 
L 948.46273 123.482945 
z
" style="fill:#4c72b0;fill-opacity:0.25;"/>
   </g>
   <g id="matplotlib.axis_3">
    <g id="xtick_23">
     <g id="line2d_30">
      <g>
       <use style="stroke:#000000;stroke-width:3;" x="939.333668" xlink:href="#m85519ca00f" y="123.492819"/>
      </g>
     </g>
     <g id="text_11">
      <!-- 1 -->
      <g transform="translate(934.879918 144.130632)scale(0.14 -0.14)">
       <use xlink:href="#DejaVuSans-49"/>
      </g>
     </g>
    </g>
    <g id="xtick_24">
     <g id="line2d_31">
      <g>
       <use style="stroke:#000000;stroke-width:3;" x="1060.638016" xlink:href="#m85519ca00f" y="123.492819"/>
      </g>
     </g>
     <g id="text_12">
      <!-- 10 -->
      <g transform="translate(1051.730516 144.130632)scale(0.14 -0.14)">
       <use xlink:href="#DejaVuSans-49"/>
       <use x="63.623047" xlink:href="#DejaVuSans-48"/>
      </g>
     </g>
    </g>
    <g id="xtick_25">
     <g id="line2d_32">
      <g>
       <use style="stroke:#000000;stroke-width:3;" x="1181.942364" xlink:href="#m85519ca00f" y="123.492819"/>
      </g>
     </g>
     <g id="text_13">
      <!-- 100 -->
      <g transform="translate(1168.581114 144.130632)scale(0.14 -0.14)">
       <use xlink:href="#DejaVuSans-49"/>
       <use x="63.623047" xlink:href="#DejaVuSans-48"/>
       <use x="127.246094" xlink:href="#DejaVuSans-48"/>
      </g>
     </g>
    </g>
    <g id="xtick_26">
     <g id="line2d_33">
      <g>
       <use style="stroke:#000000;stroke-width:2;" x="939.333668" xlink:href="#medc8d51996" y="123.492819"/>
      </g>
     </g>
    </g>
    <g id="xtick_27">
     <g id="line2d_34">
      <g>
       <use style="stroke:#000000;stroke-width:2;" x="975.849916" xlink:href="#medc8d51996" y="123.492819"/>
      </g>
     </g>
    </g>
    <g id="xtick_28">
     <g id="line2d_35">
      <g>
       <use style="stroke:#000000;stroke-width:2;" x="997.210551" xlink:href="#medc8d51996" y="123.492819"/>
      </g>
     </g>
    </g>
    <g id="xtick_29">
     <g id="line2d_36">
      <g>
       <use style="stroke:#000000;stroke-width:2;" x="1012.366163" xlink:href="#medc8d51996" y="123.492819"/>
      </g>
     </g>
    </g>
    <g id="xtick_30">
     <g id="line2d_37">
      <g>
       <use style="stroke:#000000;stroke-width:2;" x="1024.121769" xlink:href="#medc8d51996" y="123.492819"/>
      </g>
     </g>
    </g>
    <g id="xtick_31">
     <g id="line2d_38">
      <g>
       <use style="stroke:#000000;stroke-width:2;" x="1033.726798" xlink:href="#medc8d51996" y="123.492819"/>
      </g>
     </g>
    </g>
    <g id="xtick_32">
     <g id="line2d_39">
      <g>
       <use style="stroke:#000000;stroke-width:2;" x="1041.847735" xlink:href="#medc8d51996" y="123.492819"/>
      </g>
     </g>
    </g>
    <g id="xtick_33">
     <g id="line2d_40">
      <g>
       <use style="stroke:#000000;stroke-width:2;" x="1048.88241" xlink:href="#medc8d51996" y="123.492819"/>
      </g>
     </g>
    </g>
    <g id="xtick_34">
     <g id="line2d_41">
      <g>
       <use style="stroke:#000000;stroke-width:2;" x="1055.087434" xlink:href="#medc8d51996" y="123.492819"/>
      </g>
     </g>
    </g>
    <g id="xtick_35">
     <g id="line2d_42">
      <g>
       <use style="stroke:#000000;stroke-width:2;" x="1060.638016" xlink:href="#medc8d51996" y="123.492819"/>
      </g>
     </g>
    </g>
    <g id="xtick_36">
     <g id="line2d_43">
      <g>
       <use style="stroke:#000000;stroke-width:2;" x="1097.154264" xlink:href="#medc8d51996" y="123.492819"/>
      </g>
     </g>
    </g>
    <g id="xtick_37">
     <g id="line2d_44">
      <g>
       <use style="stroke:#000000;stroke-width:2;" x="1118.514899" xlink:href="#medc8d51996" y="123.492819"/>
      </g>
     </g>
    </g>
    <g id="xtick_38">
     <g id="line2d_45">
      <g>
       <use style="stroke:#000000;stroke-width:2;" x="1133.670511" xlink:href="#medc8d51996" y="123.492819"/>
      </g>
     </g>
    </g>
    <g id="xtick_39">
     <g id="line2d_46">
      <g>
       <use style="stroke:#000000;stroke-width:2;" x="1145.426117" xlink:href="#medc8d51996" y="123.492819"/>
      </g>
     </g>
    </g>
    <g id="xtick_40">
     <g id="line2d_47">
      <g>
       <use style="stroke:#000000;stroke-width:2;" x="1155.031146" xlink:href="#medc8d51996" y="123.492819"/>
      </g>
     </g>
    </g>
    <g id="xtick_41">
     <g id="line2d_48">
      <g>
       <use style="stroke:#000000;stroke-width:2;" x="1163.152083" xlink:href="#medc8d51996" y="123.492819"/>
      </g>
     </g>
    </g>
    <g id="xtick_42">
     <g id="line2d_49">
      <g>
       <use style="stroke:#000000;stroke-width:2;" x="1170.186758" xlink:href="#medc8d51996" y="123.492819"/>
      </g>
     </g>
    </g>
    <g id="xtick_43">
     <g id="line2d_50">
      <g>
       <use style="stroke:#000000;stroke-width:2;" x="1176.391782" xlink:href="#medc8d51996" y="123.492819"/>
      </g>
     </g>
    </g>
    <g id="xtick_44">
     <g id="line2d_51">
      <g>
       <use style="stroke:#000000;stroke-width:2;" x="1181.942364" xlink:href="#medc8d51996" y="123.492819"/>
      </g>
     </g>
    </g>
    <g id="text_14">
     <!-- Bout length (syllables) -->
     <g transform="translate(959.321923 165.719382)scale(0.18 -0.18)">
      <use xlink:href="#DejaVuSans-66"/>
      <use x="68.603516" xlink:href="#DejaVuSans-111"/>
      <use x="129.785156" xlink:href="#DejaVuSans-117"/>
      <use x="193.164062" xlink:href="#DejaVuSans-116"/>
      <use x="232.373047" xlink:href="#DejaVuSans-32"/>
      <use x="264.160156" xlink:href="#DejaVuSans-108"/>
      <use x="291.943359" xlink:href="#DejaVuSans-101"/>
      <use x="353.466797" xlink:href="#DejaVuSans-110"/>
      <use x="416.845703" xlink:href="#DejaVuSans-103"/>
      <use x="480.322266" xlink:href="#DejaVuSans-116"/>
      <use x="519.53125" xlink:href="#DejaVuSans-104"/>
      <use x="582.910156" xlink:href="#DejaVuSans-32"/>
      <use x="614.697266" xlink:href="#DejaVuSans-40"/>
      <use x="653.710938" xlink:href="#DejaVuSans-115"/>
      <use x="705.810547" xlink:href="#DejaVuSans-121"/>
      <use x="764.990234" xlink:href="#DejaVuSans-108"/>
      <use x="792.773438" xlink:href="#DejaVuSans-108"/>
      <use x="820.556641" xlink:href="#DejaVuSans-97"/>
      <use x="881.835938" xlink:href="#DejaVuSans-98"/>
      <use x="945.3125" xlink:href="#DejaVuSans-108"/>
      <use x="973.095703" xlink:href="#DejaVuSans-101"/>
      <use x="1034.619141" xlink:href="#DejaVuSans-115"/>
      <use x="1086.71875" xlink:href="#DejaVuSans-41"/>
     </g>
    </g>
   </g>
   <g id="matplotlib.axis_4">
    <g id="ytick_6">
     <g id="line2d_52">
      <g>
       <use style="stroke:#000000;stroke-width:3;" x="939.333668" xlink:href="#ma84a372f8c" y="123.492819"/>
      </g>
     </g>
    </g>
    <g id="ytick_7">
     <g id="line2d_53">
      <g>
       <use style="stroke:#000000;stroke-width:3;" x="939.333668" xlink:href="#ma84a372f8c" y="93.949341"/>
      </g>
     </g>
    </g>
    <g id="ytick_8">
     <g id="line2d_54">
      <g>
       <use style="stroke:#000000;stroke-width:3;" x="939.333668" xlink:href="#ma84a372f8c" y="64.405863"/>
      </g>
     </g>
    </g>
    <g id="ytick_9">
     <g id="line2d_55">
      <g>
       <use style="stroke:#000000;stroke-width:3;" x="939.333668" xlink:href="#ma84a372f8c" y="34.862385"/>
      </g>
     </g>
    </g>
    <g id="ytick_10">
     <g id="line2d_56">
      <g>
       <use style="stroke:#000000;stroke-width:3;" x="939.333668" xlink:href="#ma84a372f8c" y="5.318906"/>
      </g>
     </g>
    </g>
   </g>
   <g id="line2d_57">
    <path clip-path="url(#p5489212e25)" d="M 948.46273 123.482945 
L 958.314744 123.357867 
L 965.703754 123.03729 
L 973.092764 122.679257 
L 978.018771 122.630615 
L 1000.185802 122.919826 
L 1027.278839 123.032474 
L 1044.519863 123.178071 
L 1069.149897 123.204882 
L 1074.075903 123.057429 
L 1076.538907 122.86923 
L 1079.00191 122.525897 
L 1081.464914 121.938473 
L 1083.927917 120.997864 
L 1086.39092 119.585944 
L 1088.853924 117.593021 
L 1091.316927 114.938028 
L 1093.779931 111.585724 
L 1096.242934 107.555679 
L 1098.705937 102.921071 
L 1101.168941 97.799942 
L 1111.020954 75.866575 
L 1113.483958 71.046363 
L 1115.946961 66.902917 
L 1118.409965 63.572524 
L 1120.872968 61.101837 
L 1123.335971 59.432998 
L 1125.798975 58.413621 
L 1128.261978 57.830901 
L 1135.650988 56.669859 
L 1143.039999 55.001042 
L 1145.503002 54.843246 
L 1147.966005 55.303306 
L 1150.429009 56.662307 
L 1152.892012 59.150967 
L 1155.355016 62.890699 
L 1157.818019 67.847684 
L 1160.281022 73.817911 
L 1170.133036 100.080728 
L 1172.596039 105.359259 
L 1175.059043 109.706709 
L 1177.522046 113.128961 
L 1179.98505 115.71947 
L 1182.448053 117.62108 
L 1184.911056 118.991596 
L 1187.37406 119.978218 
L 1189.837063 120.702195 
L 1192.300066 121.252845 
L 1196.303614 121.911431 
L 1196.303614 121.911431 
" style="fill:none;stroke:#4c72b0;stroke-linecap:square;stroke-width:6;"/>
   </g>
   <g id="line2d_58">
    <path clip-path="url(#p5489212e25)" d="M 1136.240865 123.492819 
L 1136.240865 5.318906 
" style="fill:none;stroke:#4c72b0;stroke-dasharray:11.1,4.8;stroke-dashoffset:0;stroke-opacity:0.5;stroke-width:3;"/>
   </g>
   <g id="patch_8">
    <path d="M 939.333668 123.492819 
L 939.333668 5.318906 
" style="fill:none;stroke:#000000;stroke-linecap:square;stroke-linejoin:miter;stroke-width:3;"/>
   </g>
   <g id="patch_9">
    <path d="M 1181.942364 123.492819 
L 1181.942364 5.318906 
" style="fill:none;stroke:#000000;stroke-linecap:square;stroke-linejoin:miter;stroke-width:3;"/>
   </g>
   <g id="patch_10">
    <path d="M 939.333668 123.492819 
L 1181.942364 123.492819 
" style="fill:none;stroke:#000000;stroke-linecap:square;stroke-linejoin:miter;stroke-width:3;"/>
   </g>
   <g id="patch_11">
    <path d="M 939.333668 5.318906 
L 1181.942364 5.318906 
" style="fill:none;stroke:#000000;stroke-linecap:square;stroke-linejoin:miter;stroke-width:3;"/>
   </g>
  </g>
  <g id="axes_3">
   <g id="patch_12">
    <path d="M 648.203234 123.492819 
L 890.811929 123.492819 
L 890.811929 5.318906 
L 648.203234 5.318906 
z
" style="fill:#ffffff;"/>
   </g>
   <g id="PolyCollection_3">
    <path clip-path="url(#p4ad64f56ae)" d="M 620.816048 123.370318 
L 620.816048 123.492819 
L 624.16092 123.492819 
L 627.505791 123.492819 
L 630.850663 123.492819 
L 634.195535 123.492819 
L 637.540406 123.492819 
L 640.885278 123.492819 
L 644.23015 123.492819 
L 647.575021 123.492819 
L 650.919893 123.492819 
L 654.264765 123.492819 
L 657.609636 123.492819 
L 660.954508 123.492819 
L 664.29938 123.492819 
L 667.644251 123.492819 
L 670.989123 123.492819 
L 674.333994 123.492819 
L 677.678866 123.492819 
L 681.023738 123.492819 
L 684.368609 123.492819 
L 687.713481 123.492819 
L 691.058353 123.492819 
L 694.403224 123.492819 
L 697.748096 123.492819 
L 701.092968 123.492819 
L 704.437839 123.492819 
L 707.782711 123.492819 
L 711.127582 123.492819 
L 714.472454 123.492819 
L 717.817326 123.492819 
L 721.162197 123.492819 
L 724.507069 123.492819 
L 727.851941 123.492819 
L 731.196812 123.492819 
L 734.541684 123.492819 
L 737.886556 123.492819 
L 741.231427 123.492819 
L 744.576299 123.492819 
L 747.92117 123.492819 
L 751.266042 123.492819 
L 754.610914 123.492819 
L 757.955785 123.492819 
L 761.300657 123.492819 
L 764.645529 123.492819 
L 767.9904 123.492819 
L 771.335272 123.492819 
L 774.680144 123.492819 
L 778.025015 123.492819 
L 781.369887 123.492819 
L 784.714758 123.492819 
L 788.05963 123.492819 
L 791.404502 123.492819 
L 794.749373 123.492819 
L 798.094245 123.492819 
L 801.439117 123.492819 
L 804.783988 123.492819 
L 808.12886 123.492819 
L 811.473732 123.492819 
L 814.818603 123.492819 
L 818.163475 123.492819 
L 821.508346 123.492819 
L 824.853218 123.492819 
L 828.19809 123.492819 
L 831.542961 123.492819 
L 834.887833 123.492819 
L 838.232705 123.492819 
L 841.577576 123.492819 
L 844.922448 123.492819 
L 848.26732 123.492819 
L 851.612191 123.492819 
L 854.957063 123.492819 
L 858.301934 123.492819 
L 861.646806 123.492819 
L 864.991678 123.492819 
L 868.336549 123.492819 
L 871.681421 123.492819 
L 875.026293 123.492819 
L 878.371164 123.492819 
L 881.716036 123.492819 
L 885.060908 123.492819 
L 888.405779 123.492819 
L 891.750651 123.492819 
L 895.095522 123.492819 
L 898.440394 123.492819 
L 901.785266 123.492819 
L 905.130137 123.492819 
L 908.475009 123.492819 
L 911.819881 123.492819 
L 915.164752 123.492819 
L 918.509624 123.492819 
L 921.854496 123.492819 
L 925.199367 123.492819 
L 928.544239 123.492819 
L 931.88911 123.492819 
L 935.233982 123.492819 
L 938.578854 123.492819 
L 941.923725 123.492819 
L 945.268597 123.492819 
L 948.613469 123.492819 
L 951.95834 123.492819 
L 955.303212 123.492819 
L 958.648084 123.492819 
L 961.992955 123.492819 
L 965.337827 123.492819 
L 968.682698 123.492819 
L 972.02757 123.492819 
L 975.372442 123.492819 
L 978.717313 123.492819 
L 982.062185 123.492819 
L 985.407057 123.492819 
L 988.751928 123.492819 
L 992.0968 123.492819 
L 995.441672 123.492819 
L 998.786543 123.492819 
L 1002.131415 123.492819 
L 1005.476286 123.492819 
L 1008.821158 123.492819 
L 1012.16603 123.492819 
L 1015.510901 123.492819 
L 1018.855773 123.492819 
L 1022.200645 123.492819 
L 1025.545516 123.492819 
L 1028.890388 123.492819 
L 1032.23526 123.492819 
L 1035.580131 123.492819 
L 1038.925003 123.492819 
L 1042.269874 123.492819 
L 1045.614746 123.492819 
L 1045.614746 123.450643 
L 1045.614746 123.450643 
L 1042.269874 123.470712 
L 1038.925003 123.460493 
L 1035.580131 123.42445 
L 1032.23526 123.355601 
L 1028.890388 123.245884 
L 1025.545516 123.094798 
L 1022.200645 122.914865 
L 1018.855773 122.730591 
L 1015.510901 122.57032 
L 1012.16603 122.455431 
L 1008.821158 122.393386 
L 1005.476286 122.377633 
L 1002.131415 122.39215 
L 998.786543 122.416779 
L 995.441672 122.431656 
L 992.0968 122.420232 
L 988.751928 122.368969 
L 985.407057 122.262132 
L 982.062185 122.074889 
L 978.717313 121.77226 
L 975.372442 121.31856 
L 972.02757 120.693448 
L 968.682698 119.905009 
L 965.337827 118.992548 
L 961.992955 118.019006 
L 958.648084 117.05798 
L 955.303212 116.17944 
L 951.95834 115.434533 
L 948.613469 114.840362 
L 945.268597 114.371563 
L 941.923725 113.968458 
L 938.578854 113.563203 
L 935.233982 113.110264 
L 931.88911 112.601085 
L 928.544239 112.053766 
L 925.199367 111.488221 
L 921.854496 110.908674 
L 918.509624 110.309036 
L 915.164752 109.697743 
L 911.819881 109.119855 
L 908.475009 108.649656 
L 905.130137 108.344915 
L 901.785266 108.188134 
L 898.440394 108.06349 
L 895.095522 107.801654 
L 891.750651 107.271661 
L 888.405779 106.455141 
L 885.060908 105.448551 
L 881.716036 104.397537 
L 878.371164 103.420426 
L 875.026293 102.578091 
L 871.681421 101.898981 
L 868.336549 101.418041 
L 864.991678 101.181105 
L 861.646806 101.20582 
L 858.301934 101.437387 
L 854.957063 101.747647 
L 851.612191 101.989578 
L 848.26732 102.07068 
L 844.922448 101.993345 
L 841.577576 101.840095 
L 838.232705 101.725633 
L 834.887833 101.754802 
L 831.542961 102.004914 
L 828.19809 102.520179 
L 824.853218 103.29936 
L 821.508346 104.278428 
L 818.163475 105.32845 
L 814.818603 106.282884 
L 811.473732 106.988271 
L 808.12886 107.359897 
L 804.783988 107.421463 
L 801.439117 107.306792 
L 798.094245 107.208891 
L 794.749373 107.290698 
L 791.404502 107.607775 
L 788.05963 108.095884 
L 784.714758 108.630332 
L 781.369887 109.108193 
L 778.025015 109.49393 
L 774.680144 109.809899 
L 771.335272 110.098875 
L 767.9904 110.394364 
L 764.645529 110.712546 
L 761.300657 111.059259 
L 757.955785 111.440697 
L 754.610914 111.868596 
L 751.266042 112.354065 
L 747.92117 112.892455 
L 744.576299 113.451285 
L 741.231427 113.972813 
L 737.886556 114.392345 
L 734.541684 114.665786 
L 731.196812 114.798975 
L 727.851941 114.86485 
L 724.507069 114.98474 
L 721.162197 115.265571 
L 717.817326 115.732183 
L 714.472454 116.317044 
L 711.127582 116.916137 
L 707.782711 117.440139 
L 704.437839 117.796017 
L 701.092968 117.837889 
L 697.748096 117.398242 
L 694.403224 116.439756 
L 691.058353 115.212384 
L 687.713481 114.23548 
L 684.368609 114.0492 
L 681.023738 114.891806 
L 677.678866 116.546074 
L 674.333994 118.459499 
L 670.989123 120.017734 
L 667.644251 120.76608 
L 664.29938 120.489335 
L 660.954508 119.216679 
L 657.609636 117.239113 
L 654.264765 115.114318 
L 650.919893 113.549581 
L 647.575021 113.128873 
L 644.23015 114.025941 
L 640.885278 115.919534 
L 637.540406 118.188409 
L 634.195535 120.240475 
L 630.850663 121.747314 
L 627.505791 122.67282 
L 624.16092 123.155404 
L 620.816048 123.370318 
z
" style="fill:#c44e52;fill-opacity:0.25;"/>
   </g>
   <g id="matplotlib.axis_5">
    <g id="xtick_45">
     <g id="line2d_59">
      <g>
       <use style="stroke:#000000;stroke-width:3;" x="648.203234" xlink:href="#m85519ca00f" y="123.492819"/>
      </g>
     </g>
     <g id="text_15">
      <!-- 1 -->
      <g transform="translate(643.749484 144.130632)scale(0.14 -0.14)">
       <use xlink:href="#DejaVuSans-49"/>
      </g>
     </g>
    </g>
    <g id="xtick_46">
     <g id="line2d_60">
      <g>
       <use style="stroke:#000000;stroke-width:3;" x="769.507582" xlink:href="#m85519ca00f" y="123.492819"/>
      </g>
     </g>
     <g id="text_16">
      <!-- 10 -->
      <g transform="translate(760.600082 144.130632)scale(0.14 -0.14)">
       <use xlink:href="#DejaVuSans-49"/>
       <use x="63.623047" xlink:href="#DejaVuSans-48"/>
      </g>
     </g>
    </g>
    <g id="xtick_47">
     <g id="line2d_61">
      <g>
       <use style="stroke:#000000;stroke-width:3;" x="890.811929" xlink:href="#m85519ca00f" y="123.492819"/>
      </g>
     </g>
     <g id="text_17">
      <!-- 100 -->
      <g transform="translate(877.450679 144.130632)scale(0.14 -0.14)">
       <use xlink:href="#DejaVuSans-49"/>
       <use x="63.623047" xlink:href="#DejaVuSans-48"/>
       <use x="127.246094" xlink:href="#DejaVuSans-48"/>
      </g>
     </g>
    </g>
    <g id="xtick_48">
     <g id="line2d_62">
      <g>
       <use style="stroke:#000000;stroke-width:2;" x="648.203234" xlink:href="#medc8d51996" y="123.492819"/>
      </g>
     </g>
    </g>
    <g id="xtick_49">
     <g id="line2d_63">
      <g>
       <use style="stroke:#000000;stroke-width:2;" x="684.719481" xlink:href="#medc8d51996" y="123.492819"/>
      </g>
     </g>
    </g>
    <g id="xtick_50">
     <g id="line2d_64">
      <g>
       <use style="stroke:#000000;stroke-width:2;" x="706.080116" xlink:href="#medc8d51996" y="123.492819"/>
      </g>
     </g>
    </g>
    <g id="xtick_51">
     <g id="line2d_65">
      <g>
       <use style="stroke:#000000;stroke-width:2;" x="721.235728" xlink:href="#medc8d51996" y="123.492819"/>
      </g>
     </g>
    </g>
    <g id="xtick_52">
     <g id="line2d_66">
      <g>
       <use style="stroke:#000000;stroke-width:2;" x="732.991334" xlink:href="#medc8d51996" y="123.492819"/>
      </g>
     </g>
    </g>
    <g id="xtick_53">
     <g id="line2d_67">
      <g>
       <use style="stroke:#000000;stroke-width:2;" x="742.596364" xlink:href="#medc8d51996" y="123.492819"/>
      </g>
     </g>
    </g>
    <g id="xtick_54">
     <g id="line2d_68">
      <g>
       <use style="stroke:#000000;stroke-width:2;" x="750.7173" xlink:href="#medc8d51996" y="123.492819"/>
      </g>
     </g>
    </g>
    <g id="xtick_55">
     <g id="line2d_69">
      <g>
       <use style="stroke:#000000;stroke-width:2;" x="757.751976" xlink:href="#medc8d51996" y="123.492819"/>
      </g>
     </g>
    </g>
    <g id="xtick_56">
     <g id="line2d_70">
      <g>
       <use style="stroke:#000000;stroke-width:2;" x="763.956999" xlink:href="#medc8d51996" y="123.492819"/>
      </g>
     </g>
    </g>
    <g id="xtick_57">
     <g id="line2d_71">
      <g>
       <use style="stroke:#000000;stroke-width:2;" x="769.507582" xlink:href="#medc8d51996" y="123.492819"/>
      </g>
     </g>
    </g>
    <g id="xtick_58">
     <g id="line2d_72">
      <g>
       <use style="stroke:#000000;stroke-width:2;" x="806.023829" xlink:href="#medc8d51996" y="123.492819"/>
      </g>
     </g>
    </g>
    <g id="xtick_59">
     <g id="line2d_73">
      <g>
       <use style="stroke:#000000;stroke-width:2;" x="827.384464" xlink:href="#medc8d51996" y="123.492819"/>
      </g>
     </g>
    </g>
    <g id="xtick_60">
     <g id="line2d_74">
      <g>
       <use style="stroke:#000000;stroke-width:2;" x="842.540076" xlink:href="#medc8d51996" y="123.492819"/>
      </g>
     </g>
    </g>
    <g id="xtick_61">
     <g id="line2d_75">
      <g>
       <use style="stroke:#000000;stroke-width:2;" x="854.295682" xlink:href="#medc8d51996" y="123.492819"/>
      </g>
     </g>
    </g>
    <g id="xtick_62">
     <g id="line2d_76">
      <g>
       <use style="stroke:#000000;stroke-width:2;" x="863.900711" xlink:href="#medc8d51996" y="123.492819"/>
      </g>
     </g>
    </g>
    <g id="xtick_63">
     <g id="line2d_77">
      <g>
       <use style="stroke:#000000;stroke-width:2;" x="872.021648" xlink:href="#medc8d51996" y="123.492819"/>
      </g>
     </g>
    </g>
    <g id="xtick_64">
     <g id="line2d_78">
      <g>
       <use style="stroke:#000000;stroke-width:2;" x="879.056323" xlink:href="#medc8d51996" y="123.492819"/>
      </g>
     </g>
    </g>
    <g id="xtick_65">
     <g id="line2d_79">
      <g>
       <use style="stroke:#000000;stroke-width:2;" x="885.261347" xlink:href="#medc8d51996" y="123.492819"/>
      </g>
     </g>
    </g>
    <g id="xtick_66">
     <g id="line2d_80">
      <g>
       <use style="stroke:#000000;stroke-width:2;" x="890.811929" xlink:href="#medc8d51996" y="123.492819"/>
      </g>
     </g>
    </g>
    <g id="text_18">
     <!-- Bout length (syllables) -->
     <g transform="translate(668.191488 165.719382)scale(0.18 -0.18)">
      <use xlink:href="#DejaVuSans-66"/>
      <use x="68.603516" xlink:href="#DejaVuSans-111"/>
      <use x="129.785156" xlink:href="#DejaVuSans-117"/>
      <use x="193.164062" xlink:href="#DejaVuSans-116"/>
      <use x="232.373047" xlink:href="#DejaVuSans-32"/>
      <use x="264.160156" xlink:href="#DejaVuSans-108"/>
      <use x="291.943359" xlink:href="#DejaVuSans-101"/>
      <use x="353.466797" xlink:href="#DejaVuSans-110"/>
      <use x="416.845703" xlink:href="#DejaVuSans-103"/>
      <use x="480.322266" xlink:href="#DejaVuSans-116"/>
      <use x="519.53125" xlink:href="#DejaVuSans-104"/>
      <use x="582.910156" xlink:href="#DejaVuSans-32"/>
      <use x="614.697266" xlink:href="#DejaVuSans-40"/>
      <use x="653.710938" xlink:href="#DejaVuSans-115"/>
      <use x="705.810547" xlink:href="#DejaVuSans-121"/>
      <use x="764.990234" xlink:href="#DejaVuSans-108"/>
      <use x="792.773438" xlink:href="#DejaVuSans-108"/>
      <use x="820.556641" xlink:href="#DejaVuSans-97"/>
      <use x="881.835938" xlink:href="#DejaVuSans-98"/>
      <use x="945.3125" xlink:href="#DejaVuSans-108"/>
      <use x="973.095703" xlink:href="#DejaVuSans-101"/>
      <use x="1034.619141" xlink:href="#DejaVuSans-115"/>
      <use x="1086.71875" xlink:href="#DejaVuSans-41"/>
     </g>
    </g>
   </g>
   <g id="matplotlib.axis_6">
    <g id="ytick_11">
     <g id="line2d_81">
      <g>
       <use style="stroke:#000000;stroke-width:3;" x="648.203234" xlink:href="#ma84a372f8c" y="123.492819"/>
      </g>
     </g>
    </g>
    <g id="ytick_12">
     <g id="line2d_82">
      <g>
       <use style="stroke:#000000;stroke-width:3;" x="648.203234" xlink:href="#ma84a372f8c" y="93.949341"/>
      </g>
     </g>
    </g>
    <g id="ytick_13">
     <g id="line2d_83">
      <g>
       <use style="stroke:#000000;stroke-width:3;" x="648.203234" xlink:href="#ma84a372f8c" y="64.405863"/>
      </g>
     </g>
    </g>
    <g id="ytick_14">
     <g id="line2d_84">
      <g>
       <use style="stroke:#000000;stroke-width:3;" x="648.203234" xlink:href="#ma84a372f8c" y="34.862385"/>
      </g>
     </g>
    </g>
    <g id="ytick_15">
     <g id="line2d_85">
      <g>
       <use style="stroke:#000000;stroke-width:3;" x="648.203234" xlink:href="#ma84a372f8c" y="5.318906"/>
      </g>
     </g>
    </g>
   </g>
   <g id="line2d_86">
    <path clip-path="url(#p4ad64f56ae)" d="M 620.816048 123.370318 
L 624.16092 123.155404 
L 627.505791 122.67282 
L 630.850663 121.747314 
L 634.195535 120.240475 
L 637.540406 118.188409 
L 640.885278 115.919534 
L 644.23015 114.025941 
L 647.575021 113.128873 
L 650.919893 113.549581 
L 654.264765 115.114318 
L 657.609636 117.239113 
L 660.954508 119.216679 
L 664.29938 120.489335 
L 667.644251 120.76608 
L 670.989123 120.017734 
L 674.333994 118.459499 
L 677.678866 116.546074 
L 681.023738 114.891806 
L 684.368609 114.0492 
L 687.713481 114.23548 
L 691.058353 115.212384 
L 694.403224 116.439756 
L 697.748096 117.398242 
L 701.092968 117.837889 
L 704.437839 117.796017 
L 707.782711 117.440139 
L 714.472454 116.317044 
L 717.817326 115.732183 
L 721.162197 115.265571 
L 724.507069 114.98474 
L 734.541684 114.665786 
L 737.886556 114.392345 
L 744.576299 113.451285 
L 754.610914 111.868596 
L 761.300657 111.059259 
L 771.335272 110.098875 
L 778.025015 109.49393 
L 784.714758 108.630332 
L 791.404502 107.607775 
L 794.749373 107.290698 
L 798.094245 107.208891 
L 804.783988 107.421463 
L 808.12886 107.359897 
L 811.473732 106.988271 
L 814.818603 106.282884 
L 821.508346 104.278428 
L 824.853218 103.29936 
L 828.19809 102.520179 
L 831.542961 102.004914 
L 834.887833 101.754802 
L 838.232705 101.725633 
L 848.26732 102.07068 
L 851.612191 101.989578 
L 861.646806 101.20582 
L 864.991678 101.181105 
L 868.336549 101.418041 
L 871.681421 101.898981 
L 875.026293 102.578091 
L 878.371164 103.420426 
L 891.750651 107.271661 
L 895.095522 107.801654 
L 898.440394 108.06349 
L 905.130137 108.344915 
L 908.475009 108.649656 
L 915.164752 109.697743 
L 928.544239 112.053766 
L 935.233982 113.110264 
L 951.95834 115.434533 
L 955.303212 116.17944 
L 961.992955 118.019006 
L 968.682698 119.905009 
L 972.02757 120.693448 
L 975.372442 121.31856 
L 978.717313 121.77226 
L 982.062185 122.074889 
L 988.751928 122.368969 
L 998.786543 122.416779 
L 1008.821158 122.393386 
L 1015.510901 122.57032 
L 1035.580131 123.42445 
L 1045.614746 123.450643 
L 1045.614746 123.450643 
" style="fill:none;stroke:#c44e52;stroke-linecap:square;stroke-width:6;"/>
   </g>
   <g id="line2d_87">
    <path clip-path="url(#p4ad64f56ae)" d="M 832.405577 123.492819 
L 832.405577 5.318906 
" style="fill:none;stroke:#c44e52;stroke-dasharray:11.1,4.8;stroke-dashoffset:0;stroke-opacity:0.5;stroke-width:3;"/>
   </g>
   <g id="patch_13">
    <path d="M 648.203234 123.492819 
L 648.203234 5.318906 
" style="fill:none;stroke:#000000;stroke-linecap:square;stroke-linejoin:miter;stroke-width:3;"/>
   </g>
   <g id="patch_14">
    <path d="M 890.811929 123.492819 
L 890.811929 5.318906 
" style="fill:none;stroke:#000000;stroke-linecap:square;stroke-linejoin:miter;stroke-width:3;"/>
   </g>
   <g id="patch_15">
    <path d="M 648.203234 123.492819 
L 890.811929 123.492819 
" style="fill:none;stroke:#000000;stroke-linecap:square;stroke-linejoin:miter;stroke-width:3;"/>
   </g>
   <g id="patch_16">
    <path d="M 648.203234 5.318906 
L 890.811929 5.318906 
" style="fill:none;stroke:#000000;stroke-linecap:square;stroke-linejoin:miter;stroke-width:3;"/>
   </g>
  </g>
  <g id="axes_4">
   <g id="patch_17">
    <path d="M 357.072799 123.492819 
L 599.681495 123.492819 
L 599.681495 5.318906 
L 357.072799 5.318906 
z
" style="fill:#ffffff;"/>
   </g>
   <g id="PolyCollection_4">
    <path clip-path="url(#p7cc536c636)" d="M 387.562496 123.439696 
L 387.562496 123.492819 
L 390.451644 123.492819 
L 393.340792 123.492819 
L 396.229941 123.492819 
L 399.119089 123.492819 
L 402.008237 123.492819 
L 404.897385 123.492819 
L 407.786533 123.492819 
L 410.675681 123.492819 
L 413.564829 123.492819 
L 416.453978 123.492819 
L 419.343126 123.492819 
L 422.232274 123.492819 
L 425.121422 123.492819 
L 428.01057 123.492819 
L 430.899718 123.492819 
L 433.788867 123.492819 
L 436.678015 123.492819 
L 439.567163 123.492819 
L 442.456311 123.492819 
L 445.345459 123.492819 
L 448.234607 123.492819 
L 451.123755 123.492819 
L 454.012904 123.492819 
L 456.902052 123.492819 
L 459.7912 123.492819 
L 462.680348 123.492819 
L 465.569496 123.492819 
L 468.458644 123.492819 
L 471.347792 123.492819 
L 474.236941 123.492819 
L 477.126089 123.492819 
L 480.015237 123.492819 
L 482.904385 123.492819 
L 485.793533 123.492819 
L 488.682681 123.492819 
L 491.57183 123.492819 
L 494.460978 123.492819 
L 497.350126 123.492819 
L 500.239274 123.492819 
L 503.128422 123.492819 
L 506.01757 123.492819 
L 508.906718 123.492819 
L 511.795867 123.492819 
L 514.685015 123.492819 
L 517.574163 123.492819 
L 520.463311 123.492819 
L 523.352459 123.492819 
L 526.241607 123.492819 
L 529.130756 123.492819 
L 532.019904 123.492819 
L 534.909052 123.492819 
L 537.7982 123.492819 
L 540.687348 123.492819 
L 543.576496 123.492819 
L 546.465644 123.492819 
L 549.354793 123.492819 
L 552.243941 123.492819 
L 555.133089 123.492819 
L 558.022237 123.492819 
L 560.911385 123.492819 
L 563.800533 123.492819 
L 566.689681 123.492819 
L 569.57883 123.492819 
L 572.467978 123.492819 
L 575.357126 123.492819 
L 578.246274 123.492819 
L 581.135422 123.492819 
L 584.02457 123.492819 
L 586.913719 123.492819 
L 589.802867 123.492819 
L 592.692015 123.492819 
L 595.581163 123.492819 
L 598.470311 123.492819 
L 601.359459 123.492819 
L 604.248607 123.492819 
L 607.137756 123.492819 
L 610.026904 123.492819 
L 612.916052 123.492819 
L 615.8052 123.492819 
L 618.694348 123.492819 
L 621.583496 123.492819 
L 624.472645 123.492819 
L 627.361793 123.492819 
L 630.250941 123.492819 
L 633.140089 123.492819 
L 636.029237 123.492819 
L 638.918385 123.492819 
L 641.807533 123.492819 
L 644.696682 123.492819 
L 647.58583 123.492819 
L 650.474978 123.492819 
L 653.364126 123.492819 
L 656.253274 123.492819 
L 659.142422 123.492819 
L 662.03157 123.492819 
L 664.920719 123.492819 
L 667.809867 123.492819 
L 670.699015 123.492819 
L 673.588163 123.492819 
L 676.477311 123.492819 
L 679.366459 123.492819 
L 682.255608 123.492819 
L 685.144756 123.492819 
L 688.033904 123.492819 
L 690.923052 123.492819 
L 693.8122 123.492819 
L 696.701348 123.492819 
L 699.590496 123.492819 
L 702.479645 123.492819 
L 705.368793 123.492819 
L 708.257941 123.492819 
L 711.147089 123.492819 
L 714.036237 123.492819 
L 716.925385 123.492819 
L 719.814534 123.492819 
L 722.703682 123.492819 
L 725.59283 123.492819 
L 728.481978 123.492819 
L 731.371126 123.492819 
L 734.260274 123.492819 
L 737.149422 123.492819 
L 740.038571 123.492819 
L 742.927719 123.492819 
L 745.816867 123.492819 
L 748.706015 123.492819 
L 751.595163 123.492819 
L 754.484311 123.492819 
L 754.484311 123.453662 
L 754.484311 123.453662 
L 751.595163 123.433264 
L 748.706015 123.373411 
L 745.816867 123.258963 
L 742.927719 123.072231 
L 740.038571 122.803782 
L 737.149422 122.463507 
L 734.260274 122.085208 
L 731.371126 121.718144 
L 728.481978 121.405717 
L 725.59283 121.161591 
L 722.703682 120.958786 
L 719.814534 120.740938 
L 716.925385 120.450294 
L 714.036237 120.055713 
L 711.147089 119.565585 
L 708.257941 119.022773 
L 705.368793 118.489414 
L 702.479645 118.029561 
L 699.590496 117.690202 
L 696.701348 117.477475 
L 693.8122 117.331664 
L 690.923052 117.116503 
L 688.033904 116.642082 
L 685.144756 115.727376 
L 682.255608 114.283025 
L 679.366459 112.374471 
L 676.477311 110.226785 
L 673.588163 108.159348 
L 670.699015 106.476466 
L 667.809867 105.364794 
L 664.920719 104.842941 
L 662.03157 104.776907 
L 659.142422 104.939957 
L 656.253274 105.080802 
L 653.364126 104.974967 
L 650.474978 104.456725 
L 647.58583 103.443279 
L 644.696682 101.959476 
L 641.807533 100.155772 
L 638.918385 98.299808 
L 636.029237 96.726713 
L 633.140089 95.755455 
L 630.250941 95.601306 
L 627.361793 96.317562 
L 624.472645 97.780606 
L 621.583496 99.710469 
L 618.694348 101.713742 
L 615.8052 103.345677 
L 612.916052 104.194702 
L 610.026904 103.983026 
L 607.137756 102.658328 
L 604.248607 100.439971 
L 601.359459 97.788737 
L 598.470311 95.292231 
L 595.581163 93.493084 
L 592.692015 92.720811 
L 589.802867 92.999209 
L 586.913719 94.072831 
L 584.02457 95.537179 
L 581.135422 97.00452 
L 578.246274 98.227101 
L 575.357126 99.135401 
L 572.467978 99.799765 
L 569.57883 100.353977 
L 566.689681 100.919447 
L 563.800533 101.553529 
L 560.911385 102.232255 
L 558.022237 102.869681 
L 555.133089 103.36704 
L 552.243941 103.672425 
L 549.354793 103.822831 
L 546.465644 103.945112 
L 543.576496 104.213013 
L 540.687348 104.782725 
L 537.7982 105.741071 
L 534.909052 107.088532 
L 532.019904 108.752756 
L 529.130756 110.609294 
L 526.241607 112.490993 
L 523.352459 114.190394 
L 520.463311 115.477944 
L 517.574163 116.153716 
L 514.685015 116.12325 
L 511.795867 115.460166 
L 508.906718 114.41282 
L 506.01757 113.337131 
L 503.128422 112.578841 
L 500.239274 112.359721 
L 497.350126 112.722019 
L 494.460978 113.552151 
L 491.57183 114.659405 
L 488.682681 115.858551 
L 485.793533 117.013946 
L 482.904385 118.037717 
L 480.015237 118.867471 
L 477.126089 119.455758 
L 474.236941 119.783273 
L 471.347792 119.881089 
L 468.458644 119.836386 
L 465.569496 119.767742 
L 462.680348 119.77849 
L 459.7912 119.912792 
L 456.902052 120.138538 
L 454.012904 120.365888 
L 451.123755 120.49038 
L 448.234607 120.437596 
L 445.345459 120.18895 
L 442.456311 119.782074 
L 439.567163 119.293031 
L 436.678015 118.811604 
L 433.788867 118.416712 
L 430.899718 118.156087 
L 428.01057 118.037379 
L 425.121422 118.03888 
L 422.232274 118.137862 
L 419.343126 118.337913 
L 416.453978 118.671874 
L 413.564829 119.174112 
L 410.675681 119.842111 
L 407.786533 120.617801 
L 404.897385 121.403532 
L 402.008237 122.100892 
L 399.119089 122.646224 
L 396.229941 123.023828 
L 393.340792 123.256009 
L 390.451644 123.382129 
L 387.562496 123.439696 
z
" style="fill:#03a596;fill-opacity:0.25;"/>
   </g>
   <g id="matplotlib.axis_7">
    <g id="xtick_67">
     <g id="line2d_88">
      <g>
       <use style="stroke:#000000;stroke-width:3;" x="357.072799" xlink:href="#m85519ca00f" y="123.492819"/>
      </g>
     </g>
     <g id="text_19">
      <!-- 1 -->
      <g transform="translate(352.619049 144.130632)scale(0.14 -0.14)">
       <use xlink:href="#DejaVuSans-49"/>
      </g>
     </g>
    </g>
    <g id="xtick_68">
     <g id="line2d_89">
      <g>
       <use style="stroke:#000000;stroke-width:3;" x="478.377147" xlink:href="#m85519ca00f" y="123.492819"/>
      </g>
     </g>
     <g id="text_20">
      <!-- 10 -->
      <g transform="translate(469.469647 144.130632)scale(0.14 -0.14)">
       <use xlink:href="#DejaVuSans-49"/>
       <use x="63.623047" xlink:href="#DejaVuSans-48"/>
      </g>
     </g>
    </g>
    <g id="xtick_69">
     <g id="line2d_90">
      <g>
       <use style="stroke:#000000;stroke-width:3;" x="599.681495" xlink:href="#m85519ca00f" y="123.492819"/>
      </g>
     </g>
     <g id="text_21">
      <!-- 100 -->
      <g transform="translate(586.320245 144.130632)scale(0.14 -0.14)">
       <use xlink:href="#DejaVuSans-49"/>
       <use x="63.623047" xlink:href="#DejaVuSans-48"/>
       <use x="127.246094" xlink:href="#DejaVuSans-48"/>
      </g>
     </g>
    </g>
    <g id="xtick_70">
     <g id="line2d_91">
      <g>
       <use style="stroke:#000000;stroke-width:2;" x="357.072799" xlink:href="#medc8d51996" y="123.492819"/>
      </g>
     </g>
    </g>
    <g id="xtick_71">
     <g id="line2d_92">
      <g>
       <use style="stroke:#000000;stroke-width:2;" x="393.589046" xlink:href="#medc8d51996" y="123.492819"/>
      </g>
     </g>
    </g>
    <g id="xtick_72">
     <g id="line2d_93">
      <g>
       <use style="stroke:#000000;stroke-width:2;" x="414.949682" xlink:href="#medc8d51996" y="123.492819"/>
      </g>
     </g>
    </g>
    <g id="xtick_73">
     <g id="line2d_94">
      <g>
       <use style="stroke:#000000;stroke-width:2;" x="430.105294" xlink:href="#medc8d51996" y="123.492819"/>
      </g>
     </g>
    </g>
    <g id="xtick_74">
     <g id="line2d_95">
      <g>
       <use style="stroke:#000000;stroke-width:2;" x="441.860899" xlink:href="#medc8d51996" y="123.492819"/>
      </g>
     </g>
    </g>
    <g id="xtick_75">
     <g id="line2d_96">
      <g>
       <use style="stroke:#000000;stroke-width:2;" x="451.465929" xlink:href="#medc8d51996" y="123.492819"/>
      </g>
     </g>
    </g>
    <g id="xtick_76">
     <g id="line2d_97">
      <g>
       <use style="stroke:#000000;stroke-width:2;" x="459.586866" xlink:href="#medc8d51996" y="123.492819"/>
      </g>
     </g>
    </g>
    <g id="xtick_77">
     <g id="line2d_98">
      <g>
       <use style="stroke:#000000;stroke-width:2;" x="466.621541" xlink:href="#medc8d51996" y="123.492819"/>
      </g>
     </g>
    </g>
    <g id="xtick_78">
     <g id="line2d_99">
      <g>
       <use style="stroke:#000000;stroke-width:2;" x="472.826564" xlink:href="#medc8d51996" y="123.492819"/>
      </g>
     </g>
    </g>
    <g id="xtick_79">
     <g id="line2d_100">
      <g>
       <use style="stroke:#000000;stroke-width:2;" x="478.377147" xlink:href="#medc8d51996" y="123.492819"/>
      </g>
     </g>
    </g>
    <g id="xtick_80">
     <g id="line2d_101">
      <g>
       <use style="stroke:#000000;stroke-width:2;" x="514.893394" xlink:href="#medc8d51996" y="123.492819"/>
      </g>
     </g>
    </g>
    <g id="xtick_81">
     <g id="line2d_102">
      <g>
       <use style="stroke:#000000;stroke-width:2;" x="536.254029" xlink:href="#medc8d51996" y="123.492819"/>
      </g>
     </g>
    </g>
    <g id="xtick_82">
     <g id="line2d_103">
      <g>
       <use style="stroke:#000000;stroke-width:2;" x="551.409641" xlink:href="#medc8d51996" y="123.492819"/>
      </g>
     </g>
    </g>
    <g id="xtick_83">
     <g id="line2d_104">
      <g>
       <use style="stroke:#000000;stroke-width:2;" x="563.165247" xlink:href="#medc8d51996" y="123.492819"/>
      </g>
     </g>
    </g>
    <g id="xtick_84">
     <g id="line2d_105">
      <g>
       <use style="stroke:#000000;stroke-width:2;" x="572.770277" xlink:href="#medc8d51996" y="123.492819"/>
      </g>
     </g>
    </g>
    <g id="xtick_85">
     <g id="line2d_106">
      <g>
       <use style="stroke:#000000;stroke-width:2;" x="580.891213" xlink:href="#medc8d51996" y="123.492819"/>
      </g>
     </g>
    </g>
    <g id="xtick_86">
     <g id="line2d_107">
      <g>
       <use style="stroke:#000000;stroke-width:2;" x="587.925889" xlink:href="#medc8d51996" y="123.492819"/>
      </g>
     </g>
    </g>
    <g id="xtick_87">
     <g id="line2d_108">
      <g>
       <use style="stroke:#000000;stroke-width:2;" x="594.130912" xlink:href="#medc8d51996" y="123.492819"/>
      </g>
     </g>
    </g>
    <g id="xtick_88">
     <g id="line2d_109">
      <g>
       <use style="stroke:#000000;stroke-width:2;" x="599.681495" xlink:href="#medc8d51996" y="123.492819"/>
      </g>
     </g>
    </g>
    <g id="text_22">
     <!-- Bout length (syllables) -->
     <g transform="translate(377.061053 165.719382)scale(0.18 -0.18)">
      <use xlink:href="#DejaVuSans-66"/>
      <use x="68.603516" xlink:href="#DejaVuSans-111"/>
      <use x="129.785156" xlink:href="#DejaVuSans-117"/>
      <use x="193.164062" xlink:href="#DejaVuSans-116"/>
      <use x="232.373047" xlink:href="#DejaVuSans-32"/>
      <use x="264.160156" xlink:href="#DejaVuSans-108"/>
      <use x="291.943359" xlink:href="#DejaVuSans-101"/>
      <use x="353.466797" xlink:href="#DejaVuSans-110"/>
      <use x="416.845703" xlink:href="#DejaVuSans-103"/>
      <use x="480.322266" xlink:href="#DejaVuSans-116"/>
      <use x="519.53125" xlink:href="#DejaVuSans-104"/>
      <use x="582.910156" xlink:href="#DejaVuSans-32"/>
      <use x="614.697266" xlink:href="#DejaVuSans-40"/>
      <use x="653.710938" xlink:href="#DejaVuSans-115"/>
      <use x="705.810547" xlink:href="#DejaVuSans-121"/>
      <use x="764.990234" xlink:href="#DejaVuSans-108"/>
      <use x="792.773438" xlink:href="#DejaVuSans-108"/>
      <use x="820.556641" xlink:href="#DejaVuSans-97"/>
      <use x="881.835938" xlink:href="#DejaVuSans-98"/>
      <use x="945.3125" xlink:href="#DejaVuSans-108"/>
      <use x="973.095703" xlink:href="#DejaVuSans-101"/>
      <use x="1034.619141" xlink:href="#DejaVuSans-115"/>
      <use x="1086.71875" xlink:href="#DejaVuSans-41"/>
     </g>
    </g>
   </g>
   <g id="matplotlib.axis_8">
    <g id="ytick_16">
     <g id="line2d_110">
      <g>
       <use style="stroke:#000000;stroke-width:3;" x="357.072799" xlink:href="#ma84a372f8c" y="123.492819"/>
      </g>
     </g>
    </g>
    <g id="ytick_17">
     <g id="line2d_111">
      <g>
       <use style="stroke:#000000;stroke-width:3;" x="357.072799" xlink:href="#ma84a372f8c" y="93.949341"/>
      </g>
     </g>
    </g>
    <g id="ytick_18">
     <g id="line2d_112">
      <g>
       <use style="stroke:#000000;stroke-width:3;" x="357.072799" xlink:href="#ma84a372f8c" y="64.405863"/>
      </g>
     </g>
    </g>
    <g id="ytick_19">
     <g id="line2d_113">
      <g>
       <use style="stroke:#000000;stroke-width:3;" x="357.072799" xlink:href="#ma84a372f8c" y="34.862385"/>
      </g>
     </g>
    </g>
    <g id="ytick_20">
     <g id="line2d_114">
      <g>
       <use style="stroke:#000000;stroke-width:3;" x="357.072799" xlink:href="#ma84a372f8c" y="5.318906"/>
      </g>
     </g>
    </g>
   </g>
   <g id="line2d_115">
    <path clip-path="url(#p7cc536c636)" d="M 387.562496 123.439696 
L 393.340792 123.256009 
L 396.229941 123.023828 
L 399.119089 122.646224 
L 402.008237 122.100892 
L 407.786533 120.617801 
L 413.564829 119.174112 
L 416.453978 118.671874 
L 419.343126 118.337913 
L 425.121422 118.03888 
L 428.01057 118.037379 
L 430.899718 118.156087 
L 433.788867 118.416712 
L 439.567163 119.293031 
L 445.345459 120.18895 
L 448.234607 120.437596 
L 451.123755 120.49038 
L 456.902052 120.138538 
L 462.680348 119.77849 
L 468.458644 119.836386 
L 471.347792 119.881089 
L 474.236941 119.783273 
L 477.126089 119.455758 
L 480.015237 118.867471 
L 482.904385 118.037717 
L 485.793533 117.013946 
L 494.460978 113.552151 
L 497.350126 112.722019 
L 500.239274 112.359721 
L 503.128422 112.578841 
L 506.01757 113.337131 
L 511.795867 115.460166 
L 514.685015 116.12325 
L 517.574163 116.153716 
L 520.463311 115.477944 
L 523.352459 114.190394 
L 526.241607 112.490993 
L 532.019904 108.752756 
L 534.909052 107.088532 
L 537.7982 105.741071 
L 540.687348 104.782725 
L 543.576496 104.213013 
L 546.465644 103.945112 
L 552.243941 103.672425 
L 555.133089 103.36704 
L 558.022237 102.869681 
L 569.57883 100.353977 
L 575.357126 99.135401 
L 578.246274 98.227101 
L 581.135422 97.00452 
L 586.913719 94.072831 
L 589.802867 92.999209 
L 592.692015 92.720811 
L 595.581163 93.493084 
L 598.470311 95.292231 
L 601.359459 97.788737 
L 604.248607 100.439971 
L 607.137756 102.658328 
L 610.026904 103.983026 
L 612.916052 104.194702 
L 615.8052 103.345677 
L 618.694348 101.713742 
L 624.472645 97.780606 
L 627.361793 96.317562 
L 630.250941 95.601306 
L 633.140089 95.755455 
L 636.029237 96.726713 
L 638.918385 98.299808 
L 644.696682 101.959476 
L 647.58583 103.443279 
L 650.474978 104.456725 
L 653.364126 104.974967 
L 656.253274 105.080802 
L 662.03157 104.776907 
L 664.920719 104.842941 
L 667.809867 105.364794 
L 670.699015 106.476466 
L 673.588163 108.159348 
L 682.255608 114.283025 
L 685.144756 115.727376 
L 688.033904 116.642082 
L 690.923052 117.116503 
L 702.479645 118.029561 
L 708.257941 119.022773 
L 714.036237 120.055713 
L 719.814534 120.740938 
L 731.371126 121.718144 
L 740.038571 122.803782 
L 745.816867 123.258963 
L 751.595163 123.433264 
L 754.484311 123.453662 
L 754.484311 123.453662 
" style="fill:none;stroke:#03a596;stroke-linecap:square;stroke-width:6;"/>
   </g>
   <g id="line2d_116">
    <path clip-path="url(#p7cc536c636)" d="M 592.947001 123.492819 
L 592.947001 5.318906 
" style="fill:none;stroke:#03a596;stroke-dasharray:11.1,4.8;stroke-dashoffset:0;stroke-opacity:0.5;stroke-width:3;"/>
   </g>
   <g id="patch_18">
    <path d="M 357.072799 123.492819 
L 357.072799 5.318906 
" style="fill:none;stroke:#000000;stroke-linecap:square;stroke-linejoin:miter;stroke-width:3;"/>
   </g>
   <g id="patch_19">
    <path d="M 599.681495 123.492819 
L 599.681495 5.318906 
" style="fill:none;stroke:#000000;stroke-linecap:square;stroke-linejoin:miter;stroke-width:3;"/>
   </g>
   <g id="patch_20">
    <path d="M 357.072799 123.492819 
L 599.681495 123.492819 
" style="fill:none;stroke:#000000;stroke-linecap:square;stroke-linejoin:miter;stroke-width:3;"/>
   </g>
   <g id="patch_21">
    <path d="M 357.072799 5.318906 
L 599.681495 5.318906 
" style="fill:none;stroke:#000000;stroke-linecap:square;stroke-linejoin:miter;stroke-width:3;"/>
   </g>
  </g>
 </g>
 <defs>
  <clipPath id="peea1c3bffc">
   <rect height="118.173913" width="242.608696" x="65.942364" y="5.318906"/>
  </clipPath>
  <clipPath id="p5489212e25">
   <rect height="118.173913" width="242.608696" x="939.333668" y="5.318906"/>
  </clipPath>
  <clipPath id="p4ad64f56ae">
   <rect height="118.173913" width="242.608696" x="648.203234" y="5.318906"/>
  </clipPath>
  <clipPath id="p7cc536c636">
   <rect height="118.173913" width="242.608696" x="357.072799" y="5.318906"/>
  </clipPath>
 </defs>
</svg>
