<?xml version="1.0" encoding="utf-8" standalone="no"?>
<!DOCTYPE svg PUBLIC "-//W3C//DTD SVG 1.1//EN"
  "http://www.w3.org/Graphics/SVG/1.1/DTD/svg11.dtd">
<!-- Created with matplotlib (https://matplotlib.org/) -->
<svg height="169.462819pt" version="1.1" viewBox="0 0 1190.847015 169.462819" width="1190.847015pt" xmlns="http://www.w3.org/2000/svg" xmlns:xlink="http://www.w3.org/1999/xlink">
 <defs>
  <style type="text/css">
*{stroke-linecap:butt;stroke-linejoin:round;}
  </style>
 </defs>
 <g id="figure_1">
  <g id="patch_1">
   <path d="M 0 169.462819 
L 1190.847015 169.462819 
L 1190.847015 0 
L 0 0 
z
" style="fill:#ffffff;"/>
  </g>
  <g id="axes_1">
   <g id="patch_2">
    <path d="M 65.942364 123.492819 
L 308.55106 123.492819 
L 308.55106 5.318906 
L 65.942364 5.318906 
z
" style="fill:#ffffff;"/>
   </g>
   <g id="patch_3">
    <path clip-path="url(#p99d1e25412)" d="M 48.499033 123.492819 
L 78.152696 123.492819 
L 78.152696 111.81253 
L 48.499033 111.81253 
z
" style="fill:#721825;opacity:0.4;"/>
   </g>
   <g id="patch_4">
    <path clip-path="url(#p99d1e25412)" d="M 78.152696 123.492819 
L 107.806358 123.492819 
L 107.806358 82.636612 
L 78.152696 82.636612 
z
" style="fill:#721825;opacity:0.4;"/>
   </g>
   <g id="patch_5">
    <path clip-path="url(#p99d1e25412)" d="M 107.806358 123.492819 
L 137.460021 123.492819 
L 137.460021 63.927292 
L 107.806358 63.927292 
z
" style="fill:#721825;opacity:0.4;"/>
   </g>
   <g id="patch_6">
    <path clip-path="url(#p99d1e25412)" d="M 137.460021 123.492819 
L 167.113684 123.492819 
L 167.113684 103.512873 
L 137.460021 103.512873 
z
" style="fill:#721825;opacity:0.4;"/>
   </g>
   <g id="patch_7">
    <path clip-path="url(#p99d1e25412)" d="M 167.113684 123.492819 
L 196.767346 123.492819 
L 196.767346 117.03822 
L 167.113684 117.03822 
z
" style="fill:#721825;opacity:0.4;"/>
   </g>
   <g id="patch_8">
    <path clip-path="url(#p99d1e25412)" d="M 196.767346 123.492819 
L 226.421009 123.492819 
L 226.421009 123.00802 
L 196.767346 123.00802 
z
" style="fill:#721825;opacity:0.4;"/>
   </g>
   <g id="patch_9">
    <path clip-path="url(#p99d1e25412)" d="M 226.421009 123.492819 
L 256.074672 123.492819 
L 256.074672 123.486055 
L 226.421009 123.486055 
z
" style="fill:#721825;opacity:0.4;"/>
   </g>
   <g id="patch_10">
    <path clip-path="url(#p99d1e25412)" d="M 256.074672 123.492819 
L 285.728334 123.492819 
L 285.728334 123.492819 
L 256.074672 123.492819 
z
" style="fill:#721825;opacity:0.4;"/>
   </g>
   <g id="patch_11">
    <path clip-path="url(#p99d1e25412)" d="M 285.728334 123.492819 
L 315.381997 123.492819 
L 315.381997 123.492819 
L 285.728334 123.492819 
z
" style="fill:#721825;opacity:0.4;"/>
   </g>
   <g id="patch_12">
    <path clip-path="url(#p99d1e25412)" d="M 315.381997 123.492819 
L 345.03566 123.492819 
L 345.03566 123.492819 
L 315.381997 123.492819 
z
" style="fill:#721825;opacity:0.4;"/>
   </g>
   <g id="patch_13">
    <path clip-path="url(#p99d1e25412)" d="M 345.03566 123.492819 
L 374.689322 123.492819 
L 374.689322 123.492819 
L 345.03566 123.492819 
z
" style="fill:#721825;opacity:0.4;"/>
   </g>
   <g id="patch_14">
    <path clip-path="url(#p99d1e25412)" d="M 374.689322 123.492819 
L 404.342985 123.492819 
L 404.342985 123.492819 
L 374.689322 123.492819 
z
" style="fill:#721825;opacity:0.4;"/>
   </g>
   <g id="patch_15">
    <path clip-path="url(#p99d1e25412)" d="M 404.342985 123.492819 
L 433.996647 123.492819 
L 433.996647 123.492819 
L 404.342985 123.492819 
z
" style="fill:#721825;opacity:0.4;"/>
   </g>
   <g id="patch_16">
    <path clip-path="url(#p99d1e25412)" d="M 433.996647 123.492819 
L 463.65031 123.492819 
L 463.65031 123.492819 
L 433.996647 123.492819 
z
" style="fill:#721825;opacity:0.4;"/>
   </g>
   <g id="patch_17">
    <path clip-path="url(#p99d1e25412)" d="M 463.65031 123.492819 
L 493.303973 123.492819 
L 493.303973 123.492819 
L 463.65031 123.492819 
z
" style="fill:#721825;opacity:0.4;"/>
   </g>
   <g id="patch_18">
    <path clip-path="url(#p99d1e25412)" d="M 493.303973 123.492819 
L 522.957635 123.492819 
L 522.957635 123.492819 
L 493.303973 123.492819 
z
" style="fill:#721825;opacity:0.4;"/>
   </g>
   <g id="patch_19">
    <path clip-path="url(#p99d1e25412)" d="M 522.957635 123.492819 
L 552.611298 123.492819 
L 552.611298 123.492819 
L 522.957635 123.492819 
z
" style="fill:#721825;opacity:0.4;"/>
   </g>
   <g id="patch_20">
    <path clip-path="url(#p99d1e25412)" d="M 552.611298 123.492819 
L 582.264961 123.492819 
L 582.264961 123.492819 
L 552.611298 123.492819 
z
" style="fill:#721825;opacity:0.4;"/>
   </g>
   <g id="matplotlib.axis_1">
    <g id="xtick_1">
     <g id="line2d_1">
      <defs>
       <path d="M 0 0 
L 0 -10 
" id="m5590f354ae" style="stroke:#000000;stroke-width:3;"/>
      </defs>
      <g>
       <use style="stroke:#000000;stroke-width:3;" x="65.942364" xlink:href="#m5590f354ae" y="123.492819"/>
      </g>
     </g>
     <g id="text_1">
      <!-- 1 -->
      <defs>
       <path d="M 12.40625 8.296875 
L 28.515625 8.296875 
L 28.515625 63.921875 
L 10.984375 60.40625 
L 10.984375 69.390625 
L 28.421875 72.90625 
L 38.28125 72.90625 
L 38.28125 8.296875 
L 54.390625 8.296875 
L 54.390625 0 
L 12.40625 0 
z
" id="DejaVuSans-49"/>
      </defs>
      <g transform="translate(61.488614 144.130632)scale(0.14 -0.14)">
       <use xlink:href="#DejaVuSans-49"/>
      </g>
     </g>
    </g>
    <g id="xtick_2">
     <g id="line2d_2">
      <g>
       <use style="stroke:#000000;stroke-width:3;" x="181.833347" xlink:href="#m5590f354ae" y="123.492819"/>
      </g>
     </g>
     <g id="text_2">
      <!-- 10 -->
      <defs>
       <path d="M 31.78125 66.40625 
Q 24.171875 66.40625 20.328125 58.90625 
Q 16.5 51.421875 16.5 36.375 
Q 16.5 21.390625 20.328125 13.890625 
Q 24.171875 6.390625 31.78125 6.390625 
Q 39.453125 6.390625 43.28125 13.890625 
Q 47.125 21.390625 47.125 36.375 
Q 47.125 51.421875 43.28125 58.90625 
Q 39.453125 66.40625 31.78125 66.40625 
z
M 31.78125 74.21875 
Q 44.046875 74.21875 50.515625 64.515625 
Q 56.984375 54.828125 56.984375 36.375 
Q 56.984375 17.96875 50.515625 8.265625 
Q 44.046875 -1.421875 31.78125 -1.421875 
Q 19.53125 -1.421875 13.0625 8.265625 
Q 6.59375 17.96875 6.59375 36.375 
Q 6.59375 54.828125 13.0625 64.515625 
Q 19.53125 74.21875 31.78125 74.21875 
z
" id="DejaVuSans-48"/>
      </defs>
      <g transform="translate(172.925847 144.130632)scale(0.14 -0.14)">
       <use xlink:href="#DejaVuSans-49"/>
       <use x="63.623047" xlink:href="#DejaVuSans-48"/>
      </g>
     </g>
    </g>
    <g id="xtick_3">
     <g id="line2d_3">
      <g>
       <use style="stroke:#000000;stroke-width:3;" x="297.724329" xlink:href="#m5590f354ae" y="123.492819"/>
      </g>
     </g>
     <g id="text_3">
      <!-- 100 -->
      <g transform="translate(284.363079 144.130632)scale(0.14 -0.14)">
       <use xlink:href="#DejaVuSans-49"/>
       <use x="63.623047" xlink:href="#DejaVuSans-48"/>
       <use x="127.246094" xlink:href="#DejaVuSans-48"/>
      </g>
     </g>
    </g>
    <g id="xtick_4">
     <g id="line2d_4">
      <defs>
       <path d="M 0 0 
L 0 -5 
" id="m7d49c0b554" style="stroke:#000000;stroke-width:2;"/>
      </defs>
      <g>
       <use style="stroke:#000000;stroke-width:2;" x="65.942364" xlink:href="#m7d49c0b554" y="123.492819"/>
      </g>
     </g>
    </g>
    <g id="xtick_5">
     <g id="line2d_5">
      <g>
       <use style="stroke:#000000;stroke-width:2;" x="100.829026" xlink:href="#m7d49c0b554" y="123.492819"/>
      </g>
     </g>
    </g>
    <g id="xtick_6">
     <g id="line2d_6">
      <g>
       <use style="stroke:#000000;stroke-width:2;" x="121.236415" xlink:href="#m7d49c0b554" y="123.492819"/>
      </g>
     </g>
    </g>
    <g id="xtick_7">
     <g id="line2d_7">
      <g>
       <use style="stroke:#000000;stroke-width:2;" x="135.715688" xlink:href="#m7d49c0b554" y="123.492819"/>
      </g>
     </g>
    </g>
    <g id="xtick_8">
     <g id="line2d_8">
      <g>
       <use style="stroke:#000000;stroke-width:2;" x="146.946685" xlink:href="#m7d49c0b554" y="123.492819"/>
      </g>
     </g>
    </g>
    <g id="xtick_9">
     <g id="line2d_9">
      <g>
       <use style="stroke:#000000;stroke-width:2;" x="156.123077" xlink:href="#m7d49c0b554" y="123.492819"/>
      </g>
     </g>
    </g>
    <g id="xtick_10">
     <g id="line2d_10">
      <g>
       <use style="stroke:#000000;stroke-width:2;" x="163.881606" xlink:href="#m7d49c0b554" y="123.492819"/>
      </g>
     </g>
    </g>
    <g id="xtick_11">
     <g id="line2d_11">
      <g>
       <use style="stroke:#000000;stroke-width:2;" x="170.60235" xlink:href="#m7d49c0b554" y="123.492819"/>
      </g>
     </g>
    </g>
    <g id="xtick_12">
     <g id="line2d_12">
      <g>
       <use style="stroke:#000000;stroke-width:2;" x="176.530466" xlink:href="#m7d49c0b554" y="123.492819"/>
      </g>
     </g>
    </g>
    <g id="xtick_13">
     <g id="line2d_13">
      <g>
       <use style="stroke:#000000;stroke-width:2;" x="181.833347" xlink:href="#m7d49c0b554" y="123.492819"/>
      </g>
     </g>
    </g>
    <g id="xtick_14">
     <g id="line2d_14">
      <g>
       <use style="stroke:#000000;stroke-width:2;" x="216.720008" xlink:href="#m7d49c0b554" y="123.492819"/>
      </g>
     </g>
    </g>
    <g id="xtick_15">
     <g id="line2d_15">
      <g>
       <use style="stroke:#000000;stroke-width:2;" x="237.127397" xlink:href="#m7d49c0b554" y="123.492819"/>
      </g>
     </g>
    </g>
    <g id="xtick_16">
     <g id="line2d_16">
      <g>
       <use style="stroke:#000000;stroke-width:2;" x="251.60667" xlink:href="#m7d49c0b554" y="123.492819"/>
      </g>
     </g>
    </g>
    <g id="xtick_17">
     <g id="line2d_17">
      <g>
       <use style="stroke:#000000;stroke-width:2;" x="262.837667" xlink:href="#m7d49c0b554" y="123.492819"/>
      </g>
     </g>
    </g>
    <g id="xtick_18">
     <g id="line2d_18">
      <g>
       <use style="stroke:#000000;stroke-width:2;" x="272.014059" xlink:href="#m7d49c0b554" y="123.492819"/>
      </g>
     </g>
    </g>
    <g id="xtick_19">
     <g id="line2d_19">
      <g>
       <use style="stroke:#000000;stroke-width:2;" x="279.772589" xlink:href="#m7d49c0b554" y="123.492819"/>
      </g>
     </g>
    </g>
    <g id="xtick_20">
     <g id="line2d_20">
      <g>
       <use style="stroke:#000000;stroke-width:2;" x="286.493332" xlink:href="#m7d49c0b554" y="123.492819"/>
      </g>
     </g>
    </g>
    <g id="xtick_21">
     <g id="line2d_21">
      <g>
       <use style="stroke:#000000;stroke-width:2;" x="292.421448" xlink:href="#m7d49c0b554" y="123.492819"/>
      </g>
     </g>
    </g>
    <g id="xtick_22">
     <g id="line2d_22">
      <g>
       <use style="stroke:#000000;stroke-width:2;" x="297.724329" xlink:href="#m7d49c0b554" y="123.492819"/>
      </g>
     </g>
    </g>
    <g id="text_4">
     <!-- Word length (phones) -->
     <defs>
      <path d="M 3.328125 72.90625 
L 13.28125 72.90625 
L 28.609375 11.28125 
L 43.890625 72.90625 
L 54.984375 72.90625 
L 70.3125 11.28125 
L 85.59375 72.90625 
L 95.609375 72.90625 
L 77.296875 0 
L 64.890625 0 
L 49.515625 63.28125 
L 33.984375 0 
L 21.578125 0 
z
" id="DejaVuSans-87"/>
      <path d="M 30.609375 48.390625 
Q 23.390625 48.390625 19.1875 42.75 
Q 14.984375 37.109375 14.984375 27.296875 
Q 14.984375 17.484375 19.15625 11.84375 
Q 23.34375 6.203125 30.609375 6.203125 
Q 37.796875 6.203125 41.984375 11.859375 
Q 46.1875 17.53125 46.1875 27.296875 
Q 46.1875 37.015625 41.984375 42.703125 
Q 37.796875 48.390625 30.609375 48.390625 
z
M 30.609375 56 
Q 42.328125 56 49.015625 48.375 
Q 55.71875 40.765625 55.71875 27.296875 
Q 55.71875 13.875 49.015625 6.21875 
Q 42.328125 -1.421875 30.609375 -1.421875 
Q 18.84375 -1.421875 12.171875 6.21875 
Q 5.515625 13.875 5.515625 27.296875 
Q 5.515625 40.765625 12.171875 48.375 
Q 18.84375 56 30.609375 56 
z
" id="DejaVuSans-111"/>
      <path d="M 41.109375 46.296875 
Q 39.59375 47.171875 37.8125 47.578125 
Q 36.03125 48 33.890625 48 
Q 26.265625 48 22.1875 43.046875 
Q 18.109375 38.09375 18.109375 28.8125 
L 18.109375 0 
L 9.078125 0 
L 9.078125 54.6875 
L 18.109375 54.6875 
L 18.109375 46.1875 
Q 20.953125 51.171875 25.484375 53.578125 
Q 30.03125 56 36.53125 56 
Q 37.453125 56 38.578125 55.875 
Q 39.703125 55.765625 41.0625 55.515625 
z
" id="DejaVuSans-114"/>
      <path d="M 45.40625 46.390625 
L 45.40625 75.984375 
L 54.390625 75.984375 
L 54.390625 0 
L 45.40625 0 
L 45.40625 8.203125 
Q 42.578125 3.328125 38.25 0.953125 
Q 33.9375 -1.421875 27.875 -1.421875 
Q 17.96875 -1.421875 11.734375 6.484375 
Q 5.515625 14.40625 5.515625 27.296875 
Q 5.515625 40.1875 11.734375 48.09375 
Q 17.96875 56 27.875 56 
Q 33.9375 56 38.25 53.625 
Q 42.578125 51.265625 45.40625 46.390625 
z
M 14.796875 27.296875 
Q 14.796875 17.390625 18.875 11.75 
Q 22.953125 6.109375 30.078125 6.109375 
Q 37.203125 6.109375 41.296875 11.75 
Q 45.40625 17.390625 45.40625 27.296875 
Q 45.40625 37.203125 41.296875 42.84375 
Q 37.203125 48.484375 30.078125 48.484375 
Q 22.953125 48.484375 18.875 42.84375 
Q 14.796875 37.203125 14.796875 27.296875 
z
" id="DejaVuSans-100"/>
      <path id="DejaVuSans-32"/>
      <path d="M 9.421875 75.984375 
L 18.40625 75.984375 
L 18.40625 0 
L 9.421875 0 
z
" id="DejaVuSans-108"/>
      <path d="M 56.203125 29.59375 
L 56.203125 25.203125 
L 14.890625 25.203125 
Q 15.484375 15.921875 20.484375 11.0625 
Q 25.484375 6.203125 34.421875 6.203125 
Q 39.59375 6.203125 44.453125 7.46875 
Q 49.3125 8.734375 54.109375 11.28125 
L 54.109375 2.78125 
Q 49.265625 0.734375 44.1875 -0.34375 
Q 39.109375 -1.421875 33.890625 -1.421875 
Q 20.796875 -1.421875 13.15625 6.1875 
Q 5.515625 13.8125 5.515625 26.8125 
Q 5.515625 40.234375 12.765625 48.109375 
Q 20.015625 56 32.328125 56 
Q 43.359375 56 49.78125 48.890625 
Q 56.203125 41.796875 56.203125 29.59375 
z
M 47.21875 32.234375 
Q 47.125 39.59375 43.09375 43.984375 
Q 39.0625 48.390625 32.421875 48.390625 
Q 24.90625 48.390625 20.390625 44.140625 
Q 15.875 39.890625 15.1875 32.171875 
z
" id="DejaVuSans-101"/>
      <path d="M 54.890625 33.015625 
L 54.890625 0 
L 45.90625 0 
L 45.90625 32.71875 
Q 45.90625 40.484375 42.875 44.328125 
Q 39.84375 48.1875 33.796875 48.1875 
Q 26.515625 48.1875 22.3125 43.546875 
Q 18.109375 38.921875 18.109375 30.90625 
L 18.109375 0 
L 9.078125 0 
L 9.078125 54.6875 
L 18.109375 54.6875 
L 18.109375 46.1875 
Q 21.34375 51.125 25.703125 53.5625 
Q 30.078125 56 35.796875 56 
Q 45.21875 56 50.046875 50.171875 
Q 54.890625 44.34375 54.890625 33.015625 
z
" id="DejaVuSans-110"/>
      <path d="M 45.40625 27.984375 
Q 45.40625 37.75 41.375 43.109375 
Q 37.359375 48.484375 30.078125 48.484375 
Q 22.859375 48.484375 18.828125 43.109375 
Q 14.796875 37.75 14.796875 27.984375 
Q 14.796875 18.265625 18.828125 12.890625 
Q 22.859375 7.515625 30.078125 7.515625 
Q 37.359375 7.515625 41.375 12.890625 
Q 45.40625 18.265625 45.40625 27.984375 
z
M 54.390625 6.78125 
Q 54.390625 -7.171875 48.1875 -13.984375 
Q 42 -20.796875 29.203125 -20.796875 
Q 24.46875 -20.796875 20.265625 -20.09375 
Q 16.0625 -19.390625 12.109375 -17.921875 
L 12.109375 -9.1875 
Q 16.0625 -11.328125 19.921875 -12.34375 
Q 23.78125 -13.375 27.78125 -13.375 
Q 36.625 -13.375 41.015625 -8.765625 
Q 45.40625 -4.15625 45.40625 5.171875 
L 45.40625 9.625 
Q 42.625 4.78125 38.28125 2.390625 
Q 33.9375 0 27.875 0 
Q 17.828125 0 11.671875 7.65625 
Q 5.515625 15.328125 5.515625 27.984375 
Q 5.515625 40.671875 11.671875 48.328125 
Q 17.828125 56 27.875 56 
Q 33.9375 56 38.28125 53.609375 
Q 42.625 51.21875 45.40625 46.390625 
L 45.40625 54.6875 
L 54.390625 54.6875 
z
" id="DejaVuSans-103"/>
      <path d="M 18.3125 70.21875 
L 18.3125 54.6875 
L 36.8125 54.6875 
L 36.8125 47.703125 
L 18.3125 47.703125 
L 18.3125 18.015625 
Q 18.3125 11.328125 20.140625 9.421875 
Q 21.96875 7.515625 27.59375 7.515625 
L 36.8125 7.515625 
L 36.8125 0 
L 27.59375 0 
Q 17.1875 0 13.234375 3.875 
Q 9.28125 7.765625 9.28125 18.015625 
L 9.28125 47.703125 
L 2.6875 47.703125 
L 2.6875 54.6875 
L 9.28125 54.6875 
L 9.28125 70.21875 
z
" id="DejaVuSans-116"/>
      <path d="M 54.890625 33.015625 
L 54.890625 0 
L 45.90625 0 
L 45.90625 32.71875 
Q 45.90625 40.484375 42.875 44.328125 
Q 39.84375 48.1875 33.796875 48.1875 
Q 26.515625 48.1875 22.3125 43.546875 
Q 18.109375 38.921875 18.109375 30.90625 
L 18.109375 0 
L 9.078125 0 
L 9.078125 75.984375 
L 18.109375 75.984375 
L 18.109375 46.1875 
Q 21.34375 51.125 25.703125 53.5625 
Q 30.078125 56 35.796875 56 
Q 45.21875 56 50.046875 50.171875 
Q 54.890625 44.34375 54.890625 33.015625 
z
" id="DejaVuSans-104"/>
      <path d="M 31 75.875 
Q 24.46875 64.65625 21.28125 53.65625 
Q 18.109375 42.671875 18.109375 31.390625 
Q 18.109375 20.125 21.3125 9.0625 
Q 24.515625 -2 31 -13.1875 
L 23.1875 -13.1875 
Q 15.875 -1.703125 12.234375 9.375 
Q 8.59375 20.453125 8.59375 31.390625 
Q 8.59375 42.28125 12.203125 53.3125 
Q 15.828125 64.359375 23.1875 75.875 
z
" id="DejaVuSans-40"/>
      <path d="M 18.109375 8.203125 
L 18.109375 -20.796875 
L 9.078125 -20.796875 
L 9.078125 54.6875 
L 18.109375 54.6875 
L 18.109375 46.390625 
Q 20.953125 51.265625 25.265625 53.625 
Q 29.59375 56 35.59375 56 
Q 45.5625 56 51.78125 48.09375 
Q 58.015625 40.1875 58.015625 27.296875 
Q 58.015625 14.40625 51.78125 6.484375 
Q 45.5625 -1.421875 35.59375 -1.421875 
Q 29.59375 -1.421875 25.265625 0.953125 
Q 20.953125 3.328125 18.109375 8.203125 
z
M 48.6875 27.296875 
Q 48.6875 37.203125 44.609375 42.84375 
Q 40.53125 48.484375 33.40625 48.484375 
Q 26.265625 48.484375 22.1875 42.84375 
Q 18.109375 37.203125 18.109375 27.296875 
Q 18.109375 17.390625 22.1875 11.75 
Q 26.265625 6.109375 33.40625 6.109375 
Q 40.53125 6.109375 44.609375 11.75 
Q 48.6875 17.390625 48.6875 27.296875 
z
" id="DejaVuSans-112"/>
      <path d="M 44.28125 53.078125 
L 44.28125 44.578125 
Q 40.484375 46.53125 36.375 47.5 
Q 32.28125 48.484375 27.875 48.484375 
Q 21.1875 48.484375 17.84375 46.4375 
Q 14.5 44.390625 14.5 40.28125 
Q 14.5 37.15625 16.890625 35.375 
Q 19.28125 33.59375 26.515625 31.984375 
L 29.59375 31.296875 
Q 39.15625 29.25 43.1875 25.515625 
Q 47.21875 21.78125 47.21875 15.09375 
Q 47.21875 7.46875 41.1875 3.015625 
Q 35.15625 -1.421875 24.609375 -1.421875 
Q 20.21875 -1.421875 15.453125 -0.5625 
Q 10.6875 0.296875 5.421875 2 
L 5.421875 11.28125 
Q 10.40625 8.6875 15.234375 7.390625 
Q 20.0625 6.109375 24.8125 6.109375 
Q 31.15625 6.109375 34.5625 8.28125 
Q 37.984375 10.453125 37.984375 14.40625 
Q 37.984375 18.0625 35.515625 20.015625 
Q 33.0625 21.96875 24.703125 23.78125 
L 21.578125 24.515625 
Q 13.234375 26.265625 9.515625 29.90625 
Q 5.8125 33.546875 5.8125 39.890625 
Q 5.8125 47.609375 11.28125 51.796875 
Q 16.75 56 26.8125 56 
Q 31.78125 56 36.171875 55.265625 
Q 40.578125 54.546875 44.28125 53.078125 
z
" id="DejaVuSans-115"/>
      <path d="M 8.015625 75.875 
L 15.828125 75.875 
Q 23.140625 64.359375 26.78125 53.3125 
Q 30.421875 42.28125 30.421875 31.390625 
Q 30.421875 20.453125 26.78125 9.375 
Q 23.140625 -1.703125 15.828125 -13.1875 
L 8.015625 -13.1875 
Q 14.5 -2 17.703125 9.0625 
Q 20.90625 20.125 20.90625 31.390625 
Q 20.90625 42.671875 17.703125 53.65625 
Q 14.5 64.65625 8.015625 75.875 
z
" id="DejaVuSans-41"/>
     </defs>
     <g transform="translate(89.150931 165.719382)scale(0.18 -0.18)">
      <use xlink:href="#DejaVuSans-87"/>
      <use x="98.798828" xlink:href="#DejaVuSans-111"/>
      <use x="159.980469" xlink:href="#DejaVuSans-114"/>
      <use x="201.078125" xlink:href="#DejaVuSans-100"/>
      <use x="264.554688" xlink:href="#DejaVuSans-32"/>
      <use x="296.341797" xlink:href="#DejaVuSans-108"/>
      <use x="324.125" xlink:href="#DejaVuSans-101"/>
      <use x="385.648438" xlink:href="#DejaVuSans-110"/>
      <use x="449.027344" xlink:href="#DejaVuSans-103"/>
      <use x="512.503906" xlink:href="#DejaVuSans-116"/>
      <use x="551.712891" xlink:href="#DejaVuSans-104"/>
      <use x="615.091797" xlink:href="#DejaVuSans-32"/>
      <use x="646.878906" xlink:href="#DejaVuSans-40"/>
      <use x="685.892578" xlink:href="#DejaVuSans-112"/>
      <use x="749.369141" xlink:href="#DejaVuSans-104"/>
      <use x="812.748047" xlink:href="#DejaVuSans-111"/>
      <use x="873.929688" xlink:href="#DejaVuSans-110"/>
      <use x="937.308594" xlink:href="#DejaVuSans-101"/>
      <use x="998.832031" xlink:href="#DejaVuSans-115"/>
      <use x="1050.931641" xlink:href="#DejaVuSans-41"/>
     </g>
    </g>
   </g>
   <g id="matplotlib.axis_2">
    <g id="ytick_1">
     <g id="line2d_23">
      <defs>
       <path d="M 0 0 
L 10 0 
" id="m9ee2c2c5fb" style="stroke:#000000;stroke-width:3;"/>
      </defs>
      <g>
       <use style="stroke:#000000;stroke-width:3;" x="65.942364" xlink:href="#m9ee2c2c5fb" y="123.492819"/>
      </g>
     </g>
     <g id="text_5">
      <!-- 0.00 -->
      <defs>
       <path d="M 10.6875 12.40625 
L 21 12.40625 
L 21 0 
L 10.6875 0 
z
" id="DejaVuSans-46"/>
      </defs>
      <g transform="translate(24.770489 128.811726)scale(0.14 -0.14)">
       <use xlink:href="#DejaVuSans-48"/>
       <use x="63.623047" xlink:href="#DejaVuSans-46"/>
       <use x="95.410156" xlink:href="#DejaVuSans-48"/>
       <use x="159.033203" xlink:href="#DejaVuSans-48"/>
      </g>
     </g>
    </g>
    <g id="ytick_2">
     <g id="line2d_24">
      <g>
       <use style="stroke:#000000;stroke-width:3;" x="65.942364" xlink:href="#m9ee2c2c5fb" y="93.949341"/>
      </g>
     </g>
     <g id="text_6">
      <!-- 0.25 -->
      <defs>
       <path d="M 19.1875 8.296875 
L 53.609375 8.296875 
L 53.609375 0 
L 7.328125 0 
L 7.328125 8.296875 
Q 12.9375 14.109375 22.625 23.890625 
Q 32.328125 33.6875 34.8125 36.53125 
Q 39.546875 41.84375 41.421875 45.53125 
Q 43.3125 49.21875 43.3125 52.78125 
Q 43.3125 58.59375 39.234375 62.25 
Q 35.15625 65.921875 28.609375 65.921875 
Q 23.96875 65.921875 18.8125 64.3125 
Q 13.671875 62.703125 7.8125 59.421875 
L 7.8125 69.390625 
Q 13.765625 71.78125 18.9375 73 
Q 24.125 74.21875 28.421875 74.21875 
Q 39.75 74.21875 46.484375 68.546875 
Q 53.21875 62.890625 53.21875 53.421875 
Q 53.21875 48.921875 51.53125 44.890625 
Q 49.859375 40.875 45.40625 35.40625 
Q 44.1875 33.984375 37.640625 27.21875 
Q 31.109375 20.453125 19.1875 8.296875 
z
" id="DejaVuSans-50"/>
       <path d="M 10.796875 72.90625 
L 49.515625 72.90625 
L 49.515625 64.59375 
L 19.828125 64.59375 
L 19.828125 46.734375 
Q 21.96875 47.46875 24.109375 47.828125 
Q 26.265625 48.1875 28.421875 48.1875 
Q 40.625 48.1875 47.75 41.5 
Q 54.890625 34.8125 54.890625 23.390625 
Q 54.890625 11.625 47.5625 5.09375 
Q 40.234375 -1.421875 26.90625 -1.421875 
Q 22.3125 -1.421875 17.546875 -0.640625 
Q 12.796875 0.140625 7.71875 1.703125 
L 7.71875 11.625 
Q 12.109375 9.234375 16.796875 8.0625 
Q 21.484375 6.890625 26.703125 6.890625 
Q 35.15625 6.890625 40.078125 11.328125 
Q 45.015625 15.765625 45.015625 23.390625 
Q 45.015625 31 40.078125 35.4375 
Q 35.15625 39.890625 26.703125 39.890625 
Q 22.75 39.890625 18.8125 39.015625 
Q 14.890625 38.140625 10.796875 36.28125 
z
" id="DejaVuSans-53"/>
      </defs>
      <g transform="translate(24.770489 99.268247)scale(0.14 -0.14)">
       <use xlink:href="#DejaVuSans-48"/>
       <use x="63.623047" xlink:href="#DejaVuSans-46"/>
       <use x="95.410156" xlink:href="#DejaVuSans-50"/>
       <use x="159.033203" xlink:href="#DejaVuSans-53"/>
      </g>
     </g>
    </g>
    <g id="ytick_3">
     <g id="line2d_25">
      <g>
       <use style="stroke:#000000;stroke-width:3;" x="65.942364" xlink:href="#m9ee2c2c5fb" y="64.405863"/>
      </g>
     </g>
     <g id="text_7">
      <!-- 0.50 -->
      <g transform="translate(24.770489 69.724769)scale(0.14 -0.14)">
       <use xlink:href="#DejaVuSans-48"/>
       <use x="63.623047" xlink:href="#DejaVuSans-46"/>
       <use x="95.410156" xlink:href="#DejaVuSans-53"/>
       <use x="159.033203" xlink:href="#DejaVuSans-48"/>
      </g>
     </g>
    </g>
    <g id="ytick_4">
     <g id="line2d_26">
      <g>
       <use style="stroke:#000000;stroke-width:3;" x="65.942364" xlink:href="#m9ee2c2c5fb" y="34.862385"/>
      </g>
     </g>
     <g id="text_8">
      <!-- 0.75 -->
      <defs>
       <path d="M 8.203125 72.90625 
L 55.078125 72.90625 
L 55.078125 68.703125 
L 28.609375 0 
L 18.3125 0 
L 43.21875 64.59375 
L 8.203125 64.59375 
z
" id="DejaVuSans-55"/>
      </defs>
      <g transform="translate(24.770489 40.181291)scale(0.14 -0.14)">
       <use xlink:href="#DejaVuSans-48"/>
       <use x="63.623047" xlink:href="#DejaVuSans-46"/>
       <use x="95.410156" xlink:href="#DejaVuSans-55"/>
       <use x="159.033203" xlink:href="#DejaVuSans-53"/>
      </g>
     </g>
    </g>
    <g id="ytick_5">
     <g id="line2d_27">
      <g>
       <use style="stroke:#000000;stroke-width:3;" x="65.942364" xlink:href="#m9ee2c2c5fb" y="5.318906"/>
      </g>
     </g>
     <g id="text_9">
      <!-- 1.00 -->
      <g transform="translate(24.770489 10.637812)scale(0.14 -0.14)">
       <use xlink:href="#DejaVuSans-49"/>
       <use x="63.623047" xlink:href="#DejaVuSans-46"/>
       <use x="95.410156" xlink:href="#DejaVuSans-48"/>
       <use x="159.033203" xlink:href="#DejaVuSans-48"/>
      </g>
     </g>
    </g>
    <g id="text_10">
     <!-- Prob. Density -->
     <defs>
      <path d="M 19.671875 64.796875 
L 19.671875 37.40625 
L 32.078125 37.40625 
Q 38.96875 37.40625 42.71875 40.96875 
Q 46.484375 44.53125 46.484375 51.125 
Q 46.484375 57.671875 42.71875 61.234375 
Q 38.96875 64.796875 32.078125 64.796875 
z
M 9.8125 72.90625 
L 32.078125 72.90625 
Q 44.34375 72.90625 50.609375 67.359375 
Q 56.890625 61.8125 56.890625 51.125 
Q 56.890625 40.328125 50.609375 34.8125 
Q 44.34375 29.296875 32.078125 29.296875 
L 19.671875 29.296875 
L 19.671875 0 
L 9.8125 0 
z
" id="DejaVuSans-80"/>
      <path d="M 48.6875 27.296875 
Q 48.6875 37.203125 44.609375 42.84375 
Q 40.53125 48.484375 33.40625 48.484375 
Q 26.265625 48.484375 22.1875 42.84375 
Q 18.109375 37.203125 18.109375 27.296875 
Q 18.109375 17.390625 22.1875 11.75 
Q 26.265625 6.109375 33.40625 6.109375 
Q 40.53125 6.109375 44.609375 11.75 
Q 48.6875 17.390625 48.6875 27.296875 
z
M 18.109375 46.390625 
Q 20.953125 51.265625 25.265625 53.625 
Q 29.59375 56 35.59375 56 
Q 45.5625 56 51.78125 48.09375 
Q 58.015625 40.1875 58.015625 27.296875 
Q 58.015625 14.40625 51.78125 6.484375 
Q 45.5625 -1.421875 35.59375 -1.421875 
Q 29.59375 -1.421875 25.265625 0.953125 
Q 20.953125 3.328125 18.109375 8.203125 
L 18.109375 0 
L 9.078125 0 
L 9.078125 75.984375 
L 18.109375 75.984375 
z
" id="DejaVuSans-98"/>
      <path d="M 19.671875 64.796875 
L 19.671875 8.109375 
L 31.59375 8.109375 
Q 46.6875 8.109375 53.6875 14.9375 
Q 60.6875 21.78125 60.6875 36.53125 
Q 60.6875 51.171875 53.6875 57.984375 
Q 46.6875 64.796875 31.59375 64.796875 
z
M 9.8125 72.90625 
L 30.078125 72.90625 
Q 51.265625 72.90625 61.171875 64.09375 
Q 71.09375 55.28125 71.09375 36.53125 
Q 71.09375 17.671875 61.125 8.828125 
Q 51.171875 0 30.078125 0 
L 9.8125 0 
z
" id="DejaVuSans-68"/>
      <path d="M 9.421875 54.6875 
L 18.40625 54.6875 
L 18.40625 0 
L 9.421875 0 
z
M 9.421875 75.984375 
L 18.40625 75.984375 
L 18.40625 64.59375 
L 9.421875 64.59375 
z
" id="DejaVuSans-105"/>
      <path d="M 32.171875 -5.078125 
Q 28.375 -14.84375 24.75 -17.8125 
Q 21.140625 -20.796875 15.09375 -20.796875 
L 7.90625 -20.796875 
L 7.90625 -13.28125 
L 13.1875 -13.28125 
Q 16.890625 -13.28125 18.9375 -11.515625 
Q 21 -9.765625 23.484375 -3.21875 
L 25.09375 0.875 
L 2.984375 54.6875 
L 12.5 54.6875 
L 29.59375 11.921875 
L 46.6875 54.6875 
L 56.203125 54.6875 
z
" id="DejaVuSans-121"/>
     </defs>
     <g transform="translate(13.677187 124.684769)rotate(-90)scale(0.18 -0.18)">
      <use xlink:href="#DejaVuSans-80"/>
      <use x="60.287109" xlink:href="#DejaVuSans-114"/>
      <use x="101.369141" xlink:href="#DejaVuSans-111"/>
      <use x="162.550781" xlink:href="#DejaVuSans-98"/>
      <use x="226.027344" xlink:href="#DejaVuSans-46"/>
      <use x="257.814453" xlink:href="#DejaVuSans-32"/>
      <use x="289.601562" xlink:href="#DejaVuSans-68"/>
      <use x="366.603516" xlink:href="#DejaVuSans-101"/>
      <use x="428.126953" xlink:href="#DejaVuSans-110"/>
      <use x="491.505859" xlink:href="#DejaVuSans-115"/>
      <use x="543.605469" xlink:href="#DejaVuSans-105"/>
      <use x="571.388672" xlink:href="#DejaVuSans-116"/>
      <use x="610.597656" xlink:href="#DejaVuSans-121"/>
     </g>
    </g>
   </g>
   <g id="line2d_28">
    <path clip-path="url(#p99d1e25412)" d="M 13.612371 123.399112 
L 20.377736 123.218762 
L 27.1431 122.800419 
L 31.653343 122.30766 
L 36.163586 121.588383 
L 40.673829 120.614882 
L 45.184072 119.391347 
L 49.694314 117.955912 
L 56.459679 115.523893 
L 63.225043 112.807639 
L 67.735286 110.715027 
L 69.990407 109.521248 
L 72.245529 108.193873 
L 74.50065 106.707115 
L 76.755772 105.039245 
L 79.010893 103.175535 
L 81.266015 101.11082 
L 83.521136 98.851348 
L 88.031379 93.834526 
L 99.306986 80.446685 
L 101.562108 78.068091 
L 103.817229 75.914647 
L 106.072351 74.02885 
L 108.327472 72.445058 
L 110.582594 71.189147 
L 112.837715 70.278604 
L 115.092836 69.722894 
L 117.347958 69.523943 
L 119.603079 69.676618 
L 121.858201 70.16917 
L 124.113322 70.983654 
L 126.368444 72.096383 
L 128.623565 73.478511 
L 130.878687 75.096799 
L 133.133808 76.914631 
L 137.644051 80.993098 
L 153.429901 96.228478 
L 157.940144 100.079797 
L 162.450387 103.575089 
L 166.96063 106.720199 
L 171.470873 109.534942 
L 175.981116 112.038266 
L 180.491359 114.242834 
L 185.001601 116.156544 
L 189.511844 117.787104 
L 194.022087 119.146374 
L 198.53233 120.252677 
L 203.042573 121.130762 
L 207.552816 121.810045 
L 214.31818 122.525166 
L 221.083545 122.966712 
L 230.10403 123.279813 
L 243.634759 123.447815 
L 275.206459 123.491868 
L 300.012795 123.429396 
L 300.012795 123.429396 
" style="fill:none;stroke:#721825;stroke-linecap:square;stroke-width:6;"/>
   </g>
   <g id="line2d_29">
    <path clip-path="url(#p99d1e25412)" d="M 121.236415 123.492819 
L 121.236415 5.318906 
" style="fill:none;stroke:#721825;stroke-dasharray:11.1,4.8;stroke-dashoffset:0;stroke-opacity:0.5;stroke-width:3;"/>
   </g>
   <g id="patch_21">
    <path d="M 65.942364 123.492819 
L 65.942364 5.318906 
" style="fill:none;stroke:#000000;stroke-linecap:square;stroke-linejoin:miter;stroke-width:3;"/>
   </g>
   <g id="patch_22">
    <path d="M 308.55106 123.492819 
L 308.55106 5.318906 
" style="fill:none;stroke:#000000;stroke-linecap:square;stroke-linejoin:miter;stroke-width:3;"/>
   </g>
   <g id="patch_23">
    <path d="M 65.942364 123.492819 
L 308.55106 123.492819 
" style="fill:none;stroke:#000000;stroke-linecap:square;stroke-linejoin:miter;stroke-width:3;"/>
   </g>
   <g id="patch_24">
    <path d="M 65.942364 5.318906 
L 308.55106 5.318906 
" style="fill:none;stroke:#000000;stroke-linecap:square;stroke-linejoin:miter;stroke-width:3;"/>
   </g>
  </g>
  <g id="axes_2">
   <g id="patch_25">
    <path d="M 357.072799 123.492819 
L 599.681495 123.492819 
L 599.681495 5.318906 
L 357.072799 5.318906 
z
" style="fill:#ffffff;"/>
   </g>
   <g id="patch_26">
    <path clip-path="url(#pb67c7d2b5d)" d="M 339.905686 123.492819 
L 369.089778 123.492819 
L 369.089778 98.879652 
L 339.905686 98.879652 
z
" style="fill:#dd8452;opacity:0.4;"/>
   </g>
   <g id="patch_27">
    <path clip-path="url(#pb67c7d2b5d)" d="M 369.089778 123.492819 
L 398.273869 123.492819 
L 398.273869 96.272931 
L 369.089778 96.272931 
z
" style="fill:#dd8452;opacity:0.4;"/>
   </g>
   <g id="patch_28">
    <path clip-path="url(#pb67c7d2b5d)" d="M 398.273869 123.492819 
L 427.45796 123.492819 
L 427.45796 94.974154 
L 398.273869 94.974154 
z
" style="fill:#dd8452;opacity:0.4;"/>
   </g>
   <g id="patch_29">
    <path clip-path="url(#pb67c7d2b5d)" d="M 427.45796 123.492819 
L 456.642051 123.492819 
L 456.642051 86.690513 
L 427.45796 86.690513 
z
" style="fill:#dd8452;opacity:0.4;"/>
   </g>
   <g id="patch_30">
    <path clip-path="url(#pb67c7d2b5d)" d="M 456.642051 123.492819 
L 485.826142 123.492819 
L 485.826142 102.812648 
L 456.642051 102.812648 
z
" style="fill:#dd8452;opacity:0.4;"/>
   </g>
   <g id="patch_31">
    <path clip-path="url(#pb67c7d2b5d)" d="M 485.826142 123.492819 
L 515.010234 123.492819 
L 515.010234 122.3218 
L 485.826142 122.3218 
z
" style="fill:#dd8452;opacity:0.4;"/>
   </g>
   <g id="patch_32">
    <path clip-path="url(#pb67c7d2b5d)" d="M 515.010234 123.492819 
L 544.194325 123.492819 
L 544.194325 123.469903 
L 515.010234 123.469903 
z
" style="fill:#dd8452;opacity:0.4;"/>
   </g>
   <g id="patch_33">
    <path clip-path="url(#pb67c7d2b5d)" d="M 544.194325 123.492819 
L 573.378416 123.492819 
L 573.378416 123.492819 
L 544.194325 123.492819 
z
" style="fill:#dd8452;opacity:0.4;"/>
   </g>
   <g id="patch_34">
    <path clip-path="url(#pb67c7d2b5d)" d="M 573.378416 123.492819 
L 602.562507 123.492819 
L 602.562507 123.492819 
L 573.378416 123.492819 
z
" style="fill:#dd8452;opacity:0.4;"/>
   </g>
   <g id="patch_35">
    <path clip-path="url(#pb67c7d2b5d)" d="M 602.562507 123.492819 
L 631.746598 123.492819 
L 631.746598 123.492819 
L 602.562507 123.492819 
z
" style="fill:#dd8452;opacity:0.4;"/>
   </g>
   <g id="patch_36">
    <path clip-path="url(#pb67c7d2b5d)" d="M 631.746598 123.492819 
L 660.93069 123.492819 
L 660.93069 123.492819 
L 631.746598 123.492819 
z
" style="fill:#dd8452;opacity:0.4;"/>
   </g>
   <g id="patch_37">
    <path clip-path="url(#pb67c7d2b5d)" d="M 660.93069 123.492819 
L 690.114781 123.492819 
L 690.114781 123.492819 
L 660.93069 123.492819 
z
" style="fill:#dd8452;opacity:0.4;"/>
   </g>
   <g id="patch_38">
    <path clip-path="url(#pb67c7d2b5d)" d="M 690.114781 123.492819 
L 719.298872 123.492819 
L 719.298872 123.492819 
L 690.114781 123.492819 
z
" style="fill:#dd8452;opacity:0.4;"/>
   </g>
   <g id="patch_39">
    <path clip-path="url(#pb67c7d2b5d)" d="M 719.298872 123.492819 
L 748.482963 123.492819 
L 748.482963 123.492819 
L 719.298872 123.492819 
z
" style="fill:#dd8452;opacity:0.4;"/>
   </g>
   <g id="patch_40">
    <path clip-path="url(#pb67c7d2b5d)" d="M 748.482963 123.492819 
L 777.667054 123.492819 
L 777.667054 123.492819 
L 748.482963 123.492819 
z
" style="fill:#dd8452;opacity:0.4;"/>
   </g>
   <g id="patch_41">
    <path clip-path="url(#pb67c7d2b5d)" d="M 777.667054 123.492819 
L 806.851146 123.492819 
L 806.851146 123.492819 
L 777.667054 123.492819 
z
" style="fill:#dd8452;opacity:0.4;"/>
   </g>
   <g id="patch_42">
    <path clip-path="url(#pb67c7d2b5d)" d="M 806.851146 123.492819 
L 836.035237 123.492819 
L 836.035237 123.492819 
L 806.851146 123.492819 
z
" style="fill:#dd8452;opacity:0.4;"/>
   </g>
   <g id="patch_43">
    <path clip-path="url(#pb67c7d2b5d)" d="M 836.035237 123.492819 
L 865.219328 123.492819 
L 865.219328 123.492819 
L 836.035237 123.492819 
z
" style="fill:#dd8452;opacity:0.4;"/>
   </g>
   <g id="matplotlib.axis_3">
    <g id="xtick_23">
     <g id="line2d_30">
      <g>
       <use style="stroke:#000000;stroke-width:3;" x="357.072799" xlink:href="#m5590f354ae" y="123.492819"/>
      </g>
     </g>
     <g id="text_11">
      <!-- 1 -->
      <g transform="translate(352.619049 144.130632)scale(0.14 -0.14)">
       <use xlink:href="#DejaVuSans-49"/>
      </g>
     </g>
    </g>
    <g id="xtick_24">
     <g id="line2d_31">
      <g>
       <use style="stroke:#000000;stroke-width:3;" x="471.128625" xlink:href="#m5590f354ae" y="123.492819"/>
      </g>
     </g>
     <g id="text_12">
      <!-- 10 -->
      <g transform="translate(462.221125 144.130632)scale(0.14 -0.14)">
       <use xlink:href="#DejaVuSans-49"/>
       <use x="63.623047" xlink:href="#DejaVuSans-48"/>
      </g>
     </g>
    </g>
    <g id="xtick_25">
     <g id="line2d_32">
      <g>
       <use style="stroke:#000000;stroke-width:3;" x="585.184452" xlink:href="#m5590f354ae" y="123.492819"/>
      </g>
     </g>
     <g id="text_13">
      <!-- 100 -->
      <g transform="translate(571.823202 144.130632)scale(0.14 -0.14)">
       <use xlink:href="#DejaVuSans-49"/>
       <use x="63.623047" xlink:href="#DejaVuSans-48"/>
       <use x="127.246094" xlink:href="#DejaVuSans-48"/>
      </g>
     </g>
    </g>
    <g id="xtick_26">
     <g id="line2d_33">
      <g>
       <use style="stroke:#000000;stroke-width:2;" x="357.072799" xlink:href="#m7d49c0b554" y="123.492819"/>
      </g>
     </g>
    </g>
    <g id="xtick_27">
     <g id="line2d_34">
      <g>
       <use style="stroke:#000000;stroke-width:2;" x="391.407024" xlink:href="#m7d49c0b554" y="123.492819"/>
      </g>
     </g>
    </g>
    <g id="xtick_28">
     <g id="line2d_35">
      <g>
       <use style="stroke:#000000;stroke-width:2;" x="411.491258" xlink:href="#m7d49c0b554" y="123.492819"/>
      </g>
     </g>
    </g>
    <g id="xtick_29">
     <g id="line2d_36">
      <g>
       <use style="stroke:#000000;stroke-width:2;" x="425.741249" xlink:href="#m7d49c0b554" y="123.492819"/>
      </g>
     </g>
    </g>
    <g id="xtick_30">
     <g id="line2d_37">
      <g>
       <use style="stroke:#000000;stroke-width:2;" x="436.7944" xlink:href="#m7d49c0b554" y="123.492819"/>
      </g>
     </g>
    </g>
    <g id="xtick_31">
     <g id="line2d_38">
      <g>
       <use style="stroke:#000000;stroke-width:2;" x="445.825483" xlink:href="#m7d49c0b554" y="123.492819"/>
      </g>
     </g>
    </g>
    <g id="xtick_32">
     <g id="line2d_39">
      <g>
       <use style="stroke:#000000;stroke-width:2;" x="453.461154" xlink:href="#m7d49c0b554" y="123.492819"/>
      </g>
     </g>
    </g>
    <g id="xtick_33">
     <g id="line2d_40">
      <g>
       <use style="stroke:#000000;stroke-width:2;" x="460.075474" xlink:href="#m7d49c0b554" y="123.492819"/>
      </g>
     </g>
    </g>
    <g id="xtick_34">
     <g id="line2d_41">
      <g>
       <use style="stroke:#000000;stroke-width:2;" x="465.909717" xlink:href="#m7d49c0b554" y="123.492819"/>
      </g>
     </g>
    </g>
    <g id="xtick_35">
     <g id="line2d_42">
      <g>
       <use style="stroke:#000000;stroke-width:2;" x="471.128625" xlink:href="#m7d49c0b554" y="123.492819"/>
      </g>
     </g>
    </g>
    <g id="xtick_36">
     <g id="line2d_43">
      <g>
       <use style="stroke:#000000;stroke-width:2;" x="505.46285" xlink:href="#m7d49c0b554" y="123.492819"/>
      </g>
     </g>
    </g>
    <g id="xtick_37">
     <g id="line2d_44">
      <g>
       <use style="stroke:#000000;stroke-width:2;" x="525.547084" xlink:href="#m7d49c0b554" y="123.492819"/>
      </g>
     </g>
    </g>
    <g id="xtick_38">
     <g id="line2d_45">
      <g>
       <use style="stroke:#000000;stroke-width:2;" x="539.797075" xlink:href="#m7d49c0b554" y="123.492819"/>
      </g>
     </g>
    </g>
    <g id="xtick_39">
     <g id="line2d_46">
      <g>
       <use style="stroke:#000000;stroke-width:2;" x="550.850227" xlink:href="#m7d49c0b554" y="123.492819"/>
      </g>
     </g>
    </g>
    <g id="xtick_40">
     <g id="line2d_47">
      <g>
       <use style="stroke:#000000;stroke-width:2;" x="559.881309" xlink:href="#m7d49c0b554" y="123.492819"/>
      </g>
     </g>
    </g>
    <g id="xtick_41">
     <g id="line2d_48">
      <g>
       <use style="stroke:#000000;stroke-width:2;" x="567.516981" xlink:href="#m7d49c0b554" y="123.492819"/>
      </g>
     </g>
    </g>
    <g id="xtick_42">
     <g id="line2d_49">
      <g>
       <use style="stroke:#000000;stroke-width:2;" x="574.1313" xlink:href="#m7d49c0b554" y="123.492819"/>
      </g>
     </g>
    </g>
    <g id="xtick_43">
     <g id="line2d_50">
      <g>
       <use style="stroke:#000000;stroke-width:2;" x="579.965543" xlink:href="#m7d49c0b554" y="123.492819"/>
      </g>
     </g>
    </g>
    <g id="xtick_44">
     <g id="line2d_51">
      <g>
       <use style="stroke:#000000;stroke-width:2;" x="585.184452" xlink:href="#m7d49c0b554" y="123.492819"/>
      </g>
     </g>
    </g>
    <g id="text_14">
     <!-- Word length (phones) -->
     <g transform="translate(380.281365 165.719382)scale(0.18 -0.18)">
      <use xlink:href="#DejaVuSans-87"/>
      <use x="98.798828" xlink:href="#DejaVuSans-111"/>
      <use x="159.980469" xlink:href="#DejaVuSans-114"/>
      <use x="201.078125" xlink:href="#DejaVuSans-100"/>
      <use x="264.554688" xlink:href="#DejaVuSans-32"/>
      <use x="296.341797" xlink:href="#DejaVuSans-108"/>
      <use x="324.125" xlink:href="#DejaVuSans-101"/>
      <use x="385.648438" xlink:href="#DejaVuSans-110"/>
      <use x="449.027344" xlink:href="#DejaVuSans-103"/>
      <use x="512.503906" xlink:href="#DejaVuSans-116"/>
      <use x="551.712891" xlink:href="#DejaVuSans-104"/>
      <use x="615.091797" xlink:href="#DejaVuSans-32"/>
      <use x="646.878906" xlink:href="#DejaVuSans-40"/>
      <use x="685.892578" xlink:href="#DejaVuSans-112"/>
      <use x="749.369141" xlink:href="#DejaVuSans-104"/>
      <use x="812.748047" xlink:href="#DejaVuSans-111"/>
      <use x="873.929688" xlink:href="#DejaVuSans-110"/>
      <use x="937.308594" xlink:href="#DejaVuSans-101"/>
      <use x="998.832031" xlink:href="#DejaVuSans-115"/>
      <use x="1050.931641" xlink:href="#DejaVuSans-41"/>
     </g>
    </g>
   </g>
   <g id="matplotlib.axis_4">
    <g id="ytick_6">
     <g id="line2d_52">
      <g>
       <use style="stroke:#000000;stroke-width:3;" x="357.072799" xlink:href="#m9ee2c2c5fb" y="123.492819"/>
      </g>
     </g>
    </g>
    <g id="ytick_7">
     <g id="line2d_53">
      <g>
       <use style="stroke:#000000;stroke-width:3;" x="357.072799" xlink:href="#m9ee2c2c5fb" y="93.949341"/>
      </g>
     </g>
    </g>
    <g id="ytick_8">
     <g id="line2d_54">
      <g>
       <use style="stroke:#000000;stroke-width:3;" x="357.072799" xlink:href="#m9ee2c2c5fb" y="64.405863"/>
      </g>
     </g>
    </g>
    <g id="ytick_9">
     <g id="line2d_55">
      <g>
       <use style="stroke:#000000;stroke-width:3;" x="357.072799" xlink:href="#m9ee2c2c5fb" y="34.862385"/>
      </g>
     </g>
    </g>
    <g id="ytick_10">
     <g id="line2d_56">
      <g>
       <use style="stroke:#000000;stroke-width:3;" x="357.072799" xlink:href="#m9ee2c2c5fb" y="5.318906"/>
      </g>
     </g>
    </g>
   </g>
   <g id="line2d_57">
    <path clip-path="url(#pb67c7d2b5d)" d="M 305.571462 123.296196 
L 310.071099 123.080216 
L 314.570736 122.683459 
L 319.070373 122.008585 
L 323.57001 120.947732 
L 325.819828 120.242601 
L 328.069647 119.410589 
L 330.319465 118.449766 
L 334.819102 116.165935 
L 339.318739 113.5124 
L 346.068195 109.362268 
L 350.567832 106.906881 
L 352.81765 105.865663 
L 355.067469 104.971453 
L 357.317287 104.227071 
L 359.567106 103.623321 
L 364.066743 102.747898 
L 375.315835 100.968001 
L 379.815472 99.902957 
L 395.564202 95.613753 
L 400.063839 94.758221 
L 411.312932 92.863017 
L 415.812569 91.841238 
L 420.312206 90.605477 
L 429.31148 87.990809 
L 433.811117 87.017081 
L 436.060935 86.706718 
L 438.310754 86.543624 
L 440.560572 86.545011 
L 442.810391 86.723436 
L 445.060209 87.086544 
L 447.310028 87.637031 
L 449.559846 88.372817 
L 451.809665 89.287368 
L 454.059483 90.370144 
L 456.309302 91.607145 
L 460.808939 94.474114 
L 465.308576 97.73018 
L 481.057305 109.717588 
L 485.556943 112.699085 
L 490.05658 115.298272 
L 494.556217 117.474021 
L 499.055854 119.221714 
L 503.555491 120.567639 
L 508.055128 121.560518 
L 512.554765 122.261665 
L 517.054402 122.735537 
L 523.803857 123.149118 
L 532.803131 123.383248 
L 548.551861 123.479209 
L 586.798776 123.435794 
L 591.298413 123.360474 
L 591.298413 123.360474 
" style="fill:none;stroke:#dd8452;stroke-linecap:square;stroke-width:6;"/>
   </g>
   <g id="line2d_58">
    <path clip-path="url(#pb67c7d2b5d)" d="M 425.741249 123.492819 
L 425.741249 5.318906 
" style="fill:none;stroke:#dd8452;stroke-dasharray:11.1,4.8;stroke-dashoffset:0;stroke-opacity:0.5;stroke-width:3;"/>
   </g>
   <g id="patch_44">
    <path d="M 357.072799 123.492819 
L 357.072799 5.318906 
" style="fill:none;stroke:#000000;stroke-linecap:square;stroke-linejoin:miter;stroke-width:3;"/>
   </g>
   <g id="patch_45">
    <path d="M 599.681495 123.492819 
L 599.681495 5.318906 
" style="fill:none;stroke:#000000;stroke-linecap:square;stroke-linejoin:miter;stroke-width:3;"/>
   </g>
   <g id="patch_46">
    <path d="M 357.072799 123.492819 
L 599.681495 123.492819 
" style="fill:none;stroke:#000000;stroke-linecap:square;stroke-linejoin:miter;stroke-width:3;"/>
   </g>
   <g id="patch_47">
    <path d="M 357.072799 5.318906 
L 599.681495 5.318906 
" style="fill:none;stroke:#000000;stroke-linecap:square;stroke-linejoin:miter;stroke-width:3;"/>
   </g>
  </g>
  <g id="axes_3">
   <g id="patch_48">
    <path d="M 648.203234 123.492819 
L 890.811929 123.492819 
L 890.811929 5.318906 
L 648.203234 5.318906 
z
" style="fill:#ffffff;"/>
   </g>
   <g id="patch_49">
    <path clip-path="url(#pc8fc0f5da1)" d="M 630.450226 123.492819 
L 660.630339 123.492819 
L 660.630339 115.10495 
L 630.450226 115.10495 
z
" style="fill:#03585d;opacity:0.4;"/>
   </g>
   <g id="patch_50">
    <path clip-path="url(#pc8fc0f5da1)" d="M 660.630339 123.492819 
L 690.810452 123.492819 
L 690.810452 67.943722 
L 660.630339 67.943722 
z
" style="fill:#03585d;opacity:0.4;"/>
   </g>
   <g id="patch_51">
    <path clip-path="url(#pc8fc0f5da1)" d="M 690.810452 123.492819 
L 720.990565 123.492819 
L 720.990565 79.806635 
L 690.810452 79.806635 
z
" style="fill:#03585d;opacity:0.4;"/>
   </g>
   <g id="patch_52">
    <path clip-path="url(#pc8fc0f5da1)" d="M 720.990565 123.492819 
L 751.170677 123.492819 
L 751.170677 95.752387 
L 720.990565 95.752387 
z
" style="fill:#03585d;opacity:0.4;"/>
   </g>
   <g id="patch_53">
    <path clip-path="url(#pc8fc0f5da1)" d="M 751.170677 123.492819 
L 781.35079 123.492819 
L 781.35079 119.921159 
L 751.170677 119.921159 
z
" style="fill:#03585d;opacity:0.4;"/>
   </g>
   <g id="patch_54">
    <path clip-path="url(#pc8fc0f5da1)" d="M 781.35079 123.492819 
L 811.530903 123.492819 
L 811.530903 123.401937 
L 781.35079 123.401937 
z
" style="fill:#03585d;opacity:0.4;"/>
   </g>
   <g id="patch_55">
    <path clip-path="url(#pc8fc0f5da1)" d="M 811.530903 123.492819 
L 841.711016 123.492819 
L 841.711016 123.490812 
L 811.530903 123.490812 
z
" style="fill:#03585d;opacity:0.4;"/>
   </g>
   <g id="patch_56">
    <path clip-path="url(#pc8fc0f5da1)" d="M 841.711016 123.492819 
L 871.891128 123.492819 
L 871.891128 123.492819 
L 841.711016 123.492819 
z
" style="fill:#03585d;opacity:0.4;"/>
   </g>
   <g id="patch_57">
    <path clip-path="url(#pc8fc0f5da1)" d="M 871.891128 123.492819 
L 902.071241 123.492819 
L 902.071241 123.492819 
L 871.891128 123.492819 
z
" style="fill:#03585d;opacity:0.4;"/>
   </g>
   <g id="patch_58">
    <path clip-path="url(#pc8fc0f5da1)" d="M 902.071241 123.492819 
L 932.251354 123.492819 
L 932.251354 123.492819 
L 902.071241 123.492819 
z
" style="fill:#03585d;opacity:0.4;"/>
   </g>
   <g id="patch_59">
    <path clip-path="url(#pc8fc0f5da1)" d="M 932.251354 123.492819 
L 962.431467 123.492819 
L 962.431467 123.492819 
L 932.251354 123.492819 
z
" style="fill:#03585d;opacity:0.4;"/>
   </g>
   <g id="patch_60">
    <path clip-path="url(#pc8fc0f5da1)" d="M 962.431467 123.492819 
L 992.61158 123.492819 
L 992.61158 123.492819 
L 962.431467 123.492819 
z
" style="fill:#03585d;opacity:0.4;"/>
   </g>
   <g id="patch_61">
    <path clip-path="url(#pc8fc0f5da1)" d="M 992.61158 123.492819 
L 1022.791692 123.492819 
L 1022.791692 123.492819 
L 992.61158 123.492819 
z
" style="fill:#03585d;opacity:0.4;"/>
   </g>
   <g id="patch_62">
    <path clip-path="url(#pc8fc0f5da1)" d="M 1022.791692 123.492819 
L 1052.971805 123.492819 
L 1052.971805 123.492819 
L 1022.791692 123.492819 
z
" style="fill:#03585d;opacity:0.4;"/>
   </g>
   <g id="patch_63">
    <path clip-path="url(#pc8fc0f5da1)" d="M 1052.971805 123.492819 
L 1083.151918 123.492819 
L 1083.151918 123.492819 
L 1052.971805 123.492819 
z
" style="fill:#03585d;opacity:0.4;"/>
   </g>
   <g id="patch_64">
    <path clip-path="url(#pc8fc0f5da1)" d="M 1083.151918 123.492819 
L 1113.332031 123.492819 
L 1113.332031 123.492819 
L 1083.151918 123.492819 
z
" style="fill:#03585d;opacity:0.4;"/>
   </g>
   <g id="patch_65">
    <path clip-path="url(#pc8fc0f5da1)" d="M 1113.332031 123.492819 
L 1143.512144 123.492819 
L 1143.512144 123.492819 
L 1113.332031 123.492819 
z
" style="fill:#03585d;opacity:0.4;"/>
   </g>
   <g id="patch_66">
    <path clip-path="url(#pc8fc0f5da1)" d="M 1143.512144 123.492819 
L 1173.692256 123.492819 
L 1173.692256 123.492819 
L 1143.512144 123.492819 
z
" style="fill:#03585d;opacity:0.4;"/>
   </g>
   <g id="matplotlib.axis_5">
    <g id="xtick_45">
     <g id="line2d_59">
      <g>
       <use style="stroke:#000000;stroke-width:3;" x="648.203234" xlink:href="#m5590f354ae" y="123.492819"/>
      </g>
     </g>
     <g id="text_15">
      <!-- 1 -->
      <g transform="translate(643.749484 144.130632)scale(0.14 -0.14)">
       <use xlink:href="#DejaVuSans-49"/>
      </g>
     </g>
    </g>
    <g id="xtick_46">
     <g id="line2d_60">
      <g>
       <use style="stroke:#000000;stroke-width:3;" x="766.151663" xlink:href="#m5590f354ae" y="123.492819"/>
      </g>
     </g>
     <g id="text_16">
      <!-- 10 -->
      <g transform="translate(757.244163 144.130632)scale(0.14 -0.14)">
       <use xlink:href="#DejaVuSans-49"/>
       <use x="63.623047" xlink:href="#DejaVuSans-48"/>
      </g>
     </g>
    </g>
    <g id="xtick_47">
     <g id="line2d_61">
      <g>
       <use style="stroke:#000000;stroke-width:3;" x="884.100092" xlink:href="#m5590f354ae" y="123.492819"/>
      </g>
     </g>
     <g id="text_17">
      <!-- 100 -->
      <g transform="translate(870.738842 144.130632)scale(0.14 -0.14)">
       <use xlink:href="#DejaVuSans-49"/>
       <use x="63.623047" xlink:href="#DejaVuSans-48"/>
       <use x="127.246094" xlink:href="#DejaVuSans-48"/>
      </g>
     </g>
    </g>
    <g id="xtick_48">
     <g id="line2d_62">
      <g>
       <use style="stroke:#000000;stroke-width:2;" x="648.203234" xlink:href="#m7d49c0b554" y="123.492819"/>
      </g>
     </g>
    </g>
    <g id="xtick_49">
     <g id="line2d_63">
      <g>
       <use style="stroke:#000000;stroke-width:2;" x="683.709249" xlink:href="#m7d49c0b554" y="123.492819"/>
      </g>
     </g>
    </g>
    <g id="xtick_50">
     <g id="line2d_64">
      <g>
       <use style="stroke:#000000;stroke-width:2;" x="704.478936" xlink:href="#m7d49c0b554" y="123.492819"/>
      </g>
     </g>
    </g>
    <g id="xtick_51">
     <g id="line2d_65">
      <g>
       <use style="stroke:#000000;stroke-width:2;" x="719.215264" xlink:href="#m7d49c0b554" y="123.492819"/>
      </g>
     </g>
    </g>
    <g id="xtick_52">
     <g id="line2d_66">
      <g>
       <use style="stroke:#000000;stroke-width:2;" x="730.645648" xlink:href="#m7d49c0b554" y="123.492819"/>
      </g>
     </g>
    </g>
    <g id="xtick_53">
     <g id="line2d_67">
      <g>
       <use style="stroke:#000000;stroke-width:2;" x="739.984951" xlink:href="#m7d49c0b554" y="123.492819"/>
      </g>
     </g>
    </g>
    <g id="xtick_54">
     <g id="line2d_68">
      <g>
       <use style="stroke:#000000;stroke-width:2;" x="747.88122" xlink:href="#m7d49c0b554" y="123.492819"/>
      </g>
     </g>
    </g>
    <g id="xtick_55">
     <g id="line2d_69">
      <g>
       <use style="stroke:#000000;stroke-width:2;" x="754.721279" xlink:href="#m7d49c0b554" y="123.492819"/>
      </g>
     </g>
    </g>
    <g id="xtick_56">
     <g id="line2d_70">
      <g>
       <use style="stroke:#000000;stroke-width:2;" x="760.754638" xlink:href="#m7d49c0b554" y="123.492819"/>
      </g>
     </g>
    </g>
    <g id="xtick_57">
     <g id="line2d_71">
      <g>
       <use style="stroke:#000000;stroke-width:2;" x="766.151663" xlink:href="#m7d49c0b554" y="123.492819"/>
      </g>
     </g>
    </g>
    <g id="xtick_58">
     <g id="line2d_72">
      <g>
       <use style="stroke:#000000;stroke-width:2;" x="801.657678" xlink:href="#m7d49c0b554" y="123.492819"/>
      </g>
     </g>
    </g>
    <g id="xtick_59">
     <g id="line2d_73">
      <g>
       <use style="stroke:#000000;stroke-width:2;" x="822.427365" xlink:href="#m7d49c0b554" y="123.492819"/>
      </g>
     </g>
    </g>
    <g id="xtick_60">
     <g id="line2d_74">
      <g>
       <use style="stroke:#000000;stroke-width:2;" x="837.163693" xlink:href="#m7d49c0b554" y="123.492819"/>
      </g>
     </g>
    </g>
    <g id="xtick_61">
     <g id="line2d_75">
      <g>
       <use style="stroke:#000000;stroke-width:2;" x="848.594076" xlink:href="#m7d49c0b554" y="123.492819"/>
      </g>
     </g>
    </g>
    <g id="xtick_62">
     <g id="line2d_76">
      <g>
       <use style="stroke:#000000;stroke-width:2;" x="857.93338" xlink:href="#m7d49c0b554" y="123.492819"/>
      </g>
     </g>
    </g>
    <g id="xtick_63">
     <g id="line2d_77">
      <g>
       <use style="stroke:#000000;stroke-width:2;" x="865.829649" xlink:href="#m7d49c0b554" y="123.492819"/>
      </g>
     </g>
    </g>
    <g id="xtick_64">
     <g id="line2d_78">
      <g>
       <use style="stroke:#000000;stroke-width:2;" x="872.669708" xlink:href="#m7d49c0b554" y="123.492819"/>
      </g>
     </g>
    </g>
    <g id="xtick_65">
     <g id="line2d_79">
      <g>
       <use style="stroke:#000000;stroke-width:2;" x="878.703067" xlink:href="#m7d49c0b554" y="123.492819"/>
      </g>
     </g>
    </g>
    <g id="xtick_66">
     <g id="line2d_80">
      <g>
       <use style="stroke:#000000;stroke-width:2;" x="884.100092" xlink:href="#m7d49c0b554" y="123.492819"/>
      </g>
     </g>
    </g>
    <g id="text_18">
     <!-- Word length (phones) -->
     <g transform="translate(671.4118 165.719382)scale(0.18 -0.18)">
      <use xlink:href="#DejaVuSans-87"/>
      <use x="98.798828" xlink:href="#DejaVuSans-111"/>
      <use x="159.980469" xlink:href="#DejaVuSans-114"/>
      <use x="201.078125" xlink:href="#DejaVuSans-100"/>
      <use x="264.554688" xlink:href="#DejaVuSans-32"/>
      <use x="296.341797" xlink:href="#DejaVuSans-108"/>
      <use x="324.125" xlink:href="#DejaVuSans-101"/>
      <use x="385.648438" xlink:href="#DejaVuSans-110"/>
      <use x="449.027344" xlink:href="#DejaVuSans-103"/>
      <use x="512.503906" xlink:href="#DejaVuSans-116"/>
      <use x="551.712891" xlink:href="#DejaVuSans-104"/>
      <use x="615.091797" xlink:href="#DejaVuSans-32"/>
      <use x="646.878906" xlink:href="#DejaVuSans-40"/>
      <use x="685.892578" xlink:href="#DejaVuSans-112"/>
      <use x="749.369141" xlink:href="#DejaVuSans-104"/>
      <use x="812.748047" xlink:href="#DejaVuSans-111"/>
      <use x="873.929688" xlink:href="#DejaVuSans-110"/>
      <use x="937.308594" xlink:href="#DejaVuSans-101"/>
      <use x="998.832031" xlink:href="#DejaVuSans-115"/>
      <use x="1050.931641" xlink:href="#DejaVuSans-41"/>
     </g>
    </g>
   </g>
   <g id="matplotlib.axis_6">
    <g id="ytick_11">
     <g id="line2d_81">
      <g>
       <use style="stroke:#000000;stroke-width:3;" x="648.203234" xlink:href="#m9ee2c2c5fb" y="123.492819"/>
      </g>
     </g>
    </g>
    <g id="ytick_12">
     <g id="line2d_82">
      <g>
       <use style="stroke:#000000;stroke-width:3;" x="648.203234" xlink:href="#m9ee2c2c5fb" y="93.949341"/>
      </g>
     </g>
    </g>
    <g id="ytick_13">
     <g id="line2d_83">
      <g>
       <use style="stroke:#000000;stroke-width:3;" x="648.203234" xlink:href="#m9ee2c2c5fb" y="64.405863"/>
      </g>
     </g>
    </g>
    <g id="ytick_14">
     <g id="line2d_84">
      <g>
       <use style="stroke:#000000;stroke-width:3;" x="648.203234" xlink:href="#m9ee2c2c5fb" y="34.862385"/>
      </g>
     </g>
    </g>
    <g id="ytick_15">
     <g id="line2d_85">
      <g>
       <use style="stroke:#000000;stroke-width:3;" x="648.203234" xlink:href="#m9ee2c2c5fb" y="5.318906"/>
      </g>
     </g>
    </g>
   </g>
   <g id="line2d_86">
    <path clip-path="url(#pc8fc0f5da1)" d="M 594.944211 123.425072 
L 603.616499 123.237322 
L 610.120716 122.897696 
L 614.45686 122.517488 
L 618.793004 121.977976 
L 623.129148 121.256712 
L 627.465292 120.342188 
L 631.801436 119.22908 
L 636.13758 117.903753 
L 640.473725 116.32278 
L 644.809869 114.394023 
L 646.977941 113.256048 
L 649.146013 111.97466 
L 651.314085 110.528655 
L 653.482157 108.89899 
L 655.650229 107.071275 
L 657.818301 105.038371 
L 659.986373 102.802804 
L 664.322517 97.792856 
L 675.162878 84.184267 
L 677.33095 81.773926 
L 679.499022 79.616388 
L 681.667094 77.759713 
L 683.835166 76.23734 
L 686.003238 75.066077 
L 688.17131 74.245533 
L 690.339382 73.759049 
L 692.507454 73.576003 
L 694.675526 73.655215 
L 696.843598 73.949061 
L 699.01167 74.407865 
L 703.347814 75.635969 
L 712.020103 78.488798 
L 718.524319 80.787251 
L 722.860463 82.597054 
L 727.196607 84.797128 
L 731.532751 87.473829 
L 735.868895 90.631183 
L 740.20504 94.192014 
L 746.709256 99.974332 
L 753.213472 105.75307 
L 757.549616 109.318861 
L 761.88576 112.501427 
L 766.221904 115.221611 
L 770.558048 117.450572 
L 774.894193 119.204075 
L 779.230337 120.530949 
L 783.566481 121.499065 
L 787.902625 122.182151 
L 792.238769 122.649784 
L 798.742985 123.073996 
L 807.415274 123.338617 
L 820.423706 123.462916 
L 857.280931 123.48887 
L 870.289363 123.445924 
L 870.289363 123.445924 
" style="fill:none;stroke:#03585d;stroke-linecap:square;stroke-width:6;"/>
   </g>
   <g id="line2d_87">
    <path clip-path="url(#pc8fc0f5da1)" d="M 704.478936 123.492819 
L 704.478936 5.318906 
" style="fill:none;stroke:#03585d;stroke-dasharray:11.1,4.8;stroke-dashoffset:0;stroke-opacity:0.5;stroke-width:3;"/>
   </g>
   <g id="patch_67">
    <path d="M 648.203234 123.492819 
L 648.203234 5.318906 
" style="fill:none;stroke:#000000;stroke-linecap:square;stroke-linejoin:miter;stroke-width:3;"/>
   </g>
   <g id="patch_68">
    <path d="M 890.811929 123.492819 
L 890.811929 5.318906 
" style="fill:none;stroke:#000000;stroke-linecap:square;stroke-linejoin:miter;stroke-width:3;"/>
   </g>
   <g id="patch_69">
    <path d="M 648.203234 123.492819 
L 890.811929 123.492819 
" style="fill:none;stroke:#000000;stroke-linecap:square;stroke-linejoin:miter;stroke-width:3;"/>
   </g>
   <g id="patch_70">
    <path d="M 648.203234 5.318906 
L 890.811929 5.318906 
" style="fill:none;stroke:#000000;stroke-linecap:square;stroke-linejoin:miter;stroke-width:3;"/>
   </g>
  </g>
  <g id="axes_4">
   <g id="patch_71">
    <path d="M 939.333668 123.492819 
L 1181.942364 123.492819 
L 1181.942364 5.318906 
L 939.333668 5.318906 
z
" style="fill:#ffffff;"/>
   </g>
   <g id="patch_72">
    <path clip-path="url(#p1248cb2579)" d="M 921.410937 123.492819 
L 951.87958 123.492819 
L 951.87958 112.252326 
L 921.410937 112.252326 
z
" style="fill:#55a868;opacity:0.4;"/>
   </g>
   <g id="patch_73">
    <path clip-path="url(#p1248cb2579)" d="M 951.87958 123.492819 
L 982.348223 123.492819 
L 982.348223 83.248065 
L 951.87958 83.248065 
z
" style="fill:#55a868;opacity:0.4;"/>
   </g>
   <g id="patch_74">
    <path clip-path="url(#p1248cb2579)" d="M 982.348223 123.492819 
L 1012.816866 123.492819 
L 1012.816866 56.425225 
L 982.348223 56.425225 
z
" style="fill:#55a868;opacity:0.4;"/>
   </g>
   <g id="patch_75">
    <path clip-path="url(#p1248cb2579)" d="M 1012.816866 123.492819 
L 1043.285509 123.492819 
L 1043.285509 107.409659 
L 1012.816866 107.409659 
z
" style="fill:#55a868;opacity:0.4;"/>
   </g>
   <g id="patch_76">
    <path clip-path="url(#p1248cb2579)" d="M 1043.285509 123.492819 
L 1073.754152 123.492819 
L 1073.754152 119.135835 
L 1043.285509 119.135835 
z
" style="fill:#55a868;opacity:0.4;"/>
   </g>
   <g id="patch_77">
    <path clip-path="url(#p1248cb2579)" d="M 1073.754152 123.492819 
L 1104.222795 123.492819 
L 1104.222795 123.457674 
L 1073.754152 123.457674 
z
" style="fill:#55a868;opacity:0.4;"/>
   </g>
   <g id="patch_78">
    <path clip-path="url(#p1248cb2579)" d="M 1104.222795 123.492819 
L 1134.691438 123.492819 
L 1134.691438 123.492819 
L 1104.222795 123.492819 
z
" style="fill:#55a868;opacity:0.4;"/>
   </g>
   <g id="patch_79">
    <path clip-path="url(#p1248cb2579)" d="M 1134.691438 123.492819 
L 1165.160081 123.492819 
L 1165.160081 123.492819 
L 1134.691438 123.492819 
z
" style="fill:#55a868;opacity:0.4;"/>
   </g>
   <g id="patch_80">
    <path clip-path="url(#p1248cb2579)" d="M 1165.160081 123.492819 
L 1195.628723 123.492819 
L 1195.628723 123.492819 
L 1165.160081 123.492819 
z
" style="fill:#55a868;opacity:0.4;"/>
   </g>
   <g id="patch_81">
    <path clip-path="url(#p1248cb2579)" d="M 1195.628723 123.492819 
L 1226.097366 123.492819 
L 1226.097366 123.492819 
L 1195.628723 123.492819 
z
" style="fill:#55a868;opacity:0.4;"/>
   </g>
   <g id="patch_82">
    <path clip-path="url(#p1248cb2579)" d="M 1226.097366 123.492819 
L 1256.566009 123.492819 
L 1256.566009 123.492819 
L 1226.097366 123.492819 
z
" style="fill:#55a868;opacity:0.4;"/>
   </g>
   <g id="patch_83">
    <path clip-path="url(#p1248cb2579)" d="M 1256.566009 123.492819 
L 1287.034652 123.492819 
L 1287.034652 123.492819 
L 1256.566009 123.492819 
z
" style="fill:#55a868;opacity:0.4;"/>
   </g>
   <g id="patch_84">
    <path clip-path="url(#p1248cb2579)" d="M 1287.034652 123.492819 
L 1317.503295 123.492819 
L 1317.503295 123.492819 
L 1287.034652 123.492819 
z
" style="fill:#55a868;opacity:0.4;"/>
   </g>
   <g id="patch_85">
    <path clip-path="url(#p1248cb2579)" d="M 1317.503295 123.492819 
L 1347.971938 123.492819 
L 1347.971938 123.492819 
L 1317.503295 123.492819 
z
" style="fill:#55a868;opacity:0.4;"/>
   </g>
   <g id="patch_86">
    <path clip-path="url(#p1248cb2579)" d="M 1347.971938 123.492819 
L 1378.440581 123.492819 
L 1378.440581 123.492819 
L 1347.971938 123.492819 
z
" style="fill:#55a868;opacity:0.4;"/>
   </g>
   <g id="patch_87">
    <path clip-path="url(#p1248cb2579)" d="M 1378.440581 123.492819 
L 1408.909224 123.492819 
L 1408.909224 123.492819 
L 1378.440581 123.492819 
z
" style="fill:#55a868;opacity:0.4;"/>
   </g>
   <g id="patch_88">
    <path clip-path="url(#p1248cb2579)" d="M 1408.909224 123.492819 
L 1439.377867 123.492819 
L 1439.377867 123.492819 
L 1408.909224 123.492819 
z
" style="fill:#55a868;opacity:0.4;"/>
   </g>
   <g id="patch_89">
    <path clip-path="url(#p1248cb2579)" d="M 1439.377867 123.492819 
L 1469.84651 123.492819 
L 1469.84651 123.492819 
L 1439.377867 123.492819 
z
" style="fill:#55a868;opacity:0.4;"/>
   </g>
   <g id="matplotlib.axis_7">
    <g id="xtick_67">
     <g id="line2d_88">
      <g>
       <use style="stroke:#000000;stroke-width:3;" x="939.333668" xlink:href="#m5590f354ae" y="123.492819"/>
      </g>
     </g>
     <g id="text_19">
      <!-- 1 -->
      <g transform="translate(934.879918 144.130632)scale(0.14 -0.14)">
       <use xlink:href="#DejaVuSans-49"/>
      </g>
     </g>
    </g>
    <g id="xtick_68">
     <g id="line2d_89">
      <g>
       <use style="stroke:#000000;stroke-width:3;" x="1058.409717" xlink:href="#m5590f354ae" y="123.492819"/>
      </g>
     </g>
     <g id="text_20">
      <!-- 10 -->
      <g transform="translate(1049.502217 144.130632)scale(0.14 -0.14)">
       <use xlink:href="#DejaVuSans-49"/>
       <use x="63.623047" xlink:href="#DejaVuSans-48"/>
      </g>
     </g>
    </g>
    <g id="xtick_69">
     <g id="line2d_90">
      <g>
       <use style="stroke:#000000;stroke-width:3;" x="1177.485765" xlink:href="#m5590f354ae" y="123.492819"/>
      </g>
     </g>
     <g id="text_21">
      <!-- 100 -->
      <g transform="translate(1164.124515 144.130632)scale(0.14 -0.14)">
       <use xlink:href="#DejaVuSans-49"/>
       <use x="63.623047" xlink:href="#DejaVuSans-48"/>
       <use x="127.246094" xlink:href="#DejaVuSans-48"/>
      </g>
     </g>
    </g>
    <g id="xtick_70">
     <g id="line2d_91">
      <g>
       <use style="stroke:#000000;stroke-width:2;" x="939.333668" xlink:href="#m7d49c0b554" y="123.492819"/>
      </g>
     </g>
    </g>
    <g id="xtick_71">
     <g id="line2d_92">
      <g>
       <use style="stroke:#000000;stroke-width:2;" x="975.179131" xlink:href="#m7d49c0b554" y="123.492819"/>
      </g>
     </g>
    </g>
    <g id="xtick_72">
     <g id="line2d_93">
      <g>
       <use style="stroke:#000000;stroke-width:2;" x="996.147382" xlink:href="#m7d49c0b554" y="123.492819"/>
      </g>
     </g>
    </g>
    <g id="xtick_73">
     <g id="line2d_94">
      <g>
       <use style="stroke:#000000;stroke-width:2;" x="1011.024593" xlink:href="#m7d49c0b554" y="123.492819"/>
      </g>
     </g>
    </g>
    <g id="xtick_74">
     <g id="line2d_95">
      <g>
       <use style="stroke:#000000;stroke-width:2;" x="1022.564254" xlink:href="#m7d49c0b554" y="123.492819"/>
      </g>
     </g>
    </g>
    <g id="xtick_75">
     <g id="line2d_96">
      <g>
       <use style="stroke:#000000;stroke-width:2;" x="1031.992844" xlink:href="#m7d49c0b554" y="123.492819"/>
      </g>
     </g>
    </g>
    <g id="xtick_76">
     <g id="line2d_97">
      <g>
       <use style="stroke:#000000;stroke-width:2;" x="1039.964603" xlink:href="#m7d49c0b554" y="123.492819"/>
      </g>
     </g>
    </g>
    <g id="xtick_77">
     <g id="line2d_98">
      <g>
       <use style="stroke:#000000;stroke-width:2;" x="1046.870055" xlink:href="#m7d49c0b554" y="123.492819"/>
      </g>
     </g>
    </g>
    <g id="xtick_78">
     <g id="line2d_99">
      <g>
       <use style="stroke:#000000;stroke-width:2;" x="1052.961095" xlink:href="#m7d49c0b554" y="123.492819"/>
      </g>
     </g>
    </g>
    <g id="xtick_79">
     <g id="line2d_100">
      <g>
       <use style="stroke:#000000;stroke-width:2;" x="1058.409717" xlink:href="#m7d49c0b554" y="123.492819"/>
      </g>
     </g>
    </g>
    <g id="xtick_80">
     <g id="line2d_101">
      <g>
       <use style="stroke:#000000;stroke-width:2;" x="1094.255179" xlink:href="#m7d49c0b554" y="123.492819"/>
      </g>
     </g>
    </g>
    <g id="xtick_81">
     <g id="line2d_102">
      <g>
       <use style="stroke:#000000;stroke-width:2;" x="1115.22343" xlink:href="#m7d49c0b554" y="123.492819"/>
      </g>
     </g>
    </g>
    <g id="xtick_82">
     <g id="line2d_103">
      <g>
       <use style="stroke:#000000;stroke-width:2;" x="1130.100641" xlink:href="#m7d49c0b554" y="123.492819"/>
      </g>
     </g>
    </g>
    <g id="xtick_83">
     <g id="line2d_104">
      <g>
       <use style="stroke:#000000;stroke-width:2;" x="1141.640302" xlink:href="#m7d49c0b554" y="123.492819"/>
      </g>
     </g>
    </g>
    <g id="xtick_84">
     <g id="line2d_105">
      <g>
       <use style="stroke:#000000;stroke-width:2;" x="1151.068892" xlink:href="#m7d49c0b554" y="123.492819"/>
      </g>
     </g>
    </g>
    <g id="xtick_85">
     <g id="line2d_106">
      <g>
       <use style="stroke:#000000;stroke-width:2;" x="1159.040651" xlink:href="#m7d49c0b554" y="123.492819"/>
      </g>
     </g>
    </g>
    <g id="xtick_86">
     <g id="line2d_107">
      <g>
       <use style="stroke:#000000;stroke-width:2;" x="1165.946103" xlink:href="#m7d49c0b554" y="123.492819"/>
      </g>
     </g>
    </g>
    <g id="xtick_87">
     <g id="line2d_108">
      <g>
       <use style="stroke:#000000;stroke-width:2;" x="1172.037144" xlink:href="#m7d49c0b554" y="123.492819"/>
      </g>
     </g>
    </g>
    <g id="xtick_88">
     <g id="line2d_109">
      <g>
       <use style="stroke:#000000;stroke-width:2;" x="1177.485765" xlink:href="#m7d49c0b554" y="123.492819"/>
      </g>
     </g>
    </g>
    <g id="text_22">
     <!-- Word length (phones) -->
     <g transform="translate(962.542235 165.719382)scale(0.18 -0.18)">
      <use xlink:href="#DejaVuSans-87"/>
      <use x="98.798828" xlink:href="#DejaVuSans-111"/>
      <use x="159.980469" xlink:href="#DejaVuSans-114"/>
      <use x="201.078125" xlink:href="#DejaVuSans-100"/>
      <use x="264.554688" xlink:href="#DejaVuSans-32"/>
      <use x="296.341797" xlink:href="#DejaVuSans-108"/>
      <use x="324.125" xlink:href="#DejaVuSans-101"/>
      <use x="385.648438" xlink:href="#DejaVuSans-110"/>
      <use x="449.027344" xlink:href="#DejaVuSans-103"/>
      <use x="512.503906" xlink:href="#DejaVuSans-116"/>
      <use x="551.712891" xlink:href="#DejaVuSans-104"/>
      <use x="615.091797" xlink:href="#DejaVuSans-32"/>
      <use x="646.878906" xlink:href="#DejaVuSans-40"/>
      <use x="685.892578" xlink:href="#DejaVuSans-112"/>
      <use x="749.369141" xlink:href="#DejaVuSans-104"/>
      <use x="812.748047" xlink:href="#DejaVuSans-111"/>
      <use x="873.929688" xlink:href="#DejaVuSans-110"/>
      <use x="937.308594" xlink:href="#DejaVuSans-101"/>
      <use x="998.832031" xlink:href="#DejaVuSans-115"/>
      <use x="1050.931641" xlink:href="#DejaVuSans-41"/>
     </g>
    </g>
   </g>
   <g id="matplotlib.axis_8">
    <g id="ytick_16">
     <g id="line2d_110">
      <g>
       <use style="stroke:#000000;stroke-width:3;" x="939.333668" xlink:href="#m9ee2c2c5fb" y="123.492819"/>
      </g>
     </g>
    </g>
    <g id="ytick_17">
     <g id="line2d_111">
      <g>
       <use style="stroke:#000000;stroke-width:3;" x="939.333668" xlink:href="#m9ee2c2c5fb" y="93.949341"/>
      </g>
     </g>
    </g>
    <g id="ytick_18">
     <g id="line2d_112">
      <g>
       <use style="stroke:#000000;stroke-width:3;" x="939.333668" xlink:href="#m9ee2c2c5fb" y="64.405863"/>
      </g>
     </g>
    </g>
    <g id="ytick_19">
     <g id="line2d_113">
      <g>
       <use style="stroke:#000000;stroke-width:3;" x="939.333668" xlink:href="#m9ee2c2c5fb" y="34.862385"/>
      </g>
     </g>
    </g>
    <g id="ytick_20">
     <g id="line2d_114">
      <g>
       <use style="stroke:#000000;stroke-width:3;" x="939.333668" xlink:href="#m9ee2c2c5fb" y="5.318906"/>
      </g>
     </g>
    </g>
   </g>
   <g id="line2d_115">
    <path clip-path="url(#p1248cb2579)" d="M 885.565475 123.402688 
L 893.567156 123.186969 
L 899.568417 122.818887 
L 903.569258 122.417943 
L 907.570099 121.85743 
L 911.570939 121.116785 
L 915.57178 120.191123 
L 921.573041 118.490624 
L 927.574302 116.508408 
L 933.575563 114.314374 
L 937.576404 112.695053 
L 941.577244 110.853181 
L 945.578085 108.659371 
L 947.578505 107.385986 
L 949.578926 105.973344 
L 951.579346 104.409019 
L 953.579766 102.68519 
L 955.580187 100.799711 
L 959.581027 96.567745 
L 963.581868 91.828165 
L 975.58439 76.984479 
L 977.58481 74.8075 
L 979.585231 72.810767 
L 981.585651 71.024294 
L 983.586071 69.474418 
L 985.586492 68.183543 
L 987.586912 67.169979 
L 989.587332 66.447808 
L 991.587753 66.026762 
L 993.588173 65.912074 
L 995.588593 66.104327 
L 997.589013 66.599309 
L 999.589434 67.387934 
L 1001.589854 68.456251 
L 1003.590274 69.785607 
L 1005.590695 71.352979 
L 1007.591115 73.131507 
L 1011.591956 77.199835 
L 1015.592796 81.729676 
L 1025.594898 93.411266 
L 1029.595739 97.708036 
L 1033.596579 101.614964 
L 1037.59742 105.094476 
L 1041.598261 108.150591 
L 1045.599101 110.812293 
L 1049.599942 113.118701 
L 1053.600783 115.108633 
L 1057.601623 116.815275 
L 1061.602464 118.265187 
L 1065.603305 119.480064 
L 1069.604145 120.479538 
L 1073.604986 121.283638 
L 1077.605827 121.914168 
L 1083.607088 122.586685 
L 1089.608349 123.005168 
L 1097.61003 123.300589 
L 1109.612552 123.45505 
L 1133.617596 123.470421 
L 1139.618857 123.42833 
L 1139.618857 123.42833 
" style="fill:none;stroke:#55a868;stroke-linecap:square;stroke-width:6;"/>
   </g>
   <g id="line2d_116">
    <path clip-path="url(#p1248cb2579)" d="M 996.147382 123.492819 
L 996.147382 5.318906 
" style="fill:none;stroke:#55a868;stroke-dasharray:11.1,4.8;stroke-dashoffset:0;stroke-opacity:0.5;stroke-width:3;"/>
   </g>
   <g id="patch_90">
    <path d="M 939.333668 123.492819 
L 939.333668 5.318906 
" style="fill:none;stroke:#000000;stroke-linecap:square;stroke-linejoin:miter;stroke-width:3;"/>
   </g>
   <g id="patch_91">
    <path d="M 1181.942364 123.492819 
L 1181.942364 5.318906 
" style="fill:none;stroke:#000000;stroke-linecap:square;stroke-linejoin:miter;stroke-width:3;"/>
   </g>
   <g id="patch_92">
    <path d="M 939.333668 123.492819 
L 1181.942364 123.492819 
" style="fill:none;stroke:#000000;stroke-linecap:square;stroke-linejoin:miter;stroke-width:3;"/>
   </g>
   <g id="patch_93">
    <path d="M 939.333668 5.318906 
L 1181.942364 5.318906 
" style="fill:none;stroke:#000000;stroke-linecap:square;stroke-linejoin:miter;stroke-width:3;"/>
   </g>
  </g>
 </g>
 <defs>
  <clipPath id="p99d1e25412">
   <rect height="118.173913" width="242.608696" x="65.942364" y="5.318906"/>
  </clipPath>
  <clipPath id="pb67c7d2b5d">
   <rect height="118.173913" width="242.608696" x="357.072799" y="5.318906"/>
  </clipPath>
  <clipPath id="pc8fc0f5da1">
   <rect height="118.173913" width="242.608696" x="648.203234" y="5.318906"/>
  </clipPath>
  <clipPath id="p1248cb2579">
   <rect height="118.173913" width="242.608696" x="939.333668" y="5.318906"/>
  </clipPath>
 </defs>
</svg>
